<svg version="1.1" id="Layer_1" xmlns="http://www.w3.org/2000/svg" xmlns:xlink="http://www.w3.org/1999/xlink" x="0px" y="0px"
	 width="100%" viewBox="0 0 600 600" enable-background="new 0 0 600 600" xml:space="preserve">
<path fill="#FFFFFF" opacity="1.000000" stroke="none" 
	d="
M1.000000,224.000000 
	C1.000000,149.333359 1.000000,75.166710 1.000000,1.000050 
	C200.999924,1.000033 400.999847,1.000033 600.999817,1.000017 
	C600.999878,200.999863 600.999878,400.999725 600.999939,600.999634 
	C401.000214,600.999756 201.000397,600.999756 1.000301,600.999878 
	C1.000000,475.500000 1.000000,350.000000 1.000000,224.000000 
M90.058464,213.992264 
	C77.991096,215.853531 65.917755,217.677109 53.858536,219.589722 
	C46.187920,220.806305 38.521206,221.641174 31.497713,225.748459 
	C20.118736,232.402817 14.099776,245.168762 16.780647,257.569214 
	C19.114731,268.365601 20.956062,279.268951 22.989367,290.129852 
	C25.859461,305.460510 28.657124,320.804840 31.577473,336.125854 
	C33.979206,348.726135 37.113976,361.219269 38.842361,373.907227 
	C41.121502,390.638184 53.155804,402.468689 70.627930,401.878723 
	C77.408997,401.649719 84.143036,400.028046 90.990150,399.945740 
	C92.263596,409.117188 92.962898,418.413239 94.920929,427.436127 
	C100.240906,451.951477 113.416656,472.523804 129.740311,490.897888 
	C139.689468,502.096802 151.130096,512.067017 162.524704,521.863464 
	C180.747360,537.530334 200.991974,550.516724 222.293457,561.413940 
	C244.495773,572.771912 267.520355,582.551575 290.396881,592.536865 
	C294.653351,594.394714 299.223511,597.333313 304.663147,595.042664 
	C317.993500,589.429382 331.649902,584.546265 344.772766,578.496521 
	C358.666534,572.091309 372.246674,564.954224 385.676514,557.611389 
	C395.430847,552.278137 405.031769,546.538391 414.130951,540.165771 
	C424.770782,532.714233 434.777618,524.360596 445.083801,516.430420 
	C460.292816,504.727814 473.097931,490.665680 484.199860,475.159973 
	C500.454102,452.458069 510.736053,427.454041 511.925720,399.010040 
	C516.558350,399.812347 521.219604,400.478455 525.818298,401.442596 
	C539.411926,404.292511 556.741150,397.528625 560.929077,382.001343 
	C563.667419,371.848297 565.355347,361.408966 567.434753,351.081940 
	C569.998779,338.347626 572.548584,325.609680 574.981506,312.849884 
	C578.207214,295.932129 580.507080,278.789490 584.685669,262.114624 
	C589.413574,243.247543 579.226624,225.944489 560.709351,221.950775 
	C554.525330,220.617035 548.281677,219.526825 542.031006,218.542984 
	C531.730225,216.921600 521.401489,215.477371 511.007751,213.030899 
	C511.005249,176.367447 511.030182,139.703934 510.956909,103.040634 
	C510.949738,99.461624 510.648560,95.822014 509.952484,92.316025 
	C506.732086,76.095879 497.558624,64.334457 481.849884,59.106247 
	C458.201599,51.235577 434.255707,44.253330 410.400238,37.012352 
	C382.692352,28.602018 354.891205,20.494925 327.238831,11.907367 
	C313.809937,7.736973 300.378632,4.918759 286.525787,8.896112 
	C263.795288,15.422369 241.141983,22.220251 218.489227,29.013943 
	C186.440659,38.625484 154.459671,48.464054 122.375916,57.955891 
	C104.888420,63.129490 90.764145,81.880928 90.907829,100.972549 
	C91.191254,138.632416 90.943520,176.296265 90.058464,213.992264 
z"/>
<path fill="#515151" opacity="1.000000" stroke="none" 
	d="
M90.898499,399.040771 
	C84.143036,400.028046 77.408997,401.649719 70.627930,401.878723 
	C53.155804,402.468689 41.121502,390.638184 38.842361,373.907227 
	C37.113976,361.219269 33.979206,348.726135 31.577473,336.125854 
	C28.657124,320.804840 25.859461,305.460510 22.989367,290.129852 
	C20.956062,279.268951 19.114731,268.365601 16.780647,257.569214 
	C14.099776,245.168762 20.118736,232.402817 31.497713,225.748459 
	C38.521206,221.641174 46.187920,220.806305 53.858536,219.589722 
	C65.917755,217.677109 77.991096,215.853531 90.920952,213.997711 
	C96.373741,213.356888 100.986618,212.065475 105.548721,212.225113 
	C111.459274,212.431931 112.228867,209.773880 112.200645,204.732422 
	C112.014175,171.416260 112.077721,138.098526 112.117012,104.781372 
	C112.133415,90.871819 118.409904,82.031258 131.544205,78.027596 
	C183.638702,62.147839 235.718201,46.212337 287.961060,30.833622 
	C294.696716,28.850857 302.618439,28.661015 309.528870,30.008734 
	C321.204620,32.285816 332.527985,36.400181 343.969940,39.840416 
	C385.627502,52.365532 427.216278,65.124031 468.952820,77.379601 
	C483.978516,81.791779 490.022949,91.986115 489.926361,106.650307 
	C489.801270,125.640282 489.895782,144.631714 489.895874,163.622513 
	C489.895966,178.115494 489.804199,192.609894 490.024902,207.099533 
	C490.049683,208.724152 491.625763,211.502640 492.857300,211.731827 
	C498.863159,212.849594 504.996399,213.282974 511.084564,213.958466 
	C521.401489,215.477371 531.730225,216.921600 542.031006,218.542984 
	C548.281677,219.526825 554.525330,220.617035 560.709351,221.950775 
	C579.226624,225.944489 589.413574,243.247543 584.685669,262.114624 
	C580.507080,278.789490 578.207214,295.932129 574.981506,312.849884 
	C572.548584,325.609680 569.998779,338.347626 567.434753,351.081940 
	C565.355347,361.408966 563.667419,371.848297 560.929077,382.001343 
	C556.741150,397.528625 539.411926,404.292511 525.818298,401.442596 
	C521.219604,400.478455 516.558350,399.812347 511.141174,398.854858 
	C503.550781,397.782593 496.744873,396.865540 489.588104,395.774414 
	C486.305603,395.081360 483.392426,394.393646 480.439423,394.070251 
	C458.175934,391.632172 435.946320,388.721283 413.625336,387.013763 
	C385.319275,384.848358 356.954010,383.120361 328.582214,382.260071 
	C306.817230,381.600128 285.000916,382.477264 263.210724,382.859619 
	C249.078232,383.107544 234.944748,383.542175 220.824829,384.182404 
	C210.875122,384.633514 200.927597,385.367035 191.014297,386.334869 
	C173.017975,388.091919 155.033066,389.990570 137.073380,392.087158 
	C128.699799,393.064667 120.396309,394.642639 111.620453,395.935364 
	C104.419411,396.961731 97.658951,398.001251 90.898499,399.040771 
M181.793839,216.294510 
	C160.103363,218.528442 138.362610,220.365265 116.736015,223.103653 
	C93.298210,226.071350 69.922142,229.606476 46.605782,233.423355 
	C32.685852,235.702057 26.932638,245.160904 29.642902,259.135071 
	C33.507626,279.061584 37.213245,299.018921 41.019909,318.956787 
	C44.574612,337.574982 48.024418,356.215149 51.810860,374.786407 
	C53.849079,384.783264 62.843575,390.830872 72.370285,389.523346 
	C103.853859,385.202301 135.254883,379.952759 166.868637,376.993500 
	C202.801025,373.630035 238.907440,371.846588 274.978607,370.349304 
	C296.589417,369.452240 318.297272,369.882111 339.925903,370.680115 
	C367.029053,371.680115 394.195435,372.699219 421.153503,375.470764 
	C456.726715,379.127991 492.130951,384.443329 527.593384,389.154419 
	C540.024963,390.805908 548.367493,385.183136 550.720398,372.931763 
	C558.123474,334.383484 565.434387,295.817474 572.827332,257.267242 
	C573.910400,251.619629 573.552307,246.360992 569.837708,241.659348 
	C565.655396,236.365723 559.999634,233.899963 553.508789,233.015808 
	C521.027771,228.591370 488.599060,223.722565 456.049805,219.873962 
	C411.709351,214.631210 367.144501,212.383163 322.499603,211.842545 
	C275.843994,211.277557 229.245865,212.602554 181.793839,216.294510 
M227.471878,110.021652 
	C228.360123,107.651917 229.248367,105.282173 230.136597,102.912430 
	C230.472610,103.001846 230.808609,103.091263 231.144623,103.180679 
	C231.144623,110.083847 231.144623,116.987022 231.144623,123.709030 
	C233.482605,123.709030 235.405640,123.709030 237.366302,123.709030 
	C237.366302,113.341942 237.366302,103.288330 237.366302,93.153687 
	C236.028015,93.083641 235.014313,93.149818 234.050934,92.960197 
	C228.997559,91.965561 226.626785,94.099983 225.481415,99.072723 
	C224.330658,104.068947 222.210815,108.841965 220.180954,114.674477 
	C217.453094,106.831223 215.074203,99.991333 212.689941,93.135971 
	C209.289490,93.135971 206.153183,93.135971 202.739777,93.135971 
	C202.739777,103.378540 202.739777,113.466843 202.739777,123.680473 
	C204.782257,123.680473 206.657593,123.680473 208.936523,123.680473 
	C208.936523,116.827850 208.936523,110.301872 208.936523,103.775894 
	C211.835129,109.525726 213.771988,115.468155 216.118652,121.244087 
	C216.620331,122.478897 218.620682,123.835228 219.909180,123.814323 
	C221.195007,123.793457 223.039398,122.377991 223.610840,121.110458 
	C225.105927,117.794167 226.039658,114.224792 227.471878,110.021652 
M317.707306,116.646194 
	C317.897186,115.335297 318.214020,114.028412 318.255676,112.712822 
	C318.472961,105.845993 314.363770,101.384293 307.543304,100.991661 
	C300.112518,100.563896 295.095184,104.681892 294.606384,111.609695 
	C294.193848,117.456451 296.701172,121.542809 301.763031,123.273415 
	C308.158783,125.460060 313.654388,123.396286 317.707306,116.646194 
M363.056396,118.140854 
	C363.442963,116.542091 364.051819,114.960686 364.178192,113.341621 
	C364.767120,105.797096 360.280640,101.039566 352.678619,100.988235 
	C345.135773,100.937317 340.253082,105.684822 340.548798,112.972130 
	C340.745483,117.819534 342.669037,121.577477 347.642365,123.254601 
	C353.471130,125.220215 358.352386,123.840424 363.056396,118.140854 
M337.431305,113.491669 
	C334.321625,111.568230 331.211914,109.644783 328.102234,107.721344 
	C328.187134,107.370094 328.272064,107.018845 328.356964,106.667595 
	C331.126648,106.667595 333.896362,106.667595 336.822571,106.667595 
	C336.822571,104.954247 336.822571,103.517593 336.822571,101.415779 
	C333.574646,101.415779 330.473053,101.114761 327.457367,101.495186 
	C324.014893,101.929443 321.062195,104.174683 321.621918,107.680679 
	C322.003143,110.068794 324.513885,112.323608 326.501251,114.178658 
	C327.911774,115.495277 330.037842,116.045311 331.844543,116.937500 
	C331.707489,117.547867 331.570435,118.158241 331.433380,118.768608 
	C328.190155,118.538200 324.946960,118.307800 320.980438,118.026009 
	C321.445404,119.598930 321.872498,122.783432 322.479950,122.818207 
	C326.634521,123.056076 331.022125,123.324287 334.948914,122.216034 
	C338.436890,121.231621 338.675720,117.539566 337.431305,113.491669 
M371.822693,94.609634 
	C369.930420,96.628502 372.216949,101.384941 367.341736,101.449638 
	C367.389160,102.864578 367.278870,105.487503 367.507111,105.517303 
	C372.822662,106.211288 370.343994,110.257576 370.597046,112.847458 
	C370.944977,116.407845 370.684143,120.027718 370.684143,123.742416 
	C373.159302,123.742416 375.066620,123.742416 377.462891,123.742416 
	C377.462891,117.765244 377.462891,112.032928 377.462891,106.386436 
	C379.379944,106.065956 380.806732,105.827431 382.193237,105.595642 
	C382.193237,104.065277 382.193237,102.786224 382.193237,101.423752 
	C380.509033,101.078354 378.998047,100.768486 377.487030,100.458611 
	C377.251373,99.956871 377.015717,99.455132 376.780029,98.953392 
	C378.693756,97.667297 380.607452,96.381203 383.203186,94.636765 
	C384.041382,91.607269 381.757904,90.450546 378.409821,91.114571 
	C376.259155,91.541107 374.306030,92.963348 371.822693,94.609634 
M400.071686,104.391701 
	C401.336670,99.810646 396.731018,101.694862 395.309875,100.259506 
	C395.201080,98.159744 395.102722,96.261414 395.004364,94.363075 
	C394.465179,94.058182 393.925995,93.753288 393.386810,93.448402 
	C390.579834,96.386841 387.672119,99.240204 385.055389,102.339233 
	C384.562256,102.923233 385.046509,105.392258 385.386902,105.460533 
	C390.075958,106.401184 387.834625,110.051056 388.255066,112.562500 
	C388.663452,115.002266 388.331451,117.636559 389.091614,119.931374 
	C390.451416,124.036667 394.133026,124.615578 397.672974,123.726837 
	C398.927216,123.411934 399.658997,121.016014 400.946014,119.098221 
	C394.817993,118.253593 393.966797,115.432968 395.767914,106.435303 
	C397.211945,106.035614 398.590881,105.653931 400.071686,104.391701 
M264.137482,107.837006 
	C267.114471,107.178268 270.091492,106.519539 274.263306,105.596420 
	C273.178101,104.182152 272.222168,101.611183 270.790955,101.311714 
	C265.868439,100.281731 261.051086,101.154915 257.840057,105.570175 
	C254.835190,109.701920 254.675308,114.339684 257.096344,118.757576 
	C259.671875,123.457405 264.229828,124.362938 269.138275,123.977097 
	C272.810974,123.688393 274.632751,122.028481 273.544678,119.379890 
	C269.729065,118.421616 265.891968,118.529877 264.093231,116.668434 
	C262.643494,115.168175 263.656006,111.288574 264.137482,107.837006 
M277.931915,123.197586 
	C280.045349,123.521675 282.158783,123.845772 283.810608,124.099075 
	C287.010620,117.760994 279.628174,107.620789 291.887756,106.575966 
	C291.887756,104.679504 291.887756,102.925232 291.887756,100.284592 
	C289.282501,101.410133 287.262695,102.282745 285.242889,103.155365 
	C285.383423,102.838608 285.523926,102.521851 285.664459,102.205093 
	C283.247742,101.685692 280.831055,101.166290 277.819824,100.519112 
	C277.819824,108.404701 277.819824,115.330025 277.931915,123.197586 
M379.969910,157.461334 
	C379.969910,160.234787 379.969910,163.008255 379.969910,165.894028 
	C386.780670,166.192093 393.204285,166.898819 396.988983,160.420883 
	C399.512970,156.100769 399.605713,151.232254 396.687714,147.148239 
	C392.487732,141.270004 386.127502,143.132217 379.969910,143.148849 
	C379.969910,147.862564 379.969910,152.167953 379.969910,157.461334 
M265.013214,160.485825 
	C266.908539,162.271515 266.668396,166.535690 271.421936,165.682678 
	C269.126984,162.062042 267.019012,158.736404 264.812164,155.254745 
	C268.121979,153.212234 270.474213,150.292328 268.256470,146.295959 
	C265.186005,140.763000 259.857758,143.602341 255.372681,143.083237 
	C255.372681,150.963623 255.372681,158.433258 255.372681,165.902878 
	C255.947037,165.990128 256.521393,166.077362 257.095734,166.164597 
	C257.503906,162.969635 257.912079,159.774673 258.529907,154.938553 
	C261.024109,156.918686 262.848541,158.367096 265.013214,160.485825 
M250.711578,102.933525 
	C248.681839,102.090256 246.652115,101.246986 244.164413,100.213455 
	C244.164413,108.934761 244.164413,116.308899 244.164413,123.815933 
	C246.352402,123.815933 248.270798,123.815933 250.726746,123.815933 
	C250.726746,117.033104 250.726746,110.446655 250.711578,102.933525 
M364.330200,152.983200 
	C362.894257,152.898346 361.458313,152.813507 360.181763,152.738083 
	C360.181763,150.063812 360.181763,147.814880 360.181763,145.527969 
	C363.254913,145.228912 365.999634,144.961792 368.744324,144.694687 
	C368.709198,144.277328 368.674042,143.859955 368.638885,143.442596 
	C364.865967,143.442596 361.093079,143.442596 357.286377,143.442596 
	C357.286377,150.954544 357.286377,158.345810 357.286377,165.555969 
	C361.411804,165.555969 365.223236,165.555969 369.034668,165.555969 
	C369.081024,165.050476 369.127350,164.544983 369.173706,164.039490 
	C366.199158,163.727188 363.224609,163.414886 360.253143,163.102905 
	C360.253143,160.477646 360.253143,158.120224 360.253143,155.767303 
	C363.129395,155.539429 365.587799,155.344650 368.046204,155.149872 
	C368.057587,154.662964 368.068939,154.176056 368.080292,153.689148 
	C367.130310,153.454071 366.180359,153.218994 364.330200,152.983200 
M231.749374,143.103699 
	C231.389450,150.603470 231.029526,158.103256 230.679962,165.387115 
	C235.389130,165.387115 239.269928,165.387115 243.150726,165.387115 
	C243.160126,164.893066 243.169510,164.399017 243.178909,163.904968 
	C240.236832,163.666626 237.294739,163.428284 234.175018,163.175568 
	C234.175018,160.589417 234.175018,158.199829 234.175018,156.156067 
	C236.767563,154.491501 240.349197,157.187790 242.454041,153.265610 
	C239.240356,153.052872 236.657776,152.881912 234.152069,152.716034 
	C234.152069,150.113922 234.152069,147.865356 234.152069,145.517426 
	C237.211151,145.242126 239.980515,144.992905 242.749863,144.743683 
	C242.728104,144.162079 242.706329,143.580490 242.684570,142.998886 
	C239.354401,142.998886 236.024231,142.998886 231.749374,143.103699 
M219.712585,145.326401 
	C218.949860,144.476501 218.334991,143.143616 217.399734,142.857285 
	C212.375076,141.319077 206.607422,143.767365 204.078629,148.259995 
	C201.338654,153.127792 202.139328,159.938614 205.874542,163.536728 
	C209.862396,167.378189 216.618500,167.430069 220.163574,163.048752 
	C218.410156,163.345047 217.218552,163.558502 216.022964,163.746414 
	C209.647903,164.748352 205.209427,160.894653 205.334976,154.472916 
	C205.479385,147.085526 210.523804,143.901245 219.712585,145.326401 
M327.339935,145.232376 
	C328.516602,144.980148 329.693298,144.727905 330.869965,144.475677 
	C330.786072,144.099991 330.702209,143.724319 330.618317,143.348633 
	C326.777496,143.348633 322.936676,143.348633 319.287689,143.348633 
	C319.287689,151.128067 319.287689,158.513000 319.287689,165.897919 
	C319.870087,165.997620 320.452484,166.097305 321.034882,166.196991 
	C321.478271,162.901703 321.921692,159.606430 322.423096,155.880081 
	C323.682526,155.880081 324.974060,155.950851 326.254181,155.860199 
	C327.538971,155.769226 328.812378,155.517303 330.090759,155.335922 
	C330.095581,154.782440 330.100372,154.228943 330.105194,153.675461 
	C327.409454,153.331818 324.713715,152.988174 322.219818,152.670273 
	C322.219818,150.077347 322.219818,147.835953 322.219818,145.233032 
	C323.853821,145.233032 325.151886,145.233032 327.339935,145.232376 
M286.427429,142.969894 
	C283.602905,142.969894 280.778381,142.969894 277.953888,142.969894 
	C277.922333,143.540924 277.890778,144.111938 277.859253,144.682968 
	C279.783325,144.985062 281.707397,145.287140 283.843109,145.622467 
	C284.973053,152.381012 282.994293,159.489212 284.931030,166.070267 
	C285.632019,166.021347 286.333008,165.972412 287.033997,165.923477 
	C287.033997,159.081497 287.033997,152.239517 287.033997,145.673859 
	C289.793457,145.203598 291.815979,144.858932 293.838501,144.514267 
	C293.772705,143.999481 293.706940,143.484680 293.641144,142.969894 
	C291.553345,142.969894 289.465576,142.969894 286.427429,142.969894 
M306.275513,165.769394 
	C308.116211,156.722672 307.091125,144.192520 304.018951,143.068848 
	C304.018951,150.446472 303.999359,157.681641 304.076996,164.915741 
	C304.080872,165.276184 304.929382,165.627563 306.275513,165.769394 
M344.878448,145.852859 
	C344.404358,144.813599 343.930298,143.774353 343.456207,142.735092 
	C343.070068,142.861145 342.683899,142.987213 342.297760,143.113266 
	C342.297760,150.704971 342.297760,158.296661 342.297760,165.888367 
	C343.123749,165.971909 343.949768,166.055435 344.775757,166.138962 
	C344.991821,159.709991 344.829315,153.236603 344.878448,145.852859 
M243.770737,95.922264 
	C245.734497,96.386337 247.692719,97.075745 249.666733,97.124428 
	C250.061691,97.134163 251.213730,94.345657 250.773010,93.482239 
	C250.183731,92.327835 247.888153,90.833809 247.199432,91.187531 
	C245.667740,91.974213 244.679459,93.818954 243.770737,95.922264 
z"/>
<path fill="#002050" opacity="1.000000" stroke="none" 
	d="
M511.046143,213.494690 
	C504.996399,213.282974 498.863159,212.849594 492.857300,211.731827 
	C491.625763,211.502640 490.049683,208.724152 490.024902,207.099533 
	C489.804199,192.609894 489.895966,178.115494 489.895874,163.622513 
	C489.895782,144.631714 489.801270,125.640282 489.926361,106.650307 
	C490.022949,91.986115 483.978516,81.791779 468.952820,77.379601 
	C427.216278,65.124031 385.627502,52.365532 343.969940,39.840416 
	C332.527985,36.400181 321.204620,32.285816 309.528870,30.008734 
	C302.618439,28.661015 294.696716,28.850857 287.961060,30.833622 
	C235.718201,46.212337 183.638702,62.147839 131.544205,78.027596 
	C118.409904,82.031258 112.133415,90.871819 112.117012,104.781372 
	C112.077721,138.098526 112.014175,171.416260 112.200645,204.732422 
	C112.228867,209.773880 111.459274,212.431931 105.548721,212.225113 
	C100.986618,212.065475 96.373741,213.356888 91.349449,213.980804 
	C90.943520,176.296265 91.191254,138.632416 90.907829,100.972549 
	C90.764145,81.880928 104.888420,63.129490 122.375916,57.955891 
	C154.459671,48.464054 186.440659,38.625484 218.489227,29.013943 
	C241.141983,22.220251 263.795288,15.422369 286.525787,8.896112 
	C300.378632,4.918759 313.809937,7.736973 327.238831,11.907367 
	C354.891205,20.494925 382.692352,28.602018 410.400238,37.012352 
	C434.255707,44.253330 458.201599,51.235577 481.849884,59.106247 
	C497.558624,64.334457 506.732086,76.095879 509.952484,92.316025 
	C510.648560,95.822014 510.949738,99.461624 510.956909,103.040634 
	C511.030182,139.703934 511.005249,176.367447 511.046143,213.494690 
z"/>
<path fill="#002050" opacity="1.000000" stroke="none" 
	d="
M489.938995,395.948486 
	C496.744873,396.865540 503.550781,397.782593 510.728210,398.871368 
	C510.736053,427.454041 500.454102,452.458069 484.199860,475.159973 
	C473.097931,490.665680 460.292816,504.727814 445.083801,516.430420 
	C434.777618,524.360596 424.770782,532.714233 414.130951,540.165771 
	C405.031769,546.538391 395.430847,552.278137 385.676514,557.611389 
	C372.246674,564.954224 358.666534,572.091309 344.772766,578.496521 
	C331.649902,584.546265 317.993500,589.429382 304.663147,595.042664 
	C299.223511,597.333313 294.653351,594.394714 290.396881,592.536865 
	C267.520355,582.551575 244.495773,572.771912 222.293457,561.413940 
	C200.991974,550.516724 180.747360,537.530334 162.524704,521.863464 
	C151.130096,512.067017 139.689468,502.096802 129.740311,490.897888 
	C113.416656,472.523804 100.240906,451.951477 94.920929,427.436127 
	C92.962898,418.413239 92.263596,409.117188 90.944321,399.493256 
	C97.658951,398.001251 104.419411,396.961731 111.622772,396.394104 
	C112.497055,420.554535 120.239296,441.805573 133.624527,461.134125 
	C149.871872,484.595642 171.028290,502.973175 194.282623,519.084290 
	C226.473236,541.386658 261.314514,558.603271 297.938080,572.272278 
	C299.998444,573.041321 302.910736,572.686951 305.060333,571.880005 
	C329.401611,562.742554 352.859375,551.681885 375.430908,538.777710 
	C407.413361,520.493286 437.197815,499.366119 460.765900,470.609894 
	C478.517426,448.950623 489.768616,424.567505 489.938995,395.948486 
z"/>
<path fill="#FDFDFD" opacity="1.000000" stroke="none" 
	d="
M182.256042,216.237335 
	C229.245865,212.602554 275.843994,211.277557 322.499603,211.842545 
	C367.144501,212.383163 411.709351,214.631210 456.049805,219.873962 
	C488.599060,223.722565 521.027771,228.591370 553.508789,233.015808 
	C559.999634,233.899963 565.655396,236.365723 569.837708,241.659348 
	C573.552307,246.360992 573.910400,251.619629 572.827332,257.267242 
	C565.434387,295.817474 558.123474,334.383484 550.720398,372.931763 
	C548.367493,385.183136 540.024963,390.805908 527.593384,389.154419 
	C492.130951,384.443329 456.726715,379.127991 421.153503,375.470764 
	C394.195435,372.699219 367.029053,371.680115 339.925903,370.680115 
	C318.297272,369.882111 296.589417,369.452240 274.978607,370.349304 
	C238.907440,371.846588 202.801025,373.630035 166.868637,376.993500 
	C135.254883,379.952759 103.853859,385.202301 72.370285,389.523346 
	C62.843575,390.830872 53.849079,384.783264 51.810860,374.786407 
	C48.024418,356.215149 44.574612,337.574982 41.019909,318.956787 
	C37.213245,299.018921 33.507626,279.061584 29.642902,259.135071 
	C26.932638,245.160904 32.685852,235.702057 46.605782,233.423355 
	C69.922142,229.606476 93.298210,226.071350 116.736015,223.103653 
	C138.362610,220.365265 160.103363,218.528442 182.256042,216.237335 
M196.592255,336.936737 
	C196.795929,339.367676 196.999619,341.798584 197.230255,344.551300 
	C199.392136,344.370087 201.150589,344.222687 203.286621,344.043640 
	C202.483673,331.335388 201.702820,318.977051 200.947281,307.019135 
	C194.102280,305.265717 191.489456,308.272461 189.966537,313.982880 
	C187.988129,321.401184 185.162430,328.593475 182.452301,336.620911 
	C178.856613,329.013794 175.586868,322.135376 172.351593,315.240814 
	C169.015610,308.131561 169.030273,308.124664 160.447113,309.259033 
	C161.171997,321.592102 161.899414,333.968445 162.653229,346.793915 
	C164.803436,346.567505 166.495468,346.389343 168.467484,346.181702 
	C167.840775,336.524597 167.250610,327.430695 166.583145,317.145538 
	C167.794235,319.139465 168.523239,320.144073 169.053421,321.244507 
	C172.370987,328.130402 175.536621,335.092743 179.017120,341.894409 
	C179.770798,343.367249 181.603195,344.288147 182.938736,345.463257 
	C184.070099,344.094849 185.689865,342.900665 186.250702,341.328705 
	C189.117081,333.294373 191.710251,325.162598 194.398972,317.064880 
	C194.722641,317.116608 195.046310,317.168365 195.369980,317.220093 
	C195.758652,323.488495 196.147324,329.756897 196.592255,336.936737 
M250.987320,336.609344 
	C253.299698,340.861633 256.151855,343.919373 261.069641,341.604248 
	C261.069641,329.124390 261.069641,316.881592 261.069641,304.474976 
	C258.599518,304.474976 256.888977,304.474976 255.038635,304.474976 
	C255.038635,313.743988 255.038635,322.710724 255.038635,332.794556 
	C249.357834,324.462738 244.054123,317.245819 239.397522,309.633057 
	C236.811752,305.405762 233.820618,303.973053 229.561310,305.264557 
	C229.561310,317.763855 229.561310,330.135193 229.561310,342.874512 
	C232.064926,342.759888 233.793854,342.680725 235.418518,342.606354 
	C235.418518,332.995453 235.418518,323.857513 235.418518,314.411591 
	C235.881561,314.829712 236.022415,314.916046 236.108353,315.040344 
	C240.935669,322.023560 245.758392,329.009949 250.987320,336.609344 
M455.966461,312.227051 
	C447.219147,317.756531 443.430237,328.697479 446.959839,338.234985 
	C451.377838,350.173126 467.703064,353.655457 476.590393,344.555481 
	C482.754669,338.243652 484.143494,326.076141 479.554016,318.591278 
	C475.054413,311.252960 466.408325,308.741547 455.966461,312.227051 
M121.471176,327.145325 
	C122.201637,334.840637 122.932106,342.535919 123.700943,350.635498 
	C128.892899,350.036987 133.531265,349.778381 138.057281,348.924286 
	C148.109650,347.027405 154.495499,338.616608 153.543304,328.963287 
	C152.371796,317.086578 146.600418,311.727905 134.708755,311.857452 
	C129.959717,311.909180 125.216850,312.525665 120.206398,312.905121 
	C120.610985,317.713715 120.969543,321.975220 121.471176,327.145325 
M513.868286,332.189301 
	C517.708191,324.278717 515.096252,317.831818 507.070099,316.150391 
	C502.398834,315.171783 497.594971,314.826050 492.410431,314.137024 
	C490.808929,326.755127 489.251678,339.024506 487.639221,351.728912 
	C490.114319,351.887146 491.983368,352.006622 493.744812,352.119232 
	C494.524689,346.791718 495.215729,342.071045 495.886627,337.487823 
	C500.257751,337.193878 502.644684,339.153931 504.095001,342.550720 
	C505.137634,344.992615 506.466736,347.343506 507.226959,349.867798 
	C508.594818,354.409546 511.545837,355.662994 516.448486,354.599335 
	C513.319885,348.446838 510.268066,342.445374 507.419067,336.842682 
	C509.374115,335.518860 511.391602,334.152740 513.868286,332.189301 
M350.986969,333.478668 
	C350.986969,336.253937 350.986969,339.029236 350.986969,341.995911 
	C353.043793,341.995911 354.792084,341.995911 357.171051,341.995911 
	C357.171051,336.987457 357.171051,332.106049 357.171051,327.265198 
	C362.701447,327.117859 363.637360,327.504150 366.018433,331.282349 
	C367.519836,333.664734 368.793976,336.189941 370.179321,338.645905 
	C372.884216,343.440979 373.248932,343.587830 379.614807,342.153748 
	C375.904053,336.368866 372.298401,330.747894 368.712860,325.158234 
	C375.030457,321.970764 377.228180,318.246124 375.999664,312.453003 
	C375.002686,307.751709 370.930725,305.079651 364.034943,304.829498 
	C360.092438,304.686493 356.140533,304.803619 350.988342,304.803619 
	C350.988342,313.946106 350.988342,323.213562 350.986969,333.478668 
M310.098633,273.180450 
	C308.010040,277.123566 304.461121,277.655884 300.666595,276.810944 
	C296.706970,275.929260 295.096527,272.856689 294.812500,269.059174 
	C294.601898,266.242859 294.528778,263.412170 294.504761,260.586945 
	C294.458832,255.175476 294.491425,249.763351 294.491425,244.078033 
	C291.970032,244.215256 290.225555,244.310196 288.714630,244.392410 
	C288.714630,253.962433 288.132477,263.128143 288.899933,272.179474 
	C289.507355,279.343079 295.072693,282.907837 302.872803,282.827942 
	C310.678741,282.747955 316.385254,279.158783 316.981171,272.195374 
	C317.766907,263.014465 317.174377,253.715576 317.174377,244.402527 
	C315.435211,244.402527 313.677185,244.402527 312.024750,244.402527 
	C311.514862,253.920120 311.018646,263.182220 310.098633,273.180450 
M345.186584,265.432373 
	C346.300598,264.723572 347.437897,264.048584 348.524353,263.299805 
	C352.201447,260.765717 354.160675,256.894653 352.658966,252.969833 
	C351.506592,249.957962 348.565918,246.324829 345.716919,245.547684 
	C340.297638,244.069473 334.375031,244.436569 328.219147,244.006470 
	C328.219147,257.078583 328.219147,269.306793 328.219147,281.864410 
	C330.031403,281.864410 331.884277,281.864410 334.166870,281.864410 
	C334.166870,276.808014 334.166870,272.031799 334.166870,267.396606 
	C338.415894,266.211884 341.027283,267.837433 342.902954,271.044281 
	C344.327271,273.479523 346.034454,275.807983 347.063477,278.402985 
	C348.915497,283.073486 352.159027,283.019958 356.949005,281.834808 
	C352.910828,276.191772 349.260193,271.090302 345.186584,265.432373 
M388.282837,324.740479 
	C385.759491,330.667053 383.236115,336.593658 380.735413,342.467041 
	C389.623260,346.070953 388.388550,337.613678 391.473175,333.938019 
	C396.107910,334.149323 400.875702,334.366669 405.501770,334.577545 
	C408.164673,338.660980 406.398773,346.652039 415.307800,344.303680 
	C415.012085,343.078583 414.784637,341.809631 414.399078,340.590637 
	C411.394379,331.091461 407.946930,321.706848 405.493561,312.068665 
	C404.098511,306.588135 401.535522,304.963409 396.215881,306.365784 
	C393.733856,312.187073 391.198730,318.132904 388.282837,324.740479 
M225.015656,249.512970 
	C221.208374,260.837494 217.401093,272.162048 213.593124,283.488647 
	C222.949081,286.462677 220.747787,277.604584 223.917969,273.822327 
	C226.915771,273.822327 230.169876,274.321564 233.193756,273.700317 
	C237.293854,272.858002 239.173706,274.495605 239.904846,278.111664 
	C240.895340,283.010223 243.686111,284.068634 248.493271,282.160583 
	C243.652359,270.423828 238.925980,258.761932 233.928619,247.217331 
	C233.509705,246.249573 231.090561,245.383743 229.916046,245.687958 
	C228.201645,246.132034 226.773193,247.680054 225.015656,249.512970 
M105.940956,328.539062 
	C104.368462,325.608032 102.816582,322.665649 101.217171,319.749390 
	C99.853073,317.262207 99.266899,314.360657 94.954712,314.952057 
	C90.872131,315.511932 90.931686,318.334900 90.314293,320.897339 
	C88.132515,329.952515 86.080872,339.039276 84.021111,348.123444 
	C83.535156,350.266632 83.210243,352.446350 82.825203,354.533600 
	C92.150574,355.906738 89.147247,348.061646 91.653175,344.126526 
	C94.423912,343.751129 97.452362,343.632355 100.316505,342.884430 
	C104.613739,341.762207 107.246162,342.947174 108.503983,347.306000 
	C109.870117,352.040222 113.138512,351.511078 117.180710,349.989777 
	C113.457558,342.928284 109.843231,336.073212 105.940956,328.539062 
M253.719360,277.464752 
	C253.029160,279.126373 252.338974,280.787994 251.625153,282.506470 
	C261.914978,282.506470 271.351959,282.506470 281.266632,282.506470 
	C281.079071,280.424255 280.940918,278.890472 280.779144,277.094116 
	C274.132385,277.094116 267.962433,277.094116 261.159576,277.094116 
	C267.838440,266.078644 275.577240,256.500336 281.840637,245.136444 
	C271.370789,245.136444 262.429230,245.136444 253.255127,245.136444 
	C253.255127,247.021164 253.255127,248.571472 253.255127,250.379974 
	C259.406799,250.379974 265.305115,250.379974 272.026276,250.379974 
	C265.795959,259.558868 259.943878,268.180573 253.719360,277.464752 
M290.305603,306.776154 
	C285.192627,312.564758 285.798798,318.572296 292.149048,322.730316 
	C295.053894,324.632355 298.526154,325.729370 301.241455,327.835602 
	C302.780151,329.029144 304.204926,331.628906 304.002899,333.404358 
	C303.844421,334.797211 301.133820,336.893524 299.516022,336.931519 
	C295.414673,337.027863 291.290222,336.142670 287.162140,335.648987 
	C285.658722,340.310883 288.341492,341.997253 292.706451,342.172943 
	C295.687439,342.292908 298.708038,342.435913 301.657379,342.099487 
	C306.107971,341.591766 309.693176,339.384155 310.808533,334.814453 
	C311.946045,330.153931 310.250916,326.209656 306.170898,323.617615 
	C303.238007,321.754333 299.856537,320.538910 297.113617,318.456909 
	C295.503632,317.234863 293.449554,314.379669 293.921295,313.155579 
	C294.621246,311.339355 297.259491,309.451843 299.297333,309.159210 
	C302.441437,308.707703 305.775604,309.579895 309.198700,309.906830 
	C310.460999,305.911804 309.085571,303.306427 304.343109,303.809479 
	C299.824768,304.288757 295.377777,305.440582 290.305603,306.776154 
M370.157806,245.568298 
	C367.873535,245.568298 365.589294,245.568298 362.562256,245.568298 
	C362.562256,258.270966 362.562256,270.646973 362.562256,283.462585 
	C369.248810,283.462585 376.026764,283.462585 383.056976,283.462585 
	C382.947357,281.907196 382.837189,280.343933 382.723053,278.724060 
	C377.754303,278.441193 373.153290,278.179291 368.577148,277.918793 
	C368.577148,274.117676 368.577148,270.707825 368.577148,267.103821 
	C372.935364,267.103821 376.906799,267.103821 381.257599,267.103821 
	C381.424591,265.417816 381.575592,263.893097 381.746155,262.171082 
	C377.199585,261.953430 373.133820,261.758820 369.203857,261.570709 
	C369.203857,257.760590 369.203857,254.507706 369.203857,251.014465 
	C373.987579,251.014465 378.405029,251.014465 382.841492,251.014465 
	C382.841492,249.222809 382.841492,247.698578 382.841492,245.703537 
	C378.685760,245.703537 374.870117,245.703537 370.157806,245.568298 
M332.456665,304.530579 
	C327.351074,304.530579 322.245483,304.530579 316.868469,304.530579 
	C316.868469,306.066986 316.868469,307.595856 316.868469,309.215607 
	C320.415253,309.492676 323.648743,309.745270 327.142120,310.018188 
	C327.142120,320.945587 327.142120,331.480896 327.142120,341.907471 
	C329.223663,341.907471 330.966492,341.907471 333.454895,341.907471 
	C333.454895,331.120789 333.454895,320.607971 333.454895,309.824036 
	C337.457703,309.824036 340.715271,309.824036 344.137909,309.824036 
	C344.137909,307.983154 344.137909,306.434082 344.137909,304.531128 
	C340.359772,304.531128 336.899445,304.531128 332.456665,304.530579 
M436.672516,314.005005 
	C439.087738,314.005005 441.502991,314.005005 444.075684,314.005005 
	C444.155212,312.291901 444.221375,310.867004 444.301788,309.134949 
	C434.965027,308.514771 425.942230,307.915466 416.498047,307.288177 
	C416.401398,309.231995 416.324310,310.782745 416.232361,312.632507 
	C420.079010,312.898529 423.450439,313.131683 426.909882,313.370911 
	C426.202606,324.488892 425.532898,335.016998 424.846924,345.800293 
	C427.258331,345.800293 429.002991,345.800293 431.044098,345.800293 
	C431.705414,336.255005 432.267975,326.834167 433.118469,317.439423 
	C433.229889,316.208679 434.817841,315.111633 436.672516,314.005005 
M279.000336,323.495728 
	C279.000336,317.081360 279.000336,310.666962 279.000336,304.298950 
	C276.374512,304.298950 274.472748,304.298950 272.626740,304.298950 
	C272.626740,316.971375 272.626740,329.324951 272.626740,341.681030 
	C274.993713,341.681030 276.874908,341.681030 279.014465,341.681030 
	C279.014465,335.731476 279.014465,330.113403 279.000336,323.495728 
M216.593109,343.834320 
	C218.952118,343.862518 220.289658,343.090302 220.056625,340.336121 
	C219.707245,336.206879 219.651596,332.052826 219.471298,327.909302 
	C219.155640,320.655487 218.840179,313.401703 218.506546,305.731903 
	C216.044205,305.904358 214.157349,306.036499 213.535004,306.080078 
	C213.535004,318.157104 213.489426,329.747284 213.629776,341.335175 
	C213.639954,342.176117 215.001251,343.000702 216.593109,343.834320 
z"/>
<path fill="#0164B5" opacity="1.000000" stroke="none" 
	d="
M489.588104,395.774414 
	C489.768616,424.567505 478.517426,448.950623 460.765900,470.609894 
	C437.197815,499.366119 407.413361,520.493286 375.430908,538.777710 
	C352.859375,551.681885 329.401611,562.742554 305.060333,571.880005 
	C302.910736,572.686951 299.998444,573.041321 297.938080,572.272278 
	C261.314514,558.603271 226.473236,541.386658 194.282623,519.084290 
	C171.028290,502.973175 149.871872,484.595642 133.624527,461.134125 
	C120.239296,441.805573 112.497055,420.554535 112.063370,396.407227 
	C120.396309,394.642639 128.699799,393.064667 137.073380,392.087158 
	C155.033066,389.990570 173.017975,388.091919 191.014297,386.334869 
	C200.927597,385.367035 210.875122,384.633514 220.824829,384.182404 
	C234.944748,383.542175 249.078232,383.107544 263.210724,382.859619 
	C285.000916,382.477264 306.817230,381.600128 328.582214,382.260071 
	C356.954010,383.120361 385.319275,384.848358 413.625336,387.013763 
	C435.946320,388.721283 458.175934,391.632172 480.439423,394.070251 
	C483.392426,394.393646 486.305603,395.081360 489.588104,395.774414 
M361.885742,514.555420 
	C360.241272,509.535706 358.596832,504.515991 356.900452,499.337738 
	C364.157471,494.005493 371.230591,488.808319 379.370178,482.827576 
	C370.515137,482.827576 363.185730,482.601288 355.880646,482.924927 
	C352.332062,483.082123 350.976013,481.787781 350.037872,478.556854 
	C347.937317,471.322296 345.419189,464.208954 342.735779,456.023376 
	C339.530945,465.737396 336.727753,474.234100 333.809540,483.079346 
	C324.866119,483.079346 316.175873,483.079346 306.353638,483.079346 
	C312.399170,487.492004 317.246918,491.556000 322.599121,494.783447 
	C327.567322,497.779358 328.909424,500.859375 326.449982,506.406403 
	C323.898193,512.161743 322.472992,518.416565 320.555084,524.452942 
	C320.863525,524.603149 321.171967,524.753357 321.480438,524.903564 
	C328.581268,519.806519 335.682098,514.709412 342.780609,509.614014 
	C350.224731,514.984375 357.304047,520.091553 365.457336,525.973572 
	C364.051239,521.568604 363.055817,518.450073 361.885742,514.555420 
M259.440308,509.914124 
	C266.512726,514.907532 273.585175,519.900879 280.657593,524.894287 
	C279.321259,517.650391 277.427551,510.951599 274.936523,504.482758 
	C273.398193,500.487885 274.273376,498.229980 277.788269,495.940277 
	C283.641907,492.127075 289.165466,487.807159 294.828033,483.700623 
	C294.662872,483.409821 294.497711,483.118988 294.332550,482.828186 
	C285.695343,482.828186 277.058136,482.828186 268.132019,482.828186 
	C265.274750,474.236481 262.455750,465.759796 259.213959,456.011841 
	C256.432312,464.582916 253.949432,471.778046 251.803406,479.072296 
	C250.955078,481.955688 249.622925,482.990295 246.579926,482.900482 
	C239.044174,482.678009 231.497452,482.827423 222.540390,482.827423 
	C230.838058,488.891388 237.898529,494.051178 245.068802,499.291229 
	C242.307617,507.925201 239.619186,516.331726 236.546112,525.941040 
	C244.686264,520.107117 251.702148,515.078979 259.440308,509.914124 
M267.875671,427.211700 
	C268.349792,428.086426 268.726105,429.033905 269.313904,429.824066 
	C273.148865,434.979431 280.326782,436.649200 286.373016,433.842743 
	C291.972534,431.243652 295.021729,424.315796 293.661346,417.283752 
	C292.408325,410.806976 287.722870,406.919922 281.038422,406.811798 
	C270.268280,406.637604 265.031708,414.267303 267.875671,427.211700 
M208.958878,436.807404 
	C208.969040,435.553314 209.349915,434.154877 208.927307,433.069275 
	C206.702255,427.353027 204.284668,421.711395 201.914215,416.052155 
	C198.961456,409.002716 198.953186,409.006195 191.341034,410.636902 
	C188.681610,419.572113 186.007278,428.557434 183.281097,437.716949 
	C187.367691,438.259857 190.827774,438.767395 191.297897,433.492401 
	C191.361725,432.776337 192.791031,431.814819 193.730209,431.605896 
	C198.387939,430.569946 202.735596,430.437408 203.330978,436.856873 
	C205.173035,436.856873 206.656219,436.856873 208.958878,436.807404 
M345.175354,435.022888 
	C346.304535,433.878387 347.309082,432.560242 348.596466,431.636200 
	C349.999542,430.629150 351.725342,429.243988 353.201660,429.363831 
	C355.327545,429.536469 358.768951,430.503052 359.168304,431.860535 
	C360.546082,436.543457 363.465149,436.083282 367.478912,435.459839 
	C364.480560,426.108032 361.570740,417.032471 358.416473,407.194458 
	C355.375732,408.047852 351.339935,408.029633 350.601898,409.580658 
	C346.765991,417.641693 343.770660,426.102661 340.354187,434.749420 
	C342.045074,434.863983 343.179077,434.940796 345.175354,435.022888 
M250.504639,412.913971 
	C253.525681,412.913971 256.546722,412.913971 259.716217,412.913971 
	C260.877869,408.747284 258.908478,406.796539 254.309113,407.135468 
	C252.167862,407.293243 249.603027,406.947845 248.005066,408.003510 
	C245.607086,409.587646 243.035690,411.890198 242.094330,414.457855 
	C240.827026,417.914459 243.059036,420.850616 246.352844,422.539368 
	C248.271027,423.522827 250.425613,424.101715 252.209412,425.267334 
	C253.118210,425.861176 253.837128,427.337006 253.868820,428.436432 
	C253.885101,429.000458 252.173019,430.153778 251.292831,430.105957 
	C248.310074,429.943756 245.350006,429.364288 241.556473,428.827606 
	C242.487427,431.021942 243.265518,434.625244 244.153366,434.652466 
	C248.812759,434.795502 253.881424,434.992065 258.073120,433.323792 
	C262.508545,431.558624 262.439758,424.677734 258.481262,421.483276 
	C256.588654,419.955994 254.119736,419.152954 251.943283,417.964264 
	C250.085281,416.949493 247.618851,416.148193 250.504639,412.913971 
M225.619217,418.983856 
	C224.522888,417.613098 223.426559,416.242340 222.330231,414.871582 
	C225.689529,414.279053 229.048843,413.686523 232.980225,412.993073 
	C233.894333,409.664764 232.238617,407.566620 227.503876,407.972565 
	C225.852097,408.114166 224.148819,407.985931 222.549469,408.342072 
	C218.758301,409.186188 215.595993,411.005676 215.113220,415.301331 
	C214.613541,419.747345 217.080002,422.439758 220.981400,424.075989 
	C222.658966,424.779541 224.431473,425.362885 225.925705,426.355011 
	C226.738373,426.894623 227.618942,428.300842 227.444229,429.089050 
	C227.265808,429.894043 225.828415,430.975494 224.950317,430.968079 
	C222.055344,430.943604 219.164062,430.481079 215.339523,430.091980 
	C216.110321,432.030304 216.862656,435.621338 217.652756,435.629639 
	C222.311981,435.678772 227.367081,435.840607 231.540085,434.133759 
	C236.034912,432.295288 235.925552,425.631409 231.940964,422.333679 
	C230.319351,420.991577 228.208130,420.241089 225.619217,418.983856 
M407.359863,421.132294 
	C402.157684,421.408325 404.293396,418.126831 404.435120,415.654846 
	C407.660645,415.654846 410.603394,415.654846 413.678680,415.654846 
	C413.678680,413.891632 413.678680,412.358734 413.678680,410.352783 
	C408.287811,410.352783 403.235931,410.352783 397.858398,410.352783 
	C397.398743,419.127991 396.942017,427.846802 396.457947,437.088196 
	C402.095917,437.454437 407.430023,437.800934 412.944427,438.159149 
	C412.944427,436.031586 412.944427,434.608032 412.944427,433.105316 
	C409.660797,432.690826 406.597168,432.304108 403.483490,431.911102 
	C402.288452,423.134369 409.434540,428.508209 412.345093,426.108978 
	C412.467896,425.037384 412.629761,423.625031 412.835205,421.832611 
	C411.106476,421.610504 409.674408,421.426483 407.359863,421.132294 
M321.187408,410.573090 
	C320.392944,409.389893 319.733734,407.312866 318.782013,407.168884 
	C312.702759,406.248993 306.655731,406.386078 302.539001,411.979492 
	C298.774841,417.093811 298.434235,422.847626 301.161713,428.435455 
	C304.050781,434.354370 309.588135,435.387543 315.568237,435.001038 
	C321.171082,434.638947 321.512573,434.162659 320.488373,428.206543 
	C313.472321,430.208038 309.105042,429.685150 307.777466,425.625519 
	C306.810272,422.667908 306.607941,418.253540 308.203430,416.008606 
	C309.755524,413.824646 314.007874,413.507202 317.119019,412.508667 
	C318.436798,412.085724 320.632141,415.159149 321.187408,410.573090 
M370.800079,408.420471 
	C370.051666,409.994263 369.303223,411.568054 368.361938,413.547363 
	C371.949371,413.865875 374.335175,414.077698 376.331238,414.254913 
	C376.331238,421.878357 376.331238,428.939697 376.331238,435.994446 
	C378.304413,435.994446 380.074310,435.994446 382.174988,435.994446 
	C382.588959,428.751129 382.991394,421.709625 383.407593,414.427521 
	C386.139130,414.427521 388.403534,414.427521 390.827606,414.427521 
	C390.827606,412.597015 390.827606,411.054535 390.827606,409.335236 
	C384.206268,409.013306 377.928955,408.708130 370.800079,408.420471 
M328.809265,431.268280 
	C328.486603,436.762573 332.082886,434.507843 335.132660,434.676880 
	C335.132660,425.523529 335.132660,416.807007 335.132660,407.650940 
	C333.260864,407.471985 331.385315,407.292664 328.808777,407.046356 
	C328.808777,415.129425 328.808777,422.724182 328.809265,431.268280 
z"/>
<path fill="#F7F7F7" opacity="1.000000" stroke="none" 
	d="
M227.334518,110.388977 
	C226.039658,114.224792 225.105927,117.794167 223.610840,121.110458 
	C223.039398,122.377991 221.195007,123.793457 219.909180,123.814323 
	C218.620682,123.835228 216.620331,122.478897 216.118652,121.244087 
	C213.771988,115.468155 211.835129,109.525726 208.936523,103.775894 
	C208.936523,110.301872 208.936523,116.827850 208.936523,123.680473 
	C206.657593,123.680473 204.782257,123.680473 202.739777,123.680473 
	C202.739777,113.466843 202.739777,103.378540 202.739777,93.135971 
	C206.153183,93.135971 209.289490,93.135971 212.689941,93.135971 
	C215.074203,99.991333 217.453094,106.831223 220.180954,114.674477 
	C222.210815,108.841965 224.330658,104.068947 225.481415,99.072723 
	C226.626785,94.099983 228.997559,91.965561 234.050934,92.960197 
	C235.014313,93.149818 236.028015,93.083641 237.366302,93.153687 
	C237.366302,103.288330 237.366302,113.341942 237.366302,123.709030 
	C235.405640,123.709030 233.482605,123.709030 231.144623,123.709030 
	C231.144623,116.987022 231.144623,110.083847 231.144623,103.180679 
	C230.808609,103.091263 230.472610,103.001846 230.136597,102.912430 
	C229.248367,105.282173 228.360123,107.651917 227.334518,110.388977 
z"/>
<path fill="#FAFAFA" opacity="1.000000" stroke="none" 
	d="
M317.553406,117.023796 
	C313.654388,123.396286 308.158783,125.460060 301.763031,123.273415 
	C296.701172,121.542809 294.193848,117.456451 294.606384,111.609695 
	C295.095184,104.681892 300.112518,100.563896 307.543304,100.991661 
	C314.363770,101.384293 318.472961,105.845993 318.255676,112.712822 
	C318.214020,114.028412 317.897186,115.335297 317.553406,117.023796 
M302.454956,116.987801 
	C306.805969,120.123177 310.320343,119.518433 310.949829,115.071892 
	C311.319366,112.461472 310.318359,109.457428 309.197266,106.961220 
	C308.874725,106.242973 304.921356,106.000748 304.477753,106.704048 
	C303.044128,108.976921 302.411499,111.773865 301.611267,114.411659 
	C301.448975,114.946671 301.903168,115.668694 302.454956,116.987801 
z"/>
<path fill="#FAFAFA" opacity="1.000000" stroke="none" 
	d="
M362.872437,118.492081 
	C358.352386,123.840424 353.471130,125.220215 347.642365,123.254601 
	C342.669037,121.577477 340.745483,117.819534 340.548798,112.972130 
	C340.253082,105.684822 345.135773,100.937317 352.678619,100.988235 
	C360.280640,101.039566 364.767120,105.797096 364.178192,113.341621 
	C364.051819,114.960686 363.442963,116.542091 362.872437,118.492081 
M352.505157,119.001106 
	C357.256226,117.421997 359.231537,111.469894 356.249695,107.718002 
	C354.185669,105.121017 350.109192,105.488663 348.326538,108.432556 
	C346.037476,112.212807 347.525177,116.837517 352.505157,119.001106 
z"/>
<path fill="#F8F8F8" opacity="1.000000" stroke="none" 
	d="
M337.633423,113.835976 
	C338.675720,117.539566 338.436890,121.231621 334.948914,122.216034 
	C331.022125,123.324287 326.634521,123.056076 322.479950,122.818207 
	C321.872498,122.783432 321.445404,119.598930 320.980438,118.026009 
	C324.946960,118.307800 328.190155,118.538200 331.433380,118.768608 
	C331.570435,118.158241 331.707489,117.547867 331.844543,116.937500 
	C330.037842,116.045311 327.911774,115.495277 326.501251,114.178658 
	C324.513885,112.323608 322.003143,110.068794 321.621918,107.680679 
	C321.062195,104.174683 324.014893,101.929443 327.457367,101.495186 
	C330.473053,101.114761 333.574646,101.415779 336.822571,101.415779 
	C336.822571,103.517593 336.822571,104.954247 336.822571,106.667595 
	C333.896362,106.667595 331.126648,106.667595 328.356964,106.667595 
	C328.272064,107.018845 328.187134,107.370094 328.102234,107.721344 
	C331.211914,109.644783 334.321625,111.568230 337.633423,113.835976 
z"/>
<path fill="#FEFEFE" opacity="1.000000" stroke="none" 
	d="
M372.043518,94.274460 
	C374.306030,92.963348 376.259155,91.541107 378.409821,91.114571 
	C381.757904,90.450546 384.041382,91.607269 383.203186,94.636765 
	C380.607452,96.381203 378.693756,97.667297 376.780029,98.953392 
	C377.015717,99.455132 377.251373,99.956871 377.487030,100.458611 
	C378.998047,100.768486 380.509033,101.078354 382.193237,101.423752 
	C382.193237,102.786224 382.193237,104.065277 382.193237,105.595642 
	C380.806732,105.827431 379.379944,106.065956 377.462891,106.386436 
	C377.462891,112.032928 377.462891,117.765244 377.462891,123.742416 
	C375.066620,123.742416 373.159302,123.742416 370.684143,123.742416 
	C370.684143,120.027718 370.944977,116.407845 370.597046,112.847458 
	C370.343994,110.257576 372.822662,106.211288 367.507111,105.517303 
	C367.278870,105.487503 367.389160,102.864578 367.341736,101.449638 
	C372.216949,101.384941 369.930420,96.628502 372.043518,94.274460 
z"/>
<path fill="#F9F9F9" opacity="1.000000" stroke="none" 
	d="
M400.020752,104.831970 
	C398.590881,105.653931 397.211945,106.035614 395.767914,106.435303 
	C393.966797,115.432968 394.817993,118.253593 400.946014,119.098221 
	C399.658997,121.016014 398.927216,123.411934 397.672974,123.726837 
	C394.133026,124.615578 390.451416,124.036667 389.091614,119.931374 
	C388.331451,117.636559 388.663452,115.002266 388.255066,112.562500 
	C387.834625,110.051056 390.075958,106.401184 385.386902,105.460533 
	C385.046509,105.392258 384.562256,102.923233 385.055389,102.339233 
	C387.672119,99.240204 390.579834,96.386841 393.386810,93.448402 
	C393.925995,93.753288 394.465179,94.058182 395.004364,94.363075 
	C395.102722,96.261414 395.201080,98.159744 395.309875,100.259506 
	C396.731018,101.694862 401.336670,99.810646 400.020752,104.831970 
z"/>
<path fill="#FAFAFA" opacity="1.000000" stroke="none" 
	d="
M263.856812,108.150803 
	C263.656006,111.288574 262.643494,115.168175 264.093231,116.668434 
	C265.891968,118.529877 269.729065,118.421616 273.544678,119.379890 
	C274.632751,122.028481 272.810974,123.688393 269.138275,123.977097 
	C264.229828,124.362938 259.671875,123.457405 257.096344,118.757576 
	C254.675308,114.339684 254.835190,109.701920 257.840057,105.570175 
	C261.051086,101.154915 265.868439,100.281731 270.790955,101.311714 
	C272.222168,101.611183 273.178101,104.182152 274.263306,105.596420 
	C270.091492,106.519539 267.114471,107.178268 263.856812,108.150803 
z"/>
<path fill="#F8F8F8" opacity="1.000000" stroke="none" 
	d="
M277.875854,122.726471 
	C277.819824,115.330025 277.819824,108.404701 277.819824,100.519112 
	C280.831055,101.166290 283.247742,101.685692 285.664459,102.205093 
	C285.523926,102.521851 285.383423,102.838608 285.242889,103.155365 
	C287.262695,102.282745 289.282501,101.410133 291.887756,100.284592 
	C291.887756,102.925232 291.887756,104.679504 291.887756,106.575966 
	C279.628174,107.620789 287.010620,117.760994 283.810608,124.099075 
	C282.158783,123.845772 280.045349,123.521675 277.875854,122.726471 
z"/>
<path fill="#F3F3F3" opacity="1.000000" stroke="none" 
	d="
M379.969910,156.967346 
	C379.969910,152.167953 379.969910,147.862564 379.969910,143.148849 
	C386.127502,143.132217 392.487732,141.270004 396.687714,147.148239 
	C399.605713,151.232254 399.512970,156.100769 396.988983,160.420883 
	C393.204285,166.898819 386.780670,166.192093 379.969910,165.894028 
	C379.969910,163.008255 379.969910,160.234787 379.969910,156.967346 
M395.278015,157.529663 
	C396.868042,148.286407 392.584991,144.107208 383.102173,145.832382 
	C383.102173,151.558136 383.102173,157.311142 383.102173,163.390228 
	C388.202393,163.779312 392.660217,163.563797 395.278015,157.529663 
z"/>
<path fill="#F5F5F5" opacity="1.000000" stroke="none" 
	d="
M264.843079,160.150665 
	C262.848541,158.367096 261.024109,156.918686 258.529907,154.938553 
	C257.912079,159.774673 257.503906,162.969635 257.095734,166.164597 
	C256.521393,166.077362 255.947037,165.990128 255.372681,165.902878 
	C255.372681,158.433258 255.372681,150.963623 255.372681,143.083237 
	C259.857758,143.602341 265.186005,140.763000 268.256470,146.295959 
	C270.474213,150.292328 268.121979,153.212234 264.812164,155.254745 
	C267.019012,158.736404 269.126984,162.062042 271.421936,165.682678 
	C266.668396,166.535690 266.908539,162.271515 264.843079,160.150665 
M257.823975,151.262726 
	C257.961639,155.422501 261.182495,154.149109 262.750336,153.342331 
	C264.241882,152.574829 266.002167,150.075912 265.771820,148.638260 
	C265.080505,144.323593 261.402832,145.369522 258.053436,145.287460 
	C257.966797,147.174484 257.893250,148.776535 257.823975,151.262726 
z"/>
<path fill="#F5F5F5" opacity="1.000000" stroke="none" 
	d="
M250.719162,103.396866 
	C250.726746,110.446655 250.726746,117.033104 250.726746,123.815933 
	C248.270798,123.815933 246.352402,123.815933 244.164413,123.815933 
	C244.164413,116.308899 244.164413,108.934761 244.164413,100.213455 
	C246.652115,101.246986 248.681839,102.090256 250.719162,103.396866 
z"/>
<path fill="#F8F8F8" opacity="1.000000" stroke="none" 
	d="
M364.780304,152.983551 
	C366.180359,153.218994 367.130310,153.454071 368.080292,153.689148 
	C368.068939,154.176056 368.057587,154.662964 368.046204,155.149872 
	C365.587799,155.344650 363.129395,155.539429 360.253143,155.767303 
	C360.253143,158.120224 360.253143,160.477646 360.253143,163.102905 
	C363.224609,163.414886 366.199158,163.727188 369.173706,164.039490 
	C369.127350,164.544983 369.081024,165.050476 369.034668,165.555969 
	C365.223236,165.555969 361.411804,165.555969 357.286377,165.555969 
	C357.286377,158.345810 357.286377,150.954544 357.286377,143.442596 
	C361.093079,143.442596 364.865967,143.442596 368.638885,143.442596 
	C368.674042,143.859955 368.709198,144.277328 368.744324,144.694687 
	C365.999634,144.961792 363.254913,145.228912 360.181763,145.527969 
	C360.181763,147.814880 360.181763,150.063812 360.181763,152.738083 
	C361.458313,152.813507 362.894257,152.898346 364.780304,152.983551 
z"/>
<path fill="#F8F8F8" opacity="1.000000" stroke="none" 
	d="
M232.221710,143.051300 
	C236.024231,142.998886 239.354401,142.998886 242.684570,142.998886 
	C242.706329,143.580490 242.728104,144.162079 242.749863,144.743683 
	C239.980515,144.992905 237.211151,145.242126 234.152069,145.517426 
	C234.152069,147.865356 234.152069,150.113922 234.152069,152.716034 
	C236.657776,152.881912 239.240356,153.052872 242.454041,153.265610 
	C240.349197,157.187790 236.767563,154.491501 234.175018,156.156067 
	C234.175018,158.199829 234.175018,160.589417 234.175018,163.175568 
	C237.294739,163.428284 240.236832,163.666626 243.178909,163.904968 
	C243.169510,164.399017 243.160126,164.893066 243.150726,165.387115 
	C239.269928,165.387115 235.389130,165.387115 230.679962,165.387115 
	C231.029526,158.103256 231.389450,150.603470 232.221710,143.051300 
z"/>
<path fill="#F3F3F3" opacity="1.000000" stroke="none" 
	d="
M219.404999,145.555939 
	C210.523804,143.901245 205.479385,147.085526 205.334976,154.472916 
	C205.209427,160.894653 209.647903,164.748352 216.022964,163.746414 
	C217.218552,163.558502 218.410156,163.345047 220.163574,163.048752 
	C216.618500,167.430069 209.862396,167.378189 205.874542,163.536728 
	C202.139328,159.938614 201.338654,153.127792 204.078629,148.259995 
	C206.607422,143.767365 212.375076,141.319077 217.399734,142.857285 
	C218.334991,143.143616 218.949860,144.476501 219.404999,145.555939 
z"/>
<path fill="#EFEFEF" opacity="1.000000" stroke="none" 
	d="
M326.894958,145.232697 
	C325.151886,145.233032 323.853821,145.233032 322.219818,145.233032 
	C322.219818,147.835953 322.219818,150.077347 322.219818,152.670273 
	C324.713715,152.988174 327.409454,153.331818 330.105194,153.675461 
	C330.100372,154.228943 330.095581,154.782440 330.090759,155.335922 
	C328.812378,155.517303 327.538971,155.769226 326.254181,155.860199 
	C324.974060,155.950851 323.682526,155.880081 322.423096,155.880081 
	C321.921692,159.606430 321.478271,162.901703 321.034882,166.196991 
	C320.452484,166.097305 319.870087,165.997620 319.287689,165.897919 
	C319.287689,158.513000 319.287689,151.128067 319.287689,143.348633 
	C322.936676,143.348633 326.777496,143.348633 330.618317,143.348633 
	C330.702209,143.724319 330.786072,144.099991 330.869965,144.475677 
	C329.693298,144.727905 328.516602,144.980148 326.894958,145.232697 
z"/>
<path fill="#F3F3F3" opacity="1.000000" stroke="none" 
	d="
M286.902588,142.969894 
	C289.465576,142.969894 291.553345,142.969894 293.641144,142.969894 
	C293.706940,143.484680 293.772705,143.999481 293.838501,144.514267 
	C291.815979,144.858932 289.793457,145.203598 287.033997,145.673859 
	C287.033997,152.239517 287.033997,159.081497 287.033997,165.923477 
	C286.333008,165.972412 285.632019,166.021347 284.931030,166.070267 
	C282.994293,159.489212 284.973053,152.381012 283.843109,145.622467 
	C281.707397,145.287140 279.783325,144.985062 277.859253,144.682968 
	C277.890778,144.111938 277.922333,143.540924 277.953888,142.969894 
	C280.778381,142.969894 283.602905,142.969894 286.902588,142.969894 
z"/>
<path fill="#EFEFEF" opacity="1.000000" stroke="none" 
	d="
M305.830048,165.876282 
	C304.929382,165.627563 304.080872,165.276184 304.076996,164.915741 
	C303.999359,157.681641 304.018951,150.446472 304.018951,143.068848 
	C307.091125,144.192520 308.116211,156.722672 305.830048,165.876282 
z"/>
<path fill="#EFEFEF" opacity="1.000000" stroke="none" 
	d="
M344.879181,146.320526 
	C344.829315,153.236603 344.991821,159.709991 344.775757,166.138962 
	C343.949768,166.055435 343.123749,165.971909 342.297760,165.888367 
	C342.297760,158.296661 342.297760,150.704971 342.297760,143.113266 
	C342.683899,142.987213 343.070068,142.861145 343.456207,142.735092 
	C343.930298,143.774353 344.404358,144.813599 344.879181,146.320526 
z"/>
<path fill="#F5F5F5" opacity="1.000000" stroke="none" 
	d="
M243.620209,95.577347 
	C244.679459,93.818954 245.667740,91.974213 247.199432,91.187531 
	C247.888153,90.833809 250.183731,92.327835 250.773010,93.482239 
	C251.213730,94.345657 250.061691,97.134163 249.666733,97.124428 
	C247.692719,97.075745 245.734497,96.386337 243.620209,95.577347 
z"/>
<path fill="#2F2F2F" opacity="1.000000" stroke="none" 
	d="
M196.564117,336.481018 
	C196.147324,329.756897 195.758652,323.488495 195.369980,317.220093 
	C195.046310,317.168365 194.722641,317.116608 194.398972,317.064880 
	C191.710251,325.162598 189.117081,333.294373 186.250702,341.328705 
	C185.689865,342.900665 184.070099,344.094849 182.938736,345.463257 
	C181.603195,344.288147 179.770798,343.367249 179.017120,341.894409 
	C175.536621,335.092743 172.370987,328.130402 169.053421,321.244507 
	C168.523239,320.144073 167.794235,319.139465 166.583145,317.145538 
	C167.250610,327.430695 167.840775,336.524597 168.467484,346.181702 
	C166.495468,346.389343 164.803436,346.567505 162.653229,346.793915 
	C161.899414,333.968445 161.171997,321.592102 160.447113,309.259033 
	C169.030273,308.124664 169.015610,308.131561 172.351593,315.240814 
	C175.586868,322.135376 178.856613,329.013794 182.452301,336.620911 
	C185.162430,328.593475 187.988129,321.401184 189.966537,313.982880 
	C191.489456,308.272461 194.102280,305.265717 200.947281,307.019135 
	C201.702820,318.977051 202.483673,331.335388 203.286621,344.043640 
	C201.150589,344.222687 199.392136,344.370087 197.230255,344.551300 
	C196.999619,341.798584 196.795929,339.367676 196.564117,336.481018 
z"/>
<path fill="#2F2F2F" opacity="1.000000" stroke="none" 
	d="
M250.784454,336.302673 
	C245.758392,329.009949 240.935669,322.023560 236.108353,315.040344 
	C236.022415,314.916046 235.881561,314.829712 235.418518,314.411591 
	C235.418518,323.857513 235.418518,332.995453 235.418518,342.606354 
	C233.793854,342.680725 232.064926,342.759888 229.561310,342.874512 
	C229.561310,330.135193 229.561310,317.763855 229.561310,305.264557 
	C233.820618,303.973053 236.811752,305.405762 239.397522,309.633057 
	C244.054123,317.245819 249.357834,324.462738 255.038635,332.794556 
	C255.038635,322.710724 255.038635,313.743988 255.038635,304.474976 
	C256.888977,304.474976 258.599518,304.474976 261.069641,304.474976 
	C261.069641,316.881592 261.069641,329.124390 261.069641,341.604248 
	C256.151855,343.919373 253.299698,340.861633 250.784454,336.302673 
z"/>
<path fill="#2F2F2F" opacity="1.000000" stroke="none" 
	d="
M456.319763,312.086060 
	C466.408325,308.741547 475.054413,311.252960 479.554016,318.591278 
	C484.143494,326.076141 482.754669,338.243652 476.590393,344.555481 
	C467.703064,353.655457 451.377838,350.173126 446.959839,338.234985 
	C443.430237,328.697479 447.219147,317.756531 456.319763,312.086060 
M452.429596,331.369232 
	C452.537323,332.354431 452.558594,333.358337 452.766815,334.321838 
	C454.114105,340.555878 457.894623,343.906921 463.616547,343.997131 
	C469.359406,344.087616 473.598022,340.887878 474.842468,334.783661 
	C475.488495,331.614868 475.534241,328.185638 475.115692,324.969818 
	C474.467133,319.987183 471.223053,317.051331 466.266022,316.169800 
	C461.543121,315.329834 456.777985,317.492096 454.662750,321.999908 
	C453.431183,324.624512 453.142670,327.691589 452.429596,331.369232 
z"/>
<path fill="#2E2E2E" opacity="1.000000" stroke="none" 
	d="
M121.399635,326.691010 
	C120.969543,321.975220 120.610985,317.713715 120.206398,312.905121 
	C125.216850,312.525665 129.959717,311.909180 134.708755,311.857452 
	C146.600418,311.727905 152.371796,317.086578 153.543304,328.963287 
	C154.495499,338.616608 148.109650,347.027405 138.057281,348.924286 
	C133.531265,349.778381 128.892899,350.036987 123.700943,350.635498 
	C122.932106,342.535919 122.201637,334.840637 121.399635,326.691010 
M146.533020,326.351105 
	C143.650925,317.680603 136.684204,314.805634 126.900513,318.470367 
	C127.726837,327.083893 128.560440,335.773315 129.389999,344.420471 
	C143.267044,344.272827 147.783676,339.656525 146.533020,326.351105 
z"/>
<path fill="#2F2F2F" opacity="1.000000" stroke="none" 
	d="
M513.638672,332.487976 
	C511.391602,334.152740 509.374115,335.518860 507.419067,336.842682 
	C510.268066,342.445374 513.319885,348.446838 516.448486,354.599335 
	C511.545837,355.662994 508.594818,354.409546 507.226959,349.867798 
	C506.466736,347.343506 505.137634,344.992615 504.095001,342.550720 
	C502.644684,339.153931 500.257751,337.193878 495.886627,337.487823 
	C495.215729,342.071045 494.524689,346.791718 493.744812,352.119232 
	C491.983368,352.006622 490.114319,351.887146 487.639221,351.728912 
	C489.251678,339.024506 490.808929,326.755127 492.410431,314.137024 
	C497.594971,314.826050 502.398834,315.171783 507.070099,316.150391 
	C515.096252,317.831818 517.708191,324.278717 513.638672,332.487976 
M499.513672,320.121307 
	C498.305267,323.857513 497.096832,327.593719 495.704437,331.898804 
	C498.785034,332.311615 500.693481,332.777466 502.602081,332.778046 
	C506.226501,332.779144 508.537598,330.929688 508.973846,327.231781 
	C509.427704,323.384705 507.382568,321.405701 503.754791,320.779663 
	C502.617432,320.583435 501.481964,320.376434 499.513672,320.121307 
z"/>
<path fill="#2F2F2F" opacity="1.000000" stroke="none" 
	d="
M350.987671,332.979858 
	C350.988342,323.213562 350.988342,313.946106 350.988342,304.803619 
	C356.140533,304.803619 360.092438,304.686493 364.034943,304.829498 
	C370.930725,305.079651 375.002686,307.751709 375.999664,312.453003 
	C377.228180,318.246124 375.030457,321.970764 368.712860,325.158234 
	C372.298401,330.747894 375.904053,336.368866 379.614807,342.153748 
	C373.248932,343.587830 372.884216,343.440979 370.179321,338.645905 
	C368.793976,336.189941 367.519836,333.664734 366.018433,331.282349 
	C363.637360,327.504150 362.701447,327.117859 357.171051,327.265198 
	C357.171051,332.106049 357.171051,336.987457 357.171051,341.995911 
	C354.792084,341.995911 353.043793,341.995911 350.986969,341.995911 
	C350.986969,339.029236 350.986969,336.253937 350.987671,332.979858 
M361.489471,322.000641 
	C367.266144,321.734741 370.051056,319.343933 369.642853,315.001160 
	C369.233459,310.645874 366.049591,309.325073 358.020264,310.246826 
	C357.846832,313.183563 357.824890,316.164307 357.452515,319.100647 
	C357.105225,321.839172 358.514465,322.213684 361.489471,322.000641 
z"/>
<path fill="#333333" opacity="1.000000" stroke="none" 
	d="
M310.310547,272.812378 
	C311.018646,263.182220 311.514862,253.920120 312.024750,244.402527 
	C313.677185,244.402527 315.435211,244.402527 317.174377,244.402527 
	C317.174377,253.715576 317.766907,263.014465 316.981171,272.195374 
	C316.385254,279.158783 310.678741,282.747955 302.872803,282.827942 
	C295.072693,282.907837 289.507355,279.343079 288.899933,272.179474 
	C288.132477,263.128143 288.714630,253.962433 288.714630,244.392410 
	C290.225555,244.310196 291.970032,244.215256 294.491425,244.078033 
	C294.491425,249.763351 294.458832,255.175476 294.504761,260.586945 
	C294.528778,263.412170 294.601898,266.242859 294.812500,269.059174 
	C295.096527,272.856689 296.706970,275.929260 300.666595,276.810944 
	C304.461121,277.655884 308.010040,277.123566 310.310547,272.812378 
z"/>
<path fill="#2E2E2E" opacity="1.000000" stroke="none" 
	d="
M345.398071,265.710571 
	C349.260193,271.090302 352.910828,276.191772 356.949005,281.834808 
	C352.159027,283.019958 348.915497,283.073486 347.063477,278.402985 
	C346.034454,275.807983 344.327271,273.479523 342.902954,271.044281 
	C341.027283,267.837433 338.415894,266.211884 334.166870,267.396606 
	C334.166870,272.031799 334.166870,276.808014 334.166870,281.864410 
	C331.884277,281.864410 330.031403,281.864410 328.219147,281.864410 
	C328.219147,269.306793 328.219147,257.078583 328.219147,244.006470 
	C334.375031,244.436569 340.297638,244.069473 345.716919,245.547684 
	C348.565918,246.324829 351.506592,249.957962 352.658966,252.969833 
	C354.160675,256.894653 352.201447,260.765717 348.524353,263.299805 
	C347.437897,264.048584 346.300598,264.723572 345.398071,265.710571 
M337.519470,261.851227 
	C340.232727,260.711395 343.531250,260.143555 345.426483,258.204285 
	C346.463257,257.143433 345.931091,252.451141 344.698608,251.696884 
	C341.929199,250.002029 338.281433,249.742493 334.161438,248.685883 
	C334.161438,253.196381 333.957123,256.184753 334.275665,259.116364 
	C334.382660,260.101196 335.820190,260.941467 337.519470,261.851227 
z"/>
<path fill="#303030" opacity="1.000000" stroke="none" 
	d="
M388.473206,324.409607 
	C391.198730,318.132904 393.733856,312.187073 396.215881,306.365784 
	C401.535522,304.963409 404.098511,306.588135 405.493561,312.068665 
	C407.946930,321.706848 411.394379,331.091461 414.399078,340.590637 
	C414.784637,341.809631 415.012085,343.078583 415.307800,344.303680 
	C406.398773,346.652039 408.164673,338.660980 405.501770,334.577545 
	C400.875702,334.366669 396.107910,334.149323 391.473175,333.938019 
	C388.388550,337.613678 389.623260,346.070953 380.735413,342.467041 
	C383.236115,336.593658 385.759491,330.667053 388.473206,324.409607 
M397.016632,318.546631 
	C395.709778,321.910614 394.402924,325.274597 392.962860,328.981506 
	C396.908844,328.981506 400.357056,328.981506 404.313934,328.981506 
	C402.741241,323.577881 401.252808,318.463837 399.557587,312.639252 
	C398.588898,314.833466 397.927917,316.330719 397.016632,318.546631 
z"/>
<path fill="#303030" opacity="1.000000" stroke="none" 
	d="
M225.119263,249.135223 
	C226.773193,247.680054 228.201645,246.132034 229.916046,245.687958 
	C231.090561,245.383743 233.509705,246.249573 233.928619,247.217331 
	C238.925980,258.761932 243.652359,270.423828 248.493271,282.160583 
	C243.686111,284.068634 240.895340,283.010223 239.904846,278.111664 
	C239.173706,274.495605 237.293854,272.858002 233.193756,273.700317 
	C230.169876,274.321564 226.915771,273.822327 223.917969,273.822327 
	C220.747787,277.604584 222.949081,286.462677 213.593124,283.488647 
	C217.401093,272.162048 221.208374,260.837494 225.119263,249.135223 
M225.780212,265.288147 
	C225.550980,266.359589 225.321762,267.431000 225.094147,268.494873 
	C228.813110,268.494873 232.223877,268.494873 236.295700,268.494873 
	C234.173630,263.017731 232.261414,258.082245 229.878036,251.930679 
	C228.306351,257.023865 227.154007,260.758148 225.780212,265.288147 
z"/>
<path fill="#303030" opacity="1.000000" stroke="none" 
	d="
M106.084930,328.878601 
	C109.843231,336.073212 113.457558,342.928284 117.180710,349.989777 
	C113.138512,351.511078 109.870117,352.040222 108.503983,347.306000 
	C107.246162,342.947174 104.613739,341.762207 100.316505,342.884430 
	C97.452362,343.632355 94.423912,343.751129 91.653175,344.126526 
	C89.147247,348.061646 92.150574,355.906738 82.825203,354.533600 
	C83.210243,352.446350 83.535156,350.266632 84.021111,348.123444 
	C86.080872,339.039276 88.132515,329.952515 90.314293,320.897339 
	C90.931686,318.334900 90.872131,315.511932 94.954712,314.952057 
	C99.266899,314.360657 99.853073,317.262207 101.217171,319.749390 
	C102.816582,322.665649 104.368462,325.608032 106.084930,328.878601 
M96.999344,338.151581 
	C99.047508,337.902069 101.095665,337.652557 103.705185,337.334656 
	C100.881645,331.757751 98.457596,326.969849 95.623154,321.371399 
	C94.397766,327.759979 93.384544,333.042389 92.377693,338.291626 
	C93.136246,338.507416 93.452568,338.693848 93.745468,338.662354 
	C94.568596,338.573822 95.382072,338.395508 96.999344,338.151581 
z"/>
<path fill="#2F2F2F" opacity="1.000000" stroke="none" 
	d="
M253.905579,277.133514 
	C259.943878,268.180573 265.795959,259.558868 272.026276,250.379974 
	C265.305115,250.379974 259.406799,250.379974 253.255127,250.379974 
	C253.255127,248.571472 253.255127,247.021164 253.255127,245.136444 
	C262.429230,245.136444 271.370789,245.136444 281.840637,245.136444 
	C275.577240,256.500336 267.838440,266.078644 261.159576,277.094116 
	C267.962433,277.094116 274.132385,277.094116 280.779144,277.094116 
	C280.940918,278.890472 281.079071,280.424255 281.266632,282.506470 
	C271.351959,282.506470 261.914978,282.506470 251.625153,282.506470 
	C252.338974,280.787994 253.029160,279.126373 253.905579,277.133514 
z"/>
<path fill="#2F2F2F" opacity="1.000000" stroke="none" 
	d="
M290.602509,306.536438 
	C295.377777,305.440582 299.824768,304.288757 304.343109,303.809479 
	C309.085571,303.306427 310.460999,305.911804 309.198700,309.906830 
	C305.775604,309.579895 302.441437,308.707703 299.297333,309.159210 
	C297.259491,309.451843 294.621246,311.339355 293.921295,313.155579 
	C293.449554,314.379669 295.503632,317.234863 297.113617,318.456909 
	C299.856537,320.538910 303.238007,321.754333 306.170898,323.617615 
	C310.250916,326.209656 311.946045,330.153931 310.808533,334.814453 
	C309.693176,339.384155 306.107971,341.591766 301.657379,342.099487 
	C298.708038,342.435913 295.687439,342.292908 292.706451,342.172943 
	C288.341492,341.997253 285.658722,340.310883 287.162140,335.648987 
	C291.290222,336.142670 295.414673,337.027863 299.516022,336.931519 
	C301.133820,336.893524 303.844421,334.797211 304.002899,333.404358 
	C304.204926,331.628906 302.780151,329.029144 301.241455,327.835602 
	C298.526154,325.729370 295.053894,324.632355 292.149048,322.730316 
	C285.798798,318.572296 285.192627,312.564758 290.602509,306.536438 
z"/>
<path fill="#2C2C2C" opacity="1.000000" stroke="none" 
	d="
M370.606140,245.635925 
	C374.870117,245.703537 378.685760,245.703537 382.841492,245.703537 
	C382.841492,247.698578 382.841492,249.222809 382.841492,251.014465 
	C378.405029,251.014465 373.987579,251.014465 369.203857,251.014465 
	C369.203857,254.507706 369.203857,257.760590 369.203857,261.570709 
	C373.133820,261.758820 377.199585,261.953430 381.746155,262.171082 
	C381.575592,263.893097 381.424591,265.417816 381.257599,267.103821 
	C376.906799,267.103821 372.935364,267.103821 368.577148,267.103821 
	C368.577148,270.707825 368.577148,274.117676 368.577148,277.918793 
	C373.153290,278.179291 377.754303,278.441193 382.723053,278.724060 
	C382.837189,280.343933 382.947357,281.907196 383.056976,283.462585 
	C376.026764,283.462585 369.248810,283.462585 362.562256,283.462585 
	C362.562256,270.646973 362.562256,258.270966 362.562256,245.568298 
	C365.589294,245.568298 367.873535,245.568298 370.606140,245.635925 
z"/>
<path fill="#2E2E2E" opacity="1.000000" stroke="none" 
	d="
M332.947876,304.530853 
	C336.899445,304.531128 340.359772,304.531128 344.137909,304.531128 
	C344.137909,306.434082 344.137909,307.983154 344.137909,309.824036 
	C340.715271,309.824036 337.457703,309.824036 333.454895,309.824036 
	C333.454895,320.607971 333.454895,331.120789 333.454895,341.907471 
	C330.966492,341.907471 329.223663,341.907471 327.142120,341.907471 
	C327.142120,331.480896 327.142120,320.945587 327.142120,310.018188 
	C323.648743,309.745270 320.415253,309.492676 316.868469,309.215607 
	C316.868469,307.595856 316.868469,306.066986 316.868469,304.530579 
	C322.245483,304.530579 327.351074,304.530579 332.947876,304.530853 
z"/>
<path fill="#2E2E2E" opacity="1.000000" stroke="none" 
	d="
M436.197205,313.978821 
	C434.817841,315.111633 433.229889,316.208679 433.118469,317.439423 
	C432.267975,326.834167 431.705414,336.255005 431.044098,345.800293 
	C429.002991,345.800293 427.258331,345.800293 424.846924,345.800293 
	C425.532898,335.016998 426.202606,324.488892 426.909882,313.370911 
	C423.450439,313.131683 420.079010,312.898529 416.232361,312.632507 
	C416.324310,310.782745 416.401398,309.231995 416.498047,307.288177 
	C425.942230,307.915466 434.965027,308.514771 444.301788,309.134949 
	C444.221375,310.867004 444.155212,312.291901 444.075684,314.005005 
	C441.502991,314.005005 439.087738,314.005005 436.197205,313.978821 
z"/>
<path fill="#303030" opacity="1.000000" stroke="none" 
	d="
M279.007385,323.995514 
	C279.014465,330.113403 279.014465,335.731476 279.014465,341.681030 
	C276.874908,341.681030 274.993713,341.681030 272.626740,341.681030 
	C272.626740,329.324951 272.626740,316.971375 272.626740,304.298950 
	C274.472748,304.298950 276.374512,304.298950 279.000336,304.298950 
	C279.000336,310.666962 279.000336,317.081360 279.007385,323.995514 
z"/>
<path fill="#2F2F2F" opacity="1.000000" stroke="none" 
	d="
M216.163742,343.833618 
	C215.001251,343.000702 213.639954,342.176117 213.629776,341.335175 
	C213.489426,329.747284 213.535004,318.157104 213.535004,306.080078 
	C214.157349,306.036499 216.044205,305.904358 218.506546,305.731903 
	C218.840179,313.401703 219.155640,320.655487 219.471298,327.909302 
	C219.651596,332.052826 219.707245,336.206879 220.056625,340.336121 
	C220.289658,343.090302 218.952118,343.862518 216.163742,343.833618 
z"/>
<path fill="#FBFCFE" opacity="1.000000" stroke="none" 
	d="
M361.973053,514.943481 
	C363.055817,518.450073 364.051239,521.568604 365.457336,525.973572 
	C357.304047,520.091553 350.224731,514.984375 342.780609,509.614014 
	C335.682098,514.709412 328.581268,519.806519 321.480438,524.903564 
	C321.171967,524.753357 320.863525,524.603149 320.555084,524.452942 
	C322.472992,518.416565 323.898193,512.161743 326.449982,506.406403 
	C328.909424,500.859375 327.567322,497.779358 322.599121,494.783447 
	C317.246918,491.556000 312.399170,487.492004 306.353638,483.079346 
	C316.175873,483.079346 324.866119,483.079346 333.809540,483.079346 
	C336.727753,474.234100 339.530945,465.737396 342.735779,456.023376 
	C345.419189,464.208954 347.937317,471.322296 350.037872,478.556854 
	C350.976013,481.787781 352.332062,483.082123 355.880646,482.924927 
	C363.185730,482.601288 370.515137,482.827576 379.370178,482.827576 
	C371.230591,488.808319 364.157471,494.005493 356.900452,499.337738 
	C358.596832,504.515991 360.241272,509.535706 361.973053,514.943481 
z"/>
<path fill="#FBFCFE" opacity="1.000000" stroke="none" 
	d="
M259.079163,509.982483 
	C251.702148,515.078979 244.686264,520.107117 236.546112,525.941040 
	C239.619186,516.331726 242.307617,507.925201 245.068802,499.291229 
	C237.898529,494.051178 230.838058,488.891388 222.540390,482.827423 
	C231.497452,482.827423 239.044174,482.678009 246.579926,482.900482 
	C249.622925,482.990295 250.955078,481.955688 251.803406,479.072296 
	C253.949432,471.778046 256.432312,464.582916 259.213959,456.011841 
	C262.455750,465.759796 265.274750,474.236481 268.132019,482.828186 
	C277.058136,482.828186 285.695343,482.828186 294.332550,482.828186 
	C294.497711,483.118988 294.662872,483.409821 294.828033,483.700623 
	C289.165466,487.807159 283.641907,492.127075 277.788269,495.940277 
	C274.273376,498.229980 273.398193,500.487885 274.936523,504.482758 
	C277.427551,510.951599 279.321259,517.650391 280.657593,524.894287 
	C273.585175,519.900879 266.512726,514.907532 259.079163,509.982483 
z"/>
<path fill="#F4F8FC" opacity="1.000000" stroke="none" 
	d="
M267.715515,426.834198 
	C265.031708,414.267303 270.268280,406.637604 281.038422,406.811798 
	C287.722870,406.919922 292.408325,410.806976 293.661346,417.283752 
	C295.021729,424.315796 291.972534,431.243652 286.373016,433.842743 
	C280.326782,436.649200 273.148865,434.979431 269.313904,429.824066 
	C268.726105,429.033905 268.349792,428.086426 267.715515,426.834198 
M286.986572,420.578308 
	C286.282288,413.657410 281.734802,410.175018 277.149078,413.208221 
	C273.011169,415.945343 273.078979,420.209656 274.115967,424.376404 
	C274.970215,427.808929 277.435120,429.767944 281.116302,429.301636 
	C285.665955,428.725311 286.847351,425.401123 286.986572,420.578308 
z"/>
<path fill="#F4F9FC" opacity="1.000000" stroke="none" 
	d="
M208.549133,436.832153 
	C206.656219,436.856873 205.173035,436.856873 203.330978,436.856873 
	C202.735596,430.437408 198.387939,430.569946 193.730209,431.605896 
	C192.791031,431.814819 191.361725,432.776337 191.297897,433.492401 
	C190.827774,438.767395 187.367691,438.259857 183.281097,437.716949 
	C186.007278,428.557434 188.681610,419.572113 191.341034,410.636902 
	C198.953186,409.006195 198.961456,409.002716 201.914215,416.052155 
	C204.284668,421.711395 206.702255,427.353027 208.927307,433.069275 
	C209.349915,434.154877 208.969040,435.553314 208.549133,436.832153 
M197.232864,420.490814 
	C196.715103,419.343475 196.197342,418.196167 195.383423,416.392578 
	C194.448914,420.214569 193.730194,423.154022 192.896927,426.562012 
	C195.368652,426.318054 197.177444,426.139526 199.253616,425.934631 
	C198.535156,423.931976 198.039169,422.549469 197.232864,420.490814 
z"/>
<path fill="#F5F9FC" opacity="1.000000" stroke="none" 
	d="
M344.744202,435.020264 
	C343.179077,434.940796 342.045074,434.863983 340.354187,434.749420 
	C343.770660,426.102661 346.765991,417.641693 350.601898,409.580658 
	C351.339935,408.029633 355.375732,408.047852 358.416473,407.194458 
	C361.570740,417.032471 364.480560,426.108032 367.478912,435.459839 
	C363.465149,436.083282 360.546082,436.543457 359.168304,431.860535 
	C358.768951,430.503052 355.327545,429.536469 353.201660,429.363831 
	C351.725342,429.243988 349.999542,430.629150 348.596466,431.636200 
	C347.309082,432.560242 346.304535,433.878387 344.744202,435.020264 
M352.072327,420.597839 
	C351.799316,421.641205 351.526306,422.684540 351.183624,423.994232 
	C353.219116,424.167694 354.944122,424.314697 357.393799,424.523438 
	C356.419739,420.949493 355.593597,417.918335 354.567841,414.154694 
	C353.632141,416.547180 352.979004,418.217194 352.072327,420.597839 
z"/>
<path fill="#EFF5FA" opacity="1.000000" stroke="none" 
	d="
M250.155685,413.090393 
	C247.618851,416.148193 250.085281,416.949493 251.943283,417.964264 
	C254.119736,419.152954 256.588654,419.955994 258.481262,421.483276 
	C262.439758,424.677734 262.508545,431.558624 258.073120,433.323792 
	C253.881424,434.992065 248.812759,434.795502 244.153366,434.652466 
	C243.265518,434.625244 242.487427,431.021942 241.556473,428.827606 
	C245.350006,429.364288 248.310074,429.943756 251.292831,430.105957 
	C252.173019,430.153778 253.885101,429.000458 253.868820,428.436432 
	C253.837128,427.337006 253.118210,425.861176 252.209412,425.267334 
	C250.425613,424.101715 248.271027,423.522827 246.352844,422.539368 
	C243.059036,420.850616 240.827026,417.914459 242.094330,414.457855 
	C243.035690,411.890198 245.607086,409.587646 248.005066,408.003510 
	C249.603027,406.947845 252.167862,407.293243 254.309113,407.135468 
	C258.908478,406.796539 260.877869,408.747284 259.716217,412.913971 
	C256.546722,412.913971 253.525681,412.913971 250.155685,413.090393 
z"/>
<path fill="#F2F7FB" opacity="1.000000" stroke="none" 
	d="
M225.969452,419.102661 
	C228.208130,420.241089 230.319351,420.991577 231.940964,422.333679 
	C235.925552,425.631409 236.034912,432.295288 231.540085,434.133759 
	C227.367081,435.840607 222.311981,435.678772 217.652756,435.629639 
	C216.862656,435.621338 216.110321,432.030304 215.339523,430.091980 
	C219.164062,430.481079 222.055344,430.943604 224.950317,430.968079 
	C225.828415,430.975494 227.265808,429.894043 227.444229,429.089050 
	C227.618942,428.300842 226.738373,426.894623 225.925705,426.355011 
	C224.431473,425.362885 222.658966,424.779541 220.981400,424.075989 
	C217.080002,422.439758 214.613541,419.747345 215.113220,415.301331 
	C215.595993,411.005676 218.758301,409.186188 222.549469,408.342072 
	C224.148819,407.985931 225.852097,408.114166 227.503876,407.972565 
	C232.238617,407.566620 233.894333,409.664764 232.980225,412.993073 
	C229.048843,413.686523 225.689529,414.279053 222.330231,414.871582 
	C223.426559,416.242340 224.522888,417.613098 225.969452,419.102661 
z"/>
<path fill="#EDF4FA" opacity="1.000000" stroke="none" 
	d="
M407.801086,421.187378 
	C409.674408,421.426483 411.106476,421.610504 412.835205,421.832611 
	C412.629761,423.625031 412.467896,425.037384 412.345093,426.108978 
	C409.434540,428.508209 402.288452,423.134369 403.483490,431.911102 
	C406.597168,432.304108 409.660797,432.690826 412.944427,433.105316 
	C412.944427,434.608032 412.944427,436.031586 412.944427,438.159149 
	C407.430023,437.800934 402.095917,437.454437 396.457947,437.088196 
	C396.942017,427.846802 397.398743,419.127991 397.858398,410.352783 
	C403.235931,410.352783 408.287811,410.352783 413.678680,410.352783 
	C413.678680,412.358734 413.678680,413.891632 413.678680,415.654846 
	C410.603394,415.654846 407.660645,415.654846 404.435120,415.654846 
	C404.293396,418.126831 402.157684,421.408325 407.801086,421.187378 
z"/>
<path fill="#F3F8FC" opacity="1.000000" stroke="none" 
	d="
M321.181366,411.030487 
	C320.632141,415.159149 318.436798,412.085724 317.119019,412.508667 
	C314.007874,413.507202 309.755524,413.824646 308.203430,416.008606 
	C306.607941,418.253540 306.810272,422.667908 307.777466,425.625519 
	C309.105042,429.685150 313.472321,430.208038 320.488373,428.206543 
	C321.512573,434.162659 321.171082,434.638947 315.568237,435.001038 
	C309.588135,435.387543 304.050781,434.354370 301.161713,428.435455 
	C298.434235,422.847626 298.774841,417.093811 302.539001,411.979492 
	C306.655731,406.386078 312.702759,406.248993 318.782013,407.168884 
	C319.733734,407.312866 320.392944,409.389893 321.181366,411.030487 
z"/>
<path fill="#F0F6FB" opacity="1.000000" stroke="none" 
	d="
M371.225861,408.411713 
	C377.928955,408.708130 384.206268,409.013306 390.827606,409.335236 
	C390.827606,411.054535 390.827606,412.597015 390.827606,414.427521 
	C388.403534,414.427521 386.139130,414.427521 383.407593,414.427521 
	C382.991394,421.709625 382.588959,428.751129 382.174988,435.994446 
	C380.074310,435.994446 378.304413,435.994446 376.331238,435.994446 
	C376.331238,428.939697 376.331238,421.878357 376.331238,414.254913 
	C374.335175,414.077698 371.949371,413.865875 368.361938,413.547363 
	C369.303223,411.568054 370.051666,409.994263 371.225861,408.411713 
z"/>
<path fill="#F3F8FC" opacity="1.000000" stroke="none" 
	d="
M328.809021,430.793640 
	C328.808777,422.724182 328.808777,415.129425 328.808777,407.046356 
	C331.385315,407.292664 333.260864,407.471985 335.132660,407.650940 
	C335.132660,416.807007 335.132660,425.523529 335.132660,434.676880 
	C332.082886,434.507843 328.486603,436.762573 328.809021,430.793640 
z"/>
<path fill="#585858" opacity="1.000000" stroke="none" 
	d="
M302.264038,116.646149 
	C301.903168,115.668694 301.448975,114.946671 301.611267,114.411659 
	C302.411499,111.773865 303.044128,108.976921 304.477753,106.704048 
	C304.921356,106.000748 308.874725,106.242973 309.197266,106.961220 
	C310.318359,109.457428 311.319366,112.461472 310.949829,115.071892 
	C310.320343,119.518433 306.805969,120.123177 302.264038,116.646149 
z"/>
<path fill="#585858" opacity="1.000000" stroke="none" 
	d="
M352.112732,118.991791 
	C347.525177,116.837517 346.037476,112.212807 348.326538,108.432556 
	C350.109192,105.488663 354.185669,105.121017 356.249695,107.718002 
	C359.231537,111.469894 357.256226,117.421997 352.112732,118.991791 
z"/>
<path fill="#575757" opacity="1.000000" stroke="none" 
	d="
M395.156982,157.901398 
	C392.660217,163.563797 388.202393,163.779312 383.102173,163.390228 
	C383.102173,157.311142 383.102173,151.558136 383.102173,145.832382 
	C392.584991,144.107208 396.868042,148.286407 395.156982,157.901398 
z"/>
<path fill="#5C5C5C" opacity="1.000000" stroke="none" 
	d="
M257.821838,150.820648 
	C257.893250,148.776535 257.966797,147.174484 258.053436,145.287460 
	C261.402832,145.369522 265.080505,144.323593 265.771820,148.638260 
	C266.002167,150.075912 264.241882,152.574829 262.750336,153.342331 
	C261.182495,154.149109 257.961639,155.422501 257.821838,150.820648 
z"/>
<path fill="#F9F9F9" opacity="1.000000" stroke="none" 
	d="
M452.429749,330.964417 
	C453.142670,327.691589 453.431183,324.624512 454.662750,321.999908 
	C456.777985,317.492096 461.543121,315.329834 466.266022,316.169800 
	C471.223053,317.051331 474.467133,319.987183 475.115692,324.969818 
	C475.534241,328.185638 475.488495,331.614868 474.842468,334.783661 
	C473.598022,340.887878 469.359406,344.087616 463.616547,343.997131 
	C457.894623,343.906921 454.114105,340.555878 452.766815,334.321838 
	C452.558594,333.358337 452.537323,332.354431 452.429749,330.964417 
z"/>
<path fill="#F9F9F9" opacity="1.000000" stroke="none" 
	d="
M146.637207,326.756805 
	C147.783676,339.656525 143.267044,344.272827 129.389999,344.420471 
	C128.560440,335.773315 127.726837,327.083893 126.900513,318.470367 
	C136.684204,314.805634 143.650925,317.680603 146.637207,326.756805 
z"/>
<path fill="#F5F5F5" opacity="1.000000" stroke="none" 
	d="
M499.929626,320.147827 
	C501.481964,320.376434 502.617432,320.583435 503.754791,320.779663 
	C507.382568,321.405701 509.427704,323.384705 508.973846,327.231781 
	C508.537598,330.929688 506.226501,332.779144 502.602081,332.778046 
	C500.693481,332.777466 498.785034,332.311615 495.704437,331.898804 
	C497.096832,327.593719 498.305267,323.857513 499.929626,320.147827 
z"/>
<path fill="#F8F8F8" opacity="1.000000" stroke="none" 
	d="
M361.068115,322.000610 
	C358.514465,322.213684 357.105225,321.839172 357.452515,319.100647 
	C357.824890,316.164307 357.846832,313.183563 358.020264,310.246826 
	C366.049591,309.325073 369.233459,310.645874 369.642853,315.001160 
	C370.051056,319.343933 367.266144,321.734741 361.068115,322.000610 
z"/>
<path fill="#EFEFEF" opacity="1.000000" stroke="none" 
	d="
M337.084534,261.849487 
	C335.820190,260.941467 334.382660,260.101196 334.275665,259.116364 
	C333.957123,256.184753 334.161438,253.196381 334.161438,248.685883 
	C338.281433,249.742493 341.929199,250.002029 344.698608,251.696884 
	C345.931091,252.451141 346.463257,257.143433 345.426483,258.204285 
	C343.531250,260.143555 340.232727,260.711395 337.084534,261.849487 
z"/>
<path fill="#F5F5F5" opacity="1.000000" stroke="none" 
	d="
M397.141785,318.187317 
	C397.927917,316.330719 398.588898,314.833466 399.557587,312.639252 
	C401.252808,318.463837 402.741241,323.577881 404.313934,328.981506 
	C400.357056,328.981506 396.908844,328.981506 392.962860,328.981506 
	C394.402924,325.274597 395.709778,321.910614 397.141785,318.187317 
z"/>
<path fill="#ECECEC" opacity="1.000000" stroke="none" 
	d="
M225.890930,264.890289 
	C227.154007,260.758148 228.306351,257.023865 229.878036,251.930679 
	C232.261414,258.082245 234.173630,263.017731 236.295700,268.494873 
	C232.223877,268.494873 228.813110,268.494873 225.094147,268.494873 
	C225.321762,267.431000 225.550980,266.359589 225.890930,264.890289 
z"/>
<path fill="#EFEFEF" opacity="1.000000" stroke="none" 
	d="
M96.599350,338.202087 
	C95.382072,338.395508 94.568596,338.573822 93.745468,338.662354 
	C93.452568,338.693848 93.136246,338.507416 92.377693,338.291626 
	C93.384544,333.042389 94.397766,327.759979 95.623154,321.371399 
	C98.457596,326.969849 100.881645,331.757751 103.705185,337.334656 
	C101.095665,337.652557 99.047508,337.902069 96.599350,338.202087 
z"/>
<path fill="#0567B6" opacity="1.000000" stroke="none" 
	d="
M286.986389,420.996887 
	C286.847351,425.401123 285.665955,428.725311 281.116302,429.301636 
	C277.435120,429.767944 274.970215,427.808929 274.115967,424.376404 
	C273.078979,420.209656 273.011169,415.945343 277.149078,413.208221 
	C281.734802,410.175018 286.282288,413.657410 286.986389,420.996887 
z"/>
<path fill="#1A74BD" opacity="1.000000" stroke="none" 
	d="
M197.388031,420.828857 
	C198.039169,422.549469 198.535156,423.931976 199.253616,425.934631 
	C197.177444,426.139526 195.368652,426.318054 192.896927,426.562012 
	C193.730194,423.154022 194.448914,420.214569 195.383423,416.392578 
	C196.197342,418.196167 196.715103,419.343475 197.388031,420.828857 
z"/>
<path fill="#1A74BD" opacity="1.000000" stroke="none" 
	d="
M352.199097,420.242523 
	C352.979004,418.217194 353.632141,416.547180 354.567841,414.154694 
	C355.593597,417.918335 356.419739,420.949493 357.393799,424.523438 
	C354.944122,424.314697 353.219116,424.167694 351.183624,423.994232 
	C351.526306,422.684540 351.799316,421.641205 352.199097,420.242523 
z"/>
</svg>