<svg version="1.1" id="Layer_1" xmlns="http://www.w3.org/2000/svg" xmlns:xlink="http://www.w3.org/1999/xlink" x="0px" y="0px"
	 width="100%" viewBox="0 0 600 600" enable-background="new 0 0 600 600" xml:space="preserve">
<path fill="#FFFFFF" opacity="1.000000" stroke="none" 
	d="
M601.000000,222.000000 
	C601.000000,348.666656 601.000000,474.833344 601.000000,601.000000 
	C401.000000,601.000000 201.000000,601.000000 1.000000,601.000000 
	C1.000000,401.000000 1.000000,201.000000 1.000000,1.000000 
	C201.000000,1.000000 401.000000,1.000000 601.000000,1.000000 
	C601.000000,74.500000 601.000000,148.000000 601.000000,222.000000 
M511.959290,399.014465 
	C515.663940,399.535645 519.358765,400.145081 523.075073,400.562408 
	C537.724060,402.207520 551.583801,401.497498 559.912354,383.530914 
	C562.305115,378.369110 562.958069,372.353912 564.101013,366.668121 
	C567.812622,348.204193 571.452271,329.725067 574.985474,311.226166 
	C578.460632,293.031525 581.228943,274.682343 585.327515,256.632599 
	C588.599609,242.222839 578.292297,227.079697 566.607544,223.257828 
	C556.817932,220.055862 546.345947,218.891190 536.138306,217.031540 
	C527.823730,215.516724 519.453186,214.308517 511.010040,212.036987 
	C511.006805,174.393494 511.108246,136.749557 510.954285,99.106682 
	C510.881805,81.379112 498.912354,63.575974 481.269714,58.047466 
	C461.020874,51.702282 440.611755,45.870762 420.312744,39.683331 
	C388.481781,29.980820 356.711548,20.078154 324.848541,10.482762 
	C319.158630,8.769269 313.188934,7.704862 307.270538,7.087122 
	C294.191620,5.721998 281.822388,8.991572 269.383606,12.878658 
	C235.163818,23.572231 200.763016,33.687191 166.423599,43.996983 
	C152.871170,48.065865 139.310013,52.107918 125.720192,56.049614 
	C104.436577,62.222889 90.892090,79.525887 90.958931,101.538033 
	C91.071716,138.679718 90.928276,175.822159 90.075241,213.022598 
	C87.666267,213.370071 85.251854,213.683807 82.849220,214.070648 
	C70.637550,216.036911 58.464748,218.287842 46.210999,219.939499 
	C26.989603,222.530334 12.786848,239.728485 16.754477,257.454956 
	C21.685684,279.486511 24.945480,301.889099 29.083200,324.102325 
	C32.264957,341.183533 35.721474,358.213318 38.993458,375.277954 
	C41.784122,389.832397 53.793461,402.043488 69.371948,400.978027 
	C76.558731,400.486481 83.727440,399.730713 90.990768,399.996307 
	C91.723038,407.149475 91.764999,414.455353 93.307518,421.429321 
	C99.858200,451.045776 115.404251,475.845337 136.151215,497.419006 
	C145.017471,506.638580 154.897919,514.942078 164.751343,523.140381 
	C183.469498,538.714478 204.082016,551.650024 225.666153,562.681335 
	C246.431686,573.294189 268.011322,582.348328 289.450165,591.583801 
	C294.373474,593.704651 299.640350,596.630493 305.717834,594.042786 
	C318.581207,588.565674 331.891144,584.045349 344.440918,577.945374 
	C362.429535,569.201721 380.136292,559.809204 397.534454,549.937744 
	C417.774750,538.453613 436.543915,524.667114 453.472137,508.727753 
	C463.746918,499.053192 473.313904,488.427551 481.970917,477.275879 
	C499.746552,454.377869 510.390411,428.504791 511.959290,399.014465 
z"/>
<path fill="#515151" opacity="1.000000" stroke="none" 
	d="
M511.107483,212.964355 
	C519.453186,214.308517 527.823730,215.516724 536.138306,217.031540 
	C546.345947,218.891190 556.817932,220.055862 566.607544,223.257828 
	C578.292297,227.079697 588.599609,242.222839 585.327515,256.632599 
	C581.228943,274.682343 578.460632,293.031525 574.985474,311.226166 
	C571.452271,329.725067 567.812622,348.204193 564.101013,366.668121 
	C562.958069,372.353912 562.305115,378.369110 559.912354,383.530914 
	C551.583801,401.497498 537.724060,402.207520 523.075073,400.562408 
	C519.358765,400.145081 515.663940,399.535645 511.294495,398.738342 
	C503.723511,397.342102 496.817291,396.222046 489.511047,395.030273 
	C482.713409,393.991089 476.344757,392.719971 469.913361,392.107330 
	C437.350739,389.005524 404.808044,385.560303 372.186096,383.261261 
	C349.632660,381.671753 326.964691,381.605713 304.342041,381.150085 
	C295.375000,380.969482 286.392303,381.583130 277.416412,381.823883 
	C261.607208,382.247925 245.796173,382.611328 229.989334,383.109558 
	C224.177353,383.292755 218.364319,383.660645 212.570496,384.161163 
	C194.537445,385.718994 176.486816,387.134827 158.493851,389.076721 
	C142.989395,390.750092 127.554573,393.068726 111.662811,395.069702 
	C104.459213,396.389832 97.681778,397.742279 90.904343,399.094727 
	C83.727440,399.730713 76.558731,400.486481 69.371948,400.978027 
	C53.793461,402.043488 41.784122,389.832397 38.993458,375.277954 
	C35.721474,358.213318 32.264957,341.183533 29.083200,324.102325 
	C24.945480,301.889099 21.685684,279.486511 16.754477,257.454956 
	C12.786848,239.728485 26.989603,222.530334 46.210999,219.939499 
	C58.464748,218.287842 70.637550,216.036911 82.849220,214.070648 
	C85.251854,213.683807 87.666267,213.370071 90.936996,213.038986 
	C98.487556,212.312561 105.176346,211.569748 112.104286,210.800385 
	C112.104286,208.079483 112.104279,206.096024 112.104279,204.112579 
	C112.104294,171.116211 112.084908,138.119843 112.112831,105.123497 
	C112.126030,89.532425 118.024017,81.574478 132.944839,76.913986 
	C138.173782,75.280739 143.442932,73.776665 148.686325,72.189125 
	C193.518616,58.615341 238.400177,45.200584 283.147705,31.352798 
	C295.744141,27.454645 307.690552,27.715944 320.195374,31.784946 
	C343.094452,39.236191 366.245483,45.914242 389.299316,52.888657 
	C416.960419,61.256893 444.639648,69.565254 472.289551,77.970299 
	C480.729767,80.535950 486.342194,86.183479 488.599518,94.691742 
	C489.565033,98.330948 489.832306,102.243912 489.842896,106.034088 
	C489.934692,138.863556 489.895782,171.693375 489.895782,204.523087 
	C489.895782,206.473892 489.895752,208.424683 489.895752,210.971329 
	C497.328888,211.669739 504.218201,212.317047 511.107483,212.964355 
M451.903961,218.714325 
	C418.361298,216.446884 384.847961,213.123260 351.268250,212.191437 
	C313.178406,211.134460 274.966003,210.902130 236.922623,212.725677 
	C194.897217,214.740128 152.955902,219.024323 111.071007,223.243484 
	C89.248024,225.441788 67.587868,229.402267 45.925991,232.999268 
	C32.971703,235.150345 26.858110,244.915848 29.469732,257.774445 
	C30.726887,263.964172 31.819933,270.187134 33.000805,276.392487 
	C39.127228,308.586182 45.191353,340.791992 51.423271,372.965271 
	C53.616360,384.287415 62.631805,390.316650 73.634750,388.800385 
	C105.771820,384.371735 137.862717,379.465851 170.104080,375.966675 
	C232.102554,369.238007 294.317535,367.977905 356.625214,370.516144 
	C413.415253,372.829651 469.801727,378.884216 525.852478,388.207977 
	C540.532043,390.649841 548.294067,385.081421 551.023315,370.589722 
	C558.104004,332.993683 565.276123,295.414642 572.522766,257.850281 
	C575.017456,244.918716 569.093628,234.940811 556.146423,233.042542 
	C521.745911,227.998856 487.261627,223.526443 451.903961,218.714325 
M208.849503,111.550461 
	C208.849503,108.622437 208.849503,105.694412 208.849503,102.766388 
	C211.571701,107.812767 213.344223,113.077263 215.327240,118.261238 
	C216.127792,120.354034 215.938950,123.161484 219.762985,123.154724 
	C223.490356,123.148132 223.444000,120.608665 224.226639,118.390594 
	C226.165253,112.896294 228.096207,107.399307 230.030228,101.903397 
	C230.411133,101.998169 230.792038,102.092949 231.172943,102.187721 
	C231.172943,109.095871 231.172943,116.004028 231.172943,122.699944 
	C233.499390,122.699944 235.420715,122.699944 237.367523,122.699944 
	C237.367523,112.330086 237.367523,102.282700 237.367523,92.154861 
	C236.031433,92.084412 235.018936,92.148933 234.055969,91.960503 
	C229.017761,90.974594 226.630035,93.076019 225.486771,98.058884 
	C224.339157,103.060669 222.213257,107.838005 220.180267,113.678505 
	C217.461121,105.852737 215.085541,99.015793 212.762405,92.329727 
	C209.234650,92.329727 206.006348,92.329727 202.847198,92.329727 
	C202.847198,102.716866 202.847198,112.750107 202.847198,123.057121 
	C204.995651,122.958313 206.745560,122.877831 208.849472,122.781067 
	C208.849472,119.120399 208.849472,115.819466 208.849503,111.550461 
M340.591003,110.738991 
	C341.049774,118.820496 344.326782,122.580910 351.282318,123.007446 
	C358.095917,123.425278 363.094543,119.846764 364.062256,113.858269 
	C365.232666,106.615417 361.848694,101.283600 355.177704,100.146126 
	C348.462097,99.001060 341.035980,102.370461 340.591003,110.738991 
M317.707245,115.646156 
	C317.897125,114.335266 318.213928,113.028397 318.255554,111.712814 
	C318.472870,104.846016 314.363739,100.384392 307.543304,99.991737 
	C300.112549,99.563950 295.095337,103.681854 294.606506,110.609695 
	C294.193970,116.456436 296.701233,120.542694 301.763092,122.273331 
	C308.158661,124.459969 313.654388,122.396118 317.707245,115.646156 
M334.092133,100.147926 
	C331.952881,100.209457 329.772125,100.029251 327.683807,100.387627 
	C324.319214,100.965027 321.780212,102.788475 321.432312,106.477112 
	C321.076508,110.249260 323.380127,112.175934 326.636414,113.388885 
	C328.390381,114.042229 330.045746,114.960327 331.745605,115.758972 
	C331.634613,116.419441 331.523621,117.079910 331.412628,117.740379 
	C328.131195,117.542915 324.849731,117.345451 321.537506,117.146133 
	C320.106567,121.494034 322.585999,122.982239 326.540192,122.959839 
	C328.824829,122.946892 331.535309,123.085373 333.278564,121.957222 
	C335.348907,120.617355 337.648132,118.091331 337.857788,115.889793 
	C338.034210,114.037468 335.642395,111.597572 333.862183,110.005013 
	C332.296844,108.604683 330.003357,108.018333 328.031433,107.072495 
	C328.138062,106.619118 328.244690,106.165733 328.351318,105.712357 
	C331.097443,105.712357 333.843567,105.712357 338.019684,105.712357 
	C336.692841,103.418571 335.811340,101.894722 334.092133,100.147926 
M370.600922,106.125732 
	C370.600922,111.583954 370.600922,117.042168 370.600922,122.617340 
	C373.156952,122.617340 375.183685,122.617340 377.561218,122.617340 
	C377.561218,116.611107 377.561218,110.983643 377.561218,105.364594 
	C379.340088,105.079239 380.769348,104.849968 382.203033,104.619995 
	C382.203033,103.090469 382.203033,101.808235 382.203033,100.420776 
	C380.524414,100.078529 379.006683,99.769073 377.488953,99.459625 
	C377.253326,98.956360 377.017670,98.453094 376.782043,97.949829 
	C378.710815,96.662956 380.639618,95.376091 383.204681,93.664703 
	C383.951569,91.019669 382.262909,89.657539 378.819397,90.022942 
	C374.472107,90.484238 371.188293,92.212936 370.669128,97.179131 
	C370.568817,98.138680 369.853333,99.067169 369.307587,99.938560 
	C368.601654,101.065720 367.781219,102.121162 367.010071,103.207474 
	C368.072266,103.919785 369.134460,104.632095 370.600922,106.125732 
M400.013184,118.669716 
	C394.658783,116.920815 394.372986,116.074425 395.626495,105.266136 
	C396.955719,105.116211 398.356964,104.958168 399.826538,104.792419 
	C399.826538,103.117264 399.826538,101.715218 399.826538,100.310776 
	C398.179443,100.037666 396.780548,99.805717 395.397858,99.576454 
	C395.232330,97.321732 395.089264,95.373047 394.884308,92.581306 
	C392.382599,93.993629 390.106659,94.847992 388.419556,96.359604 
	C386.919983,97.703217 385.863922,99.683472 385.034821,101.568634 
	C384.669708,102.398804 385.241119,104.592751 385.575745,104.633873 
	C389.643616,105.133728 388.012512,108.209221 388.263763,110.333588 
	C388.593811,113.124229 387.884460,116.440735 389.177551,118.599243 
	C390.427246,120.685211 393.503387,122.045341 396.053467,122.870033 
	C398.179688,123.557655 400.453339,122.713074 400.013184,118.669716 
M255.630722,113.106750 
	C257.196198,120.429947 261.425201,123.597565 268.714691,123.015129 
	C272.531799,122.710152 274.652527,121.330734 273.555237,118.467636 
	C269.633942,117.427246 265.946167,117.438271 264.003479,115.602570 
	C262.593353,114.270073 262.343964,109.315376 263.620239,108.070534 
	C265.767395,105.976189 269.538025,105.546219 273.297424,104.170280 
	C273.656403,100.521599 273.334442,100.118591 268.569611,99.989799 
	C260.530945,99.772514 256.252411,103.849388 255.630722,113.106750 
M284.768219,111.885284 
	C284.592712,106.790939 288.128540,105.838692 292.262695,105.765594 
	C292.149628,103.593269 292.059235,101.857170 291.920654,99.195328 
	C289.169464,100.440086 287.158936,101.349739 285.148407,102.259384 
	C285.288177,101.907730 285.427948,101.556068 285.567719,101.204407 
	C283.161041,100.693626 280.754395,100.182854 278.098267,99.619133 
	C278.098267,107.956673 278.098267,115.327568 278.098267,122.809166 
	C280.321655,122.809166 282.246338,122.809166 284.720947,122.809166 
	C284.720947,119.343002 284.720947,116.068871 284.768219,111.885284 
M379.970001,150.559647 
	C379.970001,155.628586 379.970001,160.697525 379.970001,165.838745 
	C386.925079,166.249390 393.458252,166.881744 397.156128,160.100235 
	C399.524506,155.756882 399.573090,150.900177 396.542328,146.927643 
	C392.244507,141.294357 385.977509,143.148560 379.970001,143.116470 
	C379.970001,145.635300 379.970001,147.607193 379.970001,150.559647 
M256.349854,165.969864 
	C257.124725,162.825668 257.899597,159.681473 258.717133,156.364197 
	C266.014832,154.792862 264.416412,165.704987 271.701813,166.107025 
	C269.140808,162.058411 267.037109,158.732712 264.876251,155.316727 
	C267.974731,153.144730 270.565430,150.319046 268.245850,146.263901 
	C265.104950,140.772797 259.817444,143.577194 255.456055,143.122437 
	C255.456055,150.984604 255.456055,158.412491 256.349854,165.969864 
M243.896027,110.513092 
	C243.896027,114.594879 243.896027,118.676659 243.896027,122.782791 
	C246.406921,122.782791 248.321854,122.782791 250.476257,122.782791 
	C250.476257,115.174858 250.476257,107.809509 250.476257,100.310913 
	C248.190475,100.310913 246.169510,100.310913 243.896011,100.310913 
	C243.896011,103.602859 243.896011,106.564461 243.896027,110.513092 
M356.983307,160.392242 
	C356.983307,162.161407 356.983307,163.930573 356.983307,165.345642 
	C361.429260,165.345642 365.287262,165.345642 369.145264,165.345642 
	C369.145935,164.848923 369.146606,164.352188 369.147308,163.855469 
	C366.195740,163.634109 363.244171,163.412750 360.215515,163.185608 
	C360.215515,160.535950 360.215515,158.161285 360.215515,155.905594 
	C363.093018,155.533813 365.580627,155.212402 368.068268,154.890991 
	C368.025543,154.372269 367.982849,153.853546 367.940125,153.334839 
	C365.294556,153.108643 362.648956,152.882462 360.181885,152.671539 
	C360.181885,150.061752 360.181885,147.813400 360.181885,145.526413 
	C363.256836,145.228622 366.011932,144.961807 368.767029,144.694992 
	C368.724487,144.278503 368.681946,143.862015 368.639404,143.445526 
	C364.869934,143.445526 361.100464,143.445526 356.983337,143.445526 
	C356.983337,148.835144 356.983337,154.126938 356.983307,160.392242 
M240.058060,155.527954 
	C241.076126,155.096710 242.094208,154.665451 243.112289,154.234207 
	C242.987946,153.881332 242.863602,153.528473 242.739258,153.175598 
	C240.158524,153.031128 237.577789,152.886658 235.191193,152.753052 
	C235.191193,150.048325 235.191193,147.798859 235.191193,145.531662 
	C238.271240,145.225922 241.012039,144.953857 243.752838,144.681778 
	C243.713943,144.264587 243.675064,143.847382 243.636169,143.430176 
	C239.857651,143.430176 236.079132,143.430176 232.295654,143.430176 
	C232.295654,150.974319 232.295654,158.366043 232.295654,165.542862 
	C236.431824,165.542862 240.239471,165.542862 244.047134,165.542862 
	C244.104156,165.046204 244.161179,164.549545 244.218201,164.052887 
	C241.216278,163.730255 238.214340,163.407623 235.082123,163.070999 
	C235.082123,160.573792 235.082123,158.312637 235.082123,155.807953 
	C236.584229,155.705200 237.869659,155.617279 240.058060,155.527954 
M206.095581,158.724884 
	C203.966187,148.310059 207.566849,144.760651 220.481094,145.436478 
	C217.900864,141.602524 214.599670,142.280518 211.608383,142.817749 
	C206.055771,143.814972 202.506180,148.658615 202.449966,154.848221 
	C202.400940,160.245972 205.404694,164.887131 209.991318,165.929749 
	C213.492203,166.725571 217.092102,167.070877 219.697144,163.644409 
	C214.532623,164.153061 209.499252,165.120361 206.095581,158.724884 
M318.958496,147.627930 
	C318.958496,153.713867 318.958496,159.799805 318.958496,165.885742 
	C319.628906,166.000381 320.299316,166.115036 320.969727,166.229691 
	C321.457123,162.823639 321.944550,159.417572 322.402344,156.218369 
	C325.157898,155.879211 327.612274,155.577103 330.066650,155.275009 
	C330.031677,154.694107 329.996735,154.113190 329.961761,153.532272 
	C327.342499,153.269562 324.723206,153.006851 322.166138,152.750366 
	C322.166138,150.167892 322.166138,147.922195 322.166138,145.637207 
	C325.236023,145.270874 328.029205,144.937546 330.822388,144.604233 
	C330.766296,144.055908 330.710175,143.507568 330.654083,142.959244 
	C327.884247,142.959244 325.096161,143.158264 322.349487,142.906128 
	C319.289642,142.625214 318.601379,144.068420 318.958496,147.627930 
M291.069397,142.971420 
	C286.682922,142.971420 282.296417,142.971420 277.909943,142.971420 
	C277.918732,143.543045 277.927551,144.114685 277.936371,144.686310 
	C279.932251,145.024200 281.928162,145.362091 284.137085,145.736038 
	C284.137085,149.626953 284.137085,153.280991 284.137085,156.935028 
	C284.137085,164.928818 284.137085,164.928818 287.147583,165.855850 
	C287.147583,158.963104 287.147583,152.223953 287.147583,145.567154 
	C289.706787,145.259018 291.728729,145.015549 293.750671,144.772095 
	C293.786621,144.451309 293.822571,144.130539 293.858521,143.809753 
	C293.227509,143.534271 292.596527,143.258789 291.069397,142.971420 
M303.958466,158.418671 
	C303.958466,160.931473 303.958466,163.444275 303.958466,166.527847 
	C306.831573,164.489838 307.973724,153.269913 306.807831,145.138779 
	C306.682312,144.263306 305.728607,143.506577 305.159088,142.694763 
	C304.758881,142.858109 304.358673,143.021469 303.958466,143.184830 
	C303.958466,147.937546 303.958466,152.690277 303.958466,158.418671 
M344.878723,151.564575 
	C344.226532,148.729553 346.362762,145.082520 342.399261,142.285675 
	C342.399261,150.780548 342.399261,158.354172 342.399261,166.230759 
	C344.878937,164.441711 344.878937,164.441711 344.878723,151.564575 
M251.084656,93.492462 
	C249.640045,92.328850 248.332809,90.688469 246.689392,90.214996 
	C245.936417,89.998062 243.968262,91.911652 243.596313,93.168358 
	C243.333405,94.056557 245.000320,96.532677 245.505112,96.450623 
	C247.415482,96.140114 249.203217,95.075233 251.084656,93.492462 
z"/>
<path fill="#002050" opacity="1.000000" stroke="none" 
	d="
M511.058777,212.500671 
	C504.218201,212.317047 497.328888,211.669739 489.895752,210.971329 
	C489.895752,208.424683 489.895782,206.473892 489.895782,204.523087 
	C489.895782,171.693375 489.934692,138.863556 489.842896,106.034088 
	C489.832306,102.243912 489.565033,98.330948 488.599518,94.691742 
	C486.342194,86.183479 480.729767,80.535950 472.289551,77.970299 
	C444.639648,69.565254 416.960419,61.256893 389.299316,52.888657 
	C366.245483,45.914242 343.094452,39.236191 320.195374,31.784946 
	C307.690552,27.715944 295.744141,27.454645 283.147705,31.352798 
	C238.400177,45.200584 193.518616,58.615341 148.686325,72.189125 
	C143.442932,73.776665 138.173782,75.280739 132.944839,76.913986 
	C118.024017,81.574478 112.126030,89.532425 112.112831,105.123497 
	C112.084908,138.119843 112.104294,171.116211 112.104279,204.112579 
	C112.104279,206.096024 112.104286,208.079483 112.104286,210.800385 
	C105.176346,211.569748 98.487556,212.312561 91.345673,213.009827 
	C90.928276,175.822159 91.071716,138.679718 90.958931,101.538033 
	C90.892090,79.525887 104.436577,62.222889 125.720192,56.049614 
	C139.310013,52.107918 152.871170,48.065865 166.423599,43.996983 
	C200.763016,33.687191 235.163818,23.572231 269.383606,12.878658 
	C281.822388,8.991572 294.191620,5.721998 307.270538,7.087122 
	C313.188934,7.704862 319.158630,8.769269 324.848541,10.482762 
	C356.711548,20.078154 388.481781,29.980820 420.312744,39.683331 
	C440.611755,45.870762 461.020874,51.702282 481.269714,58.047466 
	C498.912354,63.575974 510.881805,81.379112 510.954285,99.106682 
	C511.108246,136.749557 511.006805,174.393494 511.058777,212.500671 
z"/>
<path fill="#002050" opacity="1.000000" stroke="none" 
	d="
M489.911102,395.101959 
	C496.817291,396.222046 503.723511,397.342102 510.863708,398.777008 
	C510.390411,428.504791 499.746552,454.377869 481.970917,477.275879 
	C473.313904,488.427551 463.746918,499.053192 453.472137,508.727753 
	C436.543915,524.667114 417.774750,538.453613 397.534454,549.937744 
	C380.136292,559.809204 362.429535,569.201721 344.440918,577.945374 
	C331.891144,584.045349 318.581207,588.565674 305.717834,594.042786 
	C299.640350,596.630493 294.373474,593.704651 289.450165,591.583801 
	C268.011322,582.348328 246.431686,573.294189 225.666153,562.681335 
	C204.082016,551.650024 183.469498,538.714478 164.751343,523.140381 
	C154.897919,514.942078 145.017471,506.638580 136.151215,497.419006 
	C115.404251,475.845337 99.858200,451.045776 93.307518,421.429321 
	C91.764999,414.455353 91.723038,407.149475 90.947556,399.545532 
	C97.681778,397.742279 104.459213,396.389832 111.654572,395.512390 
	C112.355110,411.463135 115.638939,426.255859 122.129036,440.325928 
	C133.833649,465.700562 152.306107,485.601654 173.656693,502.942230 
	C210.827591,533.131714 252.893433,554.676514 297.478699,571.544128 
	C299.669739,572.372986 302.754089,572.173523 304.997772,571.327148 
	C331.037109,561.504639 356.086609,549.543152 380.067230,535.426270 
	C410.898376,517.276672 439.715759,496.599182 462.219971,468.244873 
	C479.227783,446.815765 489.755005,422.918274 489.911102,395.101959 
z"/>
<path fill="#FEFEFE" opacity="1.000000" stroke="none" 
	d="
M452.357300,218.770569 
	C487.261627,223.526443 521.745911,227.998856 556.146423,233.042542 
	C569.093628,234.940811 575.017456,244.918716 572.522766,257.850281 
	C565.276123,295.414642 558.104004,332.993683 551.023315,370.589722 
	C548.294067,385.081421 540.532043,390.649841 525.852478,388.207977 
	C469.801727,378.884216 413.415253,372.829651 356.625214,370.516144 
	C294.317535,367.977905 232.102554,369.238007 170.104080,375.966675 
	C137.862717,379.465851 105.771820,384.371735 73.634750,388.800385 
	C62.631805,390.316650 53.616360,384.287415 51.423271,372.965271 
	C45.191353,340.791992 39.127228,308.586182 33.000805,276.392487 
	C31.819933,270.187134 30.726887,263.964172 29.469732,257.774445 
	C26.858110,244.915848 32.971703,235.150345 45.925991,232.999268 
	C67.587868,229.402267 89.248024,225.441788 111.071007,223.243484 
	C152.955902,219.024323 194.897217,214.740128 236.922623,212.725677 
	C274.966003,210.902130 313.178406,211.134460 351.268250,212.191437 
	C384.847961,213.123260 418.361298,216.446884 452.357300,218.770569 
M330.539490,302.817444 
	C318.584778,303.796631 311.986786,311.526154 312.530182,323.915222 
	C313.005554,334.753265 320.075531,341.900085 330.426758,342.006134 
	C341.034821,342.114868 348.331146,334.690674 348.838928,323.271332 
	C349.376251,311.187805 343.159851,303.886627 330.539490,302.817444 
M164.725342,346.107025 
	C168.290680,345.444855 172.034256,345.265106 175.386612,344.026489 
	C184.051147,340.825073 188.276688,332.783295 186.856323,323.204773 
	C185.500595,314.062012 180.119934,308.883514 170.387543,308.308868 
	C165.026794,307.992340 159.603775,308.730499 154.042038,309.001282 
	C154.930298,321.806396 155.776566,334.006226 156.644730,346.521606 
	C159.290833,346.393524 161.571609,346.283142 164.725342,346.107025 
M419.410858,318.782440 
	C418.853058,327.181824 418.295288,335.581238 417.724976,344.169403 
	C420.081024,344.398499 421.822449,344.567841 423.756012,344.755859 
	C424.236908,339.487213 424.683105,334.598816 425.129272,329.710419 
	C425.571289,329.330872 426.013336,328.951324 426.455353,328.571777 
	C428.747620,330.300629 431.412354,331.712982 433.226532,333.848114 
	C435.009003,335.945923 436.194641,338.679169 437.165314,341.309570 
	C438.790649,345.714081 441.698914,346.941101 446.664734,345.559326 
	C443.171997,339.595734 439.797516,333.834076 436.435608,328.093842 
	C442.893219,324.915619 445.114563,321.343994 444.104767,315.491455 
	C443.311768,310.895416 439.681854,308.107391 432.905945,307.346252 
	C428.826050,306.887939 424.695526,306.880005 420.254608,306.652618 
	C419.990906,310.622681 419.750519,314.241089 419.410858,318.782440 
M315.020691,276.386871 
	C315.725281,274.719116 317.002838,273.063751 317.039185,271.381561 
	C317.238770,262.143921 317.134430,252.899719 317.134430,243.510193 
	C315.488861,243.510193 313.644287,243.510193 311.071808,243.510193 
	C311.071808,252.316147 311.444244,260.793213 310.829987,269.198151 
	C310.660187,271.521606 307.940582,274.750946 305.688232,275.528076 
	C303.356049,276.332703 299.090118,275.581329 297.620880,273.852570 
	C295.612701,271.489655 294.825928,267.598236 294.622528,264.293884 
	C294.196320,257.370514 294.493256,250.402603 294.493256,243.386597 
	C292.208710,243.386597 290.442230,243.386597 288.149658,243.386597 
	C288.149658,251.049011 288.096039,258.486115 288.166443,265.921997 
	C288.223877,271.990051 289.239685,277.912598 295.711609,280.345276 
	C302.448975,282.877777 309.103058,282.645416 315.020691,276.386871 
M351.606110,273.906372 
	C349.554749,270.998810 347.503357,268.091278 345.445007,265.173859 
	C346.653503,264.426025 348.013763,263.760590 349.170135,262.839294 
	C355.275269,257.975037 354.236176,248.077713 346.846863,245.925308 
	C341.023407,244.229034 334.632782,244.479935 328.117249,243.828293 
	C328.117249,257.281830 328.117249,269.506500 328.117249,281.960297 
	C330.123779,281.960297 331.867340,281.960297 334.235504,281.960297 
	C334.235504,276.910278 334.235504,272.035736 334.235504,267.366913 
	C338.473358,266.307434 340.977020,267.848602 342.781036,270.854675 
	C344.147247,273.131256 345.752106,275.317108 346.755005,277.747864 
	C348.582794,282.177673 351.503479,283.551086 356.373322,281.857330 
	C354.839203,279.299469 353.409485,276.915680 351.606110,273.906372 
M242.157715,281.822845 
	C244.101685,281.822845 246.045670,281.822845 248.747009,281.822845 
	C243.657303,269.443665 238.910583,257.625427 233.897064,245.921463 
	C232.816391,243.398666 226.649414,243.970657 225.719910,246.642853 
	C221.576355,258.554993 217.611511,270.529297 213.556427,282.557281 
	C220.190750,283.225494 220.537064,283.300293 221.762375,277.626404 
	C222.612457,273.690002 224.564163,272.818512 228.202820,272.774261 
	C238.113205,272.653717 238.111450,272.510010 242.157715,281.822845 
M270.463989,281.838409 
	C273.914246,281.644592 277.364532,281.450775 281.250305,281.232513 
	C281.081024,279.410004 280.938751,277.878265 280.773376,276.097961 
	C274.127502,276.097961 267.962372,276.097961 261.143127,276.097961 
	C267.864746,265.096191 275.550720,255.485336 281.785767,244.271851 
	C271.310883,244.271851 262.258789,244.271851 253.210358,244.271851 
	C253.210358,246.185730 253.210358,247.628677 253.210358,249.527649 
	C259.399536,249.527649 265.379669,249.527649 271.929108,249.527649 
	C265.662567,258.775208 259.749268,267.405731 253.966370,276.122772 
	C252.913040,277.710571 252.392120,279.651581 251.449066,281.838501 
	C258.180542,281.838501 263.827209,281.838501 270.463989,281.838409 
M223.410828,316.166656 
	C226.351685,323.754211 229.433929,331.291443 232.161102,338.955048 
	C233.196060,341.863312 234.806351,342.549957 237.683197,342.591736 
	C240.614899,342.634247 241.240982,341.015167 241.926804,338.830017 
	C243.817505,332.805878 245.858398,326.829041 247.792206,320.818207 
	C249.534073,315.403961 251.212845,309.969482 252.953705,304.435028 
	C250.391205,304.435028 248.449966,304.435028 246.492264,304.435028 
	C243.463455,314.381714 240.510391,324.079620 237.557312,333.777557 
	C233.612976,325.799683 230.483566,317.976074 228.021759,309.947784 
	C226.575592,305.231628 224.273376,303.746979 219.506165,305.696625 
	C220.704712,308.946289 221.905533,312.202209 223.410828,316.166656 
M214.012115,324.283691 
	C214.218796,322.251129 214.089035,320.757629 211.251587,321.099701 
	C207.974854,321.494781 204.645386,321.452209 200.905746,321.618958 
	C200.905746,318.056061 200.905746,314.687897 200.905746,311.183350 
	C205.479507,310.815643 209.867844,310.462830 214.495773,310.090790 
	C214.277969,308.077850 214.121628,306.632904 213.935883,304.916290 
	C207.182587,305.320435 200.637680,305.712128 193.845688,306.118622 
	C194.472198,318.948456 195.070587,331.202698 195.683151,343.747467 
	C202.901611,343.403778 209.658844,343.082062 216.514328,342.755646 
	C216.514328,340.922485 216.514328,339.383240 216.514328,337.737183 
	C211.448700,337.737183 206.697021,337.737183 201.575760,337.737183 
	C201.575760,334.090363 201.575760,330.700073 201.575760,327.686218 
	C205.923508,326.808807 209.964432,325.993347 214.012115,324.283691 
M356.987518,329.492859 
	C356.987518,333.599213 356.987518,337.705566 356.987518,342.000977 
	C359.046326,342.000977 360.794525,342.000977 362.821320,342.000977 
	C363.024689,337.627838 363.221832,333.388153 363.420593,329.113953 
	C366.721863,328.874084 369.738068,328.942413 372.634277,328.386108 
	C379.138306,327.136719 383.223816,321.796997 382.797180,315.565399 
	C382.376068,309.414062 378.048462,305.317719 371.126709,304.917816 
	C366.862579,304.671417 362.572632,304.872162 357.001801,304.872162 
	C357.001801,312.647278 357.001801,320.570526 356.987518,329.492859 
M261.727783,303.991425 
	C261.181610,304.435577 260.161560,304.876343 260.158356,305.324371 
	C260.071716,317.443909 260.089264,329.564148 260.089264,341.664612 
	C267.932129,341.664612 274.702393,341.664612 281.597412,341.664612 
	C281.597412,339.751617 281.597412,338.189941 281.597412,336.251923 
	C276.606232,336.251923 271.890289,336.251923 267.120544,336.251923 
	C267.120544,332.453125 267.120544,329.039246 267.120544,325.078491 
	C271.452484,325.078491 275.525360,325.078491 279.902710,325.078491 
	C279.746979,323.095764 279.636597,321.690338 279.498291,319.929504 
	C275.069763,319.929504 270.960480,319.929504 266.716675,319.929504 
	C266.716675,316.279236 266.716675,313.014465 266.716675,309.171448 
	C271.335632,309.171448 275.733551,309.171448 280.507080,309.171448 
	C280.383057,307.034821 280.294098,305.502533 280.205963,303.984467 
	C274.002930,303.984467 268.347107,303.984467 261.727783,303.991425 
M389.162201,331.562042 
	C389.162201,335.352081 389.162201,339.142120 389.162201,343.224640 
	C396.047089,343.562958 402.803101,343.894928 409.724884,344.235077 
	C409.724884,342.224060 409.724884,340.686279 409.724884,339.136841 
	C404.711853,338.741730 399.978790,338.368683 395.036011,337.979126 
	C395.393311,333.936676 395.694153,330.532990 395.975311,327.352051 
	C400.475708,327.352051 404.420715,327.352051 408.681885,327.352051 
	C408.681885,325.671021 408.681885,324.115509 408.681885,322.363922 
	C404.397614,322.123535 400.306000,321.893982 395.973694,321.650940 
	C396.188538,317.907776 396.377136,314.621948 396.561127,311.416138 
	C401.462738,311.416138 406.033783,311.416138 410.928223,311.416138 
	C410.759705,309.516327 410.621246,307.955414 410.446777,305.988678 
	C403.702789,305.988678 397.419403,305.988678 390.565399,305.988678 
	C390.104950,314.080688 389.635132,322.337189 389.162201,331.562042 
M370.724579,266.010101 
	C374.167114,266.010101 377.609680,266.010101 381.255585,266.010101 
	C381.445618,264.281769 381.599792,262.879395 381.786346,261.182587 
	C377.356476,260.968811 373.272797,260.771729 369.130707,260.571838 
	C369.130707,256.919678 369.130707,253.663651 369.130707,250.157822 
	C373.837006,250.157822 378.254761,250.157822 382.927185,250.157822 
	C382.927185,248.367889 382.927185,246.836258 382.927185,244.897705 
	C376.255463,244.897705 369.833740,244.897705 362.609070,244.897705 
	C362.609070,257.190826 362.609070,269.566772 362.609070,282.420685 
	C369.150482,282.420685 375.920319,282.420685 382.735718,282.420685 
	C382.735718,280.982941 382.735718,279.422241 382.735718,277.750031 
	C377.742828,277.435760 373.004791,277.137543 367.420166,276.786041 
	C368.304932,272.771973 369.047119,269.404724 370.724579,266.010101 
M292.371185,303.181549 
	C289.769257,302.834259 288.393280,303.517059 288.516083,306.599030 
	C288.787598,313.413910 288.758789,320.241425 288.813629,327.064087 
	C288.850433,331.641571 288.820648,336.219574 288.820648,340.696564 
	C296.091980,340.696564 302.676971,340.696564 309.475067,340.696564 
	C309.363861,338.961639 309.273041,337.544464 309.159882,335.778839 
	C304.366394,335.778839 299.929657,335.778839 294.999817,335.778839 
	C294.999817,326.136383 295.074554,316.862549 294.923279,307.592377 
	C294.899200,306.117188 293.859497,304.658569 292.371185,303.181549 
z"/>
<path fill="#0164B5" opacity="1.000000" stroke="none" 
	d="
M489.511047,395.030273 
	C489.755005,422.918274 479.227783,446.815765 462.219971,468.244873 
	C439.715759,496.599182 410.898376,517.276672 380.067230,535.426270 
	C356.086609,549.543152 331.037109,561.504639 304.997772,571.327148 
	C302.754089,572.173523 299.669739,572.372986 297.478699,571.544128 
	C252.893433,554.676514 210.827591,533.131714 173.656693,502.942230 
	C152.306107,485.601654 133.833649,465.700562 122.129036,440.325928 
	C115.638939,426.255859 112.355110,411.463135 112.080734,395.544739 
	C127.554573,393.068726 142.989395,390.750092 158.493851,389.076721 
	C176.486816,387.134827 194.537445,385.718994 212.570496,384.161163 
	C218.364319,383.660645 224.177353,383.292755 229.989334,383.109558 
	C245.796173,382.611328 261.607208,382.247925 277.416412,381.823883 
	C286.392303,381.583130 295.375000,380.969482 304.342041,381.150085 
	C326.964691,381.605713 349.632660,381.671753 372.186096,383.261261 
	C404.808044,385.560303 437.350739,389.005524 469.913361,392.107330 
	C476.344757,392.719971 482.713409,393.991089 489.511047,395.030273 
M351.902496,515.566284 
	C356.080719,518.598511 360.258972,521.630676 365.522400,525.450439 
	C362.357239,515.585022 359.640839,507.118256 356.927094,498.659790 
	C364.399933,493.213837 371.532379,488.015961 378.664795,482.818054 
	C378.523865,482.509552 378.382904,482.201019 378.241974,481.892517 
	C369.308899,481.892517 360.375854,481.892517 351.479218,481.892517 
	C348.599426,473.223083 345.831512,464.890503 342.701874,455.468994 
	C339.521240,465.147522 336.779205,473.491364 333.937683,482.137970 
	C324.861206,482.137970 315.977600,482.137970 305.902283,482.137970 
	C311.533783,486.248291 316.188171,489.648468 320.845825,493.044220 
	C328.665710,498.745483 328.661896,498.742798 325.644226,508.023102 
	C323.951202,513.229614 322.276550,518.442078 320.593597,523.651855 
	C320.944336,523.838501 321.295074,524.025085 321.645813,524.211670 
	C328.615326,519.180603 335.584839,514.149536 342.698914,509.014130 
	C345.649933,511.102631 348.490448,513.112915 351.902496,515.566284 
M252.809799,475.292725 
	C252.095261,481.003967 248.924393,482.641266 243.295944,482.130981 
	C236.786530,481.540833 230.182541,481.993713 222.192429,481.993713 
	C230.593399,488.114227 237.785339,493.353912 245.089905,498.675629 
	C242.300446,507.351898 239.574387,515.830933 236.492294,525.417358 
	C244.707962,519.483948 251.939651,514.261230 259.235657,508.992065 
	C266.456787,514.181030 273.473114,519.222839 280.489441,524.264648 
	C279.516937,517.674561 277.656525,511.874390 275.835999,506.061737 
	C273.501678,498.608643 273.519775,498.610168 279.969818,493.904236 
	C285.044312,490.201874 290.106506,486.482727 296.344238,481.914062 
	C285.853485,481.914062 277.046631,481.914062 267.996429,481.914062 
	C265.194977,473.423492 262.429108,465.040680 259.246674,455.395355 
	C256.902069,462.588409 254.958099,468.552338 252.809799,475.292725 
M272.393341,432.231506 
	C274.396637,432.936951 276.349457,433.953979 278.412872,434.288116 
	C284.081726,435.205994 289.316742,432.670990 291.970337,428.050018 
	C294.942871,422.873596 294.494415,415.097046 290.966187,410.637390 
	C287.825806,406.667908 281.944580,405.009766 276.508362,406.561157 
	C265.783905,409.621765 263.239197,423.171326 272.393341,432.231506 
M366.639801,432.095459 
	C364.321625,424.817352 362.158112,417.483032 359.550598,410.310120 
	C359.048492,408.928894 356.889404,407.520691 355.341980,407.323456 
	C353.752960,407.121002 350.951447,407.935974 350.447052,409.082672 
	C346.857178,417.244171 343.719879,425.604767 340.306335,434.236267 
	C344.422333,434.855713 347.766937,435.466400 348.865143,430.505920 
	C349.034515,429.740784 350.749451,428.910797 351.803436,428.832184 
	C354.084930,428.662048 356.401306,428.959351 358.705292,429.065552 
	C359.401855,431.138428 360.020935,432.980804 360.600739,434.706268 
	C365.904999,435.199615 365.904999,435.199615 366.639801,432.095459 
M198.299988,430.624054 
	C199.503616,431.241425 201.536896,431.634766 201.774078,432.513123 
	C203.148560,437.603210 206.539566,436.222473 210.328827,435.645020 
	C206.807892,427.208557 203.533829,419.091553 199.950729,411.113342 
	C199.488846,410.084869 197.384430,409.187653 196.114212,409.276581 
	C194.382538,409.397827 191.598694,410.141357 191.208862,411.282043 
	C188.303207,419.784332 185.877838,428.450775 182.866379,438.522034 
	C186.361908,437.175140 190.135086,436.619751 190.312897,435.495697 
	C191.045959,430.861511 193.906036,430.586334 198.299988,430.624054 
M220.950638,408.141571 
	C217.333389,409.452942 214.974701,411.801239 215.033585,415.856598 
	C215.092560,419.919006 217.692902,422.099335 221.150070,423.533386 
	C222.530762,424.106140 224.033554,424.512604 225.235962,425.347412 
	C226.232864,426.039551 226.870453,427.249268 227.667206,428.229706 
	C226.528885,429.050476 225.390762,430.554871 224.252197,430.555206 
	C221.559357,430.556000 218.866287,429.841919 216.173309,429.416901 
	C216.173309,431.137451 216.173309,432.907318 216.173309,435.784912 
	C220.522308,435.563660 224.790955,436.090973 228.505264,434.895691 
	C230.979507,434.099518 234.139679,430.957367 234.311951,428.663818 
	C234.509583,426.032745 232.145706,422.824005 230.128571,420.543884 
	C228.724213,418.956451 225.942459,418.657990 223.951675,417.485474 
	C223.116028,416.993286 222.165451,415.628540 222.306015,414.847351 
	C222.445984,414.069366 223.864944,413.015778 224.763565,412.975037 
	C227.435303,412.853943 230.126923,413.171631 233.039688,413.330322 
	C232.916229,411.652832 232.796967,410.032166 232.644791,407.964569 
	C228.882355,407.964569 225.304733,407.964569 220.950638,408.141571 
M245.609451,429.022888 
	C244.606079,428.690796 243.602692,428.358734 242.597473,428.026062 
	C241.194366,433.748474 244.235229,435.134460 248.726669,434.990234 
	C250.862137,434.921692 253.351837,435.149017 255.029190,434.148956 
	C257.355225,432.762207 259.855804,430.676056 260.853760,428.291718 
	C262.272278,424.902466 260.408356,421.799042 257.224701,419.905396 
	C255.380554,418.808502 253.224655,418.209564 251.458801,417.016754 
	C250.396500,416.299255 249.814331,414.870941 249.016403,413.762054 
	C250.245560,413.134155 251.452301,412.041229 252.708817,411.980682 
	C254.933289,411.873444 257.188019,412.393890 259.502075,412.659912 
	C260.699158,408.724487 259.488190,406.477234 255.204163,406.612030 
	C252.576538,406.694733 249.551514,406.396881 247.447998,407.585236 
	C245.153061,408.881744 242.531219,411.549194 242.238007,413.892578 
	C241.943192,416.248718 243.970764,419.235199 245.686310,421.381409 
	C246.794342,422.767639 249.299667,422.945618 250.939545,424.027679 
	C252.199280,424.858948 253.085510,426.256287 254.137848,427.401886 
	C252.687790,428.243073 251.318893,429.346832 249.757950,429.829346 
	C248.783691,430.130493 247.519623,429.494110 245.609451,429.022888 
M403.997955,419.184357 
	C404.104919,417.780640 404.211884,416.376953 404.329651,414.831604 
	C407.740356,414.831604 410.665070,414.831604 413.759399,414.831604 
	C413.759399,413.117004 413.759399,411.718689 413.759399,410.095673 
	C408.469360,409.747345 403.421570,409.414948 397.960876,409.055389 
	C397.475891,417.706085 396.921173,425.787476 396.702881,433.877960 
	C396.676727,434.846710 398.422119,436.649780 399.443787,436.723907 
	C403.835815,437.042572 408.264221,436.859985 412.928955,436.859985 
	C412.928955,435.545898 412.928955,434.103271 412.928955,432.341492 
	C409.780884,432.083832 406.698578,431.831543 403.142303,431.540466 
	C403.336151,429.514954 403.498657,427.817108 403.676514,425.958740 
	C406.811584,425.958740 409.422729,425.958740 412.262482,425.958740 
	C412.449677,424.369904 412.615234,422.964752 412.796509,421.425995 
	C409.784576,420.926849 407.054260,420.474396 403.997955,419.184357 
M303.075226,410.631042 
	C298.641937,416.384033 298.138367,422.615479 301.761719,428.755859 
	C305.090668,434.397278 310.726135,434.719147 316.687469,434.266266 
	C321.443970,433.904877 321.558990,431.374268 320.639069,427.700714 
	C316.058807,428.984680 311.369965,430.266876 307.960938,425.540192 
	C305.576660,422.234436 305.704163,418.513306 307.856262,415.242096 
	C311.140900,410.249359 316.093018,411.666565 320.758514,412.713989 
	C321.475769,406.695160 321.051392,405.664154 315.502411,406.187866 
	C311.439117,406.571350 307.542328,408.719513 303.075226,410.631042 
M376.124146,425.541260 
	C376.124146,428.787170 376.124146,432.033081 376.124146,435.586975 
	C378.268951,435.681488 380.015930,435.758484 382.155731,435.852783 
	C382.569489,428.371307 382.959351,421.321808 383.357391,414.123962 
	C386.114563,413.985352 388.514526,413.864685 391.184418,413.730438 
	C391.098175,411.948700 391.029053,410.520355 390.931854,408.512024 
	C383.593262,408.512024 376.540833,408.512024 369.294891,408.512024 
	C369.294891,409.800201 369.294891,411.325897 369.294891,412.921356 
	C371.876465,413.122833 374.145538,413.299927 376.690857,413.498596 
	C376.492767,417.377563 376.308868,420.978333 376.124146,425.541260 
M328.821167,425.467468 
	C328.821167,428.243652 328.821167,431.019836 328.821167,433.934387 
	C331.114777,433.934387 332.851746,433.934387 335.077759,433.934387 
	C335.077759,424.846558 335.077759,415.994720 335.077759,406.985474 
	C333.057129,406.985474 331.273804,406.985474 328.821136,406.985474 
	C328.821136,412.912109 328.821136,418.692413 328.821167,425.467468 
z"/>
<path fill="#F7F7F7" opacity="1.000000" stroke="none" 
	d="
M208.849487,112.034492 
	C208.849472,115.819466 208.849472,119.120399 208.849472,122.781067 
	C206.745560,122.877831 204.995651,122.958313 202.847198,123.057121 
	C202.847198,112.750107 202.847198,102.716866 202.847198,92.329727 
	C206.006348,92.329727 209.234650,92.329727 212.762405,92.329727 
	C215.085541,99.015793 217.461121,105.852737 220.180267,113.678505 
	C222.213257,107.838005 224.339157,103.060669 225.486771,98.058884 
	C226.630035,93.076019 229.017761,90.974594 234.055969,91.960503 
	C235.018936,92.148933 236.031433,92.084412 237.367523,92.154861 
	C237.367523,102.282700 237.367523,112.330086 237.367523,122.699944 
	C235.420715,122.699944 233.499390,122.699944 231.172943,122.699944 
	C231.172943,116.004028 231.172943,109.095871 231.172943,102.187721 
	C230.792038,102.092949 230.411133,101.998169 230.030228,101.903397 
	C228.096207,107.399307 226.165253,112.896294 224.226639,118.390594 
	C223.444000,120.608665 223.490356,123.148132 219.762985,123.154724 
	C215.938950,123.161484 216.127792,120.354034 215.327240,118.261238 
	C213.344223,113.077263 211.571701,107.812767 208.849503,102.766388 
	C208.849503,105.694412 208.849503,108.622437 208.849487,112.034492 
z"/>
<path fill="#FAFAFA" opacity="1.000000" stroke="none" 
	d="
M340.636963,110.356750 
	C341.035980,102.370461 348.462097,99.001060 355.177704,100.146126 
	C361.848694,101.283600 365.232666,106.615417 364.062256,113.858269 
	C363.094543,119.846764 358.095917,123.425278 351.282318,123.007446 
	C344.326782,122.580910 341.049774,118.820496 340.636963,110.356750 
M357.353546,113.006912 
	C357.507202,107.017693 355.186218,103.649971 351.622803,105.297935 
	C349.646851,106.211754 347.997131,109.260582 347.521362,111.614136 
	C346.969696,114.343102 348.069977,117.357140 351.594391,117.913620 
	C354.691742,118.402672 356.624054,116.892220 357.353546,113.006912 
z"/>
<path fill="#FAFAFA" opacity="1.000000" stroke="none" 
	d="
M317.553345,116.023743 
	C313.654388,122.396118 308.158661,124.459969 301.763092,122.273331 
	C296.701233,120.542694 294.193970,116.456436 294.606506,110.609695 
	C295.095337,103.681854 300.112549,99.563950 307.543304,99.991737 
	C314.363739,100.384392 318.472870,104.846016 318.255554,111.712814 
	C318.213928,113.028397 317.897125,114.335266 317.553345,116.023743 
M311.353546,113.006912 
	C311.507233,107.017693 309.186218,103.649963 305.622803,105.297935 
	C303.646851,106.211769 301.997131,109.260590 301.521332,111.614128 
	C300.969666,114.343094 302.069977,117.357147 305.594391,117.913620 
	C308.691742,118.402687 310.624054,116.892220 311.353546,113.006912 
z"/>
<path fill="#F8F8F8" opacity="1.000000" stroke="none" 
	d="
M334.510986,100.259399 
	C335.811340,101.894722 336.692841,103.418571 338.019684,105.712357 
	C333.843567,105.712357 331.097443,105.712357 328.351318,105.712357 
	C328.244690,106.165733 328.138062,106.619118 328.031433,107.072495 
	C330.003357,108.018333 332.296844,108.604683 333.862183,110.005013 
	C335.642395,111.597572 338.034210,114.037468 337.857788,115.889793 
	C337.648132,118.091331 335.348907,120.617355 333.278564,121.957222 
	C331.535309,123.085373 328.824829,122.946892 326.540192,122.959839 
	C322.585999,122.982239 320.106567,121.494034 321.537506,117.146133 
	C324.849731,117.345451 328.131195,117.542915 331.412628,117.740379 
	C331.523621,117.079910 331.634613,116.419441 331.745605,115.758972 
	C330.045746,114.960327 328.390381,114.042229 326.636414,113.388885 
	C323.380127,112.175934 321.076508,110.249260 321.432312,106.477112 
	C321.780212,102.788475 324.319214,100.965027 327.683807,100.387627 
	C329.772125,100.029251 331.952881,100.209457 334.510986,100.259399 
z"/>
<path fill="#FEFEFE" opacity="1.000000" stroke="none" 
	d="
M370.398804,105.735062 
	C369.134460,104.632095 368.072266,103.919785 367.010071,103.207474 
	C367.781219,102.121162 368.601654,101.065720 369.307587,99.938560 
	C369.853333,99.067169 370.568817,98.138680 370.669128,97.179131 
	C371.188293,92.212936 374.472107,90.484238 378.819397,90.022942 
	C382.262909,89.657539 383.951569,91.019669 383.204681,93.664703 
	C380.639618,95.376091 378.710815,96.662956 376.782043,97.949829 
	C377.017670,98.453094 377.253326,98.956360 377.488953,99.459625 
	C379.006683,99.769073 380.524414,100.078529 382.203033,100.420776 
	C382.203033,101.808235 382.203033,103.090469 382.203033,104.619995 
	C380.769348,104.849968 379.340088,105.079239 377.561218,105.364594 
	C377.561218,110.983643 377.561218,116.611107 377.561218,122.617340 
	C375.183685,122.617340 373.156952,122.617340 370.600922,122.617340 
	C370.600922,117.042168 370.600922,111.583954 370.398804,105.735062 
z"/>
<path fill="#F9F9F9" opacity="1.000000" stroke="none" 
	d="
M400.045197,119.098785 
	C400.453339,122.713074 398.179688,123.557655 396.053467,122.870033 
	C393.503387,122.045341 390.427246,120.685211 389.177551,118.599243 
	C387.884460,116.440735 388.593811,113.124229 388.263763,110.333588 
	C388.012512,108.209221 389.643616,105.133728 385.575745,104.633873 
	C385.241119,104.592751 384.669708,102.398804 385.034821,101.568634 
	C385.863922,99.683472 386.919983,97.703217 388.419556,96.359604 
	C390.106659,94.847992 392.382599,93.993629 394.884308,92.581306 
	C395.089264,95.373047 395.232330,97.321732 395.397858,99.576454 
	C396.780548,99.805717 398.179443,100.037666 399.826538,100.310776 
	C399.826538,101.715218 399.826538,103.117264 399.826538,104.792419 
	C398.356964,104.958168 396.955719,105.116211 395.626495,105.266136 
	C394.372986,116.074425 394.658783,116.920815 400.045197,119.098785 
z"/>
<path fill="#FAFAFA" opacity="1.000000" stroke="none" 
	d="
M255.618378,112.724533 
	C256.252411,103.849388 260.530945,99.772514 268.569611,99.989799 
	C273.334442,100.118591 273.656403,100.521599 273.297424,104.170280 
	C269.538025,105.546219 265.767395,105.976189 263.620239,108.070534 
	C262.343964,109.315376 262.593353,114.270073 264.003479,115.602570 
	C265.946167,117.438271 269.633942,117.427246 273.555237,118.467636 
	C274.652527,121.330734 272.531799,122.710152 268.714691,123.015129 
	C261.425201,123.597565 257.196198,120.429947 255.618378,112.724533 
z"/>
<path fill="#F8F8F8" opacity="1.000000" stroke="none" 
	d="
M284.744568,112.340012 
	C284.720947,116.068871 284.720947,119.343002 284.720947,122.809166 
	C282.246338,122.809166 280.321655,122.809166 278.098267,122.809166 
	C278.098267,115.327568 278.098267,107.956673 278.098267,99.619133 
	C280.754395,100.182854 283.161041,100.693626 285.567719,101.204407 
	C285.427948,101.556068 285.288177,101.907730 285.148407,102.259384 
	C287.158936,101.349739 289.169464,100.440086 291.920654,99.195328 
	C292.059235,101.857170 292.149628,103.593269 292.262695,105.765594 
	C288.128540,105.838692 284.592712,106.790939 284.744568,112.340012 
z"/>
<path fill="#F3F3F3" opacity="1.000000" stroke="none" 
	d="
M379.970001,150.069366 
	C379.970001,147.607193 379.970001,145.635300 379.970001,143.116470 
	C385.977509,143.148560 392.244507,141.294357 396.542328,146.927643 
	C399.573090,150.900177 399.524506,155.756882 397.156128,160.100235 
	C393.458252,166.881744 386.925079,166.249390 379.970001,165.838745 
	C379.970001,160.697525 379.970001,155.628586 379.970001,150.069366 
M395.784241,152.846588 
	C393.774414,146.119766 390.102051,144.131775 383.186920,145.960281 
	C383.186920,151.736771 383.186920,157.484085 383.186920,163.188019 
	C391.976166,164.060577 394.994995,161.703598 395.784241,152.846588 
z"/>
<path fill="#F5F5F5" opacity="1.000000" stroke="none" 
	d="
M255.902954,165.905121 
	C255.456055,158.412491 255.456055,150.984604 255.456055,143.122437 
	C259.817444,143.577194 265.104950,140.772797 268.245850,146.263901 
	C270.565430,150.319046 267.974731,153.144730 264.876251,155.316727 
	C267.037109,158.732712 269.140808,162.058411 271.701813,166.107025 
	C264.416412,165.704987 266.014832,154.792862 258.717133,156.364197 
	C257.899597,159.681473 257.124725,162.825668 255.902954,165.905121 
M258.031616,152.983078 
	C260.385162,152.679611 262.878265,152.725220 265.012238,151.872299 
	C265.704773,151.595474 266.117279,147.997101 265.519714,147.590454 
	C263.485718,146.206268 260.943878,145.568344 257.852081,144.353165 
	C257.852081,147.897308 257.852081,150.012222 258.031616,152.983078 
z"/>
<path fill="#F5F5F5" opacity="1.000000" stroke="none" 
	d="
M243.896027,110.019577 
	C243.896011,106.564461 243.896011,103.602859 243.896011,100.310913 
	C246.169510,100.310913 248.190475,100.310913 250.476257,100.310913 
	C250.476257,107.809509 250.476257,115.174858 250.476257,122.782791 
	C248.321854,122.782791 246.406921,122.782791 243.896027,122.782791 
	C243.896027,118.676659 243.896027,114.594879 243.896027,110.019577 
z"/>
<path fill="#F8F8F8" opacity="1.000000" stroke="none" 
	d="
M356.983337,159.905487 
	C356.983337,154.126938 356.983337,148.835144 356.983337,143.445526 
	C361.100464,143.445526 364.869934,143.445526 368.639404,143.445526 
	C368.681946,143.862015 368.724487,144.278503 368.767029,144.694992 
	C366.011932,144.961807 363.256836,145.228622 360.181885,145.526413 
	C360.181885,147.813400 360.181885,150.061752 360.181885,152.671539 
	C362.648956,152.882462 365.294556,153.108643 367.940125,153.334839 
	C367.982849,153.853546 368.025543,154.372269 368.068268,154.890991 
	C365.580627,155.212402 363.093018,155.533813 360.215515,155.905594 
	C360.215515,158.161285 360.215515,160.535950 360.215515,163.185608 
	C363.244171,163.412750 366.195740,163.634109 369.147308,163.855469 
	C369.146606,164.352188 369.145935,164.848923 369.145264,165.345642 
	C365.287262,165.345642 361.429260,165.345642 356.983307,165.345642 
	C356.983307,163.930573 356.983307,162.161407 356.983337,159.905487 
z"/>
<path fill="#F8F8F8" opacity="1.000000" stroke="none" 
	d="
M239.606583,155.528656 
	C237.869659,155.617279 236.584229,155.705200 235.082123,155.807953 
	C235.082123,158.312637 235.082123,160.573792 235.082123,163.070999 
	C238.214340,163.407623 241.216278,163.730255 244.218201,164.052887 
	C244.161179,164.549545 244.104156,165.046204 244.047134,165.542862 
	C240.239471,165.542862 236.431824,165.542862 232.295654,165.542862 
	C232.295654,158.366043 232.295654,150.974319 232.295654,143.430176 
	C236.079132,143.430176 239.857651,143.430176 243.636169,143.430176 
	C243.675064,143.847382 243.713943,144.264587 243.752838,144.681778 
	C241.012039,144.953857 238.271240,145.225922 235.191193,145.531662 
	C235.191193,147.798859 235.191193,150.048325 235.191193,152.753052 
	C237.577789,152.886658 240.158524,153.031128 242.739258,153.175598 
	C242.863602,153.528473 242.987946,153.881332 243.112289,154.234207 
	C242.094208,154.665451 241.076126,155.096710 239.606583,155.528656 
z"/>
<path fill="#F3F3F3" opacity="1.000000" stroke="none" 
	d="
M206.266846,159.107544 
	C209.499252,165.120361 214.532623,164.153061 219.697144,163.644409 
	C217.092102,167.070877 213.492203,166.725571 209.991318,165.929749 
	C205.404694,164.887131 202.400940,160.245972 202.449966,154.848221 
	C202.506180,148.658615 206.055771,143.814972 211.608383,142.817749 
	C214.599670,142.280518 217.900864,141.602524 220.481094,145.436478 
	C207.566849,144.760651 203.966187,148.310059 206.266846,159.107544 
z"/>
<path fill="#EFEFEF" opacity="1.000000" stroke="none" 
	d="
M318.958557,147.144699 
	C318.601379,144.068420 319.289642,142.625214 322.349487,142.906128 
	C325.096161,143.158264 327.884247,142.959244 330.654083,142.959244 
	C330.710175,143.507568 330.766296,144.055908 330.822388,144.604233 
	C328.029205,144.937546 325.236023,145.270874 322.166138,145.637207 
	C322.166138,147.922195 322.166138,150.167892 322.166138,152.750366 
	C324.723206,153.006851 327.342499,153.269562 329.961761,153.532272 
	C329.996735,154.113190 330.031677,154.694107 330.066650,155.275009 
	C327.612274,155.577103 325.157898,155.879211 322.402344,156.218369 
	C321.944550,159.417572 321.457123,162.823639 320.969727,166.229691 
	C320.299316,166.115036 319.628906,166.000381 318.958496,165.885742 
	C318.958496,159.799805 318.958496,153.713867 318.958557,147.144699 
z"/>
<path fill="#F3F3F3" opacity="1.000000" stroke="none" 
	d="
M291.517456,142.977356 
	C292.596527,143.258789 293.227509,143.534271 293.858521,143.809753 
	C293.822571,144.130539 293.786621,144.451309 293.750671,144.772095 
	C291.728729,145.015549 289.706787,145.259018 287.147583,145.567154 
	C287.147583,152.223953 287.147583,158.963104 287.147583,165.855850 
	C284.137085,164.928818 284.137085,164.928818 284.137085,156.935028 
	C284.137085,153.280991 284.137085,149.626953 284.137085,145.736038 
	C281.928162,145.362091 279.932251,145.024200 277.936371,144.686310 
	C277.927551,144.114685 277.918732,143.543045 277.909943,142.971420 
	C282.296417,142.971420 286.682922,142.971420 291.517456,142.977356 
z"/>
<path fill="#EFEFEF" opacity="1.000000" stroke="none" 
	d="
M303.958466,157.930832 
	C303.958466,152.690277 303.958466,147.937546 303.958466,143.184830 
	C304.358673,143.021469 304.758881,142.858109 305.159088,142.694763 
	C305.728607,143.506577 306.682312,144.263306 306.807831,145.138779 
	C307.973724,153.269913 306.831573,164.489838 303.958466,166.527847 
	C303.958466,163.444275 303.958466,160.931473 303.958466,157.930832 
z"/>
<path fill="#EFEFEF" opacity="1.000000" stroke="none" 
	d="
M344.878693,152.053406 
	C344.878937,164.441711 344.878937,164.441711 342.399261,166.230759 
	C342.399261,158.354172 342.399261,150.780548 342.399261,142.285675 
	C346.362762,145.082520 344.226532,148.729553 344.878693,152.053406 
z"/>
<path fill="#F5F5F5" opacity="1.000000" stroke="none" 
	d="
M251.060745,93.892532 
	C249.203217,95.075233 247.415482,96.140114 245.505112,96.450623 
	C245.000320,96.532677 243.333405,94.056557 243.596313,93.168358 
	C243.968262,91.911652 245.936417,89.998062 246.689392,90.214996 
	C248.332809,90.688469 249.640045,92.328850 251.060745,93.892532 
z"/>
<path fill="#303030" opacity="1.000000" stroke="none" 
	d="
M330.981506,302.817139 
	C343.159851,303.886627 349.376251,311.187805 348.838928,323.271332 
	C348.331146,334.690674 341.034821,342.114868 330.426758,342.006134 
	C320.075531,341.900085 313.005554,334.753265 312.530182,323.915222 
	C311.986786,311.526154 318.584778,303.796631 330.981506,302.817139 
M319.043884,323.350830 
	C319.571198,329.157135 321.392731,334.166718 327.633362,336.006317 
	C333.853882,337.839966 339.589539,334.452332 341.511078,328.031372 
	C344.046814,319.558105 340.925293,311.023376 334.530945,308.946625 
	C326.223450,306.248505 319.984955,311.697632 319.043884,323.350830 
z"/>
<path fill="#303030" opacity="1.000000" stroke="none" 
	d="
M164.288849,346.139893 
	C161.571609,346.283142 159.290833,346.393524 156.644730,346.521606 
	C155.776566,334.006226 154.930298,321.806396 154.042038,309.001282 
	C159.603775,308.730499 165.026794,307.992340 170.387543,308.308868 
	C180.119934,308.883514 185.500595,314.062012 186.856323,323.204773 
	C188.276688,332.783295 184.051147,340.825073 175.386612,344.026489 
	C172.034256,345.265106 168.290680,345.444855 164.288849,346.139893 
M180.434555,328.976990 
	C180.647934,316.151398 175.155853,311.946838 160.726196,314.363831 
	C161.309799,323.131134 161.896729,331.948547 162.480423,340.717072 
	C173.992432,340.877136 178.251068,338.163361 180.434555,328.976990 
z"/>
<path fill="#2F2F2F" opacity="1.000000" stroke="none" 
	d="
M419.460510,318.320984 
	C419.750519,314.241089 419.990906,310.622681 420.254608,306.652618 
	C424.695526,306.880005 428.826050,306.887939 432.905945,307.346252 
	C439.681854,308.107391 443.311768,310.895416 444.104767,315.491455 
	C445.114563,321.343994 442.893219,324.915619 436.435608,328.093842 
	C439.797516,333.834076 443.171997,339.595734 446.664734,345.559326 
	C441.698914,346.941101 438.790649,345.714081 437.165314,341.309570 
	C436.194641,338.679169 435.009003,335.945923 433.226532,333.848114 
	C431.412354,331.712982 428.747620,330.300629 426.455353,328.571777 
	C426.013336,328.951324 425.571289,329.330872 425.129272,329.710419 
	C424.683105,334.598816 424.236908,339.487213 423.756012,344.755859 
	C421.822449,344.567841 420.081024,344.398499 417.724976,344.169403 
	C418.295288,335.581238 418.853058,327.181824 419.460510,318.320984 
M437.643097,316.909088 
	C435.585358,311.273163 430.769409,312.427917 426.173737,312.006744 
	C425.888794,316.206238 425.626862,320.066986 425.369598,323.859070 
	C433.880646,325.744690 436.436188,324.400940 437.643097,316.909088 
z"/>
<path fill="#333333" opacity="1.000000" stroke="none" 
	d="
M314.804260,276.692261 
	C309.103058,282.645416 302.448975,282.877777 295.711609,280.345276 
	C289.239685,277.912598 288.223877,271.990051 288.166443,265.921997 
	C288.096039,258.486115 288.149658,251.049011 288.149658,243.386597 
	C290.442230,243.386597 292.208710,243.386597 294.493256,243.386597 
	C294.493256,250.402603 294.196320,257.370514 294.622528,264.293884 
	C294.825928,267.598236 295.612701,271.489655 297.620880,273.852570 
	C299.090118,275.581329 303.356049,276.332703 305.688232,275.528076 
	C307.940582,274.750946 310.660187,271.521606 310.829987,269.198151 
	C311.444244,260.793213 311.071808,252.316147 311.071808,243.510193 
	C313.644287,243.510193 315.488861,243.510193 317.134430,243.510193 
	C317.134430,252.899719 317.238770,262.143921 317.039185,271.381561 
	C317.002838,273.063751 315.725281,274.719116 314.804260,276.692261 
z"/>
<path fill="#2E2E2E" opacity="1.000000" stroke="none" 
	d="
M351.792938,274.219116 
	C353.409485,276.915680 354.839203,279.299469 356.373322,281.857330 
	C351.503479,283.551086 348.582794,282.177673 346.755005,277.747864 
	C345.752106,275.317108 344.147247,273.131256 342.781036,270.854675 
	C340.977020,267.848602 338.473358,266.307434 334.235504,267.366913 
	C334.235504,272.035736 334.235504,276.910278 334.235504,281.960297 
	C331.867340,281.960297 330.123779,281.960297 328.117249,281.960297 
	C328.117249,269.506500 328.117249,257.281830 328.117249,243.828293 
	C334.632782,244.479935 341.023407,244.229034 346.846863,245.925308 
	C354.236176,248.077713 355.275269,257.975037 349.170135,262.839294 
	C348.013763,263.760590 346.653503,264.426025 345.445007,265.173859 
	C347.503357,268.091278 349.554749,270.998810 351.792938,274.219116 
M334.374573,256.500275 
	C334.374573,258.111023 334.374573,259.721771 334.374573,261.628845 
	C338.516876,261.761627 342.921692,263.237610 345.224121,258.803467 
	C346.175079,256.972076 346.184906,253.507355 345.037415,251.964920 
	C342.506317,248.562744 338.479614,249.061661 334.378204,249.951096 
	C334.378204,251.999084 334.378204,253.802414 334.374573,256.500275 
z"/>
<path fill="#303030" opacity="1.000000" stroke="none" 
	d="
M241.859650,281.536865 
	C238.111450,272.510010 238.113205,272.653717 228.202820,272.774261 
	C224.564163,272.818512 222.612457,273.690002 221.762375,277.626404 
	C220.537064,283.300293 220.190750,283.225494 213.556427,282.557281 
	C217.611511,270.529297 221.576355,258.554993 225.719910,246.642853 
	C226.649414,243.970657 232.816391,243.398666 233.897064,245.921463 
	C238.910583,257.625427 243.657303,269.443665 248.747009,281.822845 
	C246.045670,281.822845 244.101685,281.822845 241.859650,281.536865 
M228.274750,255.862701 
	C227.158600,259.729462 226.042435,263.596191 224.943176,267.404419 
	C228.965088,267.404419 232.351807,267.404419 236.319366,267.404419 
	C234.127762,261.886627 232.177216,256.975769 229.828201,251.061630 
	C229.154510,253.274948 228.866898,254.219833 228.274750,255.862701 
z"/>
<path fill="#2F2F2F" opacity="1.000000" stroke="none" 
	d="
M269.968933,281.838440 
	C263.827209,281.838501 258.180542,281.838501 251.449066,281.838501 
	C252.392120,279.651581 252.913040,277.710571 253.966370,276.122772 
	C259.749268,267.405731 265.662567,258.775208 271.929108,249.527649 
	C265.379669,249.527649 259.399536,249.527649 253.210358,249.527649 
	C253.210358,247.628677 253.210358,246.185730 253.210358,244.271851 
	C262.258789,244.271851 271.310883,244.271851 281.785767,244.271851 
	C275.550720,255.485336 267.864746,265.096191 261.143127,276.097961 
	C267.962372,276.097961 274.127502,276.097961 280.773376,276.097961 
	C280.938751,277.878265 281.081024,279.410004 281.250305,281.232513 
	C277.364532,281.450775 273.914246,281.644592 269.968933,281.838440 
z"/>
<path fill="#313131" opacity="1.000000" stroke="none" 
	d="
M223.258606,315.812378 
	C221.905533,312.202209 220.704712,308.946289 219.506165,305.696625 
	C224.273376,303.746979 226.575592,305.231628 228.021759,309.947784 
	C230.483566,317.976074 233.612976,325.799683 237.557312,333.777557 
	C240.510391,324.079620 243.463455,314.381714 246.492264,304.435028 
	C248.449966,304.435028 250.391205,304.435028 252.953705,304.435028 
	C251.212845,309.969482 249.534073,315.403961 247.792206,320.818207 
	C245.858398,326.829041 243.817505,332.805878 241.926804,338.830017 
	C241.240982,341.015167 240.614899,342.634247 237.683197,342.591736 
	C234.806351,342.549957 233.196060,341.863312 232.161102,338.955048 
	C229.433929,331.291443 226.351685,323.754211 223.258606,315.812378 
z"/>
<path fill="#2F2F2F" opacity="1.000000" stroke="none" 
	d="
M214.008728,324.730774 
	C209.964432,325.993347 205.923508,326.808807 201.575760,327.686218 
	C201.575760,330.700073 201.575760,334.090363 201.575760,337.737183 
	C206.697021,337.737183 211.448700,337.737183 216.514328,337.737183 
	C216.514328,339.383240 216.514328,340.922485 216.514328,342.755646 
	C209.658844,343.082062 202.901611,343.403778 195.683151,343.747467 
	C195.070587,331.202698 194.472198,318.948456 193.845688,306.118622 
	C200.637680,305.712128 207.182587,305.320435 213.935883,304.916290 
	C214.121628,306.632904 214.277969,308.077850 214.495773,310.090790 
	C209.867844,310.462830 205.479507,310.815643 200.905746,311.183350 
	C200.905746,314.687897 200.905746,318.056061 200.905746,321.618958 
	C204.645386,321.452209 207.974854,321.494781 211.251587,321.099701 
	C214.089035,320.757629 214.218796,322.251129 214.008728,324.730774 
z"/>
<path fill="#2F2F2F" opacity="1.000000" stroke="none" 
	d="
M356.994659,328.993347 
	C357.001801,320.570526 357.001801,312.647278 357.001801,304.872162 
	C362.572632,304.872162 366.862579,304.671417 371.126709,304.917816 
	C378.048462,305.317719 382.376068,309.414062 382.797180,315.565399 
	C383.223816,321.796997 379.138306,327.136719 372.634277,328.386108 
	C369.738068,328.942413 366.721863,328.874084 363.420593,329.113953 
	C363.221832,333.388153 363.024689,337.627838 362.821320,342.000977 
	C360.794525,342.000977 359.046326,342.000977 356.987518,342.000977 
	C356.987518,337.705566 356.987518,333.599213 356.994659,328.993347 
M375.996338,317.285950 
	C375.474121,310.687866 373.047455,309.209473 363.938416,310.276215 
	C363.938416,314.460144 363.938416,318.708099 363.938416,322.982208 
	C370.896393,324.604889 373.560547,323.528717 375.996338,317.285950 
z"/>
<path fill="#303030" opacity="1.000000" stroke="none" 
	d="
M262.209534,303.987946 
	C268.347107,303.984467 274.002930,303.984467 280.205963,303.984467 
	C280.294098,305.502533 280.383057,307.034821 280.507080,309.171448 
	C275.733551,309.171448 271.335632,309.171448 266.716675,309.171448 
	C266.716675,313.014465 266.716675,316.279236 266.716675,319.929504 
	C270.960480,319.929504 275.069763,319.929504 279.498291,319.929504 
	C279.636597,321.690338 279.746979,323.095764 279.902710,325.078491 
	C275.525360,325.078491 271.452484,325.078491 267.120544,325.078491 
	C267.120544,329.039246 267.120544,332.453125 267.120544,336.251923 
	C271.890289,336.251923 276.606232,336.251923 281.597412,336.251923 
	C281.597412,338.189941 281.597412,339.751617 281.597412,341.664612 
	C274.702393,341.664612 267.932129,341.664612 260.089264,341.664612 
	C260.089264,329.564148 260.071716,317.443909 260.158356,305.324371 
	C260.161560,304.876343 261.181610,304.435577 262.209534,303.987946 
z"/>
<path fill="#2E2E2E" opacity="1.000000" stroke="none" 
	d="
M389.163757,331.077881 
	C389.635132,322.337189 390.104950,314.080688 390.565399,305.988678 
	C397.419403,305.988678 403.702789,305.988678 410.446777,305.988678 
	C410.621246,307.955414 410.759705,309.516327 410.928223,311.416138 
	C406.033783,311.416138 401.462738,311.416138 396.561127,311.416138 
	C396.377136,314.621948 396.188538,317.907776 395.973694,321.650940 
	C400.306000,321.893982 404.397614,322.123535 408.681885,322.363922 
	C408.681885,324.115509 408.681885,325.671021 408.681885,327.352051 
	C404.420715,327.352051 400.475708,327.352051 395.975311,327.352051 
	C395.694153,330.532990 395.393311,333.936676 395.036011,337.979126 
	C399.978790,338.368683 404.711853,338.741730 409.724884,339.136841 
	C409.724884,340.686279 409.724884,342.224060 409.724884,344.235077 
	C402.803101,343.894928 396.047089,343.562958 389.162201,343.224640 
	C389.162201,339.142120 389.162201,335.352081 389.163757,331.077881 
z"/>
<path fill="#2C2C2C" opacity="1.000000" stroke="none" 
	d="
M370.256958,266.023804 
	C369.047119,269.404724 368.304932,272.771973 367.420166,276.786041 
	C373.004791,277.137543 377.742828,277.435760 382.735718,277.750031 
	C382.735718,279.422241 382.735718,280.982941 382.735718,282.420685 
	C375.920319,282.420685 369.150482,282.420685 362.609070,282.420685 
	C362.609070,269.566772 362.609070,257.190826 362.609070,244.897705 
	C369.833740,244.897705 376.255463,244.897705 382.927185,244.897705 
	C382.927185,246.836258 382.927185,248.367889 382.927185,250.157822 
	C378.254761,250.157822 373.837006,250.157822 369.130707,250.157822 
	C369.130707,253.663651 369.130707,256.919678 369.130707,260.571838 
	C373.272797,260.771729 377.356476,260.968811 381.786346,261.182587 
	C381.599792,262.879395 381.445618,264.281769 381.255585,266.010101 
	C377.609680,266.010101 374.167114,266.010101 370.256958,266.023804 
z"/>
<path fill="#292929" opacity="1.000000" stroke="none" 
	d="
M292.830261,303.186920 
	C293.859497,304.658569 294.899200,306.117188 294.923279,307.592377 
	C295.074554,316.862549 294.999817,326.136383 294.999817,335.778839 
	C299.929657,335.778839 304.366394,335.778839 309.159882,335.778839 
	C309.273041,337.544464 309.363861,338.961639 309.475067,340.696564 
	C302.676971,340.696564 296.091980,340.696564 288.820648,340.696564 
	C288.820648,336.219574 288.850433,331.641571 288.813629,327.064087 
	C288.758789,320.241425 288.787598,313.413910 288.516083,306.599030 
	C288.393280,303.517059 289.769257,302.834259 292.830261,303.186920 
z"/>
<path fill="#FBFDFE" opacity="1.000000" stroke="none" 
	d="
M351.616699,515.344727 
	C348.490448,513.112915 345.649933,511.102631 342.698914,509.014130 
	C335.584839,514.149536 328.615326,519.180603 321.645813,524.211670 
	C321.295074,524.025085 320.944336,523.838501 320.593597,523.651855 
	C322.276550,518.442078 323.951202,513.229614 325.644226,508.023102 
	C328.661896,498.742798 328.665710,498.745483 320.845825,493.044220 
	C316.188171,489.648468 311.533783,486.248291 305.902283,482.137970 
	C315.977600,482.137970 324.861206,482.137970 333.937683,482.137970 
	C336.779205,473.491364 339.521240,465.147522 342.701874,455.468994 
	C345.831512,464.890503 348.599426,473.223083 351.479218,481.892517 
	C360.375854,481.892517 369.308899,481.892517 378.241974,481.892517 
	C378.382904,482.201019 378.523865,482.509552 378.664795,482.818054 
	C371.532379,488.015961 364.399933,493.213837 356.927094,498.659790 
	C359.640839,507.118256 362.357239,515.585022 365.522400,525.450439 
	C360.258972,521.630676 356.080719,518.598511 351.616699,515.344727 
z"/>
<path fill="#FBFDFE" opacity="1.000000" stroke="none" 
	d="
M252.911957,474.904480 
	C254.958099,468.552338 256.902069,462.588409 259.246674,455.395355 
	C262.429108,465.040680 265.194977,473.423492 267.996429,481.914062 
	C277.046631,481.914062 285.853485,481.914062 296.344238,481.914062 
	C290.106506,486.482727 285.044312,490.201874 279.969818,493.904236 
	C273.519775,498.610168 273.501678,498.608643 275.835999,506.061737 
	C277.656525,511.874390 279.516937,517.674561 280.489441,524.264648 
	C273.473114,519.222839 266.456787,514.181030 259.235657,508.992065 
	C251.939651,514.261230 244.707962,519.483948 236.492294,525.417358 
	C239.574387,515.830933 242.300446,507.351898 245.089905,498.675629 
	C237.785339,493.353912 230.593399,488.114227 222.192429,481.993713 
	C230.182541,481.993713 236.786530,481.540833 243.295944,482.130981 
	C248.924393,482.641266 252.095261,481.003967 252.911957,474.904480 
z"/>
<path fill="#F3F8FC" opacity="1.000000" stroke="none" 
	d="
M272.078735,432.026794 
	C263.239197,423.171326 265.783905,409.621765 276.508362,406.561157 
	C281.944580,405.009766 287.825806,406.667908 290.966187,410.637390 
	C294.494415,415.097046 294.942871,422.873596 291.970337,428.050018 
	C289.316742,432.670990 284.081726,435.205994 278.412872,434.288116 
	C276.349457,433.953979 274.396637,432.936951 272.078735,432.026794 
M273.776611,422.165741 
	C274.298370,426.088257 276.380585,429.191284 280.395538,428.701050 
	C282.624176,428.428925 285.458069,426.004120 286.353394,423.855438 
	C287.311584,421.555969 286.990570,418.140808 285.947266,415.778137 
	C285.142151,413.954834 282.368744,411.973755 280.451416,411.954468 
	C278.495667,411.934784 276.052704,413.865845 274.696808,415.618774 
	C273.639832,416.985291 273.922150,419.387817 273.776611,422.165741 
z"/>
<path fill="#F3F8FC" opacity="1.000000" stroke="none" 
	d="
M366.771881,432.502350 
	C365.904999,435.199615 365.904999,435.199615 360.600739,434.706268 
	C360.020935,432.980804 359.401855,431.138428 358.705292,429.065552 
	C356.401306,428.959351 354.084930,428.662048 351.803436,428.832184 
	C350.749451,428.910797 349.034515,429.740784 348.865143,430.505920 
	C347.766937,435.466400 344.422333,434.855713 340.306335,434.236267 
	C343.719879,425.604767 346.857178,417.244171 350.447052,409.082672 
	C350.951447,407.935974 353.752960,407.121002 355.341980,407.323456 
	C356.889404,407.520691 359.048492,408.928894 359.550598,410.310120 
	C362.158112,417.483032 364.321625,424.817352 366.771881,432.502350 
M356.851318,423.358826 
	C356.221832,420.412415 355.592316,417.466034 354.661682,413.110138 
	C353.098450,417.453461 352.048798,420.369781 350.819183,423.786163 
	C352.946350,423.786163 354.551819,423.786163 356.851318,423.358826 
z"/>
<path fill="#F4F8FC" opacity="1.000000" stroke="none" 
	d="
M197.852692,430.667114 
	C193.906036,430.586334 191.045959,430.861511 190.312897,435.495697 
	C190.135086,436.619751 186.361908,437.175140 182.866379,438.522034 
	C185.877838,428.450775 188.303207,419.784332 191.208862,411.282043 
	C191.598694,410.141357 194.382538,409.397827 196.114212,409.276581 
	C197.384430,409.187653 199.488846,410.084869 199.950729,411.113342 
	C203.533829,419.091553 206.807892,427.208557 210.328827,435.645020 
	C206.539566,436.222473 203.148560,437.603210 201.774078,432.513123 
	C201.536896,431.634766 199.503616,431.241425 197.852692,430.667114 
M198.921173,424.584625 
	C197.905792,421.834381 196.890396,419.084106 195.531998,415.404755 
	C194.482727,419.437805 193.711655,422.401520 192.769150,426.024231 
	C195.115570,425.731506 196.850281,425.515106 198.921173,424.584625 
z"/>
<path fill="#F1F6FB" opacity="1.000000" stroke="none" 
	d="
M221.338867,408.053070 
	C225.304733,407.964569 228.882355,407.964569 232.644791,407.964569 
	C232.796967,410.032166 232.916229,411.652832 233.039688,413.330322 
	C230.126923,413.171631 227.435303,412.853943 224.763565,412.975037 
	C223.864944,413.015778 222.445984,414.069366 222.306015,414.847351 
	C222.165451,415.628540 223.116028,416.993286 223.951675,417.485474 
	C225.942459,418.657990 228.724213,418.956451 230.128571,420.543884 
	C232.145706,422.824005 234.509583,426.032745 234.311951,428.663818 
	C234.139679,430.957367 230.979507,434.099518 228.505264,434.895691 
	C224.790955,436.090973 220.522308,435.563660 216.173309,435.784912 
	C216.173309,432.907318 216.173309,431.137451 216.173309,429.416901 
	C218.866287,429.841919 221.559357,430.556000 224.252197,430.555206 
	C225.390762,430.554871 226.528885,429.050476 227.667206,428.229706 
	C226.870453,427.249268 226.232864,426.039551 225.235962,425.347412 
	C224.033554,424.512604 222.530762,424.106140 221.150070,423.533386 
	C217.692902,422.099335 215.092560,419.919006 215.033585,415.856598 
	C214.974701,411.801239 217.333389,409.452942 221.338867,408.053070 
z"/>
<path fill="#F2F7FB" opacity="1.000000" stroke="none" 
	d="
M245.997528,429.150696 
	C247.519623,429.494110 248.783691,430.130493 249.757950,429.829346 
	C251.318893,429.346832 252.687790,428.243073 254.137848,427.401886 
	C253.085510,426.256287 252.199280,424.858948 250.939545,424.027679 
	C249.299667,422.945618 246.794342,422.767639 245.686310,421.381409 
	C243.970764,419.235199 241.943192,416.248718 242.238007,413.892578 
	C242.531219,411.549194 245.153061,408.881744 247.447998,407.585236 
	C249.551514,406.396881 252.576538,406.694733 255.204163,406.612030 
	C259.488190,406.477234 260.699158,408.724487 259.502075,412.659912 
	C257.188019,412.393890 254.933289,411.873444 252.708817,411.980682 
	C251.452301,412.041229 250.245560,413.134155 249.016403,413.762054 
	C249.814331,414.870941 250.396500,416.299255 251.458801,417.016754 
	C253.224655,418.209564 255.380554,418.808502 257.224701,419.905396 
	C260.408356,421.799042 262.272278,424.902466 260.853760,428.291718 
	C259.855804,430.676056 257.355225,432.762207 255.029190,434.148956 
	C253.351837,435.149017 250.862137,434.921692 248.726669,434.990234 
	C244.235229,435.134460 241.194366,433.748474 242.597473,428.026062 
	C243.602692,428.358734 244.606079,428.690796 245.997528,429.150696 
z"/>
<path fill="#F3F8FC" opacity="1.000000" stroke="none" 
	d="
M404.160950,419.603149 
	C407.054260,420.474396 409.784576,420.926849 412.796509,421.425995 
	C412.615234,422.964752 412.449677,424.369904 412.262482,425.958740 
	C409.422729,425.958740 406.811584,425.958740 403.676514,425.958740 
	C403.498657,427.817108 403.336151,429.514954 403.142303,431.540466 
	C406.698578,431.831543 409.780884,432.083832 412.928955,432.341492 
	C412.928955,434.103271 412.928955,435.545898 412.928955,436.859985 
	C408.264221,436.859985 403.835815,437.042572 399.443787,436.723907 
	C398.422119,436.649780 396.676727,434.846710 396.702881,433.877960 
	C396.921173,425.787476 397.475891,417.706085 397.960876,409.055389 
	C403.421570,409.414948 408.469360,409.747345 413.759399,410.095673 
	C413.759399,411.718689 413.759399,413.117004 413.759399,414.831604 
	C410.665070,414.831604 407.740356,414.831604 404.329651,414.831604 
	C404.211884,416.376953 404.104919,417.780640 404.160950,419.603149 
z"/>
<path fill="#F2F7FB" opacity="1.000000" stroke="none" 
	d="
M303.323273,410.356079 
	C307.542328,408.719513 311.439117,406.571350 315.502411,406.187866 
	C321.051392,405.664154 321.475769,406.695160 320.758514,412.713989 
	C316.093018,411.666565 311.140900,410.249359 307.856262,415.242096 
	C305.704163,418.513306 305.576660,422.234436 307.960938,425.540192 
	C311.369965,430.266876 316.058807,428.984680 320.639069,427.700714 
	C321.558990,431.374268 321.443970,433.904877 316.687469,434.266266 
	C310.726135,434.719147 305.090668,434.397278 301.761719,428.755859 
	C298.138367,422.615479 298.641937,416.384033 303.323273,410.356079 
z"/>
<path fill="#F1F6FB" opacity="1.000000" stroke="none" 
	d="
M376.124573,425.060181 
	C376.308868,420.978333 376.492767,417.377563 376.690857,413.498596 
	C374.145538,413.299927 371.876465,413.122833 369.294891,412.921356 
	C369.294891,411.325897 369.294891,409.800201 369.294891,408.512024 
	C376.540833,408.512024 383.593262,408.512024 390.931854,408.512024 
	C391.029053,410.520355 391.098175,411.948700 391.184418,413.730438 
	C388.514526,413.864685 386.114563,413.985352 383.357391,414.123962 
	C382.959351,421.321808 382.569489,428.371307 382.155731,435.852783 
	C380.015930,435.758484 378.268951,435.681488 376.124146,435.586975 
	C376.124146,432.033081 376.124146,428.787170 376.124573,425.060181 
z"/>
<path fill="#F8FBFD" opacity="1.000000" stroke="none" 
	d="
M328.821167,424.970093 
	C328.821136,418.692413 328.821136,412.912109 328.821136,406.985474 
	C331.273804,406.985474 333.057129,406.985474 335.077759,406.985474 
	C335.077759,415.994720 335.077759,424.846558 335.077759,433.934387 
	C332.851746,433.934387 331.114777,433.934387 328.821167,433.934387 
	C328.821167,431.019836 328.821167,428.243652 328.821167,424.970093 
z"/>
<path fill="#585858" opacity="1.000000" stroke="none" 
	d="
M357.272736,113.382050 
	C356.624054,116.892220 354.691742,118.402672 351.594391,117.913620 
	C348.069977,117.357140 346.969696,114.343102 347.521362,111.614136 
	C347.997131,109.260582 349.646851,106.211754 351.622803,105.297935 
	C355.186218,103.649971 357.507202,107.017693 357.272736,113.382050 
z"/>
<path fill="#585858" opacity="1.000000" stroke="none" 
	d="
M311.272736,113.382050 
	C310.624054,116.892220 308.691742,118.402687 305.594391,117.913620 
	C302.069977,117.357147 300.969666,114.343094 301.521332,111.614128 
	C301.997131,109.260590 303.646851,106.211769 305.622803,105.297935 
	C309.186218,103.649963 311.507233,107.017693 311.272736,113.382050 
z"/>
<path fill="#575757" opacity="1.000000" stroke="none" 
	d="
M395.793030,153.244354 
	C394.994995,161.703598 391.976166,164.060577 383.186920,163.188019 
	C383.186920,157.484085 383.186920,151.736771 383.186920,145.960281 
	C390.102051,144.131775 393.774414,146.119766 395.793030,153.244354 
z"/>
<path fill="#5C5C5C" opacity="1.000000" stroke="none" 
	d="
M257.941833,152.555099 
	C257.852081,150.012222 257.852081,147.897308 257.852081,144.353165 
	C260.943878,145.568344 263.485718,146.206268 265.519714,147.590454 
	C266.117279,147.997101 265.704773,151.595474 265.012238,151.872299 
	C262.878265,152.725220 260.385162,152.679611 257.941833,152.555099 
z"/>
<path fill="#FAFAFA" opacity="1.000000" stroke="none" 
	d="
M319.028961,322.925446 
	C319.984955,311.697632 326.223450,306.248505 334.530945,308.946625 
	C340.925293,311.023376 344.046814,319.558105 341.511078,328.031372 
	C339.589539,334.452332 333.853882,337.839966 327.633362,336.006317 
	C321.392731,334.166718 319.571198,329.157135 319.028961,322.925446 
z"/>
<path fill="#F8F8F8" opacity="1.000000" stroke="none" 
	d="
M180.361481,329.365845 
	C178.251068,338.163361 173.992432,340.877136 162.480423,340.717072 
	C161.896729,331.948547 161.309799,323.131134 160.726196,314.363831 
	C175.155853,311.946838 180.647934,316.151398 180.361481,329.365845 
z"/>
<path fill="#F3F3F3" opacity="1.000000" stroke="none" 
	d="
M437.704987,317.285583 
	C436.436188,324.400940 433.880646,325.744690 425.369598,323.859070 
	C425.626862,320.066986 425.888794,316.206238 426.173737,312.006744 
	C430.769409,312.427917 435.585358,311.273163 437.704987,317.285583 
z"/>
<path fill="#EEEEEE" opacity="1.000000" stroke="none" 
	d="
M334.376404,256.053009 
	C334.378204,253.802414 334.378204,251.999084 334.378204,249.951096 
	C338.479614,249.061661 342.506317,248.562744 345.037415,251.964920 
	C346.184906,253.507355 346.175079,256.972076 345.224121,258.803467 
	C342.921692,263.237610 338.516876,261.761627 334.374573,261.628845 
	C334.374573,259.721771 334.374573,258.111023 334.376404,256.053009 
z"/>
<path fill="#ECECEC" opacity="1.000000" stroke="none" 
	d="
M228.427032,255.513702 
	C228.866898,254.219833 229.154510,253.274948 229.828201,251.061630 
	C232.177216,256.975769 234.127762,261.886627 236.319366,267.404419 
	C232.351807,267.404419 228.965088,267.404419 224.943176,267.404419 
	C226.042435,263.596191 227.158600,259.729462 228.427032,255.513702 
z"/>
<path fill="#F7F7F7" opacity="1.000000" stroke="none" 
	d="
M375.970703,317.690308 
	C373.560547,323.528717 370.896393,324.604889 363.938416,322.982208 
	C363.938416,318.708099 363.938416,314.460144 363.938416,310.276215 
	C373.047455,309.209473 375.474121,310.687866 375.970703,317.690308 
z"/>
<path fill="#0668B7" opacity="1.000000" stroke="none" 
	d="
M273.692932,421.747833 
	C273.922150,419.387817 273.639832,416.985291 274.696808,415.618774 
	C276.052704,413.865845 278.495667,411.934784 280.451416,411.954468 
	C282.368744,411.973755 285.142151,413.954834 285.947266,415.778137 
	C286.990570,418.140808 287.311584,421.555969 286.353394,423.855438 
	C285.458069,426.004120 282.624176,428.428925 280.395538,428.701050 
	C276.380585,429.191284 274.298370,426.088257 273.692932,421.747833 
z"/>
<path fill="#1E76BE" opacity="1.000000" stroke="none" 
	d="
M356.504303,423.572510 
	C354.551819,423.786163 352.946350,423.786163 350.819183,423.786163 
	C352.048798,420.369781 353.098450,417.453461 354.661682,413.110138 
	C355.592316,417.466034 356.221832,420.412415 356.504303,423.572510 
z"/>
<path fill="#1E76BE" opacity="1.000000" stroke="none" 
	d="
M198.753082,424.941650 
	C196.850281,425.515106 195.115570,425.731506 192.769150,426.024231 
	C193.711655,422.401520 194.482727,419.437805 195.531998,415.404755 
	C196.890396,419.084106 197.905792,421.834381 198.753082,424.941650 
z"/>
</svg>