<svg version="1.1" id="Layer_1" xmlns="http://www.w3.org/2000/svg" xmlns:xlink="http://www.w3.org/1999/xlink" x="0px" y="0px"
	 width="100%" viewBox="0 0 600 600" enable-background="new 0 0 600 600" xml:space="preserve">
<path fill="#FFFFFF" opacity="1.000000" stroke="none" 
	d="
M340.000000,601.000000 
	C226.666672,601.000000 113.833336,601.000000 1.000000,601.000000 
	C1.000000,401.000000 1.000000,201.000000 1.000000,1.000000 
	C201.000000,1.000000 401.000000,1.000000 601.000000,1.000000 
	C601.000000,201.000000 601.000000,401.000000 601.000000,601.000000 
	C514.166687,601.000000 427.333344,601.000000 340.000000,601.000000 
M511.927338,399.013153 
	C516.559814,399.816101 521.220337,400.484772 525.819397,401.447266 
	C539.416748,404.292969 556.739380,397.535492 560.932007,382.004150 
	C563.672607,371.851624 565.358765,361.411407 567.438110,351.084106 
	C570.002197,338.349365 572.551819,325.611023 574.984924,312.850830 
	C578.210876,295.932770 580.512695,278.790375 584.689636,262.114594 
	C589.418213,243.236450 579.223816,225.943130 560.713013,221.947449 
	C554.529236,220.612625 548.285156,219.523819 542.034363,218.540192 
	C531.733459,216.919235 521.404785,215.475388 511.009125,213.027954 
	C511.006561,176.365189 511.031433,139.702377 510.958099,103.039757 
	C510.950958,99.460777 510.649811,95.821190 509.953674,92.315262 
	C506.733124,76.095123 497.559235,64.333504 481.850922,59.105164 
	C458.202484,51.234043 434.256195,44.252144 410.400421,37.011150 
	C382.692200,28.600813 354.890656,20.493860 327.238068,11.906005 
	C313.809143,7.735490 300.377930,4.917790 286.525238,8.894999 
	C263.794464,15.421169 241.140930,22.219126 218.487930,29.012819 
	C186.438980,38.624382 154.457397,48.462219 122.373573,57.955143 
	C104.887955,63.128769 90.763069,81.878593 90.906570,100.973106 
	C91.189590,138.632278 90.940971,176.295425 90.054550,213.989471 
	C77.987190,215.850861 65.914139,217.676346 53.854530,219.586700 
	C46.182945,220.801926 38.516720,221.639954 31.493742,225.747116 
	C20.113615,232.402435 14.095364,245.170273 16.776367,257.569244 
	C19.110867,268.365753 20.952576,279.269257 22.985947,290.130341 
	C25.856140,305.461304 28.653568,320.806000 31.573908,336.127350 
	C33.975639,348.727875 37.110355,361.221252 38.839016,373.909454 
	C41.118301,390.639160 53.154118,402.472260 70.625870,401.881927 
	C77.406952,401.652832 84.140945,400.029907 90.989983,399.946472 
	C92.263611,409.117828 92.963326,418.413757 94.921272,427.436615 
	C100.241074,451.951996 113.416908,472.524139 129.740570,490.898132 
	C139.689774,502.096954 151.130295,512.067261 162.524887,521.863647 
	C180.747513,537.530334 200.992035,550.516663 222.293427,561.413757 
	C244.495758,572.771729 267.520203,582.551514 290.396698,592.536865 
	C294.653076,594.394653 299.223297,597.333313 304.662933,595.042664 
	C317.993256,589.429504 331.649689,584.546387 344.772461,578.496582 
	C358.666260,572.091431 372.246368,564.954407 385.676239,557.611633 
	C395.430481,552.278381 405.031342,546.538635 414.130463,540.166016 
	C424.770233,532.714478 434.777435,524.361328 445.083130,516.430664 
	C460.291229,504.727386 473.097595,490.666443 484.199310,475.160583 
	C500.453125,452.458649 510.735657,427.454926 511.927338,399.013153 
z"/>
<path fill="#012151" opacity="1.000000" stroke="none" 
	d="
M90.912216,213.956940 
	C90.940971,176.295425 91.189590,138.632278 90.906570,100.973106 
	C90.763069,81.878593 104.887955,63.128769 122.373573,57.955143 
	C154.457397,48.462219 186.438980,38.624382 218.487930,29.012819 
	C241.140930,22.219126 263.794464,15.421169 286.525238,8.894999 
	C300.377930,4.917790 313.809143,7.735490 327.238068,11.906005 
	C354.890656,20.493860 382.692200,28.600813 410.400421,37.011150 
	C434.256195,44.252144 458.202484,51.234043 481.850922,59.105164 
	C497.559235,64.333504 506.733124,76.095123 509.953674,92.315262 
	C510.649811,95.821190 510.950958,99.460777 510.958099,103.039757 
	C511.031433,139.702377 511.006561,176.365189 510.614319,213.517029 
	C500.539124,212.711334 490.884583,211.163559 481.173309,210.171478 
	C456.778961,207.679352 432.384155,205.118256 407.941284,203.199081 
	C388.754883,201.692657 369.499878,200.353210 350.269226,200.263779 
	C309.670197,200.075027 269.066742,200.709610 228.466187,201.118240 
	C221.499619,201.188354 214.526031,201.654083 207.577484,202.209702 
	C188.416443,203.741821 169.256927,205.309891 150.116882,207.080902 
	C139.566605,208.057098 129.055557,209.459961 118.529022,210.689438 
	C109.321808,211.764801 100.117699,212.866745 90.912216,213.956940 
M210.349533,105.246864 
	C212.565887,111.476143 214.782227,117.705421 216.886795,123.620514 
	C221.320923,124.963676 223.254547,123.544670 224.340912,119.415344 
	C225.821686,113.786751 228.122879,108.374001 230.072327,102.868706 
	C230.421799,102.958534 230.771286,103.048370 231.120758,103.138199 
	C231.120758,110.054268 231.120758,116.970345 231.120758,123.773163 
	C233.407196,123.773163 235.340958,123.773163 237.437622,123.773163 
	C237.437622,113.459625 237.437622,103.395546 237.437622,93.174454 
	C236.038086,93.099915 234.873337,93.167946 233.761871,92.956207 
	C228.915115,92.032890 226.730301,94.200676 225.585266,98.846214 
	C224.328003,103.947098 222.234848,108.841942 220.211426,114.675507 
	C217.542068,107.039856 215.110458,100.084290 212.674744,93.116974 
	C209.297974,93.116974 206.159698,93.116974 202.867859,93.116974 
	C202.867859,103.441170 202.867859,113.623352 202.867859,123.744308 
	C204.987259,123.744308 206.742310,123.744308 208.848526,123.744308 
	C208.848526,120.505943 208.847519,117.539139 208.848801,114.572334 
	C208.850159,111.410896 208.832062,108.248947 208.908081,105.089279 
	C208.912827,104.892075 209.662720,104.712799 210.349533,105.246864 
M341.005493,108.696884 
	C340.862061,109.849983 340.621307,111.000542 340.591034,112.156601 
	C340.403503,119.316772 344.590698,123.762115 351.702515,124.013054 
	C359.127594,124.275040 363.945679,120.034409 364.268921,112.952721 
	C364.544464,106.916489 361.774567,102.953209 356.209229,101.420525 
	C349.987823,99.707169 344.469238,102.121361 341.005493,108.696884 
M316.819641,106.054482 
	C315.919220,105.088745 315.140839,103.958023 314.097107,103.186035 
	C309.754395,99.973999 302.463318,100.266129 298.292480,103.707512 
	C294.681000,106.687408 293.446564,113.133919 295.580139,117.872078 
	C297.667328,122.507233 303.269287,124.995316 309.056000,123.857307 
	C316.838013,122.326897 320.019287,115.600182 316.819641,106.054482 
M374.071442,92.352043 
	C372.040802,95.599380 370.010193,98.846718 367.979553,102.094048 
	C367.112976,103.169273 367.545898,105.752579 368.057312,105.768211 
	C371.420044,105.870956 370.631592,108.167870 370.651154,110.005089 
	C370.699921,114.595856 370.667206,119.187492 370.667206,123.766937 
	C373.228729,123.766937 375.153290,123.766937 377.558258,123.766937 
	C377.558258,117.802536 377.558258,112.055763 377.558258,106.334717 
	C379.442108,106.069641 380.851318,105.871346 382.263184,105.672676 
	C382.263184,104.057037 382.263184,102.777748 382.263184,101.349380 
	C380.593903,101.065239 379.063385,100.804718 377.532867,100.544197 
	C377.278137,100.048927 377.023407,99.553658 376.768677,99.058395 
	C378.614471,97.753510 380.460266,96.448631 382.898468,94.724945 
	C383.154633,90.585571 381.719696,89.886299 374.071442,92.352043 
M335.748566,111.870560 
	C333.162292,110.621506 330.576019,109.372452 327.989746,108.123398 
	C328.083069,107.672836 328.176392,107.222282 328.269714,106.771721 
	C331.111389,106.771721 333.953064,106.771721 336.819946,106.771721 
	C336.819946,104.872215 336.819946,103.422112 336.819946,101.474365 
	C333.549133,101.474365 330.440155,101.197395 327.403351,101.547134 
	C323.906799,101.949814 321.041443,104.250626 321.630524,107.742958 
	C322.033203,110.130020 324.556641,112.364868 326.556122,114.207466 
	C327.975616,115.515556 330.102783,116.055664 331.914093,116.938568 
	C331.780151,117.552818 331.646210,118.167076 331.512268,118.781326 
	C328.259644,118.556587 325.007019,118.331841 321.601990,118.096565 
	C321.601990,119.398766 321.601990,121.111740 321.601990,123.399109 
	C325.469086,123.399109 329.171356,124.012497 332.572998,123.262390 
	C338.386688,121.980400 339.707123,117.524887 335.748566,111.870560 
M388.290863,107.726952 
	C388.498474,111.707710 388.339874,115.752617 389.022705,119.650124 
	C389.634247,123.140869 394.268982,125.267296 397.859711,123.716484 
	C399.152222,123.158249 399.691528,120.856041 400.813232,118.942642 
	C394.776611,118.303314 394.512421,117.498909 395.545197,106.388412 
	C397.006378,106.123451 398.538483,105.845634 399.905762,105.597702 
	C399.905762,103.980591 399.905762,102.688461 399.905762,101.163017 
	C398.336884,101.027023 396.926147,100.904732 395.409271,100.773247 
	C395.232086,98.408859 395.078339,96.357117 394.917419,94.209938 
	C391.534821,95.212593 387.512634,94.901848 388.183014,99.957413 
	C388.221039,100.243965 387.596588,100.597435 387.319824,100.950592 
	C386.507019,101.987701 384.866791,103.332161 385.104095,104.021255 
	C385.498566,105.166634 387.103271,105.895226 388.290863,107.726952 
M255.881516,115.626305 
	C258.157288,122.033928 262.027954,124.523499 268.686432,124.024223 
	C272.538483,123.735374 274.589081,122.296043 273.602020,119.606102 
	C269.575012,118.416451 265.962708,118.221336 263.742340,116.363060 
	C262.431244,115.265785 262.250000,110.284096 263.451630,109.253052 
	C265.863098,107.183868 269.570984,106.625519 273.641968,105.108994 
	C274.442322,102.315544 272.496185,100.960533 268.445831,100.944832 
	C259.813538,100.911385 255.555023,105.471313 255.881516,115.626305 
M277.794708,112.499954 
	C277.794708,116.257759 277.794708,120.015564 277.794708,123.635933 
	C280.409943,123.635933 282.441986,123.635933 283.969116,123.635933 
	C287.015045,117.657066 279.535217,107.503014 291.912872,106.619354 
	C291.912872,104.664062 291.912872,102.905426 291.912872,100.221596 
	C289.216949,101.415894 287.111572,102.348579 285.006195,103.281265 
	C285.134705,102.896317 285.263184,102.511368 285.391693,102.126419 
	C283.003510,101.654884 280.615356,101.183350 277.794708,100.626434 
	C277.794708,104.912483 277.794708,108.211105 277.794708,112.499954 
M379.968689,155.489899 
	C379.968689,158.920044 379.968689,162.350189 379.968689,165.858032 
	C386.848694,166.231552 393.409973,166.920746 397.125000,160.143372 
	C399.500183,155.810287 399.563721,150.931030 396.555511,146.944153 
	C392.275116,141.271225 385.970673,143.156128 379.968689,143.114059 
	C379.968689,147.237778 379.968689,150.868866 379.968689,155.489899 
M266.087097,157.274704 
	C266.199371,156.217346 266.196472,155.131851 266.446716,154.108215 
	C267.064117,151.582581 268.854095,148.726456 268.161102,146.686508 
	C267.572296,144.953094 264.292999,143.752197 261.982605,143.097977 
	C259.893280,142.506348 257.504242,142.973007 255.376434,142.973007 
	C255.376434,151.003860 255.376434,158.476059 255.376434,165.948257 
	C255.964050,166.032822 256.551666,166.117386 257.139282,166.201950 
	C257.512909,163.004013 257.886536,159.806076 258.278503,156.451248 
	C265.998230,154.642014 264.409027,165.922897 271.638519,166.044601 
	C269.676819,162.901627 268.108246,160.388474 266.087097,157.274704 
M250.716003,114.456467 
	C250.716003,110.032921 250.716003,105.609375 250.716003,101.204987 
	C248.111618,101.204987 246.183197,101.204987 244.107864,101.204987 
	C244.107864,108.838531 244.107864,116.239334 244.107864,123.683563 
	C246.364761,123.683563 248.393875,123.683563 250.715973,123.683563 
	C250.715973,120.706383 250.715973,118.069054 250.716003,114.456467 
M361.543732,166.017944 
	C364.063263,166.017944 366.582794,166.017944 369.102325,166.017944 
	C369.150513,165.371277 369.198700,164.724594 369.246887,164.077927 
	C366.264954,163.776871 363.283020,163.475800 360.097839,163.154221 
	C360.097839,160.662384 360.097839,158.250076 360.097839,155.842331 
	C362.938293,155.524002 365.521912,155.234451 368.105530,154.944916 
	C368.044128,154.385696 367.982727,153.826477 367.921326,153.267258 
	C365.255310,153.074265 362.589264,152.881256 360.167084,152.705902 
	C360.167084,150.038467 360.167084,147.785278 360.167084,145.476318 
	C363.254822,145.226349 366.028229,145.001831 368.801636,144.777298 
	C368.774628,144.352921 368.747620,143.928528 368.720612,143.504150 
	C364.853912,143.504150 360.987244,143.504150 356.982269,143.504150 
	C356.982269,149.999008 357.144348,156.308258 356.911346,162.602875 
	C356.800995,165.583771 357.923584,166.432388 361.543732,166.017944 
M241.948242,163.577744 
	C239.356262,163.577744 236.764267,163.577744 234.176636,163.577744 
	C234.176636,160.499191 234.176636,158.112518 234.176636,156.425095 
	C236.691467,154.117203 240.382202,157.336380 242.389450,153.197113 
	C239.295609,153.045807 236.716293,152.919662 234.250916,152.799088 
	C234.250916,150.113571 234.250916,147.751541 234.250916,145.504150 
	C237.386963,145.212280 240.109695,144.958862 242.832428,144.705444 
	C242.792435,144.268616 242.752441,143.831787 242.712448,143.394958 
	C238.912155,143.394958 235.111862,143.394958 231.218674,143.394958 
	C231.218674,150.887573 231.218674,158.277313 231.218674,166.010254 
	C234.735580,166.010254 238.026093,166.102051 241.301041,165.917511 
	C241.830444,165.887665 242.290619,164.629288 241.948242,163.577744 
M206.169266,145.648422 
	C202.051865,150.693954 201.286545,157.235428 204.285950,161.745956 
	C206.861160,165.618607 212.007156,167.390427 217.112656,165.953705 
	C218.186127,165.651596 219.057159,164.630096 220.021484,163.940079 
	C209.825241,164.584412 205.654297,162.164490 205.344345,155.110336 
	C205.019318,147.713425 209.035721,144.994293 219.722214,145.376373 
	C217.657379,141.473389 212.566803,141.380249 206.169266,145.648422 
M318.957275,146.644241 
	C318.957275,153.073990 318.957275,159.503754 318.957275,167.026581 
	C324.060791,163.710007 320.266815,158.931366 322.549988,156.031372 
	C325.054443,155.877731 327.540710,155.725189 330.026978,155.572662 
	C330.055664,154.972076 330.084381,154.371506 330.113068,153.770920 
	C327.492798,153.430649 324.872559,153.090363 322.233521,152.747650 
	C322.233521,150.256927 322.233521,147.884766 322.233521,145.548264 
	C325.341766,145.255875 328.096100,144.996765 330.850433,144.737671 
	C330.823181,144.157135 330.795929,143.576584 330.768677,142.996048 
	C327.274994,142.996048 323.774384,142.889786 320.295319,143.115250 
	C319.796326,143.147568 319.401154,144.781174 318.957275,146.644241 
M287.030273,156.481216 
	C287.030273,152.858749 287.030273,149.236282 287.030273,145.724945 
	C289.649170,145.241562 291.783264,144.847672 293.917358,144.453766 
	C293.835083,144.206177 293.752808,143.958588 293.670532,143.710999 
	C288.396210,143.710999 283.121887,143.710999 277.847565,143.710999 
	C277.851410,144.063263 277.855255,144.415512 277.859131,144.767776 
	C279.886902,145.060272 281.914673,145.352768 284.139557,145.673706 
	C284.139557,149.576157 283.843536,153.263123 284.230621,156.876923 
	C284.556702,159.920853 282.499481,163.743362 287.030273,167.080566 
	C287.030273,163.050049 287.030273,160.252853 287.030273,156.481216 
M342.456665,143.087494 
	C342.456665,150.712280 342.456665,158.337067 342.456665,165.961853 
	C342.966248,166.354446 343.475830,166.747040 343.985413,167.139633 
	C344.270905,166.260422 344.796112,165.383316 344.803802,164.501678 
	C344.863251,157.698532 344.845062,150.894196 344.751678,144.091583 
	C344.746552,143.718628 343.856934,143.357803 342.456665,143.087494 
M304.004791,165.089676 
	C305.878174,166.680450 306.844330,166.117249 306.858368,163.789719 
	C306.896332,157.484344 306.932190,151.177109 306.782959,144.875015 
	C306.765808,144.150558 305.573242,143.453949 303.961548,141.688110 
	C303.961548,150.270126 303.961548,157.212936 304.004791,165.089676 
M243.776443,95.926941 
	C245.461334,96.556786 247.122421,97.526527 248.842987,97.646980 
	C249.518677,97.694283 251.125168,95.591324 250.910339,94.905106 
	C250.456253,93.454742 249.271835,91.459488 248.046906,91.180359 
	C245.245560,90.542046 243.294571,91.952370 243.776443,95.926941 
z"/>
<path fill="#525253" opacity="1.000000" stroke="none" 
	d="
M90.483383,213.973206 
	C100.117699,212.866745 109.321808,211.764801 118.529022,210.689438 
	C129.055557,209.459961 139.566605,208.057098 150.116882,207.080902 
	C169.256927,205.309891 188.416443,203.741821 207.577484,202.209702 
	C214.526031,201.654083 221.499619,201.188354 228.466187,201.118240 
	C269.066742,200.709610 309.670197,200.075027 350.269226,200.263779 
	C369.499878,200.353210 388.754883,201.692657 407.941284,203.199081 
	C432.384155,205.118256 456.778961,207.679352 481.173309,210.171478 
	C490.884583,211.163559 500.539124,212.711334 510.653625,213.981506 
	C521.404785,215.475388 531.733459,216.919235 542.034363,218.540192 
	C548.285156,219.523819 554.529236,220.612625 560.713013,221.947449 
	C579.223816,225.943130 589.418213,243.236450 584.689636,262.114594 
	C580.512695,278.790375 578.210876,295.932770 574.984924,312.850830 
	C572.551819,325.611023 570.002197,338.349365 567.438110,351.084106 
	C565.358765,361.411407 563.672607,371.851624 560.932007,382.004150 
	C556.739380,397.535492 539.416748,404.292969 525.819397,401.447266 
	C521.220337,400.484772 516.559814,399.816101 511.143921,398.855835 
	C503.551117,397.755157 496.741760,396.811798 489.631470,395.630371 
	C463.609680,392.541962 437.938843,389.065186 412.154724,387.007721 
	C383.190277,384.696442 354.139801,383.109711 325.096008,382.261139 
	C302.993896,381.615448 280.842224,382.531189 258.715485,382.917938 
	C246.911957,383.124237 235.107391,383.537384 223.316620,384.124634 
	C213.199722,384.628540 203.082428,385.310364 192.999603,386.272766 
	C174.334244,388.054382 155.679993,389.975769 137.049530,392.089325 
	C128.686935,393.037994 120.392799,394.590088 111.621475,395.879456 
	C104.415703,396.940948 97.656044,397.991425 90.896385,399.041901 
	C84.140945,400.029907 77.406952,401.652832 70.625870,401.881927 
	C53.154118,402.472260 41.118301,390.639160 38.839016,373.909454 
	C37.110355,361.221252 33.975639,348.727875 31.573908,336.127350 
	C28.653568,320.806000 25.856140,305.461304 22.985947,290.130341 
	C20.952576,279.269257 19.110867,268.365753 16.776367,257.569244 
	C14.095364,245.170273 20.113615,232.402435 31.493742,225.747116 
	C38.516720,221.639954 46.182945,220.801926 53.854530,219.586700 
	C65.914139,217.676346 77.987190,215.850861 90.483383,213.973206 
M541.400879,387.113464 
	C547.158997,383.968079 549.644897,378.749817 550.814941,372.586060 
	C558.101379,334.199768 565.438232,295.823090 572.748413,257.441315 
	C574.966797,245.793884 569.190186,236.839661 557.572205,233.898697 
	C556.122864,233.531815 554.652893,233.222549 553.175903,232.992752 
	C539.696960,230.895782 526.224304,228.754623 512.730896,226.753845 
	C457.189209,218.518173 401.315887,213.616776 345.216125,212.376785 
	C308.276947,211.560303 271.225098,211.471436 234.347046,213.407059 
	C191.840958,215.638077 149.431946,220.070129 107.058517,224.321396 
	C87.219101,226.311829 67.547005,230.025604 47.827751,233.139908 
	C33.064793,235.471466 26.897024,244.647964 29.728128,259.389557 
	C32.864460,275.720551 35.885094,292.073700 39.004238,308.408020 
	C43.244858,330.615234 47.381794,352.843994 51.864502,375.002533 
	C53.923485,385.180298 62.882259,390.786316 73.073410,389.351471 
	C101.076797,385.408691 129.006760,380.607178 157.137329,377.987701 
	C194.888077,374.472443 232.771637,371.314392 270.650208,370.536255 
	C309.883148,369.730316 349.208008,371.283020 388.438263,373.027618 
	C432.021667,374.965851 475.276764,380.590698 518.341614,387.609528 
	C525.736023,388.814636 533.310913,391.814545 541.400879,387.113464 
z"/>
<path fill="#002050" opacity="1.000000" stroke="none" 
	d="
M489.932373,395.868408 
	C496.741760,396.811798 503.551117,397.755157 510.731140,398.871460 
	C510.735657,427.454926 500.453125,452.458649 484.199310,475.160583 
	C473.097595,490.666443 460.291229,504.727386 445.083130,516.430664 
	C434.777435,524.361328 424.770233,532.714478 414.130463,540.166016 
	C405.031342,546.538635 395.430481,552.278381 385.676239,557.611633 
	C372.246368,564.954407 358.666260,572.091431 344.772461,578.496582 
	C331.649689,584.546387 317.993256,589.429504 304.662933,595.042664 
	C299.223297,597.333313 294.653076,594.394653 290.396698,592.536865 
	C267.520203,582.551514 244.495758,572.771729 222.293427,561.413757 
	C200.992035,550.516663 180.747513,537.530334 162.524887,521.863647 
	C151.130295,512.067261 139.689774,502.096954 129.740570,490.898132 
	C113.416908,472.524139 100.241074,451.951996 94.921272,427.436615 
	C92.963326,418.413757 92.263611,409.117828 90.943184,399.494202 
	C97.656044,397.991425 104.415703,396.940948 111.623108,396.345764 
	C112.488770,420.496582 120.227821,441.752380 133.597687,461.100555 
	C149.730698,484.447327 170.745224,502.775970 193.841263,518.807373 
	C226.149277,541.233093 261.138855,558.568542 297.943237,572.270935 
	C300.004425,573.038391 302.915771,572.681458 305.065704,571.874023 
	C329.567963,562.671936 353.177826,551.530334 375.884827,538.513000 
	C407.557922,520.355530 437.060394,499.398621 460.475220,470.951874 
	C478.395782,449.180115 489.772552,424.684723 489.932373,395.868408 
z"/>
<path fill="#F3F5F7" opacity="1.000000" stroke="none" 
	d="
M210.207733,104.886024 
	C209.662720,104.712799 208.912827,104.892075 208.908081,105.089279 
	C208.832062,108.248947 208.850159,111.410896 208.848801,114.572334 
	C208.847519,117.539139 208.848526,120.505943 208.848526,123.744308 
	C206.742310,123.744308 204.987259,123.744308 202.867859,123.744308 
	C202.867859,113.623352 202.867859,103.441170 202.867859,93.116974 
	C206.159698,93.116974 209.297974,93.116974 212.674744,93.116974 
	C215.110458,100.084290 217.542068,107.039856 220.211426,114.675507 
	C222.234848,108.841942 224.328003,103.947098 225.585266,98.846214 
	C226.730301,94.200676 228.915115,92.032890 233.761871,92.956207 
	C234.873337,93.167946 236.038086,93.099915 237.437622,93.174454 
	C237.437622,103.395546 237.437622,113.459625 237.437622,123.773163 
	C235.340958,123.773163 233.407196,123.773163 231.120758,123.773163 
	C231.120758,116.970345 231.120758,110.054268 231.120758,103.138199 
	C230.771286,103.048370 230.421799,102.958534 230.072327,102.868706 
	C228.122879,108.374001 225.821686,113.786751 224.340912,119.415344 
	C223.254547,123.544670 221.320923,124.963676 216.886795,123.620514 
	C214.782227,117.705421 212.565887,111.476143 210.207733,104.886024 
z"/>
<path fill="#F7F8FA" opacity="1.000000" stroke="none" 
	d="
M341.121033,108.333725 
	C344.469238,102.121361 349.987823,99.707169 356.209229,101.420525 
	C361.774567,102.953209 364.544464,106.916489 364.268921,112.952721 
	C363.945679,120.034409 359.127594,124.275040 351.702515,124.013054 
	C344.590698,123.762115 340.403503,119.316772 340.591034,112.156601 
	C340.621307,111.000542 340.862061,109.849983 341.121033,108.333725 
M347.880127,109.464790 
	C347.855072,111.407860 347.474915,113.429291 347.882660,115.276840 
	C348.617218,118.605301 352.339386,120.437721 354.597626,118.325905 
	C356.247009,116.783478 357.238525,113.874039 357.314789,111.534576 
	C357.370178,109.834404 355.660431,106.846367 354.361755,106.623566 
	C352.459717,106.297226 350.221344,107.931168 347.880127,109.464790 
z"/>
<path fill="#F7F8FA" opacity="1.000000" stroke="none" 
	d="
M316.970520,106.428848 
	C320.019287,115.600182 316.838013,122.326897 309.056000,123.857307 
	C303.269287,124.995316 297.667328,122.507233 295.580139,117.872078 
	C293.446564,113.133919 294.681000,106.687408 298.292480,103.707512 
	C302.463318,100.266129 309.754395,99.973999 314.097107,103.186035 
	C315.140839,103.958023 315.919220,105.088745 316.970520,106.428848 
M311.343201,114.010391 
	C311.513519,108.004875 309.203796,104.640213 305.624146,106.288589 
	C303.651001,107.197212 302.008545,110.257645 301.534882,112.612999 
	C300.987274,115.336296 302.044128,118.374695 305.593170,118.922737 
	C308.683990,119.400024 310.640686,117.922775 311.343201,114.010391 
z"/>
<path fill="#FDFEFE" opacity="1.000000" stroke="none" 
	d="
M374.436615,92.178696 
	C381.719696,89.886299 383.154633,90.585571 382.898468,94.724945 
	C380.460266,96.448631 378.614471,97.753510 376.768677,99.058395 
	C377.023407,99.553658 377.278137,100.048927 377.532867,100.544197 
	C379.063385,100.804718 380.593903,101.065239 382.263184,101.349380 
	C382.263184,102.777748 382.263184,104.057037 382.263184,105.672676 
	C380.851318,105.871346 379.442108,106.069641 377.558258,106.334717 
	C377.558258,112.055763 377.558258,117.802536 377.558258,123.766937 
	C375.153290,123.766937 373.228729,123.766937 370.667206,123.766937 
	C370.667206,119.187492 370.699921,114.595856 370.651154,110.005089 
	C370.631592,108.167870 371.420044,105.870956 368.057312,105.768211 
	C367.545898,105.752579 367.112976,103.169273 367.979553,102.094048 
	C370.010193,98.846718 372.040802,95.599380 374.436615,92.178696 
z"/>
<path fill="#F5F6F8" opacity="1.000000" stroke="none" 
	d="
M336.066101,112.102097 
	C339.707123,117.524887 338.386688,121.980400 332.572998,123.262390 
	C329.171356,124.012497 325.469086,123.399109 321.601990,123.399109 
	C321.601990,121.111740 321.601990,119.398766 321.601990,118.096565 
	C325.007019,118.331841 328.259644,118.556587 331.512268,118.781326 
	C331.646210,118.167076 331.780151,117.552818 331.914093,116.938568 
	C330.102783,116.055664 327.975616,115.515556 326.556122,114.207466 
	C324.556641,112.364868 322.033203,110.130020 321.630524,107.742958 
	C321.041443,104.250626 323.906799,101.949814 327.403351,101.547134 
	C330.440155,101.197395 333.549133,101.474365 336.819946,101.474365 
	C336.819946,103.422112 336.819946,104.872215 336.819946,106.771721 
	C333.953064,106.771721 331.111389,106.771721 328.269714,106.771721 
	C328.176392,107.222282 328.083069,107.672836 327.989746,108.123398 
	C330.576019,109.372452 333.162292,110.621506 336.066101,112.102097 
z"/>
<path fill="#F7F8F9" opacity="1.000000" stroke="none" 
	d="
M388.244568,107.263153 
	C387.103271,105.895226 385.498566,105.166634 385.104095,104.021255 
	C384.866791,103.332161 386.507019,101.987701 387.319824,100.950592 
	C387.596588,100.597435 388.221039,100.243965 388.183014,99.957413 
	C387.512634,94.901848 391.534821,95.212593 394.917419,94.209938 
	C395.078339,96.357117 395.232086,98.408859 395.409271,100.773247 
	C396.926147,100.904732 398.336884,101.027023 399.905762,101.163017 
	C399.905762,102.688461 399.905762,103.980591 399.905762,105.597702 
	C398.538483,105.845634 397.006378,106.123451 395.545197,106.388412 
	C394.512421,117.498909 394.776611,118.303314 400.813232,118.942642 
	C399.691528,120.856041 399.152222,123.158249 397.859711,123.716484 
	C394.268982,125.267296 389.634247,123.140869 389.022705,119.650124 
	C388.339874,115.752617 388.498474,111.707710 388.244568,107.263153 
z"/>
<path fill="#F8F9FA" opacity="1.000000" stroke="none" 
	d="
M255.813843,115.251526 
	C255.555023,105.471313 259.813538,100.911385 268.445831,100.944832 
	C272.496185,100.960533 274.442322,102.315544 273.641968,105.108994 
	C269.570984,106.625519 265.863098,107.183868 263.451630,109.253052 
	C262.250000,110.284096 262.431244,115.265785 263.742340,116.363060 
	C265.962708,118.221336 269.575012,118.416451 273.602020,119.606102 
	C274.589081,122.296043 272.538483,123.735374 268.686432,124.024223 
	C262.027954,124.523499 258.157288,122.033928 255.813843,115.251526 
z"/>
<path fill="#F5F6F8" opacity="1.000000" stroke="none" 
	d="
M277.794708,112.004837 
	C277.794708,108.211105 277.794708,104.912483 277.794708,100.626434 
	C280.615356,101.183350 283.003510,101.654884 285.391693,102.126419 
	C285.263184,102.511368 285.134705,102.896317 285.006195,103.281265 
	C287.111572,102.348579 289.216949,101.415894 291.912872,100.221596 
	C291.912872,102.905426 291.912872,104.664062 291.912872,106.619354 
	C279.535217,107.503014 287.015045,117.657066 283.969116,123.635933 
	C282.441986,123.635933 280.409943,123.635933 277.794708,123.635933 
	C277.794708,120.015564 277.794708,116.257759 277.794708,112.004837 
z"/>
<path fill="#EEF0F3" opacity="1.000000" stroke="none" 
	d="
M379.968689,154.994934 
	C379.968689,150.868866 379.968689,147.237778 379.968689,143.114059 
	C385.970673,143.156128 392.275116,141.271225 396.555511,146.944153 
	C399.563721,150.931030 399.500183,155.810287 397.125000,160.143372 
	C393.409973,166.920746 386.848694,166.231552 379.968689,165.858032 
	C379.968689,162.350189 379.968689,158.920044 379.968689,154.994934 
M395.784393,155.214539 
	C395.400909,147.027252 391.276764,143.999115 383.091370,145.912720 
	C383.091370,151.637543 383.091370,157.363739 383.091370,163.052017 
	C390.857544,164.097122 393.624695,162.506317 395.784393,155.214539 
z"/>
<path fill="#F0F2F5" opacity="1.000000" stroke="none" 
	d="
M266.313354,157.575012 
	C268.108246,160.388474 269.676819,162.901627 271.638519,166.044601 
	C264.409027,165.922897 265.998230,154.642014 258.278503,156.451248 
	C257.886536,159.806076 257.512909,163.004013 257.139282,166.201950 
	C256.551666,166.117386 255.964050,166.032822 255.376434,165.948257 
	C255.376434,158.476059 255.376434,151.003860 255.376434,142.973007 
	C257.504242,142.973007 259.893280,142.506348 261.982605,143.097977 
	C264.292999,143.752197 267.572296,144.953094 268.161102,146.686508 
	C268.854095,148.726456 267.064117,151.582581 266.446716,154.108215 
	C266.196472,155.131851 266.199371,156.217346 266.313354,157.575012 
M258.003387,145.977142 
	C258.003387,148.552444 258.003387,151.127747 258.003387,153.729004 
	C259.709290,153.729004 261.189423,154.181503 261.950928,153.634171 
	C263.504608,152.517441 265.631500,150.911011 265.707397,149.414276 
	C265.773468,148.111084 263.497894,146.455811 261.953125,145.401367 
	C261.165009,144.863388 259.709320,145.303345 258.003387,145.977142 
z"/>
<path fill="#F0F2F5" opacity="1.000000" stroke="none" 
	d="
M250.715988,114.944092 
	C250.715973,118.069054 250.715973,120.706383 250.715973,123.683563 
	C248.393875,123.683563 246.364761,123.683563 244.107864,123.683563 
	C244.107864,116.239334 244.107864,108.838531 244.107864,101.204987 
	C246.183197,101.204987 248.111618,101.204987 250.716003,101.204987 
	C250.716003,105.609375 250.716003,110.032921 250.715988,114.944092 
z"/>
<path fill="#F5F6F8" opacity="1.000000" stroke="none" 
	d="
M361.068787,166.017914 
	C357.923584,166.432388 356.800995,165.583771 356.911346,162.602875 
	C357.144348,156.308258 356.982269,149.999008 356.982269,143.504150 
	C360.987244,143.504150 364.853912,143.504150 368.720612,143.504150 
	C368.747620,143.928528 368.774628,144.352921 368.801636,144.777298 
	C366.028229,145.001831 363.254822,145.226349 360.167084,145.476318 
	C360.167084,147.785278 360.167084,150.038467 360.167084,152.705902 
	C362.589264,152.881256 365.255310,153.074265 367.921326,153.267258 
	C367.982727,153.826477 368.044128,154.385696 368.105530,154.944916 
	C365.521912,155.234451 362.938293,155.524002 360.097839,155.842331 
	C360.097839,158.250076 360.097839,160.662384 360.097839,163.154221 
	C363.283020,163.475800 366.264954,163.776871 369.246887,164.077927 
	C369.198700,164.724594 369.150513,165.371277 369.102325,166.017944 
	C366.582794,166.017944 364.063263,166.017944 361.068787,166.017914 
z"/>
<path fill="#F5F6F8" opacity="1.000000" stroke="none" 
	d="
M242.365509,163.758270 
	C242.290619,164.629288 241.830444,165.887665 241.301041,165.917511 
	C238.026093,166.102051 234.735580,166.010254 231.218674,166.010254 
	C231.218674,158.277313 231.218674,150.887573 231.218674,143.394958 
	C235.111862,143.394958 238.912155,143.394958 242.712448,143.394958 
	C242.752441,143.831787 242.792435,144.268616 242.832428,144.705444 
	C240.109695,144.958862 237.386963,145.212280 234.250916,145.504150 
	C234.250916,147.751541 234.250916,150.113571 234.250916,152.799088 
	C236.716293,152.919662 239.295609,153.045807 242.389450,153.197113 
	C240.382202,157.336380 236.691467,154.117203 234.176636,156.425095 
	C234.176636,158.112518 234.176636,160.499191 234.176636,163.577744 
	C236.764267,163.577744 239.356262,163.577744 242.365509,163.758270 
z"/>
<path fill="#EEF0F3" opacity="1.000000" stroke="none" 
	d="
M206.442200,145.393402 
	C212.566803,141.380249 217.657379,141.473389 219.722214,145.376373 
	C209.035721,144.994293 205.019318,147.713425 205.344345,155.110336 
	C205.654297,162.164490 209.825241,164.584412 220.021484,163.940079 
	C219.057159,164.630096 218.186127,165.651596 217.112656,165.953705 
	C212.007156,167.390427 206.861160,165.618607 204.285950,161.745956 
	C201.286545,157.235428 202.051865,150.693954 206.442200,145.393402 
z"/>
<path fill="#E8EBEF" opacity="1.000000" stroke="none" 
	d="
M318.957581,146.158997 
	C319.401154,144.781174 319.796326,143.147568 320.295319,143.115250 
	C323.774384,142.889786 327.274994,142.996048 330.768677,142.996048 
	C330.795929,143.576584 330.823181,144.157135 330.850433,144.737671 
	C328.096100,144.996765 325.341766,145.255875 322.233521,145.548264 
	C322.233521,147.884766 322.233521,150.256927 322.233521,152.747650 
	C324.872559,153.090363 327.492798,153.430649 330.113068,153.770920 
	C330.084381,154.371506 330.055664,154.972076 330.026978,155.572662 
	C327.540710,155.725189 325.054443,155.877731 322.549988,156.031372 
	C320.266815,158.931366 324.060791,163.710007 318.957275,167.026581 
	C318.957275,159.503754 318.957275,153.073990 318.957581,146.158997 
z"/>
<path fill="#EFF1F4" opacity="1.000000" stroke="none" 
	d="
M287.030273,156.968445 
	C287.030273,160.252853 287.030273,163.050049 287.030273,167.080566 
	C282.499481,163.743362 284.556702,159.920853 284.230621,156.876923 
	C283.843536,153.263123 284.139557,149.576157 284.139557,145.673706 
	C281.914673,145.352768 279.886902,145.060272 277.859131,144.767776 
	C277.855255,144.415512 277.851410,144.063263 277.847565,143.710999 
	C283.121887,143.710999 288.396210,143.710999 293.670532,143.710999 
	C293.752808,143.958588 293.835083,144.206177 293.917358,144.453766 
	C291.783264,144.847672 289.649170,145.241562 287.030273,145.724945 
	C287.030273,149.236282 287.030273,152.858749 287.030273,156.968445 
z"/>
<path fill="#E8EBEF" opacity="1.000000" stroke="none" 
	d="
M342.917847,143.039398 
	C343.856934,143.357803 344.746552,143.718628 344.751678,144.091583 
	C344.845062,150.894196 344.863251,157.698532 344.803802,164.501678 
	C344.796112,165.383316 344.270905,166.260422 343.985413,167.139633 
	C343.475830,166.747040 342.966248,166.354446 342.456665,165.961853 
	C342.456665,158.337067 342.456665,150.712280 342.917847,143.039398 
z"/>
<path fill="#E8EBEF" opacity="1.000000" stroke="none" 
	d="
M303.983154,164.622711 
	C303.961548,157.212936 303.961548,150.270126 303.961548,141.688110 
	C305.573242,143.453949 306.765808,144.150558 306.782959,144.875015 
	C306.932190,151.177109 306.896332,157.484344 306.858368,163.789719 
	C306.844330,166.117249 305.878174,166.680450 303.983154,164.622711 
z"/>
<path fill="#F0F2F5" opacity="1.000000" stroke="none" 
	d="
M243.625229,95.580688 
	C243.294571,91.952370 245.245560,90.542046 248.046906,91.180359 
	C249.271835,91.459488 250.456253,93.454742 250.910339,94.905106 
	C251.125168,95.591324 249.518677,97.694283 248.842987,97.646980 
	C247.122421,97.526527 245.461334,96.556786 243.625229,95.580688 
z"/>
<path fill="#FDFDFD" opacity="1.000000" stroke="none" 
	d="
M541.073608,387.301178 
	C533.310913,391.814545 525.736023,388.814636 518.341614,387.609528 
	C475.276764,380.590698 432.021667,374.965851 388.438263,373.027618 
	C349.208008,371.283020 309.883148,369.730316 270.650208,370.536255 
	C232.771637,371.314392 194.888077,374.472443 157.137329,377.987701 
	C129.006760,380.607178 101.076797,385.408691 73.073410,389.351471 
	C62.882259,390.786316 53.923485,385.180298 51.864502,375.002533 
	C47.381794,352.843994 43.244858,330.615234 39.004238,308.408020 
	C35.885094,292.073700 32.864460,275.720551 29.728128,259.389557 
	C26.897024,244.647964 33.064793,235.471466 47.827751,233.139908 
	C67.547005,230.025604 87.219101,226.311829 107.058517,224.321396 
	C149.431946,220.070129 191.840958,215.638077 234.347046,213.407059 
	C271.225098,211.471436 308.276947,211.560303 345.216125,212.376785 
	C401.315887,213.616776 457.189209,218.518173 512.730896,226.753845 
	C526.224304,228.754623 539.696960,230.895782 553.175903,232.992752 
	C554.652893,233.222549 556.122864,233.531815 557.572205,233.898697 
	C569.190186,236.839661 574.966797,245.793884 572.748413,257.441315 
	C565.438232,295.823090 558.101379,334.199768 550.814941,372.586060 
	C549.644897,378.749817 547.158997,383.968079 541.073608,387.301178 
M462.152039,271.896454 
	C462.459900,269.442291 462.767731,266.988098 463.242859,263.200104 
	C467.742645,271.960999 471.675568,279.270020 475.258759,286.746613 
	C476.961243,290.298950 479.232178,291.800476 483.535706,290.619415 
	C484.599670,279.937042 485.681396,269.076324 486.789612,257.949524 
	C484.929840,257.756714 483.354492,257.593384 481.543976,257.405701 
	C480.652954,265.705658 479.807495,273.580963 478.820007,282.779510 
	C474.421600,274.179321 470.449677,267.062988 467.123352,259.656738 
	C465.233429,255.448715 462.521606,254.697998 458.414246,255.393250 
	C457.325684,266.389618 456.263794,277.116089 455.163818,288.227509 
	C456.921753,288.488464 458.495789,288.722137 460.470093,289.015228 
	C461.031860,283.329407 461.552917,278.055878 462.152039,271.896454 
M310.304047,271.395813 
	C310.522308,267.938690 311.254150,264.420105 310.849182,261.037598 
	C310.068054,254.513031 306.207855,250.039764 299.834442,248.257507 
	C291.052612,245.801773 282.561371,250.396637 279.909454,258.734650 
	C276.810944,268.477051 280.705719,278.442322 288.801910,281.487061 
	C297.674744,284.823792 305.872162,281.233276 310.304047,271.395813 
M444.512482,255.948990 
	C437.657745,251.222748 430.455627,250.719666 424.504883,254.551453 
	C418.961212,258.121124 415.834229,266.641815 417.351166,274.044525 
	C418.912506,281.663757 424.519196,286.476685 432.354370,286.923523 
	C440.168945,287.369202 446.318817,283.233582 448.471375,275.630554 
	C450.411713,268.777161 450.198486,262.126617 444.512482,255.948990 
M269.138550,334.090637 
	C270.800354,334.889740 272.462128,335.688843 274.877136,336.850159 
	C274.877136,330.749237 274.877136,326.176361 274.877136,321.438293 
	C280.097961,321.438293 285.017792,321.438293 290.454376,321.438293 
	C290.454376,326.240601 290.454376,330.830322 290.454376,335.424744 
	C292.660919,335.424744 294.339294,335.424744 295.836792,335.424744 
	C295.836792,324.251831 295.836792,313.491425 295.836792,302.543945 
	C293.815643,302.543945 292.134186,302.543945 290.169495,302.543945 
	C290.169495,307.178772 290.169495,311.439301 290.169495,316.107910 
	C284.859802,316.107910 279.840851,316.107910 274.371582,316.107910 
	C274.371582,311.303894 274.371582,306.875092 274.371582,302.126648 
	C272.336395,302.232544 270.767578,302.314178 269.303314,302.390381 
	C269.139069,303.098724 269.002197,303.413147 269.002563,303.727386 
	C269.014282,313.540344 269.039398,323.353271 269.138550,334.090637 
M182.829086,261.792999 
	C183.280792,269.706299 183.732498,277.619629 184.211227,286.006317 
	C186.362198,285.644531 188.026077,285.364685 189.616745,285.097137 
	C189.396408,280.462311 189.200806,276.347870 188.930328,270.658691 
	C192.152710,272.289642 194.738022,273.075287 196.604004,274.691437 
	C198.425812,276.269318 199.772491,278.567108 200.864975,280.777588 
	C202.743271,284.578064 205.434326,285.475525 209.837402,283.753876 
	C206.123001,278.841766 202.568817,274.141541 199.022430,269.451599 
	C204.277725,265.840424 205.892487,262.339539 204.385117,257.625122 
	C203.020935,253.358551 199.176178,251.270828 193.055954,251.561386 
	C189.616364,251.724701 186.181854,251.994949 182.426254,252.237610 
	C182.562134,255.310318 182.684998,258.089020 182.829086,261.792999 
M224.251175,322.377838 
	C225.185715,321.515564 226.561188,320.823212 226.971344,319.758881 
	C228.157806,316.680084 230.209732,313.146759 229.535141,310.372192 
	C228.925491,307.864807 225.429443,304.877838 222.743942,304.317291 
	C218.030502,303.333496 212.963730,304.042572 208.759216,304.042572 
	C208.759216,315.722626 208.759216,326.611786 208.759216,337.539978 
	C211.195526,337.539978 212.770782,337.539978 214.549469,337.539978 
	C214.549469,332.894592 214.549469,328.540100 214.549469,322.349426 
	C217.904053,324.615448 220.403015,325.880829 222.333466,327.737366 
	C223.963882,329.305359 225.153824,331.453918 226.150223,333.531799 
	C227.944229,337.273010 230.678940,337.607971 235.099823,336.310150 
	C231.398911,331.531830 228.090546,327.260376 224.251175,322.377838 
M367.417206,267.928284 
	C367.417206,261.827545 367.417206,255.726807 367.417206,249.283005 
	C365.808350,249.184311 364.229828,249.087494 362.418304,248.976364 
	C362.315002,250.459976 362.192596,251.589890 362.164917,252.722107 
	C362.026733,258.372620 362.058563,264.031647 361.751495,269.672485 
	C361.427429,275.624969 358.439331,278.512207 353.534027,278.060028 
	C349.274597,277.667328 346.951843,274.898132 346.872467,269.700195 
	C346.766754,262.776062 346.846344,255.849075 346.846344,248.831390 
	C345.075195,248.831390 343.510162,248.831390 341.082672,248.831390 
	C341.082672,256.566040 340.822235,264.017120 341.156036,271.441437 
	C341.488647,278.839722 345.618805,282.612671 352.905731,283.010712 
	C362.289154,283.523224 366.645233,279.229614 367.417206,267.928284 
M149.820114,275.486237 
	C151.263672,284.546539 154.672836,287.506378 163.309738,287.197998 
	C170.981445,286.924042 175.730484,283.061279 175.780136,275.856201 
	C175.833389,268.131073 174.912308,260.399200 174.395218,252.339523 
	C172.181305,252.568985 170.608734,252.731979 168.931564,252.905823 
	C169.351959,260.613190 170.060379,267.904144 169.958710,275.183807 
	C169.927917,277.388306 168.149185,280.502350 166.272293,281.487549 
	C164.349243,282.496979 160.441269,282.357025 158.994949,281.009918 
	C156.954880,279.109802 155.744125,275.731049 155.310608,272.816162 
	C154.393265,266.647980 154.208755,260.370789 153.700928,253.846069 
	C151.612091,254.072037 150.027405,254.243484 148.196075,254.441605 
	C148.749802,261.433258 149.271805,268.024567 149.820114,275.486237 
M198.099945,325.302521 
	C195.504761,319.363678 193.001678,313.381104 190.224396,307.528656 
	C189.757446,306.544678 188.070557,305.523682 187.008362,305.584534 
	C185.473785,305.672516 182.993546,306.397247 182.646912,307.430695 
	C179.079651,318.065643 175.861511,328.817688 172.409210,339.979645 
	C174.875336,339.840973 176.648834,339.741241 178.425766,339.641327 
	C178.848618,338.247589 179.387833,337.163208 179.480087,336.042053 
	C179.815140,331.969849 181.894501,330.201935 185.970352,330.618805 
	C187.111755,330.735504 188.326248,330.640656 189.445267,330.378510 
	C192.737396,329.607178 194.971924,330.557861 195.751297,334.008087 
	C196.756912,338.459930 199.307068,339.440552 203.471237,337.473755 
	C201.750412,333.591858 200.069458,329.799927 198.099945,325.302521 
M113.088364,287.428284 
	C109.202896,280.094238 105.079163,272.873260 101.523834,265.382507 
	C99.483200,261.083069 97.154137,259.024231 92.209717,261.564270 
	C89.695503,272.715424 87.130531,284.091644 84.561188,295.487305 
	C93.262726,296.841614 90.087273,289.267120 92.753372,286.271362 
	C95.551163,285.868866 98.365196,285.595123 101.120262,285.032562 
	C104.165199,284.410828 106.189079,285.139404 107.150948,288.329895 
	C108.429993,292.572510 111.173454,293.310455 115.128670,291.229919 
	C114.537018,290.124512 113.993301,289.108643 113.088364,287.428284 
M130.274521,277.879333 
	C134.323410,270.562531 138.372299,263.245728 143.085281,254.728806 
	C133.449600,255.681702 125.423302,256.475433 117.039505,257.304535 
	C117.169350,258.987793 117.275696,260.366364 117.397552,261.946106 
	C122.886314,261.493500 128.022156,261.070007 133.746429,260.597992 
	C129.109131,271.344055 121.922264,279.892395 118.205612,290.999451 
	C127.762131,290.019928 135.979874,289.177643 144.661880,288.287750 
	C144.369171,286.557190 144.144028,285.226105 143.891739,283.734406 
	C138.030670,284.244995 132.621109,284.716248 126.345062,285.263000 
	C127.818207,282.559875 128.904129,280.567322 130.274521,277.879333 
M230.359604,264.725586 
	C226.704758,264.379578 223.049911,264.033569 219.102112,263.659821 
	C219.102112,260.938782 219.102112,258.177887 219.102112,254.953262 
	C222.845322,254.661407 226.741974,254.357605 230.975403,254.027542 
	C230.879929,252.449127 230.797104,251.079849 230.743378,250.191620 
	C224.556442,250.191620 218.823273,250.191620 213.822525,250.191620 
	C213.822525,261.725708 213.822525,272.612030 213.822525,283.897858 
	C220.769257,283.565155 226.829575,283.274902 232.885727,282.984833 
	C232.744461,279.563934 232.744461,279.563934 219.549805,278.518768 
	C219.549805,275.492310 219.549805,272.432739 219.549805,269.134064 
	C222.517441,268.955170 225.363388,269.030792 228.085266,268.486298 
	C229.045135,268.294250 229.701553,266.585510 230.359604,264.725586 
M359.423157,321.833344 
	C361.396210,321.833344 363.369293,321.833344 365.495117,321.833344 
	C365.495117,320.239105 365.495117,318.884277 365.495117,317.264496 
	C361.587952,317.092316 357.992737,316.933899 354.044952,316.759949 
	C354.318390,313.482605 354.558380,310.605591 354.811584,307.570618 
	C359.111725,307.570618 362.871582,307.570618 366.838684,307.570618 
	C366.915985,305.974884 366.982239,304.606812 367.065704,302.883057 
	C360.799072,302.883057 355.048431,302.883057 348.730591,302.883057 
	C348.730591,313.984161 348.730591,324.880890 348.730591,336.127014 
	C354.677551,336.127014 360.615662,336.127014 366.668701,336.127014 
	C366.668701,334.730804 366.668701,333.391815 366.668701,332.020721 
	C362.273499,331.813232 358.213928,331.621582 354.273712,331.435577 
	C354.273712,327.824829 354.273712,324.886444 354.273712,321.833344 
	C355.847778,321.833344 357.158325,321.833344 359.423157,321.833344 
M498.895050,294.009766 
	C499.724609,294.072968 500.553101,294.161804 501.383881,294.195129 
	C506.140289,294.385803 510.465546,293.619202 512.505005,288.553009 
	C514.198914,284.345123 512.582336,280.467682 507.612030,276.635864 
	C505.771637,275.217010 503.484924,274.242645 501.997711,272.543884 
	C500.865173,271.250275 499.938965,268.955505 500.304718,267.440216 
	C500.578979,266.303925 503.074188,264.967560 504.545166,265.007996 
	C507.699615,265.094849 510.831177,266.014496 514.165283,266.628693 
	C514.342102,265.322540 514.536560,263.886169 514.919495,261.057434 
	C509.831116,260.877655 504.990143,259.834015 500.551208,260.746368 
	C493.177856,262.261902 491.368927,270.073212 496.787781,275.327271 
	C498.912903,277.387726 501.852112,278.640686 503.846313,280.793396 
	C505.323608,282.388184 505.872803,284.842743 506.835449,286.914276 
	C504.695251,287.789551 502.486725,289.507202 500.431000,289.340546 
	C497.431335,289.097382 494.541412,287.500092 491.524170,286.452087 
	C489.060028,292.853607 494.485077,292.586487 498.895050,294.009766 
M255.325790,282.636353 
	C258.632080,282.752411 261.971436,283.211761 265.236206,282.897034 
	C269.256927,282.509491 272.619568,280.567627 273.731781,276.318756 
	C274.903595,271.842468 272.841675,268.484650 269.200531,266.155121 
	C266.558502,264.464813 263.486664,263.428345 260.915527,261.652771 
	C259.605560,260.748108 258.003540,258.622772 258.281281,257.470520 
	C258.644196,255.964905 260.587952,254.061447 262.118622,253.779633 
	C265.227356,253.207260 268.515350,253.608566 272.017761,253.608566 
	C271.957886,252.571564 271.866302,250.984787 271.711029,248.294632 
	C266.759918,248.869553 261.987915,248.640289 257.794037,250.086960 
	C250.808304,252.496628 250.004547,260.708313 256.027466,265.060638 
	C258.419708,266.789337 261.491455,267.599884 263.811493,269.398956 
	C265.552460,270.748993 266.586395,273.010803 267.935089,274.866699 
	C265.869049,276.174377 263.888947,278.361267 261.715851,278.573669 
	C258.807434,278.857910 255.749496,277.612305 251.439880,276.764893 
	C252.752808,279.139954 253.646133,280.756012 255.325790,282.636353 
M260.679871,330.816193 
	C249.440201,334.441040 241.838989,329.452179 242.493423,318.879974 
	C243.082520,309.363281 250.766373,305.270172 262.242279,308.328278 
	C261.588928,306.309601 260.814880,303.527313 259.272430,303.002258 
	C251.979355,300.519562 243.694839,303.639526 239.504349,309.829376 
	C235.516678,315.719635 235.657684,325.266052 239.817154,331.010620 
	C243.860397,336.594604 251.465164,338.645996 259.198700,336.238892 
	C262.937958,335.075012 263.208710,334.345490 260.679871,330.816193 
M374.929077,332.408112 
	C379.659271,338.557831 386.227081,338.745453 393.052460,337.901459 
	C396.614044,337.461060 397.784546,335.557129 396.220917,332.111481 
	C390.194061,333.982574 384.481628,334.694672 380.018280,329.325592 
	C376.747253,325.390778 376.570496,318.276306 379.627258,313.820160 
	C384.287323,307.026703 390.801758,308.034424 397.636017,310.244019 
	C397.752502,308.458710 397.847076,307.008942 397.936401,305.639648 
	C389.542206,302.035461 381.382904,303.344238 376.215546,308.992950 
	C370.964172,314.733551 370.265472,323.769592 374.929077,332.408112 
M410.626099,309.776520 
	C411.044556,311.330536 411.868866,312.899200 411.813538,314.436157 
	C411.523773,322.487823 411.011108,330.531464 410.559326,338.884094 
	C412.850006,338.780884 414.397186,338.711182 415.999146,338.639008 
	C416.612488,328.872192 417.200470,319.508636 417.779083,310.294617 
	C421.242462,310.294617 424.031555,310.294617 427.140961,310.294617 
	C427.140961,308.791138 427.140961,307.424408 427.140961,305.845062 
	C419.039246,305.396423 411.140533,304.959045 403.016235,304.509155 
	C402.854462,306.196960 402.735016,307.443268 402.587494,308.982452 
	C405.192932,309.197845 407.477112,309.386688 410.626099,309.776520 
M388.653595,270.313354 
	C388.892120,265.236023 389.130646,260.158691 389.377625,254.901428 
	C392.864166,254.901428 395.807892,254.901428 398.790771,254.901428 
	C398.790771,253.409073 398.790771,252.148773 398.790771,250.487747 
	C391.807190,250.173859 385.008911,249.989365 378.230988,249.514709 
	C374.614349,249.261444 373.359009,250.462234 374.446106,253.943573 
	C377.586609,254.246857 380.634186,254.541153 383.117554,254.780975 
	C383.117554,264.633057 383.117554,273.860168 383.117554,283.311035 
	C384.663391,283.431335 386.201813,283.551025 388.519653,283.731384 
	C388.519653,279.200195 388.519653,275.227386 388.653595,270.313354 
M318.161194,267.492493 
	C318.161194,272.254852 318.161194,277.017242 318.161194,281.893982 
	C324.748566,281.893982 330.676666,281.893982 337.393585,281.893982 
	C334.883636,273.603546 327.952209,280.024384 323.980743,276.384277 
	C323.980743,267.773926 323.980743,258.365234 323.980743,248.834778 
	C322.023468,248.834778 320.467072,248.834778 318.161346,248.834778 
	C318.161346,254.916473 318.161346,260.705200 318.161194,267.492493 
M340.566589,307.419769 
	C341.586121,306.241455 342.605652,305.063171 343.625183,303.884888 
	C343.252441,303.448761 342.879730,303.012634 342.506989,302.576508 
	C335.552612,302.576508 328.596436,302.670349 321.644531,302.539062 
	C317.856506,302.467529 317.554504,304.103394 318.907013,307.331085 
	C321.778595,307.331085 324.553894,307.331085 327.714539,307.331085 
	C327.714539,317.049255 327.714539,326.410706 327.714539,335.862976 
	C329.661560,335.862976 331.198425,335.862976 333.446594,335.862976 
	C333.446594,326.174744 333.446594,316.792603 333.446594,307.423859 
	C335.982635,307.423859 337.802094,307.423859 340.566589,307.419769 
M311.261383,335.791504 
	C311.261383,324.812103 311.261383,313.832672 311.261383,302.524017 
	C309.710358,302.595520 307.999481,302.674438 306.354248,302.750305 
	C306.354248,314.052094 306.354248,324.787994 306.354248,335.804230 
	C307.807098,335.873871 309.087006,335.935211 311.261383,335.791504 
M410.290741,257.110565 
	C410.407349,255.184189 410.523926,253.257812 410.653107,251.124115 
	C408.581879,251.124115 406.883636,251.124115 404.964142,251.124115 
	C404.353882,262.228424 403.760193,273.031525 403.152161,284.095184 
	C405.399689,284.203400 407.104919,284.285522 408.915863,284.372711 
	C409.364838,275.191223 409.784637,266.606873 410.290741,257.110565 
z"/>
<path fill="#0164B5" opacity="1.000000" stroke="none" 
	d="
M489.631470,395.630371 
	C489.772552,424.684723 478.395782,449.180115 460.475220,470.951874 
	C437.060394,499.398621 407.557922,520.355530 375.884827,538.513000 
	C353.177826,551.530334 329.567963,562.671936 305.065704,571.874023 
	C302.915771,572.681458 300.004425,573.038391 297.943237,572.270935 
	C261.138855,558.568542 226.149277,541.233093 193.841263,518.807373 
	C170.745224,502.775970 149.730698,484.447327 133.597687,461.100555 
	C120.227821,441.752380 112.488770,420.496582 112.069237,396.334747 
	C120.392799,394.590088 128.686935,393.037994 137.049530,392.089325 
	C155.679993,389.975769 174.334244,388.054382 192.999603,386.272766 
	C203.082428,385.310364 213.199722,384.628540 223.316620,384.124634 
	C235.107391,383.537384 246.911957,383.124237 258.715485,382.917938 
	C280.842224,382.531189 302.993896,381.615448 325.096008,382.261139 
	C354.139801,383.109711 383.190277,384.696442 412.154724,387.007721 
	C437.938843,389.065186 463.609680,392.541962 489.631470,395.630371 
M284.234680,527.697449 
	C282.416077,533.448303 280.597473,539.199097 278.778870,544.949951 
	C285.147095,541.499573 290.842682,537.760620 296.063202,533.446838 
	C299.593201,530.529968 302.149231,530.251465 305.804626,533.331482 
	C311.042572,537.745056 316.833710,541.502014 322.388672,545.539246 
	C322.321991,542.026001 321.417450,539.224121 320.551361,536.410278 
	C318.893738,531.024902 314.816650,524.808167 316.282166,520.469482 
	C317.827057,515.895813 324.663818,513.101257 329.206238,509.551971 
	C331.659454,507.635162 334.149506,505.765503 337.577576,503.144745 
	C328.748230,503.144745 321.413483,502.897888 314.107605,503.250031 
	C310.512054,503.423309 309.182312,502.026520 308.251312,498.874512 
	C306.161133,491.797882 303.749878,484.816040 300.998779,476.347046 
	C298.246399,484.822052 295.831085,491.807312 293.744537,498.889435 
	C292.811584,502.056000 291.457367,503.417267 287.876984,503.249084 
	C280.493561,502.902313 273.082458,503.144745 265.682739,503.144745 
	C270.532501,507.876099 275.437531,512.120422 280.958618,515.292603 
	C286.268372,518.343323 287.186432,521.884033 284.234680,527.697449 
M370.970215,462.394592 
	C370.037262,465.235992 368.642822,468.018311 368.269653,470.931427 
	C367.545135,476.587799 364.346497,477.594727 359.333954,477.239258 
	C353.552094,476.829224 347.718872,477.143951 341.907959,477.143951 
	C347.293976,482.176239 352.729309,486.277405 358.345917,490.113098 
	C360.673126,491.702362 361.140930,493.158447 360.164551,495.860687 
	C357.831665,502.317078 355.911743,508.922668 353.443237,516.665894 
	C359.934326,511.960327 365.415405,508.198029 370.639740,504.107819 
	C373.130219,502.158020 374.895905,501.964447 377.488983,504.019562 
	C382.707703,508.155457 388.239777,511.895996 394.812592,516.645020 
	C391.930389,507.580597 389.492554,499.913788 387.078094,492.320465 
	C393.832916,487.379425 400.205597,482.717926 407.826233,477.143585 
	C399.338745,477.143585 392.425629,477.021545 385.520721,477.205811 
	C382.891052,477.276031 381.713562,476.396729 380.962006,473.893738 
	C378.988892,467.322601 376.730499,460.837128 374.192017,453.120422 
	C372.911682,456.734131 372.044037,459.183105 370.970215,462.394592 
M209.740891,516.684387 
	C214.843246,512.961243 220.009384,509.321167 225.017014,505.474701 
	C227.057556,503.907318 228.586609,503.847717 230.671677,505.438751 
	C236.200348,509.657532 241.896927,513.656311 248.575760,518.504028 
	C246.137543,510.923340 244.284332,504.414703 241.911728,498.101257 
	C240.733215,494.965210 241.473877,493.412537 244.111923,491.638367 
	C249.691223,487.886169 255.017593,483.757874 261.528778,478.992645 
	C254.125076,478.992645 248.018906,478.650635 241.971756,479.101044 
	C237.151276,479.460114 234.927414,477.917053 233.802383,473.123108 
	C232.445312,467.340332 230.122330,461.784241 227.804810,454.905304 
	C225.253052,462.703125 222.986618,468.957275 221.211288,475.347839 
	C220.369293,478.378784 218.903809,479.143646 215.968094,479.056946 
	C209.127411,478.855011 202.276703,478.992584 194.170395,478.992584 
	C201.928650,484.660706 208.473145,489.442078 214.997299,494.208588 
	C212.812363,500.929993 210.702530,507.218567 208.771851,513.561646 
	C208.456558,514.597595 208.931900,515.874084 209.740891,516.684387 
M350.665527,419.666687 
	C351.642822,412.823944 350.007812,410.278442 343.305359,409.470093 
	C339.430878,409.002808 335.453949,409.385223 331.172607,409.385223 
	C331.172607,418.455048 331.172607,427.327515 331.172607,436.368256 
	C333.256927,436.368256 334.993835,436.368256 336.877869,436.368256 
	C337.105530,432.923523 337.318268,429.704498 337.531006,426.485504 
	C338.062805,426.241150 338.594604,425.996765 339.126404,425.752411 
	C340.813354,428.142487 342.650879,430.442017 344.154938,432.942108 
	C347.024872,437.712646 347.141144,437.832672 353.421661,436.102417 
	C350.915070,432.127136 348.467255,428.245026 346.234314,424.703766 
	C347.621948,423.207520 348.949799,421.775757 350.665527,419.666687 
M251.438980,409.916565 
	C249.025757,409.916565 246.612518,409.916565 243.554031,409.916565 
	C245.923386,413.711578 247.783844,417.035309 249.990646,420.110504 
	C251.578278,422.322876 251.591934,424.059753 250.049408,426.317810 
	C247.828537,429.568848 245.987869,433.079590 243.989166,436.472260 
	C252.849518,439.939697 253.038956,431.670959 256.304535,427.639038 
	C262.778687,437.688690 262.778687,437.688690 268.799469,435.631775 
	C266.714966,432.379822 264.345001,429.310059 262.722198,425.886200 
	C261.910950,424.174683 261.806488,421.538727 262.537201,419.808685 
	C264.053833,416.217896 266.341217,412.952667 268.333679,409.515747 
	C259.793335,406.762787 259.378143,414.001007 256.269104,418.486176 
	C254.738449,415.668640 253.329712,413.075470 251.438980,409.916565 
M234.829361,410.144958 
	C229.734406,410.144958 224.639465,410.144958 219.236603,410.144958 
	C219.701920,420.108032 220.115768,428.968750 220.513733,437.489532 
	C226.382156,437.489532 231.609024,437.489532 237.210358,437.489532 
	C236.995010,435.355225 236.839615,433.815002 236.669418,432.128113 
	C233.293915,432.128113 230.363998,432.128113 227.115845,432.128113 
	C227.003082,430.359924 226.903793,428.803223 226.788101,426.989014 
	C229.873291,426.683044 232.593002,426.413330 235.677902,426.107422 
	C235.337036,424.059235 235.086426,422.553284 234.796051,420.808472 
	C231.808258,420.808472 229.220215,420.808472 226.438507,420.808472 
	C226.336517,419.082855 226.252380,417.659241 226.153290,415.982727 
	C229.476852,415.663116 232.536469,415.368927 235.853516,415.049957 
	C235.688690,413.335297 235.564590,412.044342 234.829361,410.144958 
M278.372955,436.349152 
	C279.837006,436.216736 281.301025,436.084320 283.170715,435.915222 
	C283.170715,433.012024 283.170715,430.239075 283.170715,427.449341 
	C285.836975,427.031891 288.171082,426.924561 290.342072,426.273407 
	C295.029205,424.867676 297.446747,421.076324 296.958099,416.424316 
	C296.478119,411.855255 293.768829,409.324097 288.489624,409.011719 
	C284.586182,408.780792 280.658112,408.966370 276.061401,408.966370 
	C276.575897,418.574738 277.051300,427.453094 278.372955,436.349152 
M305.420532,410.891663 
	C305.420532,419.141357 305.420532,427.391083 305.420532,435.918335 
	C310.974548,435.918335 316.337341,435.918335 321.989502,435.918335 
	C321.915527,434.270538 321.852875,432.874939 321.780884,431.270935 
	C318.350677,431.079987 315.267883,430.908386 312.205017,430.737885 
	C312.205017,428.727722 312.205017,427.013275 312.205017,424.850586 
	C315.242950,424.850586 317.960083,424.850586 320.978882,424.850586 
	C320.797607,422.970459 320.663208,421.576447 320.482971,419.706818 
	C317.430847,419.706818 314.716370,419.706818 311.806061,419.706818 
	C311.941162,417.574707 312.042786,415.970917 312.168762,413.982483 
	C315.402802,413.982483 318.290436,413.982483 321.394897,413.982483 
	C321.528625,412.192078 321.632385,410.803040 321.808563,408.445068 
	C316.035461,408.985718 310.779144,409.477936 305.420532,410.891663 
M365.793701,421.322449 
	C365.540771,426.564606 365.287811,431.806732 365.020752,437.341431 
	C367.383118,437.575378 369.140228,437.749390 371.549255,437.987946 
	C371.891235,430.439178 372.215576,423.279083 372.554352,415.801086 
	C375.541138,415.801086 377.787567,415.801086 379.949646,415.801086 
	C381.308868,412.205231 380.633453,410.383423 376.754700,410.361969 
	C370.947021,410.329865 365.140564,410.095123 359.332947,409.977478 
	C359.056030,409.971863 358.773102,410.264008 358.393188,410.472168 
	C358.393188,411.831207 358.393188,413.230774 358.393188,414.829620 
	C361.030884,415.084167 363.422791,415.314972 365.795197,415.543884 
	C365.795197,417.439056 365.795197,418.927307 365.793701,421.322449 
z"/>
<path fill="#0C2A58" opacity="1.000000" stroke="none" 
	d="
M348.003235,109.097260 
	C350.221344,107.931168 352.459717,106.297226 354.361755,106.623566 
	C355.660431,106.846367 357.370178,109.834404 357.314789,111.534576 
	C357.238525,113.874039 356.247009,116.783478 354.597626,118.325905 
	C352.339386,120.437721 348.617218,118.605301 347.882660,115.276840 
	C347.474915,113.429291 347.855072,111.407860 348.003235,109.097260 
z"/>
<path fill="#0C2A58" opacity="1.000000" stroke="none" 
	d="
M311.266235,114.386917 
	C310.640686,117.922775 308.683990,119.400024 305.593170,118.922737 
	C302.044128,118.374695 300.987274,115.336296 301.534882,112.612999 
	C302.008545,110.257645 303.651001,107.197212 305.624146,106.288589 
	C309.203796,104.640213 311.513519,108.004875 311.266235,114.386917 
z"/>
<path fill="#0A2857" opacity="1.000000" stroke="none" 
	d="
M395.728638,155.606537 
	C393.624695,162.506317 390.857544,164.097122 383.091370,163.052017 
	C383.091370,157.363739 383.091370,151.637543 383.091370,145.912720 
	C391.276764,143.999115 395.400909,147.027252 395.728638,155.606537 
z"/>
<path fill="#112F5C" opacity="1.000000" stroke="none" 
	d="
M258.279388,145.639206 
	C259.709320,145.303345 261.165009,144.863388 261.953125,145.401367 
	C263.497894,146.455811 265.773468,148.111084 265.707397,149.414276 
	C265.631500,150.911011 263.504608,152.517441 261.950928,153.634171 
	C261.189423,154.181503 259.709290,153.729004 258.003387,153.729004 
	C258.003387,151.127747 258.003387,148.552444 258.279388,145.639206 
z"/>
<path fill="#303030" opacity="1.000000" stroke="none" 
	d="
M462.113007,272.339386 
	C461.552917,278.055878 461.031860,283.329407 460.470093,289.015228 
	C458.495789,288.722137 456.921753,288.488464 455.163818,288.227509 
	C456.263794,277.116089 457.325684,266.389618 458.414246,255.393250 
	C462.521606,254.697998 465.233429,255.448715 467.123352,259.656738 
	C470.449677,267.062988 474.421600,274.179321 478.820007,282.779510 
	C479.807495,273.580963 480.652954,265.705658 481.543976,257.405701 
	C483.354492,257.593384 484.929840,257.756714 486.789612,257.949524 
	C485.681396,269.076324 484.599670,279.937042 483.535706,290.619415 
	C479.232178,291.800476 476.961243,290.298950 475.258759,286.746613 
	C471.675568,279.270020 467.742645,271.960999 463.242859,263.200104 
	C462.767731,266.988098 462.459900,269.442291 462.113007,272.339386 
z"/>
<path fill="#313131" opacity="1.000000" stroke="none" 
	d="
M310.182861,271.785461 
	C305.872162,281.233276 297.674744,284.823792 288.801910,281.487061 
	C280.705719,278.442322 276.810944,268.477051 279.909454,258.734650 
	C282.561371,250.396637 291.052612,245.801773 299.834442,248.257507 
	C306.207855,250.039764 310.068054,254.513031 310.849182,261.037598 
	C311.254150,264.420105 310.522308,267.938690 310.182861,271.785461 
M300.167389,253.914551 
	C293.371704,251.596848 288.503052,253.295624 286.018860,258.851257 
	C283.249359,265.044952 285.181458,273.359100 290.075958,276.309967 
	C294.937012,279.240723 301.490143,277.270264 304.033875,272.113068 
	C306.757355,266.591370 305.362946,258.788208 300.167389,253.914551 
z"/>
<path fill="#303030" opacity="1.000000" stroke="none" 
	d="
M444.786072,256.197052 
	C450.198486,262.126617 450.411713,268.777161 448.471375,275.630554 
	C446.318817,283.233582 440.168945,287.369202 432.354370,286.923523 
	C424.519196,286.476685 418.912506,281.663757 417.351166,274.044525 
	C415.834229,266.641815 418.961212,258.121124 424.504883,254.551453 
	C430.455627,250.719666 437.657745,251.222748 444.786072,256.197052 
M424.096466,276.011841 
	C426.321472,280.644165 430.072479,282.700470 435.058014,281.834259 
	C439.892029,280.994415 442.504120,277.606079 443.167694,272.914429 
	C443.531952,270.339172 443.573486,267.626801 443.198242,265.058441 
	C442.519531,260.413086 439.563080,257.668396 434.906891,257.099976 
	C430.008972,256.502045 426.017242,258.707245 424.633942,263.175842 
	C423.474579,266.921051 424.052185,271.203979 424.096466,276.011841 
z"/>
<path fill="#303030" opacity="1.000000" stroke="none" 
	d="
M269.100494,333.628418 
	C269.039398,323.353271 269.014282,313.540344 269.002563,303.727386 
	C269.002197,303.413147 269.139069,303.098724 269.303314,302.390381 
	C270.767578,302.314178 272.336395,302.232544 274.371582,302.126648 
	C274.371582,306.875092 274.371582,311.303894 274.371582,316.107910 
	C279.840851,316.107910 284.859802,316.107910 290.169495,316.107910 
	C290.169495,311.439301 290.169495,307.178772 290.169495,302.543945 
	C292.134186,302.543945 293.815643,302.543945 295.836792,302.543945 
	C295.836792,313.491425 295.836792,324.251831 295.836792,335.424744 
	C294.339294,335.424744 292.660919,335.424744 290.454376,335.424744 
	C290.454376,330.830322 290.454376,326.240601 290.454376,321.438293 
	C285.017792,321.438293 280.097961,321.438293 274.877136,321.438293 
	C274.877136,326.176361 274.877136,330.749237 274.877136,336.850159 
	C272.462128,335.688843 270.800354,334.889740 269.100494,333.628418 
z"/>
<path fill="#2F2F2F" opacity="1.000000" stroke="none" 
	d="
M182.818481,261.330353 
	C182.684998,258.089020 182.562134,255.310318 182.426254,252.237610 
	C186.181854,251.994949 189.616364,251.724701 193.055954,251.561386 
	C199.176178,251.270828 203.020935,253.358551 204.385117,257.625122 
	C205.892487,262.339539 204.277725,265.840424 199.022430,269.451599 
	C202.568817,274.141541 206.123001,278.841766 209.837402,283.753876 
	C205.434326,285.475525 202.743271,284.578064 200.864975,280.777588 
	C199.772491,278.567108 198.425812,276.269318 196.604004,274.691437 
	C194.738022,273.075287 192.152710,272.289642 188.930328,270.658691 
	C189.200806,276.347870 189.396408,280.462311 189.616745,285.097137 
	C188.026077,285.364685 186.362198,285.644531 184.211227,286.006317 
	C183.732498,277.619629 183.280792,269.706299 182.818481,261.330353 
M199.001129,260.652771 
	C196.896667,255.833939 194.859055,255.122803 188.042511,257.030121 
	C188.243851,260.306335 188.449173,263.647736 188.663803,267.140350 
	C193.743668,267.093353 198.255508,267.574188 199.001129,260.652771 
z"/>
<path fill="#303030" opacity="1.000000" stroke="none" 
	d="
M224.516693,322.683350 
	C228.090546,327.260376 231.398911,331.531830 235.099823,336.310150 
	C230.678940,337.607971 227.944229,337.273010 226.150223,333.531799 
	C225.153824,331.453918 223.963882,329.305359 222.333466,327.737366 
	C220.403015,325.880829 217.904053,324.615448 214.549469,322.349426 
	C214.549469,328.540100 214.549469,332.894592 214.549469,337.539978 
	C212.770782,337.539978 211.195526,337.539978 208.759216,337.539978 
	C208.759216,326.611786 208.759216,315.722626 208.759216,304.042572 
	C212.963730,304.042572 218.030502,303.333496 222.743942,304.317291 
	C225.429443,304.877838 228.925491,307.864807 229.535141,310.372192 
	C230.209732,313.146759 228.157806,316.680084 226.971344,319.758881 
	C226.561188,320.823212 225.185715,321.515564 224.516693,322.683350 
M223.868393,311.080872 
	C221.256378,307.289459 217.631317,308.152618 214.008224,308.745178 
	C214.008224,312.369110 214.008224,315.791656 214.008224,319.212189 
	C223.215103,319.075562 224.053696,318.440216 223.868393,311.080872 
z"/>
<path fill="#313131" opacity="1.000000" stroke="none" 
	d="
M367.363342,268.370911 
	C366.645233,279.229614 362.289154,283.523224 352.905731,283.010712 
	C345.618805,282.612671 341.488647,278.839722 341.156036,271.441437 
	C340.822235,264.017120 341.082672,256.566040 341.082672,248.831390 
	C343.510162,248.831390 345.075195,248.831390 346.846344,248.831390 
	C346.846344,255.849075 346.766754,262.776062 346.872467,269.700195 
	C346.951843,274.898132 349.274597,277.667328 353.534027,278.060028 
	C358.439331,278.512207 361.427429,275.624969 361.751495,269.672485 
	C362.058563,264.031647 362.026733,258.372620 362.164917,252.722107 
	C362.192596,251.589890 362.315002,250.459976 362.418304,248.976364 
	C364.229828,249.087494 365.808350,249.184311 367.417206,249.283005 
	C367.417206,255.726807 367.417206,261.827545 367.363342,268.370911 
z"/>
<path fill="#303030" opacity="1.000000" stroke="none" 
	d="
M149.806976,275.051025 
	C149.271805,268.024567 148.749802,261.433258 148.196075,254.441605 
	C150.027405,254.243484 151.612091,254.072037 153.700928,253.846069 
	C154.208755,260.370789 154.393265,266.647980 155.310608,272.816162 
	C155.744125,275.731049 156.954880,279.109802 158.994949,281.009918 
	C160.441269,282.357025 164.349243,282.496979 166.272293,281.487549 
	C168.149185,280.502350 169.927917,277.388306 169.958710,275.183807 
	C170.060379,267.904144 169.351959,260.613190 168.931564,252.905823 
	C170.608734,252.731979 172.181305,252.568985 174.395218,252.339523 
	C174.912308,260.399200 175.833389,268.131073 175.780136,275.856201 
	C175.730484,283.061279 170.981445,286.924042 163.309738,287.197998 
	C154.672836,287.506378 151.263672,284.546539 149.806976,275.051025 
z"/>
<path fill="#313131" opacity="1.000000" stroke="none" 
	d="
M198.244232,325.655243 
	C200.069458,329.799927 201.750412,333.591858 203.471237,337.473755 
	C199.307068,339.440552 196.756912,338.459930 195.751297,334.008087 
	C194.971924,330.557861 192.737396,329.607178 189.445267,330.378510 
	C188.326248,330.640656 187.111755,330.735504 185.970352,330.618805 
	C181.894501,330.201935 179.815140,331.969849 179.480087,336.042053 
	C179.387833,337.163208 178.848618,338.247589 178.425766,339.641327 
	C176.648834,339.741241 174.875336,339.840973 172.409210,339.979645 
	C175.861511,328.817688 179.079651,318.065643 182.646912,307.430695 
	C182.993546,306.397247 185.473785,305.672516 187.008362,305.584534 
	C188.070557,305.523682 189.757446,306.544678 190.224396,307.528656 
	C193.001678,313.381104 195.504761,319.363678 198.244232,325.655243 
M185.010666,315.801758 
	C184.146179,319.097107 183.281708,322.392487 182.291916,326.165558 
	C185.878876,326.000854 188.862457,325.863861 192.368988,325.702850 
	C190.250885,320.559967 188.444748,316.174561 186.473907,311.389252 
	C185.932861,312.914154 185.549667,313.994202 185.010666,315.801758 
z"/>
<path fill="#313131" opacity="1.000000" stroke="none" 
	d="
M113.268967,287.760559 
	C113.993301,289.108643 114.537018,290.124512 115.128670,291.229919 
	C111.173454,293.310455 108.429993,292.572510 107.150948,288.329895 
	C106.189079,285.139404 104.165199,284.410828 101.120262,285.032562 
	C98.365196,285.595123 95.551163,285.868866 92.753372,286.271362 
	C90.087273,289.267120 93.262726,296.841614 84.561188,295.487305 
	C87.130531,284.091644 89.695503,272.715424 92.209717,261.564270 
	C97.154137,259.024231 99.483200,261.083069 101.523834,265.382507 
	C105.079163,272.873260 109.202896,280.094238 113.268967,287.760559 
M94.854843,272.447937 
	C94.282433,275.311432 93.710022,278.174957 93.036934,281.542084 
	C96.587082,281.084106 99.591965,280.696442 103.129807,280.240021 
	C100.767578,275.523712 98.690193,271.376129 96.224129,266.452515 
	C95.655815,268.804352 95.310760,270.232269 94.854843,272.447937 
z"/>
<path fill="#323232" opacity="1.000000" stroke="none" 
	d="
M130.132278,278.227051 
	C128.904129,280.567322 127.818207,282.559875 126.345062,285.263000 
	C132.621109,284.716248 138.030670,284.244995 143.891739,283.734406 
	C144.144028,285.226105 144.369171,286.557190 144.661880,288.287750 
	C135.979874,289.177643 127.762131,290.019928 118.205612,290.999451 
	C121.922264,279.892395 129.109131,271.344055 133.746429,260.597992 
	C128.022156,261.070007 122.886314,261.493500 117.397552,261.946106 
	C117.275696,260.366364 117.169350,258.987793 117.039505,257.304535 
	C125.423302,256.475433 133.449600,255.681702 143.085281,254.728806 
	C138.372299,263.245728 134.323410,270.562531 130.132278,278.227051 
z"/>
<path fill="#2F2F2F" opacity="1.000000" stroke="none" 
	d="
M230.428070,265.147400 
	C229.701553,266.585510 229.045135,268.294250 228.085266,268.486298 
	C225.363388,269.030792 222.517441,268.955170 219.549805,269.134064 
	C219.549805,272.432739 219.549805,275.492310 219.549805,278.518768 
	C232.744461,279.563934 232.744461,279.563934 232.885727,282.984833 
	C226.829575,283.274902 220.769257,283.565155 213.822525,283.897858 
	C213.822525,272.612030 213.822525,261.725708 213.822525,250.191620 
	C218.823273,250.191620 224.556442,250.191620 230.743378,250.191620 
	C230.797104,251.079849 230.879929,252.449127 230.975403,254.027542 
	C226.741974,254.357605 222.845322,254.661407 219.102112,254.953262 
	C219.102112,258.177887 219.102112,260.938782 219.102112,263.659821 
	C223.049911,264.033569 226.704758,264.379578 230.428070,265.147400 
z"/>
<path fill="#2E2E2E" opacity="1.000000" stroke="none" 
	d="
M358.946014,321.833344 
	C357.158325,321.833344 355.847778,321.833344 354.273712,321.833344 
	C354.273712,324.886444 354.273712,327.824829 354.273712,331.435577 
	C358.213928,331.621582 362.273499,331.813232 366.668701,332.020721 
	C366.668701,333.391815 366.668701,334.730804 366.668701,336.127014 
	C360.615662,336.127014 354.677551,336.127014 348.730591,336.127014 
	C348.730591,324.880890 348.730591,313.984161 348.730591,302.883057 
	C355.048431,302.883057 360.799072,302.883057 367.065704,302.883057 
	C366.982239,304.606812 366.915985,305.974884 366.838684,307.570618 
	C362.871582,307.570618 359.111725,307.570618 354.811584,307.570618 
	C354.558380,310.605591 354.318390,313.482605 354.044952,316.759949 
	C357.992737,316.933899 361.587952,317.092316 365.495117,317.264496 
	C365.495117,318.884277 365.495117,320.239105 365.495117,321.833344 
	C363.369293,321.833344 361.396210,321.833344 358.946014,321.833344 
z"/>
<path fill="#313131" opacity="1.000000" stroke="none" 
	d="
M498.458862,293.961395 
	C494.485077,292.586487 489.060028,292.853607 491.524170,286.452087 
	C494.541412,287.500092 497.431335,289.097382 500.431000,289.340546 
	C502.486725,289.507202 504.695251,287.789551 506.835449,286.914276 
	C505.872803,284.842743 505.323608,282.388184 503.846313,280.793396 
	C501.852112,278.640686 498.912903,277.387726 496.787781,275.327271 
	C491.368927,270.073212 493.177856,262.261902 500.551208,260.746368 
	C504.990143,259.834015 509.831116,260.877655 514.919495,261.057434 
	C514.536560,263.886169 514.342102,265.322540 514.165283,266.628693 
	C510.831177,266.014496 507.699615,265.094849 504.545166,265.007996 
	C503.074188,264.967560 500.578979,266.303925 500.304718,267.440216 
	C499.938965,268.955505 500.865173,271.250275 501.997711,272.543884 
	C503.484924,274.242645 505.771637,275.217010 507.612030,276.635864 
	C512.582336,280.467682 514.198914,284.345123 512.505005,288.553009 
	C510.465546,293.619202 506.140289,294.385803 501.383881,294.195129 
	C500.553101,294.161804 499.724609,294.072968 498.458862,293.961395 
z"/>
<path fill="#303030" opacity="1.000000" stroke="none" 
	d="
M254.932617,282.504211 
	C253.646133,280.756012 252.752808,279.139954 251.439880,276.764893 
	C255.749496,277.612305 258.807434,278.857910 261.715851,278.573669 
	C263.888947,278.361267 265.869049,276.174377 267.935089,274.866699 
	C266.586395,273.010803 265.552460,270.748993 263.811493,269.398956 
	C261.491455,267.599884 258.419708,266.789337 256.027466,265.060638 
	C250.004547,260.708313 250.808304,252.496628 257.794037,250.086960 
	C261.987915,248.640289 266.759918,248.869553 271.711029,248.294632 
	C271.866302,250.984787 271.957886,252.571564 272.017761,253.608566 
	C268.515350,253.608566 265.227356,253.207260 262.118622,253.779633 
	C260.587952,254.061447 258.644196,255.964905 258.281281,257.470520 
	C258.003540,258.622772 259.605560,260.748108 260.915527,261.652771 
	C263.486664,263.428345 266.558502,264.464813 269.200531,266.155121 
	C272.841675,268.484650 274.903595,271.842468 273.731781,276.318756 
	C272.619568,280.567627 269.256927,282.509491 265.236206,282.897034 
	C261.971436,283.211761 258.632080,282.752411 254.932617,282.504211 
z"/>
<path fill="#313131" opacity="1.000000" stroke="none" 
	d="
M261.008148,330.647430 
	C263.208710,334.345490 262.937958,335.075012 259.198700,336.238892 
	C251.465164,338.645996 243.860397,336.594604 239.817154,331.010620 
	C235.657684,325.266052 235.516678,315.719635 239.504349,309.829376 
	C243.694839,303.639526 251.979355,300.519562 259.272430,303.002258 
	C260.814880,303.527313 261.588928,306.309601 262.242279,308.328278 
	C250.766373,305.270172 243.082520,309.363281 242.493423,318.879974 
	C241.838989,329.452179 249.440201,334.441040 261.008148,330.647430 
z"/>
<path fill="#323232" opacity="1.000000" stroke="none" 
	d="
M374.689819,332.113159 
	C370.265472,323.769592 370.964172,314.733551 376.215546,308.992950 
	C381.382904,303.344238 389.542206,302.035461 397.936401,305.639648 
	C397.847076,307.008942 397.752502,308.458710 397.636017,310.244019 
	C390.801758,308.034424 384.287323,307.026703 379.627258,313.820160 
	C376.570496,318.276306 376.747253,325.390778 380.018280,329.325592 
	C384.481628,334.694672 390.194061,333.982574 396.220917,332.111481 
	C397.784546,335.557129 396.614044,337.461060 393.052460,337.901459 
	C386.227081,338.745453 379.659271,338.557831 374.689819,332.113159 
z"/>
<path fill="#2D2D2D" opacity="1.000000" stroke="none" 
	d="
M410.193726,309.676025 
	C407.477112,309.386688 405.192932,309.197845 402.587494,308.982452 
	C402.735016,307.443268 402.854462,306.196960 403.016235,304.509155 
	C411.140533,304.959045 419.039246,305.396423 427.140961,305.845062 
	C427.140961,307.424408 427.140961,308.791138 427.140961,310.294617 
	C424.031555,310.294617 421.242462,310.294617 417.779083,310.294617 
	C417.200470,319.508636 416.612488,328.872192 415.999146,338.639008 
	C414.397186,338.711182 412.850006,338.780884 410.559326,338.884094 
	C411.011108,330.531464 411.523773,322.487823 411.813538,314.436157 
	C411.868866,312.899200 411.044556,311.330536 410.193726,309.676025 
z"/>
<path fill="#2E2E2E" opacity="1.000000" stroke="none" 
	d="
M388.586609,270.783936 
	C388.519653,275.227386 388.519653,279.200195 388.519653,283.731384 
	C386.201813,283.551025 384.663391,283.431335 383.117554,283.311035 
	C383.117554,273.860168 383.117554,264.633057 383.117554,254.780975 
	C380.634186,254.541153 377.586609,254.246857 374.446106,253.943573 
	C373.359009,250.462234 374.614349,249.261444 378.230988,249.514709 
	C385.008911,249.989365 391.807190,250.173859 398.790771,250.487747 
	C398.790771,252.148773 398.790771,253.409073 398.790771,254.901428 
	C395.807892,254.901428 392.864166,254.901428 389.377625,254.901428 
	C389.130646,260.158691 388.892120,265.236023 388.586609,270.783936 
z"/>
<path fill="#303030" opacity="1.000000" stroke="none" 
	d="
M318.161255,266.993225 
	C318.161346,260.705200 318.161346,254.916473 318.161346,248.834778 
	C320.467072,248.834778 322.023468,248.834778 323.980743,248.834778 
	C323.980743,258.365234 323.980743,267.773926 323.980743,276.384277 
	C327.952209,280.024384 334.883636,273.603546 337.393585,281.893982 
	C330.676666,281.893982 324.748566,281.893982 318.161194,281.893982 
	C318.161194,277.017242 318.161194,272.254852 318.161255,266.993225 
z"/>
<path fill="#292929" opacity="1.000000" stroke="none" 
	d="
M340.094055,307.421814 
	C337.802094,307.423859 335.982635,307.423859 333.446594,307.423859 
	C333.446594,316.792603 333.446594,326.174744 333.446594,335.862976 
	C331.198425,335.862976 329.661560,335.862976 327.714539,335.862976 
	C327.714539,326.410706 327.714539,317.049255 327.714539,307.331085 
	C324.553894,307.331085 321.778595,307.331085 318.907013,307.331085 
	C317.554504,304.103394 317.856506,302.467529 321.644531,302.539062 
	C328.596436,302.670349 335.552612,302.576508 342.506989,302.576508 
	C342.879730,303.012634 343.252441,303.448761 343.625183,303.884888 
	C342.605652,305.063171 341.586121,306.241455 340.094055,307.421814 
z"/>
<path fill="#323232" opacity="1.000000" stroke="none" 
	d="
M310.814148,335.894043 
	C309.087006,335.935211 307.807098,335.873871 306.354248,335.804230 
	C306.354248,324.787994 306.354248,314.052094 306.354248,302.750305 
	C307.999481,302.674438 309.710358,302.595520 311.261383,302.524017 
	C311.261383,313.832672 311.261383,324.812103 310.814148,335.894043 
z"/>
<path fill="#2E2E2E" opacity="1.000000" stroke="none" 
	d="
M410.247589,257.566559 
	C409.784637,266.606873 409.364838,275.191223 408.915863,284.372711 
	C407.104919,284.285522 405.399689,284.203400 403.152161,284.095184 
	C403.760193,273.031525 404.353882,262.228424 404.964142,251.124115 
	C406.883636,251.124115 408.581879,251.124115 410.653107,251.124115 
	C410.523926,253.257812 410.407349,255.184189 410.247589,257.566559 
z"/>
<path fill="#F9FBFD" opacity="1.000000" stroke="none" 
	d="
M284.391144,527.325928 
	C287.186432,521.884033 286.268372,518.343323 280.958618,515.292603 
	C275.437531,512.120422 270.532501,507.876099 265.682739,503.144745 
	C273.082458,503.144745 280.493561,502.902313 287.876984,503.249084 
	C291.457367,503.417267 292.811584,502.056000 293.744537,498.889435 
	C295.831085,491.807312 298.246399,484.822052 300.998779,476.347046 
	C303.749878,484.816040 306.161133,491.797882 308.251312,498.874512 
	C309.182312,502.026520 310.512054,503.423309 314.107605,503.250031 
	C321.413483,502.897888 328.748230,503.144745 337.577576,503.144745 
	C334.149506,505.765503 331.659454,507.635162 329.206238,509.551971 
	C324.663818,513.101257 317.827057,515.895813 316.282166,520.469482 
	C314.816650,524.808167 318.893738,531.024902 320.551361,536.410278 
	C321.417450,539.224121 322.321991,542.026001 322.388672,545.539246 
	C316.833710,541.502014 311.042572,537.745056 305.804626,533.331482 
	C302.149231,530.251465 299.593201,530.529968 296.063202,533.446838 
	C290.842682,537.760620 285.147095,541.499573 278.778870,544.949951 
	C280.597473,539.199097 282.416077,533.448303 284.391144,527.325928 
z"/>
<path fill="#F8FBFD" opacity="1.000000" stroke="none" 
	d="
M371.073303,462.013336 
	C372.044037,459.183105 372.911682,456.734131 374.192017,453.120422 
	C376.730499,460.837128 378.988892,467.322601 380.962006,473.893738 
	C381.713562,476.396729 382.891052,477.276031 385.520721,477.205811 
	C392.425629,477.021545 399.338745,477.143585 407.826233,477.143585 
	C400.205597,482.717926 393.832916,487.379425 387.078094,492.320465 
	C389.492554,499.913788 391.930389,507.580597 394.812592,516.645020 
	C388.239777,511.895996 382.707703,508.155457 377.488983,504.019562 
	C374.895905,501.964447 373.130219,502.158020 370.639740,504.107819 
	C365.415405,508.198029 359.934326,511.960327 353.443237,516.665894 
	C355.911743,508.922668 357.831665,502.317078 360.164551,495.860687 
	C361.140930,493.158447 360.673126,491.702362 358.345917,490.113098 
	C352.729309,486.277405 347.293976,482.176239 341.907959,477.143951 
	C347.718872,477.143951 353.552094,476.829224 359.333954,477.239258 
	C364.346497,477.594727 367.545135,476.587799 368.269653,470.931427 
	C368.642822,468.018311 370.037262,465.235992 371.073303,462.013336 
z"/>
<path fill="#FBFCFE" opacity="1.000000" stroke="none" 
	d="
M209.391357,516.861938 
	C208.931900,515.874084 208.456558,514.597595 208.771851,513.561646 
	C210.702530,507.218567 212.812363,500.929993 214.997299,494.208588 
	C208.473145,489.442078 201.928650,484.660706 194.170395,478.992584 
	C202.276703,478.992584 209.127411,478.855011 215.968094,479.056946 
	C218.903809,479.143646 220.369293,478.378784 221.211288,475.347839 
	C222.986618,468.957275 225.253052,462.703125 227.804810,454.905304 
	C230.122330,461.784241 232.445312,467.340332 233.802383,473.123108 
	C234.927414,477.917053 237.151276,479.460114 241.971756,479.101044 
	C248.018906,478.650635 254.125076,478.992645 261.528778,478.992645 
	C255.017593,483.757874 249.691223,487.886169 244.111923,491.638367 
	C241.473877,493.412537 240.733215,494.965210 241.911728,498.101257 
	C244.284332,504.414703 246.137543,510.923340 248.575760,518.504028 
	C241.896927,513.656311 236.200348,509.657532 230.671677,505.438751 
	C228.586609,503.847717 227.057556,503.907318 225.017014,505.474701 
	C220.009384,509.321167 214.843246,512.961243 209.391357,516.861938 
z"/>
<path fill="#F5F9FC" opacity="1.000000" stroke="none" 
	d="
M350.471619,420.005310 
	C348.949799,421.775757 347.621948,423.207520 346.234314,424.703766 
	C348.467255,428.245026 350.915070,432.127136 353.421661,436.102417 
	C347.141144,437.832672 347.024872,437.712646 344.154938,432.942108 
	C342.650879,430.442017 340.813354,428.142487 339.126404,425.752411 
	C338.594604,425.996765 338.062805,426.241150 337.531006,426.485504 
	C337.318268,429.704498 337.105530,432.923523 336.877869,436.368256 
	C334.993835,436.368256 333.256927,436.368256 331.172607,436.368256 
	C331.172607,427.327515 331.172607,418.455048 331.172607,409.385223 
	C335.453949,409.385223 339.430878,409.002808 343.305359,409.470093 
	C350.007812,410.278442 351.642822,412.823944 350.471619,420.005310 
M343.429718,415.157776 
	C341.630035,414.681824 339.830383,414.205872 337.865417,413.686188 
	C337.865417,416.720062 337.865417,419.031036 337.865417,421.602020 
	C342.118011,421.416962 344.992126,420.617920 343.429718,415.157776 
z"/>
<path fill="#F0F6FB" opacity="1.000000" stroke="none" 
	d="
M251.679977,410.199463 
	C253.329712,413.075470 254.738449,415.668640 256.269104,418.486176 
	C259.378143,414.001007 259.793335,406.762787 268.333679,409.515747 
	C266.341217,412.952667 264.053833,416.217896 262.537201,419.808685 
	C261.806488,421.538727 261.910950,424.174683 262.722198,425.886200 
	C264.345001,429.310059 266.714966,432.379822 268.799469,435.631775 
	C262.778687,437.688690 262.778687,437.688690 256.304535,427.639038 
	C253.038956,431.670959 252.849518,439.939697 243.989166,436.472260 
	C245.987869,433.079590 247.828537,429.568848 250.049408,426.317810 
	C251.591934,424.059753 251.578278,422.322876 249.990646,420.110504 
	C247.783844,417.035309 245.923386,413.711578 243.554031,409.916565 
	C246.612518,409.916565 249.025757,409.916565 251.679977,410.199463 
z"/>
<path fill="#E8F1F8" opacity="1.000000" stroke="none" 
	d="
M235.134933,410.449188 
	C235.564590,412.044342 235.688690,413.335297 235.853516,415.049957 
	C232.536469,415.368927 229.476852,415.663116 226.153290,415.982727 
	C226.252380,417.659241 226.336517,419.082855 226.438507,420.808472 
	C229.220215,420.808472 231.808258,420.808472 234.796051,420.808472 
	C235.086426,422.553284 235.337036,424.059235 235.677902,426.107422 
	C232.593002,426.413330 229.873291,426.683044 226.788101,426.989014 
	C226.903793,428.803223 227.003082,430.359924 227.115845,432.128113 
	C230.363998,432.128113 233.293915,432.128113 236.669418,432.128113 
	C236.839615,433.815002 236.995010,435.355225 237.210358,437.489532 
	C231.609024,437.489532 226.382156,437.489532 220.513733,437.489532 
	C220.115768,428.968750 219.701920,420.108032 219.236603,410.144958 
	C224.639465,410.144958 229.734406,410.144958 235.134933,410.449188 
z"/>
<path fill="#F5F9FC" opacity="1.000000" stroke="none" 
	d="
M277.949829,436.340332 
	C277.051300,427.453094 276.575897,418.574738 276.061401,408.966370 
	C280.658112,408.966370 284.586182,408.780792 288.489624,409.011719 
	C293.768829,409.324097 296.478119,411.855255 296.958099,416.424316 
	C297.446747,421.076324 295.029205,424.867676 290.342072,426.273407 
	C288.171082,426.924561 285.836975,427.031891 283.170715,427.449341 
	C283.170715,430.239075 283.170715,433.012024 283.170715,435.915222 
	C281.301025,436.084320 279.837006,436.216736 277.949829,436.340332 
M284.368286,413.887482 
	C283.778961,416.477966 283.189636,419.068420 282.600281,421.658905 
	C283.256561,422.095886 283.912842,422.532867 284.569122,422.969818 
	C286.396027,421.390076 289.207397,420.119507 289.822998,418.159332 
	C290.786835,415.090302 288.073547,413.971069 284.368286,413.887482 
z"/>
<path fill="#F1F6FB" opacity="1.000000" stroke="none" 
	d="
M305.471680,410.430908 
	C310.779144,409.477936 316.035461,408.985718 321.808563,408.445068 
	C321.632385,410.803040 321.528625,412.192078 321.394897,413.982483 
	C318.290436,413.982483 315.402802,413.982483 312.168762,413.982483 
	C312.042786,415.970917 311.941162,417.574707 311.806061,419.706818 
	C314.716370,419.706818 317.430847,419.706818 320.482971,419.706818 
	C320.663208,421.576447 320.797607,422.970459 320.978882,424.850586 
	C317.960083,424.850586 315.242950,424.850586 312.205017,424.850586 
	C312.205017,427.013275 312.205017,428.727722 312.205017,430.737885 
	C315.267883,430.908386 318.350677,431.079987 321.780884,431.270935 
	C321.852875,432.874939 321.915527,434.270538 321.989502,435.918335 
	C316.337341,435.918335 310.974548,435.918335 305.420532,435.918335 
	C305.420532,427.391083 305.420532,419.141357 305.471680,410.430908 
z"/>
<path fill="#EDF4FA" opacity="1.000000" stroke="none" 
	d="
M365.794434,420.869019 
	C365.795197,418.927307 365.795197,417.439056 365.795197,415.543884 
	C363.422791,415.314972 361.030884,415.084167 358.393188,414.829620 
	C358.393188,413.230774 358.393188,411.831207 358.393188,410.472168 
	C358.773102,410.264008 359.056030,409.971863 359.332947,409.977478 
	C365.140564,410.095123 370.947021,410.329865 376.754700,410.361969 
	C380.633453,410.383423 381.308868,412.205231 379.949646,415.801086 
	C377.787567,415.801086 375.541138,415.801086 372.554352,415.801086 
	C372.215576,423.279083 371.891235,430.439178 371.549255,437.987946 
	C369.140228,437.749390 367.383118,437.575378 365.020752,437.341431 
	C365.287811,431.806732 365.540771,426.564606 365.794434,420.869019 
z"/>
<path fill="#FAFAFA" opacity="1.000000" stroke="none" 
	d="
M300.511749,254.122314 
	C305.362946,258.788208 306.757355,266.591370 304.033875,272.113068 
	C301.490143,277.270264 294.937012,279.240723 290.075958,276.309967 
	C285.181458,273.359100 283.249359,265.044952 286.018860,258.851257 
	C288.503052,253.295624 293.371704,251.596848 300.511749,254.122314 
z"/>
<path fill="#F9F9F9" opacity="1.000000" stroke="none" 
	d="
M423.978577,275.630310 
	C424.052185,271.203979 423.474579,266.921051 424.633942,263.175842 
	C426.017242,258.707245 430.008972,256.502045 434.906891,257.099976 
	C439.563080,257.668396 442.519531,260.413086 443.198242,265.058441 
	C443.573486,267.626801 443.531952,270.339172 443.167694,272.914429 
	C442.504120,277.606079 439.892029,280.994415 435.058014,281.834259 
	C430.072479,282.700470 426.321472,280.644165 423.978577,275.630310 
z"/>
<path fill="#F0F0F0" opacity="1.000000" stroke="none" 
	d="
M199.005463,261.055725 
	C198.255508,267.574188 193.743668,267.093353 188.663803,267.140350 
	C188.449173,263.647736 188.243851,260.306335 188.042511,257.030121 
	C194.859055,255.122803 196.896667,255.833939 199.005463,261.055725 
z"/>
<path fill="#F3F3F3" opacity="1.000000" stroke="none" 
	d="
M223.973206,311.481567 
	C224.053696,318.440216 223.215103,319.075562 214.008224,319.212189 
	C214.008224,315.791656 214.008224,312.369110 214.008224,308.745178 
	C217.631317,308.152618 221.256378,307.289459 223.973206,311.481567 
z"/>
<path fill="#F3F3F3" opacity="1.000000" stroke="none" 
	d="
M185.088562,315.437988 
	C185.549667,313.994202 185.932861,312.914154 186.473907,311.389252 
	C188.444748,316.174561 190.250885,320.559967 192.368988,325.702850 
	C188.862457,325.863861 185.878876,326.000854 182.291916,326.165558 
	C183.281708,322.392487 184.146179,319.097107 185.088562,315.437988 
z"/>
<path fill="#EFEFEF" opacity="1.000000" stroke="none" 
	d="
M94.910278,272.054077 
	C95.310760,270.232269 95.655815,268.804352 96.224129,266.452515 
	C98.690193,271.376129 100.767578,275.523712 103.129807,280.240021 
	C99.591965,280.696442 96.587082,281.084106 93.036934,281.542084 
	C93.710022,278.174957 94.282433,275.311432 94.910278,272.054077 
z"/>
<path fill="#1E76BE" opacity="1.000000" stroke="none" 
	d="
M343.668396,415.491455 
	C344.992126,420.617920 342.118011,421.416962 337.865417,421.602020 
	C337.865417,419.031036 337.865417,416.720062 337.865417,413.686188 
	C339.830383,414.205872 341.630035,414.681824 343.668396,415.491455 
z"/>
<path fill="#0667B7" opacity="1.000000" stroke="none" 
	d="
M284.806488,413.878479 
	C288.073547,413.971069 290.786835,415.090302 289.822998,418.159332 
	C289.207397,420.119507 286.396027,421.390076 284.569122,422.969818 
	C283.912842,422.532867 283.256561,422.095886 282.600281,421.658905 
	C283.189636,419.068420 283.778961,416.477966 284.806488,413.878479 
z"/>
</svg>