<svg version="1.1" id="Layer_1" xmlns="http://www.w3.org/2000/svg" xmlns:xlink="http://www.w3.org/1999/xlink" x="0px" y="0px"
	 width="100%" viewBox="0 0 600 600" enable-background="new 0 0 600 600" xml:space="preserve">
<path fill="#000000" opacity="1.000000" stroke="none" 
	d="
M601.000000,222.000000 
	C601.000000,348.666656 601.000000,474.833344 601.000000,601.000000 
	C401.000000,601.000000 201.000000,601.000000 1.000000,601.000000 
	C1.000000,401.000000 1.000000,201.000000 1.000000,1.000000 
	C201.000000,1.000000 401.000000,1.000000 601.000000,1.000000 
	C601.000000,74.500000 601.000000,148.000000 601.000000,222.000000 
M511.013702,212.925598 
	C511.008575,175.615494 510.690399,138.301666 511.132050,100.996857 
	C511.348755,82.692070 498.554260,63.179531 479.849426,57.800323 
	C466.149078,53.860325 452.541565,49.596588 438.900024,45.452984 
	C400.664459,33.838974 362.427063,22.230776 324.202362,10.581041 
	C310.584167,6.430627 296.787170,5.163864 283.030457,9.223269 
	C250.749802,18.748835 218.576385,28.637503 186.350311,38.348511 
	C166.509338,44.327389 146.697739,50.410561 126.788414,56.153843 
	C105.360954,62.335056 90.600273,79.808998 90.879173,102.921005 
	C91.325317,139.892410 90.978058,176.873398 90.089920,213.959702 
	C73.669525,216.507065 57.157986,218.586090 40.859077,221.757751 
	C28.947037,224.075775 21.103088,231.863403 17.263525,243.527603 
	C15.142551,249.970901 16.599550,256.147278 17.861845,262.521484 
	C22.687689,286.890472 27.224783,311.316925 31.816286,335.731934 
	C34.280197,348.833649 36.925713,361.910736 38.968151,375.079773 
	C41.679951,392.564667 58.452995,404.598236 75.816063,401.201355 
	C80.813828,400.223572 85.910774,399.752777 90.990891,399.948120 
	C91.314072,416.936981 95.363136,433.102203 102.291389,448.511353 
	C115.907875,478.795776 137.838028,502.482819 163.626938,522.523560 
	C178.629501,534.182129 194.826492,544.396301 210.995453,554.440369 
	C238.169647,571.320740 267.424683,583.949524 297.528107,594.610596 
	C299.644745,595.360168 302.533630,595.341858 304.620392,594.534851 
	C318.692261,589.093323 332.922150,583.937256 346.576355,577.565002 
	C373.077271,565.197266 398.650604,551.108582 422.515045,534.042053 
	C444.234589,518.509521 464.087463,500.972198 480.502258,479.874115 
	C498.960052,456.150238 510.764740,429.720184 511.895935,399.004364 
	C515.309204,399.518341 518.793579,399.751160 522.124084,400.592743 
	C541.311890,405.441681 558.372131,395.723236 562.458862,377.950287 
	C564.264099,370.099152 565.511902,362.119659 567.005615,354.197083 
	C573.072266,322.020264 578.807129,289.775909 585.340210,257.694122 
	C588.591064,241.730133 578.105408,225.606583 563.153870,222.276169 
	C546.003296,218.455902 528.423462,216.562805 511.013702,212.925598 
z"/>
<path fill="#515253" opacity="1.000000" stroke="none" 
	d="
M90.962250,399.049561 
	C85.910774,399.752777 80.813828,400.223572 75.816063,401.201355 
	C58.452995,404.598236 41.679951,392.564667 38.968151,375.079773 
	C36.925713,361.910736 34.280197,348.833649 31.816286,335.731934 
	C27.224783,311.316925 22.687689,286.890472 17.861845,262.521484 
	C16.599550,256.147278 15.142551,249.970901 17.263525,243.527603 
	C21.103088,231.863403 28.947037,224.075775 40.859077,221.757751 
	C57.157986,218.586090 73.669525,216.507065 90.946320,213.938019 
	C98.852486,212.933640 105.902252,211.950958 113.377586,210.967651 
	C149.239746,207.804810 184.621155,203.495605 220.127716,201.787216 
	C259.460449,199.894745 298.923615,199.442337 338.300018,200.115555 
	C372.016083,200.692001 405.705933,203.508163 439.375519,205.801453 
	C456.115387,206.941635 472.783783,209.131470 489.919434,210.928986 
	C497.246277,211.951843 504.138184,212.892166 511.030121,213.832489 
	C528.423462,216.562805 546.003296,218.455902 563.153870,222.276169 
	C578.105408,225.606583 588.591064,241.730133 585.340210,257.694122 
	C578.807129,289.775909 573.072266,322.020264 567.005615,354.197083 
	C565.511902,362.119659 564.264099,370.099152 562.458862,377.950287 
	C558.372131,395.723236 541.311890,405.441681 522.124084,400.592743 
	C518.793579,399.751160 515.309204,399.518341 511.183289,398.746155 
	C503.604156,397.387848 496.737671,396.287781 489.459473,395.125244 
	C486.747742,394.711853 484.457031,394.275513 482.146210,394.023285 
	C459.851593,391.589905 437.591278,388.725830 415.246490,386.897980 
	C389.746948,384.812012 364.188660,382.867004 338.624115,382.304840 
	C309.189789,381.657623 279.716980,382.382385 250.268341,382.920929 
	C234.649017,383.206512 218.988480,383.763031 203.447052,385.248505 
	C173.189651,388.140533 143.002991,391.772675 112.386703,395.102386 
	C104.978340,396.420868 97.970299,397.735229 90.962250,399.049561 
M45.074802,339.464294 
	C47.168602,350.408508 49.174534,361.370483 51.378956,372.292389 
	C53.998192,385.269379 62.216896,390.617767 75.246788,388.887329 
	C111.858543,384.025116 148.432281,378.720398 185.157822,374.908142 
	C239.225067,369.295715 293.515778,368.758514 347.822083,370.527069 
	C407.969238,372.485870 467.695679,378.610168 527.009644,388.798279 
	C540.178772,391.060303 548.523315,384.883148 550.990173,371.808258 
	C558.114990,334.044434 565.322571,296.296082 572.596863,258.560730 
	C575.288208,244.599289 568.877747,235.342529 554.728394,232.928833 
	C508.594940,225.059082 462.207703,219.333755 415.538086,215.756027 
	C361.203766,211.590698 306.800537,209.907883 252.367737,212.246170 
	C217.296722,213.752747 182.199112,215.887985 147.284393,219.427917 
	C113.533470,222.849823 79.981186,228.291016 46.384327,233.140915 
	C34.128979,234.910049 27.028955,244.829163 29.193142,256.247040 
	C34.399113,283.712799 39.707516,311.159149 45.074802,339.464294 
z"/>
<path fill="#012151" opacity="1.000000" stroke="none" 
	d="
M112.952019,210.968262 
	C105.902252,211.950958 98.852486,212.933640 91.384460,213.883331 
	C90.978058,176.873398 91.325317,139.892410 90.879173,102.921005 
	C90.600273,79.808998 105.360954,62.335056 126.788414,56.153843 
	C146.697739,50.410561 166.509338,44.327389 186.350311,38.348511 
	C218.576385,28.637503 250.749802,18.748835 283.030457,9.223269 
	C296.787170,5.163864 310.584167,6.430627 324.202362,10.581041 
	C362.427063,22.230776 400.664459,33.838974 438.900024,45.452984 
	C452.541565,49.596588 466.149078,53.860325 479.849426,57.800323 
	C498.554260,63.179531 511.348755,82.692070 511.132050,100.996857 
	C510.690399,138.301666 511.008575,175.615494 511.021912,213.379044 
	C504.138184,212.892166 497.246277,211.951843 489.929138,210.470856 
	C489.505371,174.449493 489.513031,138.968811 489.505188,103.488113 
	C489.502136,89.738220 483.557434,81.640968 470.542572,77.703011 
	C418.722168,62.023487 366.894409,46.368118 315.075104,30.684923 
	C305.736023,27.858446 296.453339,27.835697 287.106903,30.716230 
	C275.681824,34.237385 264.202942,37.583492 252.758957,41.043690 
	C212.065338,53.347813 171.370300,65.647362 130.690323,77.996506 
	C119.894333,81.273834 112.903168,89.699089 112.880981,100.034897 
	C112.801598,137.012466 112.912865,173.990448 112.952019,210.968262 
z"/>
<path fill="#002151" opacity="1.000000" stroke="none" 
	d="
M489.871185,395.187714 
	C496.737671,396.287781 503.604156,397.387848 510.757507,398.761200 
	C510.764740,429.720184 498.960052,456.150238 480.502258,479.874115 
	C464.087463,500.972198 444.234589,518.509521 422.515045,534.042053 
	C398.650604,551.108582 373.077271,565.197266 346.576355,577.565002 
	C332.922150,583.937256 318.692261,589.093323 304.620392,594.534851 
	C302.533630,595.341858 299.644745,595.360168 297.528107,594.610596 
	C267.424683,583.949524 238.169647,571.320740 210.995453,554.440369 
	C194.826492,544.396301 178.629501,534.182129 163.626938,522.523560 
	C137.838028,502.482819 115.907875,478.795776 102.291389,448.511353 
	C95.363136,433.102203 91.314072,416.936981 90.976570,399.498840 
	C97.970299,397.735229 104.978340,396.420868 112.391693,395.560913 
	C112.008553,413.274170 116.550148,429.300568 124.216690,444.549042 
	C137.468918,470.907288 157.764221,491.158081 180.833206,508.833405 
	C215.750748,535.587097 254.574188,555.222961 295.425110,571.140503 
	C299.676514,572.797058 303.186951,572.588318 307.289734,570.960693 
	C335.679871,559.698059 363.088287,546.465332 389.076660,530.400879 
	C417.282532,512.965698 443.424255,493.035950 463.862488,466.511780 
	C480.044464,445.511261 489.990417,422.166840 489.871185,395.187714 
z"/>
<path fill="#FDFDFD" opacity="1.000000" stroke="none" 
	d="
M45.024700,339.038818 
	C39.707516,311.159149 34.399113,283.712799 29.193142,256.247040 
	C27.028955,244.829163 34.128979,234.910049 46.384327,233.140915 
	C79.981186,228.291016 113.533470,222.849823 147.284393,219.427917 
	C182.199112,215.887985 217.296722,213.752747 252.367737,212.246170 
	C306.800537,209.907883 361.203766,211.590698 415.538086,215.756027 
	C462.207703,219.333755 508.594940,225.059082 554.728394,232.928833 
	C568.877747,235.342529 575.288208,244.599289 572.596863,258.560730 
	C565.322571,296.296082 558.114990,334.044434 550.990173,371.808258 
	C548.523315,384.883148 540.178772,391.060303 527.009644,388.798279 
	C467.695679,378.610168 407.969238,372.485870 347.822083,370.527069 
	C293.515778,368.758514 239.225067,369.295715 185.157822,374.908142 
	C148.432281,378.720398 111.858543,384.025116 75.246788,388.887329 
	C62.216896,390.617767 53.998192,385.269379 51.378956,372.292389 
	C49.174534,361.370483 47.168602,350.408508 45.024700,339.038818 
M315.867126,309.630432 
	C315.867126,307.839233 315.867126,306.048065 315.867126,304.333618 
	C307.459869,303.092896 307.463470,303.094330 304.591431,310.241272 
	C301.620361,317.634613 298.641327,325.024750 295.459747,332.928162 
	C292.431000,325.218170 289.583862,317.979706 286.743805,310.738434 
	C283.737915,303.074249 283.669342,303.034607 275.289978,304.540955 
	C275.289978,316.808807 275.289978,329.067078 275.289978,341.567719 
	C277.304260,341.567719 279.001465,341.567719 281.243103,341.567719 
	C281.243103,332.199341 281.243103,323.115082 281.243103,314.030792 
	C285.323303,322.470276 288.679291,330.954803 292.249451,339.348236 
	C292.708801,340.428162 294.282990,341.683990 295.334656,341.678528 
	C296.380676,341.673126 297.819550,340.387146 298.381104,339.298859 
	C299.745117,336.655396 300.715912,333.807098 301.815948,331.029785 
	C304.012604,325.483887 306.189697,319.930206 308.374878,314.379761 
	C308.768341,314.483368 309.161804,314.587006 309.555267,314.690613 
	C309.555267,323.632935 309.555267,332.575256 309.555267,341.651306 
	C311.776764,341.651306 313.547913,341.651306 315.867126,341.651306 
	C315.867126,331.164398 315.867126,320.882416 315.867126,309.630432 
M180.835358,308.722778 
	C181.300827,317.038330 181.766296,325.353882 182.231781,333.669434 
	C175.865341,327.080994 170.554855,320.323212 165.700424,313.252319 
	C162.910355,309.188385 159.912506,307.172180 154.674927,309.593323 
	C155.502625,321.767883 156.341415,334.105438 157.196289,346.679749 
	C159.487183,346.438690 161.219086,346.256439 163.164459,346.051727 
	C162.593323,336.726807 162.051422,327.879120 161.509521,319.031433 
	C168.152695,326.101105 174.046341,333.399445 179.304550,341.130005 
	C181.990952,345.079529 184.852234,345.628265 189.212311,344.057587 
	C188.361923,331.656677 187.516876,319.333618 186.633728,306.455078 
	C184.303986,306.993164 182.610199,307.384399 180.835358,308.722778 
M377.276794,338.332367 
	C379.026764,342.721588 382.213257,344.067627 387.410950,342.571991 
	C387.410950,330.401367 387.410950,318.037781 387.410950,305.411743 
	C385.852600,305.411743 384.264954,305.411743 381.565308,305.411743 
	C381.565308,314.545258 381.565308,323.517456 381.565308,332.489624 
	C375.569794,324.781769 370.570557,317.155914 366.351379,309.120453 
	C363.907135,304.465393 360.843933,303.644440 355.692627,305.103455 
	C355.692627,317.322571 355.692627,329.567108 355.692627,341.946289 
	C357.175385,341.946289 358.906830,341.946289 361.557587,341.946289 
	C361.557587,332.705658 361.557587,323.680695 361.557587,314.684509 
	C362.620850,314.684509 362.853271,314.629120 362.891998,314.692383 
	C367.580200,322.348083 372.254120,330.012543 377.276794,338.332367 
M209.993530,343.542786 
	C211.643753,343.348602 213.316422,343.266571 214.940506,342.941681 
	C224.269897,341.075348 230.255463,333.647186 230.173050,324.122986 
	C230.086624,314.136902 225.311127,307.458191 216.305527,306.305206 
	C210.300644,305.536407 204.117584,306.159210 197.572998,306.159210 
	C198.118454,319.035187 198.641373,331.379425 199.162415,343.679169 
	C202.835480,343.679169 205.967804,343.679169 209.993530,343.542786 
M334.698364,282.011414 
	C338.191315,282.001556 341.695557,282.169006 345.175018,281.947510 
	C354.327332,281.364929 361.570190,274.981354 362.918060,266.520172 
	C364.462952,256.822388 361.133667,248.618195 353.305725,246.380524 
	C346.500610,244.435211 339.181122,244.289383 330.988556,243.202316 
	C330.988556,255.800339 330.982880,266.925323 330.993958,278.050323 
	C330.995880,279.980530 330.451935,282.339600 334.698364,282.011414 
M256.935791,282.150879 
	C257.411438,277.218231 257.887085,272.285583 258.369965,267.277771 
	C262.069275,266.244110 264.666412,267.847961 266.611328,270.968964 
	C267.931000,273.086609 269.273804,275.189819 270.595123,277.306458 
	C273.940521,282.665558 273.938019,282.667114 280.730408,281.282043 
	C276.740234,275.643585 272.860596,270.161407 268.933197,264.611694 
	C273.758423,262.337616 276.554047,258.722473 275.912109,253.188766 
	C275.391846,248.703598 272.647614,245.525513 268.326355,245.077133 
	C262.664154,244.489624 256.894928,244.933044 251.803024,244.933044 
	C251.803024,257.602234 251.803024,269.966370 251.803024,282.408508 
	C253.784805,282.309418 254.936157,282.251862 256.935791,282.150879 
M237.321014,279.843201 
	C238.509155,277.504730 240.618423,275.206421 240.722397,272.820709 
	C241.123947,263.606415 240.885452,254.364212 240.885452,245.052765 
	C237.993546,245.052765 236.227295,245.052765 234.341583,245.052765 
	C234.341583,247.900894 234.303436,250.523132 234.349289,253.143890 
	C234.453827,259.118896 234.925247,265.109863 234.619492,271.062073 
	C234.398117,275.371887 231.634384,277.939636 227.061111,278.122040 
	C222.605499,278.299805 219.646362,276.289978 218.666153,271.963654 
	C218.085510,269.400940 218.014435,266.708252 217.863953,264.065491 
	C217.517197,257.975739 217.261826,251.880783 216.958649,245.564590 
	C214.752899,245.738449 212.988281,245.877533 210.714264,246.056763 
	C211.154709,254.973465 211.337372,263.770477 212.105988,272.516022 
	C212.657944,278.796295 216.366577,283.002655 222.603119,283.236938 
	C227.288910,283.412933 232.056519,281.410553 237.321014,279.843201 
M120.169479,312.510498 
	C118.296753,312.510498 116.424019,312.510498 114.196045,312.510498 
	C115.157120,321.604675 115.822426,329.871368 116.956810,338.073151 
	C118.065804,346.091431 123.340630,350.268646 131.016083,349.805847 
	C140.569321,349.229828 146.135071,344.421234 145.899017,335.903107 
	C145.661407,327.328613 144.533020,318.778748 143.767578,309.900604 
	C141.514435,310.090363 139.769623,310.237335 137.439468,310.433594 
	C138.243378,318.385742 139.055099,325.935791 139.755371,333.496155 
	C140.302185,339.399750 137.701492,343.290619 132.940674,343.945190 
	C127.298912,344.720978 123.791924,341.904297 122.986603,335.486298 
	C122.056343,328.072479 121.433304,320.620117 120.169479,312.510498 
M258.179169,314.261810 
	C253.406876,302.593964 255.895004,304.452209 247.153351,304.752869 
	C242.821243,317.220398 238.443985,329.817841 234.083328,342.367493 
	C243.288635,345.114014 241.441895,336.800507 244.361938,332.817474 
	C247.311569,332.817474 250.523148,333.220947 253.584641,332.715424 
	C257.417877,332.082520 259.569855,333.031219 260.377197,336.984528 
	C261.348572,341.741089 264.218903,343.287933 269.021729,341.388763 
	C265.493195,332.523529 261.997955,323.741882 258.179169,314.261810 
M163.359238,280.170746 
	C164.809464,284.722015 167.015350,287.997284 172.847229,285.398529 
	C167.569885,274.099030 162.322327,262.687347 156.825150,251.397217 
	C156.338531,250.397766 154.185440,249.659302 152.875687,249.754410 
	C151.339630,249.865952 148.862549,250.714508 148.541885,251.773026 
	C144.871567,263.888550 141.534454,276.104980 137.980057,288.751526 
	C140.690094,288.424255 142.755142,288.174866 144.715866,287.938080 
	C145.688736,284.487732 146.568710,281.366821 147.405563,278.398865 
	C151.692612,277.981262 155.482819,277.404175 159.279175,277.360382 
	C160.527206,277.346008 161.791153,278.712769 163.359238,280.170746 
M455.905365,271.608582 
	C454.324951,266.186401 452.298615,260.845642 451.289124,255.319199 
	C450.272034,249.751129 447.413940,248.227600 442.279449,249.416580 
	C436.757538,261.301392 431.216949,273.226349 425.686554,285.129395 
	C434.730591,288.642761 433.422882,280.311432 436.755219,276.824066 
	C441.242432,277.196472 446.018982,277.592896 450.605591,277.973572 
	C453.411560,281.785217 450.923615,290.244690 460.315735,287.631134 
	C458.886536,282.540649 457.464417,277.475464 455.905365,271.608582 
M448.276398,326.139374 
	C446.854340,321.196747 445.624390,316.184357 443.872314,311.361603 
	C443.445831,310.187683 441.361420,309.103912 439.933685,308.948364 
	C438.474030,308.789368 435.979004,309.385834 435.490784,310.399719 
	C430.056915,321.683990 424.924591,333.113464 419.512756,344.936646 
	C423.024689,344.981995 426.618073,346.999268 427.679138,342.242340 
	C428.856293,336.964996 431.739258,335.138336 436.922913,336.761414 
	C437.999756,337.098602 439.259094,337.106110 440.394165,336.957977 
	C444.149078,336.467865 445.903839,338.119720 446.214172,341.802429 
	C446.618256,346.596893 449.295807,348.249573 454.320526,346.915527 
	C452.397034,340.210297 450.486633,333.550720 448.276398,326.139374 
M394.205597,283.805481 
	C396.143219,283.928497 398.080841,284.051514 400.732208,284.219849 
	C397.129120,273.186829 393.505524,262.893646 390.466248,252.430740 
	C389.040009,247.520813 387.340302,244.152802 380.894623,246.177902 
	C375.967377,257.882050 370.822144,270.104034 365.689484,282.296173 
	C370.789398,284.153473 373.410736,282.640289 374.199249,278.058624 
	C374.889252,274.049408 377.446564,273.602448 381.032318,273.766357 
	C390.713043,274.208862 390.720428,274.047333 394.205597,283.805481 
M197.709564,246.463837 
	C190.503052,246.923386 183.296539,247.382935 175.820786,247.859650 
	C176.040375,249.965866 176.186020,251.362808 176.369095,253.118729 
	C182.697311,252.776657 188.670898,252.453766 195.092773,252.106644 
	C188.677399,263.567841 181.238907,273.597504 175.047943,285.800629 
	C186.372971,285.133911 195.910217,284.572449 205.798355,283.990326 
	C205.551971,281.974518 205.366623,280.458069 205.157455,278.746643 
	C198.442566,279.089050 192.217880,279.406464 185.273926,279.760529 
	C191.584152,268.303162 198.950653,258.204651 204.965546,246.445496 
	C201.851044,246.445496 200.221695,246.445496 197.709564,246.463837 
M326.122833,323.501160 
	C326.122833,329.453247 326.122833,335.405304 326.122833,341.757446 
	C333.239197,341.757446 340.101044,341.757446 347.255310,341.757446 
	C347.139160,339.993042 347.037170,338.443665 346.914001,336.572571 
	C341.811829,336.572571 337.204742,336.572571 332.135651,336.572571 
	C332.341583,332.795074 332.526550,329.402008 332.725800,325.747467 
	C337.091309,325.747467 341.018616,325.747467 345.172089,325.747467 
	C345.172089,323.760834 345.172089,322.064514 345.172089,319.991516 
	C340.851044,319.991516 336.910370,319.991516 332.570312,319.991516 
	C332.743805,316.363739 332.898315,313.133362 333.069763,309.548523 
	C337.825531,309.548523 342.224640,309.548523 346.716492,309.548523 
	C346.716492,307.598022 346.716492,306.021423 346.716492,304.290894 
	C339.877380,304.290894 333.326721,304.290894 326.122833,304.290894 
	C326.122833,310.571198 326.122833,316.536224 326.122833,323.501160 
M286.129822,276.315125 
	C286.129822,278.069427 286.129822,279.823730 286.129822,281.575684 
	C293.627808,281.575684 300.375916,281.575684 307.568146,281.575684 
	C307.438416,279.716217 307.331451,278.182953 307.194672,276.222778 
	C302.095093,276.222778 297.510712,276.222778 292.920776,276.222778 
	C292.920776,272.359619 292.920776,268.971252 292.920776,265.162170 
	C297.205109,265.162170 301.133087,265.162170 305.169495,265.162170 
	C305.169495,263.195496 305.169495,261.666443 305.169495,259.859222 
	C300.828461,259.859222 296.862091,259.859222 292.666565,259.859222 
	C292.496429,256.318634 292.339386,253.050842 292.151337,249.138062 
	C297.150208,249.138062 301.707031,249.138062 306.281555,249.138062 
	C306.281555,247.087082 306.281555,245.665009 306.281555,244.213074 
	C299.440918,244.213074 292.870300,244.213074 286.129822,244.213074 
	C286.129822,254.775482 286.129822,265.065887 286.129822,276.315125 
M488.657654,344.072510 
	C488.021149,344.808563 486.800293,345.605896 486.869690,346.267914 
	C487.014282,347.646545 487.628143,349.956299 488.423462,350.125610 
	C493.206268,351.143921 498.088348,352.133850 502.950470,352.203247 
	C506.857574,352.259064 509.767761,349.702637 510.953827,345.767456 
	C512.178406,341.704376 511.104431,338.078827 508.016266,335.324829 
	C505.426025,333.014862 502.144958,331.432800 499.753082,328.963409 
	C498.140869,327.298981 497.543427,324.651703 496.492035,322.444092 
	C498.767517,321.442627 501.030945,319.668060 503.321472,319.632324 
	C506.288361,319.586060 509.276855,320.926147 512.255005,321.663910 
	C514.066650,317.625183 512.807739,315.351410 508.370148,314.924744 
	C505.569000,314.655365 502.730499,314.002625 499.971466,314.242737 
	C495.481140,314.633484 491.468719,316.295288 489.998260,321.181244 
	C488.486053,326.206055 490.663422,329.944427 494.533356,332.893219 
	C496.913147,334.706573 499.738983,336.031921 501.802734,338.129211 
	C503.230804,339.580566 504.899323,342.534943 504.303711,343.811798 
	C503.500916,345.532867 500.586945,347.298798 498.646851,347.226440 
	C495.478912,347.108307 492.365753,345.521240 488.657654,344.072510 
M93.952278,328.489594 
	C93.629578,326.074493 93.306877,323.659424 92.958466,321.051910 
	C97.802246,320.309784 102.182701,319.638641 106.965057,318.905914 
	C106.550079,317.002411 106.223320,315.503601 105.846512,313.775177 
	C99.055939,314.684601 92.674637,315.539215 85.910210,316.445129 
	C87.584480,329.054230 89.216118,341.342194 90.904861,354.060272 
	C93.288971,353.567047 95.117393,353.188782 97.058861,352.787109 
	C96.390984,347.476471 95.774338,342.573212 95.137451,337.509033 
	C99.517952,336.859924 103.578094,336.258301 108.085205,335.590424 
	C107.661705,333.748901 107.317444,332.251953 106.917580,330.513184 
	C103.348846,330.992737 100.235374,331.643036 97.111389,331.698181 
	C96.093765,331.716125 95.048737,330.181213 93.952278,328.489594 
M410.978638,267.458466 
	C410.679443,273.192841 410.380219,278.927216 410.073639,284.802582 
	C412.440552,284.802582 414.220642,284.802582 416.331268,284.802582 
	C416.995300,274.085175 417.648010,263.550507 418.306091,252.929321 
	C422.103577,252.929321 425.386597,252.929321 428.933594,252.929321 
	C428.933594,251.234634 428.933594,249.684158 428.933594,247.855972 
	C419.740448,247.314301 410.720673,246.782867 401.510620,246.240204 
	C401.510620,248.341293 401.510620,249.882965 401.510620,251.625046 
	C405.111023,251.868668 408.362610,252.088684 411.927979,252.329926 
	C411.607880,257.287384 411.310303,261.895966 410.978638,267.458466 
M423.193359,310.728271 
	C423.259888,308.976349 423.959045,307.072449 420.897217,306.972534 
	C412.609650,306.702057 404.329529,306.203461 395.596313,305.773132 
	C395.437317,307.640198 395.307129,309.168854 395.163544,310.855011 
	C399.049469,311.226990 402.432739,311.550842 405.971069,311.889526 
	C405.401672,322.875885 404.856201,333.400269 404.298553,344.159790 
	C406.610535,344.159790 408.389862,344.159790 410.583954,344.159790 
	C411.181946,333.444550 411.771149,322.886353 412.347382,312.561218 
	C416.184540,312.186462 419.661163,311.846954 423.193359,310.728271 
M463.796082,316.187408 
	C462.750580,326.738464 461.705048,337.289490 460.620972,348.229797 
	C467.894287,348.909485 474.579163,349.534180 481.554779,350.186005 
	C481.692047,348.054962 481.783234,346.639587 481.886047,345.043915 
	C477.032410,344.480957 472.486450,343.953705 467.549133,343.381042 
	C468.540283,332.494202 469.497345,321.981995 470.481140,311.175964 
	C468.253723,311.012665 466.476990,310.882416 464.409027,310.730804 
	C464.206787,312.395386 464.031006,313.842194 463.796082,316.187408 
z"/>
<path fill="#FEFEFE" opacity="1.000000" stroke="none" 
	d="
M113.377586,210.967667 
	C112.912865,173.990448 112.801598,137.012466 112.880981,100.034897 
	C112.903168,89.699089 119.894333,81.273834 130.690323,77.996506 
	C171.370300,65.647362 212.065338,53.347813 252.758957,41.043690 
	C264.202942,37.583492 275.681824,34.237385 287.106903,30.716230 
	C296.453339,27.835697 305.736023,27.858446 315.075104,30.684923 
	C366.894409,46.368118 418.722168,62.023487 470.542572,77.703011 
	C483.557434,81.640968 489.502136,89.738220 489.505188,103.488113 
	C489.513031,138.968811 489.505371,174.449493 489.494202,210.388336 
	C472.783783,209.131470 456.115387,206.941635 439.375519,205.801453 
	C405.705933,203.508163 372.016083,200.692001 338.300018,200.115555 
	C298.923615,199.442337 259.460449,199.894745 220.127716,201.787216 
	C184.621155,203.495605 149.239746,207.804810 113.377586,210.967667 
M237.870132,104.517334 
	C237.870132,100.562752 237.870132,96.608170 237.870132,92.752441 
	C227.921997,91.081490 227.932159,91.084892 225.055878,99.684021 
	C223.578339,104.101402 222.056915,108.504112 220.203400,113.946831 
	C217.412582,105.962074 214.988708,99.027161 212.698517,92.474701 
	C208.968460,92.474701 205.890625,92.474701 202.824158,92.474701 
	C202.824158,102.858223 202.824158,112.893204 202.824158,122.923203 
	C204.965454,122.923203 206.720230,122.923203 209.059921,122.923203 
	C209.059921,116.241280 209.059921,109.816765 209.059921,103.392250 
	C211.701675,108.469467 213.448853,113.614296 215.326553,118.711037 
	C216.132996,120.900101 216.281067,123.473419 220.003464,123.340614 
	C223.441025,123.217979 223.436691,120.909195 224.167236,118.839790 
	C226.059250,113.480148 227.929428,108.112793 229.808334,102.748520 
	C230.184891,102.823402 230.561462,102.898293 230.938034,102.973175 
	C230.938034,109.656830 230.938034,116.340485 230.938034,122.814651 
	C233.502121,122.814651 235.557281,122.814651 237.870117,122.814651 
	C237.870117,116.789673 237.870117,111.150703 237.870132,104.517334 
M308.877197,100.679413 
	C307.723785,100.626678 306.558075,100.439186 305.418976,100.543221 
	C298.403351,101.184021 294.471649,105.404236 294.464691,112.210129 
	C294.458038,118.732719 298.423065,123.110779 304.977112,123.817574 
	C311.704041,124.543015 316.989655,120.868027 318.185944,114.633713 
	C319.557068,107.488434 316.659149,102.801727 308.877197,100.679413 
M362.921539,119.228737 
	C363.515747,117.869873 364.350555,116.563423 364.660034,115.142548 
	C365.676453,110.475983 365.015900,106.073074 361.055267,102.989418 
	C356.720459,99.614418 351.777496,99.712364 346.959686,101.864395 
	C342.272827,103.957939 340.827240,108.076675 340.995087,112.899216 
	C341.152496,117.421524 343.079468,121.068367 347.357513,122.721291 
	C352.843170,124.840790 358.101318,124.320656 362.921539,119.228737 
M380.919495,95.221603 
	C385.416962,94.791611 382.371948,92.100365 382.801208,90.370483 
	C374.051636,89.442101 371.735687,91.412895 369.339844,99.987526 
	C368.338715,101.631294 367.337555,103.275063 366.050873,105.387650 
	C368.316620,105.913750 369.501007,106.188751 371.032776,106.544426 
	C371.032776,112.226982 371.032776,117.651718 371.032776,122.856483 
	C373.379578,122.856483 375.291840,122.856483 377.680328,122.856483 
	C377.680328,117.115517 377.680328,111.702095 377.680328,106.382187 
	C379.570892,106.072884 380.976746,105.842880 382.335815,105.620529 
	C382.335815,104.023575 382.335815,102.743652 382.335815,101.361267 
	C380.641327,101.046722 379.124939,100.765228 376.397186,100.258873 
	C377.943756,98.162926 378.987091,96.748962 380.919495,95.221603 
M331.555878,105.213310 
	C333.296967,105.496338 335.038055,105.779373 337.201477,106.131058 
	C337.102814,104.250069 337.021484,102.699020 336.932587,101.003868 
	C334.303741,100.823181 332.134399,100.413933 330.011505,100.584198 
	C326.022827,100.904129 322.248840,101.974106 321.597260,106.776398 
	C320.967804,111.415413 324.176758,113.135994 327.859100,114.472603 
	C329.397430,115.030983 330.784454,116.006248 332.240234,116.791969 
	C332.089447,117.441383 331.938690,118.090805 331.787903,118.740219 
	C328.424927,118.523544 325.061981,118.306870 321.423859,118.072472 
	C321.526123,119.640030 321.628967,121.216476 321.801544,123.861275 
	C326.293884,123.412666 330.519592,123.615402 334.252075,122.356171 
	C336.136993,121.720261 338.114166,118.487862 338.223907,116.336342 
	C338.317657,114.498589 336.008759,112.320847 334.365814,110.694283 
	C333.395020,109.733147 331.597168,109.662354 330.269073,108.996140 
	C327.182678,107.447891 328.066956,106.240799 331.555878,105.213310 
M273.844727,121.281242 
	C273.759583,120.012589 273.674438,118.743942 273.589294,117.475288 
	C273.341553,117.927597 273.093811,118.379898 272.846100,118.832199 
	C269.782684,117.906189 266.163666,117.659004 263.875397,115.785995 
	C262.610443,114.750633 262.535461,109.738701 263.755829,108.725441 
	C266.148010,106.739197 269.821930,106.296646 272.965393,105.215218 
	C273.159332,105.653893 273.353302,106.092567 273.547241,106.531242 
	C273.547241,104.799576 273.547241,103.067909 273.547241,101.419136 
	C265.796692,99.525406 260.096405,101.098579 257.225891,105.752449 
	C254.503281,110.166573 254.951477,116.491096 258.245361,120.138451 
	C262.016022,124.313751 267.588531,125.010544 273.844727,121.281242 
M386.552429,106.017494 
	C387.084198,107.332375 387.911560,108.608742 388.088898,109.969803 
	C388.515411,113.243240 388.137726,116.695610 389.008148,119.818336 
	C390.101379,123.740448 393.794464,124.395393 397.163574,123.562767 
	C398.634399,123.199272 399.628448,120.906670 401.429779,118.798866 
	C395.750244,118.046844 392.915314,109.694946 395.557007,106.205490 
	C396.981873,106.049911 398.406738,105.894325 400.039368,105.716057 
	C399.945343,104.021149 399.867065,102.609741 399.789062,101.203400 
	C398.045319,101.027275 396.632935,100.884613 395.225616,100.742462 
	C395.050964,98.515778 394.902039,96.616814 394.706665,94.125542 
	C391.908264,95.794487 387.536591,94.413162 388.077118,99.595184 
	C388.119965,100.006065 387.461426,100.819878 387.028442,100.899300 
	C382.977600,101.642311 384.757446,103.906189 386.552429,106.017494 
M288.537384,101.022255 
	C285.277252,101.022255 282.017090,101.022255 278.697784,101.022255 
	C278.697784,108.703308 278.697784,115.770828 278.697784,123.025558 
	C280.908813,123.025558 282.845062,123.025558 284.565857,123.025558 
	C287.563629,117.372612 280.053131,106.944527 293.055908,106.316040 
	C292.050018,104.140099 295.072845,99.758949 288.537384,101.022255 
M398.492065,149.500870 
	C394.949921,140.910431 387.503754,143.325546 380.760071,142.960037 
	C380.760071,150.796753 380.760071,158.316422 380.760071,165.802109 
	C395.330353,166.835052 399.807373,162.890976 398.492065,149.500870 
M244.430969,112.475571 
	C244.430969,115.907249 244.430969,119.338921 244.430969,122.887276 
	C246.934158,122.887276 248.965912,122.887276 251.045593,122.887276 
	C251.045593,115.481972 251.045593,108.401413 251.045593,101.293892 
	C248.816254,101.293892 246.770355,101.293892 244.431046,101.293892 
	C244.431046,104.913055 244.431046,108.208611 244.430969,112.475571 
M236.253860,152.917618 
	C232.084961,151.138031 235.047653,148.107544 234.612762,145.623581 
	C237.749435,145.294464 240.512787,145.004517 243.276138,144.714569 
	C243.212051,144.237991 243.147980,143.761398 243.083908,143.284805 
	C239.281052,143.284805 235.478195,143.284805 231.666260,143.284805 
	C231.666260,151.032410 231.666260,158.419037 231.666260,165.545135 
	C235.940643,165.545135 239.886215,165.545135 243.831802,165.545135 
	C243.878082,165.033707 243.924377,164.522263 243.970657,164.010834 
	C240.819977,163.634125 237.669281,163.257401 234.433151,162.870468 
	C234.433151,160.539398 234.433151,158.439255 234.433151,156.226395 
	C237.291641,155.751755 239.999542,155.302124 242.707428,154.852493 
	C242.624023,154.210434 242.540604,153.568375 242.457184,152.926315 
	C240.705551,152.926315 238.953918,152.926315 236.253860,152.917618 
M254.968399,162.261108 
	C255.379532,163.500824 255.790665,164.740524 256.201813,165.980240 
	C256.759308,164.844543 257.646454,163.751709 257.800964,162.563614 
	C258.066284,160.523468 257.874298,158.423859 257.874298,156.459366 
	C265.990692,155.031342 264.430420,165.768829 271.722626,166.079544 
	C269.111694,162.031174 266.961548,158.697266 264.773529,155.304688 
	C267.838898,153.374969 270.368011,150.706787 268.514954,146.773972 
	C265.620636,140.631180 259.983002,143.643478 254.968353,142.970047 
	C254.968353,149.382401 254.968353,155.345047 254.968399,162.261108 
M367.060303,142.951035 
	C363.808075,142.951035 360.555847,142.951035 357.472351,142.951035 
	C357.472351,151.091293 357.472351,158.485733 357.472351,165.633942 
	C361.722107,165.633942 365.584259,165.633942 369.446442,165.633942 
	C369.501740,165.060455 369.557068,164.486969 369.612366,163.913483 
	C366.521149,163.639755 363.429932,163.366013 360.244232,163.083908 
	C360.244232,160.516861 360.244232,158.233093 360.244232,156.088165 
	C363.112579,155.625305 365.752563,155.199295 368.392548,154.773285 
	C368.259888,154.145920 368.127228,153.518539 367.994568,152.891174 
	C365.436401,152.891174 362.878235,152.891174 360.219177,152.891174 
	C360.219177,150.111099 360.219177,147.819977 360.219177,145.212799 
	C362.700836,145.212799 365.026581,145.282547 367.335114,145.114807 
	C367.591919,145.096146 367.750458,143.725403 367.060303,142.951035 
M202.961731,155.379242 
	C203.893295,162.235580 206.544418,165.416138 211.973557,166.190735 
	C216.763321,166.874115 218.579330,166.221954 219.905685,163.342194 
	C210.115189,164.426193 206.170578,162.379517 206.113663,155.597595 
	C206.091568,152.966095 206.747345,149.069382 208.498032,147.955765 
	C211.724579,145.903366 215.988831,145.482285 220.153671,144.285782 
	C218.353027,141.850632 215.362732,142.242355 212.395538,142.782761 
	C206.628998,143.833023 203.817368,147.382950 202.961731,155.379242 
M318.961456,162.267105 
	C319.369995,163.506027 319.778534,164.744934 320.187073,165.983841 
	C320.752655,164.693558 321.615082,163.446915 321.812714,162.102524 
	C322.093109,160.195221 321.883881,158.215912 321.883881,156.584335 
	C324.634918,154.831070 328.358215,157.442093 330.651672,153.446411 
	C327.244659,153.205765 324.680298,153.024628 322.303009,152.856705 
	C322.303009,150.120148 322.303009,147.749176 322.303009,145.512711 
	C325.442169,145.217789 328.154114,144.962997 330.866028,144.708206 
	C330.822876,144.260803 330.779724,143.813400 330.736603,143.365997 
	C326.928619,143.365997 323.120605,143.365997 318.961426,143.365997 
	C318.961426,149.412582 318.961426,155.362396 318.961456,162.267105 
M291.135895,145.209259 
	C291.956543,144.863190 292.777222,144.517120 293.597870,144.171051 
	C293.495453,143.935349 293.393036,143.699631 293.290619,143.463928 
	C288.056610,143.463928 282.822632,143.463928 277.588623,143.463928 
	C277.550964,143.889160 277.513336,144.314392 277.475677,144.739624 
	C279.537170,144.996613 281.598663,145.253586 284.050934,145.559296 
	C284.050934,152.476318 284.050934,159.201004 284.050934,165.925690 
	C284.522400,166.047882 284.993835,166.170074 285.465302,166.292282 
	C285.936157,165.138763 286.775696,163.997147 286.813385,162.829651 
	C286.968231,158.034241 287.018341,153.225342 286.825470,148.432739 
	C286.716461,145.723999 287.766266,144.835388 291.135895,145.209259 
M303.724091,157.400467 
	C303.724091,160.268448 303.724091,163.136429 303.724091,166.540085 
	C306.705048,164.541275 307.786987,154.006424 306.598297,145.119537 
	C306.482635,144.254639 305.563416,143.497177 305.017181,142.689850 
	C304.586182,142.857681 304.155151,143.025513 303.724152,143.193344 
	C303.724152,147.606781 303.724152,152.020203 303.724091,157.400467 
M344.664246,163.011505 
	C344.664215,157.358917 344.740295,151.704422 344.599091,146.055374 
	C344.571289,144.943741 343.705200,143.853058 343.225769,142.752701 
	C342.725189,142.911560 342.224640,143.070404 341.724060,143.229263 
	C341.724060,146.993790 341.724030,150.758301 341.724030,154.522827 
	C341.724030,158.281906 341.724060,162.040970 341.724060,165.800049 
	C342.148743,165.970093 342.573456,166.140121 342.998138,166.310165 
	C343.550812,165.506882 344.103455,164.703583 344.664246,163.011505 
M251.256470,95.681419 
	C250.696320,94.075798 250.568832,91.737015 249.450592,91.077126 
	C248.397507,90.455681 246.027374,91.226700 244.776459,92.131454 
	C244.144363,92.588631 244.458496,95.807945 244.768524,95.877029 
	C246.731735,96.314514 248.813507,96.219986 251.256470,95.681419 
z"/>
<path fill="#0064B5" opacity="1.000000" stroke="none" 
	d="
M489.459473,395.125244 
	C489.990417,422.166840 480.044464,445.511261 463.862488,466.511780 
	C443.424255,493.035950 417.282532,512.965698 389.076660,530.400879 
	C363.088287,546.465332 335.679871,559.698059 307.289734,570.960693 
	C303.186951,572.588318 299.676514,572.797058 295.425110,571.140503 
	C254.574188,555.222961 215.750748,535.587097 180.833206,508.833405 
	C157.764221,491.158081 137.468918,470.907288 124.216690,444.549042 
	C116.550148,429.300568 112.008553,413.274170 112.792023,395.556824 
	C143.002991,391.772675 173.189651,388.140533 203.447052,385.248505 
	C218.988480,383.763031 234.649017,383.206512 250.268341,382.920929 
	C279.716980,382.382385 309.189789,381.657623 338.624115,382.304840 
	C364.188660,382.867004 389.746948,384.812012 415.246490,386.897980 
	C437.591278,388.725830 459.851593,391.589905 482.146210,394.023285 
	C484.457031,394.275513 486.747742,394.711853 489.459473,395.125244 
M298.379272,439.859650 
	C297.617981,442.234497 296.908356,444.627380 296.084412,446.980286 
	C294.503052,451.496155 294.094177,457.730011 290.892242,460.006073 
	C287.641296,462.316956 281.608124,460.756226 276.792480,460.811462 
	C271.973389,460.866730 267.153168,460.823578 262.333435,460.823578 
	C268.904724,466.671753 275.385803,471.634735 282.142548,476.188721 
	C285.030975,478.135406 285.544891,479.884399 284.384186,483.131409 
	C281.609833,490.892639 279.288300,498.815765 276.357941,508.010132 
	C285.445038,501.445709 293.343597,495.739868 301.123077,490.120026 
	C309.242920,495.978302 316.911560,501.511017 325.872101,507.975800 
	C323.209259,499.646667 321.405762,492.582947 318.668518,485.901764 
	C316.545807,480.720551 317.101562,477.662750 322.166351,474.626221 
	C328.434540,470.868225 334.085358,466.080475 340.002899,461.737610 
	C332.273315,460.823578 324.937042,460.309265 317.711823,460.984161 
	C311.794159,461.536926 309.559509,459.170563 308.199280,453.890137 
	C306.402435,446.914703 303.868835,440.129028 301.651947,433.261749 
	C301.320770,433.246124 300.989594,433.230469 300.658417,433.214844 
	C300.009094,435.193451 299.359772,437.172089 298.379272,439.859650 
z"/>
<path fill="#353535" opacity="1.000000" stroke="none" 
	d="
M315.867126,310.115417 
	C315.867126,320.882416 315.867126,331.164398 315.867126,341.651306 
	C313.547913,341.651306 311.776764,341.651306 309.555267,341.651306 
	C309.555267,332.575256 309.555267,323.632935 309.555267,314.690613 
	C309.161804,314.587006 308.768341,314.483368 308.374878,314.379761 
	C306.189697,319.930206 304.012604,325.483887 301.815948,331.029785 
	C300.715912,333.807098 299.745117,336.655396 298.381104,339.298859 
	C297.819550,340.387146 296.380676,341.673126 295.334656,341.678528 
	C294.282990,341.683990 292.708801,340.428162 292.249451,339.348236 
	C288.679291,330.954803 285.323303,322.470276 281.243103,314.030792 
	C281.243103,323.115082 281.243103,332.199341 281.243103,341.567719 
	C279.001465,341.567719 277.304260,341.567719 275.289978,341.567719 
	C275.289978,329.067078 275.289978,316.808807 275.289978,304.540955 
	C283.669342,303.034607 283.737915,303.074249 286.743805,310.738434 
	C289.583862,317.979706 292.431000,325.218170 295.459747,332.928162 
	C298.641327,325.024750 301.620361,317.634613 304.591431,310.241272 
	C307.463470,303.094330 307.459869,303.092896 315.867126,304.333618 
	C315.867126,306.048065 315.867126,307.839233 315.867126,310.115417 
z"/>
<path fill="#2E2E2E" opacity="1.000000" stroke="none" 
	d="
M180.875885,308.249207 
	C182.610199,307.384399 184.303986,306.993164 186.633728,306.455078 
	C187.516876,319.333618 188.361923,331.656677 189.212311,344.057587 
	C184.852234,345.628265 181.990952,345.079529 179.304550,341.130005 
	C174.046341,333.399445 168.152695,326.101105 161.509521,319.031433 
	C162.051422,327.879120 162.593323,336.726807 163.164459,346.051727 
	C161.219086,346.256439 159.487183,346.438690 157.196289,346.679749 
	C156.341415,334.105438 155.502625,321.767883 154.674927,309.593323 
	C159.912506,307.172180 162.910355,309.188385 165.700424,313.252319 
	C170.554855,320.323212 175.865341,327.080994 182.231781,333.669434 
	C181.766296,325.353882 181.300827,317.038330 180.875885,308.249207 
z"/>
<path fill="#2E2E2E" opacity="1.000000" stroke="none" 
	d="
M377.102783,338.004456 
	C372.254120,330.012543 367.580200,322.348083 362.891998,314.692383 
	C362.853271,314.629120 362.620850,314.684509 361.557587,314.684509 
	C361.557587,323.680695 361.557587,332.705658 361.557587,341.946289 
	C358.906830,341.946289 357.175385,341.946289 355.692627,341.946289 
	C355.692627,329.567108 355.692627,317.322571 355.692627,305.103455 
	C360.843933,303.644440 363.907135,304.465393 366.351379,309.120453 
	C370.570557,317.155914 375.569794,324.781769 381.565308,332.489624 
	C381.565308,323.517456 381.565308,314.545258 381.565308,305.411743 
	C384.264954,305.411743 385.852600,305.411743 387.410950,305.411743 
	C387.410950,318.037781 387.410950,330.401367 387.410950,342.571991 
	C382.213257,344.067627 379.026764,342.721588 377.102783,338.004456 
z"/>
<path fill="#2E2E2E" opacity="1.000000" stroke="none" 
	d="
M209.546829,343.610962 
	C205.967804,343.679169 202.835480,343.679169 199.162415,343.679169 
	C198.641373,331.379425 198.118454,319.035187 197.572998,306.159210 
	C204.117584,306.159210 210.300644,305.536407 216.305527,306.305206 
	C225.311127,307.458191 230.086624,314.136902 230.173050,324.122986 
	C230.255463,333.647186 224.269897,341.075348 214.940506,342.941681 
	C213.316422,343.266571 211.643753,343.348602 209.546829,343.610962 
M223.504883,323.695801 
	C222.205521,312.780121 216.797501,309.394592 203.985016,311.789368 
	C204.421326,320.562531 204.860062,329.384613 205.296768,338.165527 
	C218.751602,338.165466 222.911835,334.921356 223.504883,323.695801 
z"/>
<path fill="#2F2F2F" opacity="1.000000" stroke="none" 
	d="
M334.220154,282.010620 
	C330.451935,282.339600 330.995880,279.980530 330.993958,278.050323 
	C330.982880,266.925323 330.988556,255.800339 330.988556,243.202316 
	C339.181122,244.289383 346.500610,244.435211 353.305725,246.380524 
	C361.133667,248.618195 364.462952,256.822388 362.918060,266.520172 
	C361.570190,274.981354 354.327332,281.364929 345.175018,281.947510 
	C341.695557,282.169006 338.191315,282.001556 334.220154,282.010620 
M351.480225,251.790466 
	C347.099609,250.814972 342.718964,249.839478 337.495941,248.676407 
	C337.495941,254.449356 337.495941,258.763824 337.495941,263.078278 
	C337.495941,267.518311 337.495941,271.958374 337.495941,276.359802 
	C346.709900,277.631927 352.327667,275.589844 355.061920,270.094879 
	C357.955872,264.278870 356.780121,256.996338 351.480225,251.790466 
z"/>
<path fill="#343434" opacity="1.000000" stroke="none" 
	d="
M256.511658,282.172607 
	C254.936157,282.251862 253.784805,282.309418 251.803024,282.408508 
	C251.803024,269.966370 251.803024,257.602234 251.803024,244.933044 
	C256.894928,244.933044 262.664154,244.489624 268.326355,245.077133 
	C272.647614,245.525513 275.391846,248.703598 275.912109,253.188766 
	C276.554047,258.722473 273.758423,262.337616 268.933197,264.611694 
	C272.860596,270.161407 276.740234,275.643585 280.730408,281.282043 
	C273.938019,282.667114 273.940521,282.665558 270.595123,277.306458 
	C269.273804,275.189819 267.931000,273.086609 266.611328,270.968964 
	C264.666412,267.847961 262.069275,266.244110 258.369965,267.277771 
	C257.887085,272.285583 257.411438,277.218231 256.511658,282.172607 
M257.467590,258.140808 
	C256.950134,261.359100 258.543121,262.081085 261.453979,261.900909 
	C265.222656,261.667603 268.451630,260.879608 269.120026,256.520508 
	C270.048645,250.464615 265.159271,247.927399 257.467010,250.299622 
	C257.467010,252.643677 257.467010,254.948273 257.467590,258.140808 
z"/>
<path fill="#2E2E2E" opacity="1.000000" stroke="none" 
	d="
M237.054352,280.110596 
	C232.056519,281.410553 227.288910,283.412933 222.603119,283.236938 
	C216.366577,283.002655 212.657944,278.796295 212.105988,272.516022 
	C211.337372,263.770477 211.154709,254.973465 210.714264,246.056763 
	C212.988281,245.877533 214.752899,245.738449 216.958649,245.564590 
	C217.261826,251.880783 217.517197,257.975739 217.863953,264.065491 
	C218.014435,266.708252 218.085510,269.400940 218.666153,271.963654 
	C219.646362,276.289978 222.605499,278.299805 227.061111,278.122040 
	C231.634384,277.939636 234.398117,275.371887 234.619492,271.062073 
	C234.925247,265.109863 234.453827,259.118896 234.349289,253.143890 
	C234.303436,250.523132 234.341583,247.900894 234.341583,245.052765 
	C236.227295,245.052765 237.993546,245.052765 240.885452,245.052765 
	C240.885452,254.364212 241.123947,263.606415 240.722397,272.820709 
	C240.618423,275.206421 238.509155,277.504730 237.054352,280.110596 
z"/>
<path fill="#2F2F2F" opacity="1.000000" stroke="none" 
	d="
M120.423172,312.847504 
	C121.433304,320.620117 122.056343,328.072479 122.986603,335.486298 
	C123.791924,341.904297 127.298912,344.720978 132.940674,343.945190 
	C137.701492,343.290619 140.302185,339.399750 139.755371,333.496155 
	C139.055099,325.935791 138.243378,318.385742 137.439468,310.433594 
	C139.769623,310.237335 141.514435,310.090363 143.767578,309.900604 
	C144.533020,318.778748 145.661407,327.328613 145.899017,335.903107 
	C146.135071,344.421234 140.569321,349.229828 131.016083,349.805847 
	C123.340630,350.268646 118.065804,346.091431 116.956810,338.073151 
	C115.822426,329.871368 115.157120,321.604675 114.196045,312.510498 
	C116.424019,312.510498 118.296753,312.510498 120.423172,312.847504 
z"/>
<path fill="#303030" opacity="1.000000" stroke="none" 
	d="
M258.340942,314.611023 
	C261.997955,323.741882 265.493195,332.523529 269.021729,341.388763 
	C264.218903,343.287933 261.348572,341.741089 260.377197,336.984528 
	C259.569855,333.031219 257.417877,332.082520 253.584641,332.715424 
	C250.523148,333.220947 247.311569,332.817474 244.361938,332.817474 
	C241.441895,336.800507 243.288635,345.114014 234.083328,342.367493 
	C238.443985,329.817841 242.821243,317.220398 247.153351,304.752869 
	C255.895004,304.452209 253.406876,302.593964 258.340942,314.611023 
M251.293915,327.555542 
	C253.021301,327.555542 254.748703,327.555542 257.034668,327.555542 
	C254.781830,321.661438 252.863647,316.642914 250.642761,310.832397 
	C248.745392,316.962891 247.148682,322.121918 245.375870,327.849915 
	C247.544296,327.736969 248.985901,327.661896 251.293915,327.555542 
z"/>
<path fill="#2F2F2F" opacity="1.000000" stroke="none" 
	d="
M163.203522,279.809326 
	C161.791153,278.712769 160.527206,277.346008 159.279175,277.360382 
	C155.482819,277.404175 151.692612,277.981262 147.405563,278.398865 
	C146.568710,281.366821 145.688736,284.487732 144.715866,287.938080 
	C142.755142,288.174866 140.690094,288.424255 137.980057,288.751526 
	C141.534454,276.104980 144.871567,263.888550 148.541885,251.773026 
	C148.862549,250.714508 151.339630,249.865952 152.875687,249.754410 
	C154.185440,249.659302 156.338531,250.397766 156.825150,251.397217 
	C162.322327,262.687347 167.569885,274.099030 172.847229,285.398529 
	C167.015350,287.997284 164.809464,284.722015 163.203522,279.809326 
M152.446686,272.858063 
	C154.795517,272.571442 157.144348,272.284821 159.920120,271.946106 
	C157.503098,266.552124 155.368896,261.789276 152.802124,256.061066 
	C151.364151,261.565765 150.293533,265.714478 149.193161,269.855286 
	C148.641037,271.933044 148.612671,273.546234 152.446686,272.858063 
z"/>
<path fill="#303030" opacity="1.000000" stroke="none" 
	d="
M455.973846,272.009430 
	C457.464417,277.475464 458.886536,282.540649 460.315735,287.631134 
	C450.923615,290.244690 453.411560,281.785217 450.605591,277.973572 
	C446.018982,277.592896 441.242432,277.196472 436.755219,276.824066 
	C433.422882,280.311432 434.730591,288.642761 425.686554,285.129395 
	C431.216949,273.226349 436.757538,261.301392 442.279449,249.416580 
	C447.413940,248.227600 450.272034,249.751129 451.289124,255.319199 
	C452.298615,260.845642 454.324951,266.186401 455.973846,272.009430 
M441.262695,264.855438 
	C440.404419,267.067139 439.546143,269.278809 438.559113,271.822357 
	C442.619751,272.096924 446.000977,272.325562 449.763794,272.580017 
	C448.308960,266.943085 446.986816,261.820312 445.401611,255.678299 
	C443.871552,259.139435 442.756104,261.662750 441.262695,264.855438 
z"/>
<path fill="#2F2F2F" opacity="1.000000" stroke="none" 
	d="
M448.426331,326.515259 
	C450.486633,333.550720 452.397034,340.210297 454.320526,346.915527 
	C449.295807,348.249573 446.618256,346.596893 446.214172,341.802429 
	C445.903839,338.119720 444.149078,336.467865 440.394165,336.957977 
	C439.259094,337.106110 437.999756,337.098602 436.922913,336.761414 
	C431.739258,335.138336 428.856293,336.964996 427.679138,342.242340 
	C426.618073,346.999268 423.024689,344.981995 419.512756,344.936646 
	C424.924591,333.113464 430.056915,321.683990 435.490784,310.399719 
	C435.979004,309.385834 438.474030,308.789368 439.933685,308.948364 
	C441.361420,309.103912 443.445831,310.187683 443.872314,311.361603 
	C445.624390,316.184357 446.854340,321.196747 448.426331,326.515259 
M438.105682,317.294678 
	C436.251099,321.705414 434.396515,326.116150 432.300873,331.100189 
	C436.226868,331.448975 439.700867,331.757568 443.688354,332.111786 
	C442.251892,326.543823 441.028473,321.741974 439.723114,316.962463 
	C439.671417,316.773132 438.839569,316.796844 438.105682,317.294678 
z"/>
<path fill="#2F2F2F" opacity="1.000000" stroke="none" 
	d="
M393.932129,283.478607 
	C390.720428,274.047333 390.713043,274.208862 381.032318,273.766357 
	C377.446564,273.602448 374.889252,274.049408 374.199249,278.058624 
	C373.410736,282.640289 370.789398,284.153473 365.689484,282.296173 
	C370.822144,270.104034 375.967377,257.882050 380.894623,246.177902 
	C387.340302,244.152802 389.040009,247.520813 390.466248,252.430740 
	C393.505524,262.893646 397.129120,273.186829 400.732208,284.219849 
	C398.080841,284.051514 396.143219,283.928497 393.932129,283.478607 
M386.924774,260.617676 
	C386.136108,258.123505 385.347473,255.629333 384.241608,252.131927 
	C381.892914,258.152954 379.952972,263.126190 377.794983,268.658325 
	C382.050323,268.658325 385.468018,268.658325 389.288025,268.658325 
	C388.516663,266.118988 387.800568,263.761597 386.924774,260.617676 
z"/>
<path fill="#353535" opacity="1.000000" stroke="none" 
	d="
M198.150940,246.454666 
	C200.221695,246.445496 201.851044,246.445496 204.965546,246.445496 
	C198.950653,258.204651 191.584152,268.303162 185.273926,279.760529 
	C192.217880,279.406464 198.442566,279.089050 205.157455,278.746643 
	C205.366623,280.458069 205.551971,281.974518 205.798355,283.990326 
	C195.910217,284.572449 186.372971,285.133911 175.047943,285.800629 
	C181.238907,273.597504 188.677399,263.567841 195.092773,252.106644 
	C188.670898,252.453766 182.697311,252.776657 176.369095,253.118729 
	C176.186020,251.362808 176.040375,249.965866 175.820786,247.859650 
	C183.296539,247.382935 190.503052,246.923386 198.150940,246.454666 
z"/>
<path fill="#383838" opacity="1.000000" stroke="none" 
	d="
M326.122833,323.001221 
	C326.122833,316.536224 326.122833,310.571198 326.122833,304.290894 
	C333.326721,304.290894 339.877380,304.290894 346.716492,304.290894 
	C346.716492,306.021423 346.716492,307.598022 346.716492,309.548523 
	C342.224640,309.548523 337.825531,309.548523 333.069763,309.548523 
	C332.898315,313.133362 332.743805,316.363739 332.570312,319.991516 
	C336.910370,319.991516 340.851044,319.991516 345.172089,319.991516 
	C345.172089,322.064514 345.172089,323.760834 345.172089,325.747467 
	C341.018616,325.747467 337.091309,325.747467 332.725800,325.747467 
	C332.526550,329.402008 332.341583,332.795074 332.135651,336.572571 
	C337.204742,336.572571 341.811829,336.572571 346.914001,336.572571 
	C347.037170,338.443665 347.139160,339.993042 347.255310,341.757446 
	C340.101044,341.757446 333.239197,341.757446 326.122833,341.757446 
	C326.122833,335.405304 326.122833,329.453247 326.122833,323.001221 
z"/>
<path fill="#363636" opacity="1.000000" stroke="none" 
	d="
M286.129822,275.835724 
	C286.129822,265.065887 286.129822,254.775482 286.129822,244.213074 
	C292.870300,244.213074 299.440918,244.213074 306.281555,244.213074 
	C306.281555,245.665009 306.281555,247.087082 306.281555,249.138062 
	C301.707031,249.138062 297.150208,249.138062 292.151337,249.138062 
	C292.339386,253.050842 292.496429,256.318634 292.666565,259.859222 
	C296.862091,259.859222 300.828461,259.859222 305.169495,259.859222 
	C305.169495,261.666443 305.169495,263.195496 305.169495,265.162170 
	C301.133087,265.162170 297.205109,265.162170 292.920776,265.162170 
	C292.920776,268.971252 292.920776,272.359619 292.920776,276.222778 
	C297.510712,276.222778 302.095093,276.222778 307.194672,276.222778 
	C307.331451,278.182953 307.438416,279.716217 307.568146,281.575684 
	C300.375916,281.575684 293.627808,281.575684 286.129822,281.575684 
	C286.129822,279.823730 286.129822,278.069427 286.129822,275.835724 
z"/>
<path fill="#303030" opacity="1.000000" stroke="none" 
	d="
M488.943542,344.313232 
	C492.365753,345.521240 495.478912,347.108307 498.646851,347.226440 
	C500.586945,347.298798 503.500916,345.532867 504.303711,343.811798 
	C504.899323,342.534943 503.230804,339.580566 501.802734,338.129211 
	C499.738983,336.031921 496.913147,334.706573 494.533356,332.893219 
	C490.663422,329.944427 488.486053,326.206055 489.998260,321.181244 
	C491.468719,316.295288 495.481140,314.633484 499.971466,314.242737 
	C502.730499,314.002625 505.569000,314.655365 508.370148,314.924744 
	C512.807739,315.351410 514.066650,317.625183 512.255493,321.666626 
	C509.276855,320.926147 506.288361,319.586060 503.321472,319.632324 
	C501.030945,319.668060 498.767517,321.442627 496.492035,322.444092 
	C497.543427,324.651703 498.140869,327.298981 499.753082,328.963409 
	C502.144958,331.432800 505.426025,333.014862 508.016266,335.324829 
	C511.104431,338.078827 512.178406,341.704376 510.953827,345.767456 
	C509.767761,349.702637 506.857574,352.259064 502.950470,352.203247 
	C498.088348,352.133850 493.206268,351.143921 488.423462,350.125610 
	C487.628143,349.956299 487.014282,347.646545 486.869690,346.267914 
	C486.800293,345.605896 488.021149,344.808563 488.943542,344.313232 
z"/>
<path fill="#343434" opacity="1.000000" stroke="none" 
	d="
M93.984261,328.923065 
	C95.048737,330.181213 96.093765,331.716125 97.111389,331.698181 
	C100.235374,331.643036 103.348846,330.992737 106.917580,330.513184 
	C107.317444,332.251953 107.661705,333.748901 108.085205,335.590424 
	C103.578094,336.258301 99.517952,336.859924 95.137451,337.509033 
	C95.774338,342.573212 96.390984,347.476471 97.058861,352.787109 
	C95.117393,353.188782 93.288971,353.567047 90.904861,354.060272 
	C89.216118,341.342194 87.584480,329.054230 85.910210,316.445129 
	C92.674637,315.539215 99.055939,314.684601 105.846512,313.775177 
	C106.223320,315.503601 106.550079,317.002411 106.965057,318.905914 
	C102.182701,319.638641 97.802246,320.309784 92.958466,321.051910 
	C93.306877,323.659424 93.629578,326.074493 93.984261,328.923065 
z"/>
<path fill="#353535" opacity="1.000000" stroke="none" 
	d="
M410.995697,266.981506 
	C411.310303,261.895966 411.607880,257.287384 411.927979,252.329926 
	C408.362610,252.088684 405.111023,251.868668 401.510620,251.625046 
	C401.510620,249.882965 401.510620,248.341293 401.510620,246.240204 
	C410.720673,246.782867 419.740448,247.314301 428.933594,247.855972 
	C428.933594,249.684158 428.933594,251.234634 428.933594,252.929321 
	C425.386597,252.929321 422.103577,252.929321 418.306091,252.929321 
	C417.648010,263.550507 416.995300,274.085175 416.331268,284.802582 
	C414.220642,284.802582 412.440552,284.802582 410.073639,284.802582 
	C410.380219,278.927216 410.679443,273.192841 410.995697,266.981506 
z"/>
<path fill="#343434" opacity="1.000000" stroke="none" 
	d="
M423.165588,311.117859 
	C419.661163,311.846954 416.184540,312.186462 412.347382,312.561218 
	C411.771149,322.886353 411.181946,333.444550 410.583954,344.159790 
	C408.389862,344.159790 406.610535,344.159790 404.298553,344.159790 
	C404.856201,333.400269 405.401672,322.875885 405.971069,311.889526 
	C402.432739,311.550842 399.049469,311.226990 395.163544,310.855011 
	C395.307129,309.168854 395.437317,307.640198 395.596313,305.773132 
	C404.329529,306.203461 412.609650,306.702057 420.897217,306.972534 
	C423.959045,307.072449 423.259888,308.976349 423.165588,311.117859 
z"/>
<path fill="#343434" opacity="1.000000" stroke="none" 
	d="
M463.825623,315.738220 
	C464.031006,313.842194 464.206787,312.395386 464.409027,310.730804 
	C466.476990,310.882416 468.253723,311.012665 470.481140,311.175964 
	C469.497345,321.981995 468.540283,332.494202 467.549133,343.381042 
	C472.486450,343.953705 477.032410,344.480957 481.886047,345.043915 
	C481.783234,346.639587 481.692047,348.054962 481.554779,350.186005 
	C474.579163,349.534180 467.894287,348.909485 460.620972,348.229797 
	C461.705048,337.289490 462.750580,326.738464 463.825623,315.738220 
z"/>
<path fill="#252357" opacity="1.000000" stroke="none" 
	d="
M237.870117,105.014542 
	C237.870117,111.150703 237.870117,116.789673 237.870117,122.814651 
	C235.557281,122.814651 233.502121,122.814651 230.938034,122.814651 
	C230.938034,116.340485 230.938034,109.656830 230.938034,102.973175 
	C230.561462,102.898293 230.184891,102.823402 229.808334,102.748520 
	C227.929428,108.112793 226.059250,113.480148 224.167236,118.839790 
	C223.436691,120.909195 223.441025,123.217979 220.003464,123.340614 
	C216.281067,123.473419 216.132996,120.900101 215.326553,118.711037 
	C213.448853,113.614296 211.701675,108.469467 209.059921,103.392250 
	C209.059921,109.816765 209.059921,116.241280 209.059921,122.923203 
	C206.720230,122.923203 204.965454,122.923203 202.824158,122.923203 
	C202.824158,112.893204 202.824158,102.858223 202.824158,92.474701 
	C205.890625,92.474701 208.968460,92.474701 212.698517,92.474701 
	C214.988708,99.027161 217.412582,105.962074 220.203400,113.946831 
	C222.056915,108.504112 223.578339,104.101402 225.055878,99.684021 
	C227.932159,91.084892 227.921997,91.081490 237.870132,92.752441 
	C237.870132,96.608170 237.870132,100.562752 237.870117,105.014542 
z"/>
<path fill="#222055" opacity="1.000000" stroke="none" 
	d="
M309.262085,100.751755 
	C316.659149,102.801727 319.557068,107.488434 318.185944,114.633713 
	C316.989655,120.868027 311.704041,124.543015 304.977112,123.817574 
	C298.423065,123.110779 294.458038,118.732719 294.464691,112.210129 
	C294.471649,105.404236 298.403351,101.184021 305.418976,100.543221 
	C306.558075,100.439186 307.723785,100.626678 309.262085,100.751755 
M308.125946,105.980881 
	C305.169189,105.497292 302.321564,106.130226 302.072632,109.394035 
	C301.867096,112.088493 302.689423,115.096062 303.919647,117.528214 
	C304.309753,118.299515 308.850647,118.244667 309.134308,117.572609 
	C310.268311,114.886353 310.657043,111.823761 310.905457,108.865463 
	C310.974365,108.045082 309.607422,107.104141 308.125946,105.980881 
z"/>
<path fill="#212054" opacity="1.000000" stroke="none" 
	d="
M362.693817,119.536316 
	C358.101318,124.320656 352.843170,124.840790 347.357513,122.721291 
	C343.079468,121.068367 341.152496,117.421524 340.995087,112.899216 
	C340.827240,108.076675 342.272827,103.957939 346.959686,101.864395 
	C351.777496,99.712364 356.720459,99.614418 361.055267,102.989418 
	C365.015900,106.073074 365.676453,110.475983 364.660034,115.142548 
	C364.350555,116.563423 363.515747,117.869873 362.693817,119.536316 
M357.878418,109.956711 
	C357.153412,106.894371 355.162323,105.024208 352.160339,106.079941 
	C350.510223,106.660248 348.378693,108.882309 348.354462,110.394432 
	C348.314575,112.880585 349.072113,116.343147 350.812775,117.694016 
	C354.459045,120.523834 357.790344,117.167938 357.878418,109.956711 
z"/>
<path fill="#232155" opacity="1.000000" stroke="none" 
	d="
M380.474976,95.278305 
	C378.987091,96.748962 377.943756,98.162926 376.397186,100.258873 
	C379.124939,100.765228 380.641327,101.046722 382.335815,101.361267 
	C382.335815,102.743652 382.335815,104.023575 382.335815,105.620529 
	C380.976746,105.842880 379.570892,106.072884 377.680328,106.382187 
	C377.680328,111.702095 377.680328,117.115517 377.680328,122.856483 
	C375.291840,122.856483 373.379578,122.856483 371.032776,122.856483 
	C371.032776,117.651718 371.032776,112.226982 371.032776,106.544426 
	C369.501007,106.188751 368.316620,105.913750 366.050873,105.387650 
	C367.337555,103.275063 368.338715,101.631294 369.339844,99.987526 
	C371.735687,91.412895 374.051636,89.442101 382.801208,90.370483 
	C382.371948,92.100365 385.416962,94.791611 380.474976,95.278305 
z"/>
<path fill="#242256" opacity="1.000000" stroke="none" 
	d="
M331.125854,105.251328 
	C328.066956,106.240799 327.182678,107.447891 330.269073,108.996140 
	C331.597168,109.662354 333.395020,109.733147 334.365814,110.694283 
	C336.008759,112.320847 338.317657,114.498589 338.223907,116.336342 
	C338.114166,118.487862 336.136993,121.720261 334.252075,122.356171 
	C330.519592,123.615402 326.293884,123.412666 321.801544,123.861275 
	C321.628967,121.216476 321.526123,119.640030 321.423859,118.072472 
	C325.061981,118.306870 328.424927,118.523544 331.787903,118.740219 
	C331.938690,118.090805 332.089447,117.441383 332.240234,116.791969 
	C330.784454,116.006248 329.397430,115.030983 327.859100,114.472603 
	C324.176758,113.135994 320.967804,111.415413 321.597260,106.776398 
	C322.248840,101.974106 326.022827,100.904129 330.011505,100.584198 
	C332.134399,100.413933 334.303741,100.823181 336.932587,101.003868 
	C337.021484,102.699020 337.102814,104.250069 337.201477,106.131058 
	C335.038055,105.779373 333.296967,105.496338 331.125854,105.251328 
z"/>
<path fill="#282659" opacity="1.000000" stroke="none" 
	d="
M273.731384,121.670959 
	C267.588531,125.010544 262.016022,124.313751 258.245361,120.138451 
	C254.951477,116.491096 254.503281,110.166573 257.225891,105.752449 
	C260.096405,101.098579 265.796692,99.525406 273.547241,101.419136 
	C273.547241,103.067909 273.547241,104.799576 273.547241,106.531242 
	C273.353302,106.092567 273.159332,105.653893 272.965393,105.215218 
	C269.821930,106.296646 266.148010,106.739197 263.755829,108.725441 
	C262.535461,109.738701 262.610443,114.750633 263.875397,115.785995 
	C266.163666,117.659004 269.782684,117.906189 272.846100,118.832199 
	C273.093811,118.379898 273.341553,117.927597 273.589294,117.475288 
	C273.674438,118.743942 273.759583,120.012589 273.731384,121.670959 
z"/>
<path fill="#1F1D52" opacity="1.000000" stroke="none" 
	d="
M386.094269,105.983887 
	C384.757446,103.906189 382.977600,101.642311 387.028442,100.899300 
	C387.461426,100.819878 388.119965,100.006065 388.077118,99.595184 
	C387.536591,94.413162 391.908264,95.794487 394.706665,94.125542 
	C394.902039,96.616814 395.050964,98.515778 395.225616,100.742462 
	C396.632935,100.884613 398.045319,101.027275 399.789062,101.203400 
	C399.867065,102.609741 399.945343,104.021149 400.039368,105.716057 
	C398.406738,105.894325 396.981873,106.049911 395.556702,106.206520 
	C392.915314,109.694946 395.750244,118.046844 401.429779,118.798866 
	C399.628448,120.906670 398.634399,123.199272 397.163574,123.562767 
	C393.794464,124.395393 390.101379,123.740448 389.008148,119.818336 
	C388.137726,116.695610 388.515411,113.243240 388.088898,109.969803 
	C387.911560,108.608742 387.084198,107.332375 386.094269,105.983887 
z"/>
<path fill="#2A285B" opacity="1.000000" stroke="none" 
	d="
M288.966309,100.890915 
	C295.072845,99.758949 292.050018,104.140099 293.055908,106.316040 
	C280.053131,106.944527 287.563629,117.372612 284.565857,123.025558 
	C282.845062,123.025558 280.908813,123.025558 278.697784,123.025558 
	C278.697784,115.770828 278.697784,108.703308 278.697784,101.022255 
	C282.017090,101.022255 285.277252,101.022255 288.966309,100.890915 
z"/>
<path fill="#353363" opacity="1.000000" stroke="none" 
	d="
M398.653870,149.882202 
	C399.807373,162.890976 395.330353,166.835052 380.760071,165.802109 
	C380.760071,158.316422 380.760071,150.796753 380.760071,142.960037 
	C387.503754,143.325546 394.949921,140.910431 398.653870,149.882202 
M394.902710,148.874176 
	C391.963806,145.046799 387.902039,145.157639 383.474670,145.457184 
	C383.474670,151.421738 383.474670,157.157471 383.474670,162.854111 
	C393.668152,164.538422 397.932220,159.634171 394.902710,148.874176 
z"/>
<path fill="#282659" opacity="1.000000" stroke="none" 
	d="
M244.431000,111.989868 
	C244.431046,108.208611 244.431046,104.913055 244.431046,101.293892 
	C246.770355,101.293892 248.816254,101.293892 251.045593,101.293892 
	C251.045593,108.401413 251.045593,115.481972 251.045593,122.887276 
	C248.965912,122.887276 246.934158,122.887276 244.430969,122.887276 
	C244.430969,119.338921 244.430969,115.907249 244.431000,111.989868 
z"/>
<path fill="#3A3867" opacity="1.000000" stroke="none" 
	d="
M236.728073,152.921967 
	C238.953918,152.926315 240.705551,152.926315 242.457184,152.926315 
	C242.540604,153.568375 242.624023,154.210434 242.707428,154.852493 
	C239.999542,155.302124 237.291641,155.751755 234.433151,156.226395 
	C234.433151,158.439255 234.433151,160.539398 234.433151,162.870468 
	C237.669281,163.257401 240.819977,163.634125 243.970657,164.010834 
	C243.924377,164.522263 243.878082,165.033707 243.831802,165.545135 
	C239.886215,165.545135 235.940643,165.545135 231.666260,165.545135 
	C231.666260,158.419037 231.666260,151.032410 231.666260,143.284805 
	C235.478195,143.284805 239.281052,143.284805 243.083908,143.284805 
	C243.147980,143.761398 243.212051,144.237991 243.276138,144.714569 
	C240.512787,145.004517 237.749435,145.294464 234.612762,145.623581 
	C235.047653,148.107544 232.084961,151.138031 236.728073,152.921967 
z"/>
<path fill="#272558" opacity="1.000000" stroke="none" 
	d="
M254.968384,161.784393 
	C254.968353,155.345047 254.968353,149.382401 254.968353,142.970047 
	C259.983002,143.643478 265.620636,140.631180 268.514954,146.773972 
	C270.368011,150.706787 267.838898,153.374969 264.773529,155.304688 
	C266.961548,158.697266 269.111694,162.031174 271.722626,166.079544 
	C264.430420,165.768829 265.990692,155.031342 257.874298,156.459366 
	C257.874298,158.423859 258.066284,160.523468 257.800964,162.563614 
	C257.646454,163.751709 256.759308,164.844543 256.201813,165.980240 
	C255.790665,164.740524 255.379532,163.500824 254.968384,161.784393 
M262.771576,145.492630 
	C261.226593,145.407181 259.681610,145.321732 258.155090,145.237289 
	C258.155090,148.446304 258.155090,151.024612 258.155090,155.088364 
	C261.266296,153.428192 263.812286,152.529602 265.586151,150.826721 
	C266.081390,150.351303 264.296783,147.500977 262.771576,145.492630 
z"/>
<path fill="#302F60" opacity="1.000000" stroke="none" 
	d="
M367.507446,142.966370 
	C367.750458,143.725403 367.591919,145.096146 367.335114,145.114807 
	C365.026581,145.282547 362.700836,145.212799 360.219177,145.212799 
	C360.219177,147.819977 360.219177,150.111099 360.219177,152.891174 
	C362.878235,152.891174 365.436401,152.891174 367.994568,152.891174 
	C368.127228,153.518539 368.259888,154.145920 368.392548,154.773285 
	C365.752563,155.199295 363.112579,155.625305 360.244232,156.088165 
	C360.244232,158.233093 360.244232,160.516861 360.244232,163.083908 
	C363.429932,163.366013 366.521149,163.639755 369.612366,163.913483 
	C369.557068,164.486969 369.501740,165.060455 369.446442,165.633942 
	C365.584259,165.633942 361.722107,165.633942 357.472351,165.633942 
	C357.472351,158.485733 357.472351,151.091293 357.472351,142.951035 
	C360.555847,142.951035 363.808075,142.951035 367.507446,142.966370 
z"/>
<path fill="#2B295C" opacity="1.000000" stroke="none" 
	d="
M202.960876,154.961884 
	C203.817368,147.382950 206.628998,143.833023 212.395538,142.782761 
	C215.362732,142.242355 218.353027,141.850632 220.153671,144.285782 
	C215.988831,145.482285 211.724579,145.903366 208.498032,147.955765 
	C206.747345,149.069382 206.091568,152.966095 206.113663,155.597595 
	C206.170578,162.379517 210.115189,164.426193 219.905685,163.342194 
	C218.579330,166.221954 216.763321,166.874115 211.973557,166.190735 
	C206.544418,165.416138 203.893295,162.235580 202.960876,154.961884 
z"/>
<path fill="#2A285B" opacity="1.000000" stroke="none" 
	d="
M318.961426,161.789673 
	C318.961426,155.362396 318.961426,149.412582 318.961426,143.365997 
	C323.120605,143.365997 326.928619,143.365997 330.736603,143.365997 
	C330.779724,143.813400 330.822876,144.260803 330.866028,144.708206 
	C328.154114,144.962997 325.442169,145.217789 322.303009,145.512711 
	C322.303009,147.749176 322.303009,150.120148 322.303009,152.856705 
	C324.680298,153.024628 327.244659,153.205765 330.651672,153.446411 
	C328.358215,157.442093 324.634918,154.831070 321.883881,156.584335 
	C321.883881,158.215912 322.093109,160.195221 321.812714,162.102524 
	C321.615082,163.446915 320.752655,164.693558 320.187073,165.983841 
	C319.778534,164.744934 319.369995,163.506027 318.961426,161.789673 
z"/>
<path fill="#282659" opacity="1.000000" stroke="none" 
	d="
M290.704102,145.210693 
	C287.766266,144.835388 286.716461,145.723999 286.825470,148.432739 
	C287.018341,153.225342 286.968231,158.034241 286.813385,162.829651 
	C286.775696,163.997147 285.936157,165.138763 285.465302,166.292282 
	C284.993835,166.170074 284.522400,166.047882 284.050934,165.925690 
	C284.050934,159.201004 284.050934,152.476318 284.050934,145.559296 
	C281.598663,145.253586 279.537170,144.996613 277.475677,144.739624 
	C277.513336,144.314392 277.550964,143.889160 277.588623,143.463928 
	C282.822632,143.463928 288.056610,143.463928 293.290619,143.463928 
	C293.393036,143.699631 293.495453,143.935349 293.597870,144.171051 
	C292.777222,144.517120 291.956543,144.863190 290.704102,145.210693 
z"/>
<path fill="#3E3C6A" opacity="1.000000" stroke="none" 
	d="
M303.724121,156.917053 
	C303.724152,152.020203 303.724152,147.606781 303.724152,143.193344 
	C304.155151,143.025513 304.586182,142.857681 305.017181,142.689850 
	C305.563416,143.497177 306.482635,144.254639 306.598297,145.119537 
	C307.786987,154.006424 306.705048,164.541275 303.724091,166.540085 
	C303.724091,163.136429 303.724091,160.268448 303.724121,156.917053 
z"/>
<path fill="#3E3C6A" opacity="1.000000" stroke="none" 
	d="
M344.660187,163.455902 
	C344.103455,164.703583 343.550812,165.506882 342.998138,166.310165 
	C342.573456,166.140121 342.148743,165.970093 341.724060,165.800049 
	C341.724060,162.040970 341.724030,158.281906 341.724030,154.522827 
	C341.724030,150.758301 341.724060,146.993790 341.724060,143.229263 
	C342.224640,143.070404 342.725189,142.911560 343.225769,142.752701 
	C343.705200,143.853058 344.571289,144.943741 344.599091,146.055374 
	C344.740295,151.704422 344.664215,157.358917 344.660187,163.455902 
z"/>
<path fill="#2D2B5D" opacity="1.000000" stroke="none" 
	d="
M251.056305,95.991196 
	C248.813507,96.219986 246.731735,96.314514 244.768524,95.877029 
	C244.458496,95.807945 244.144363,92.588631 244.776459,92.131454 
	C246.027374,91.226700 248.397507,90.455681 249.450592,91.077126 
	C250.568832,91.737015 250.696320,94.075798 251.056305,95.991196 
z"/>
<path fill="#FBFDFE" opacity="1.000000" stroke="none" 
	d="
M298.544861,439.505188 
	C299.359772,437.172089 300.009094,435.193451 300.658417,433.214844 
	C300.989594,433.230469 301.320770,433.246124 301.651947,433.261749 
	C303.868835,440.129028 306.402435,446.914703 308.199280,453.890137 
	C309.559509,459.170563 311.794159,461.536926 317.711823,460.984161 
	C324.937042,460.309265 332.273315,460.823578 340.002899,461.737610 
	C334.085358,466.080475 328.434540,470.868225 322.166351,474.626221 
	C317.101562,477.662750 316.545807,480.720551 318.668518,485.901764 
	C321.405762,492.582947 323.209259,499.646667 325.872101,507.975800 
	C316.911560,501.511017 309.242920,495.978302 301.123077,490.120026 
	C293.343597,495.739868 285.445038,501.445709 276.357941,508.010132 
	C279.288300,498.815765 281.609833,490.892639 284.384186,483.131409 
	C285.544891,479.884399 285.030975,478.135406 282.142548,476.188721 
	C275.385803,471.634735 268.904724,466.671753 262.333435,460.823578 
	C267.153168,460.823578 271.973389,460.866730 276.792480,460.811462 
	C281.608124,460.756226 287.641296,462.316956 290.892242,460.006073 
	C294.094177,457.730011 294.503052,451.496155 296.084412,446.980286 
	C296.908356,444.627380 297.617981,442.234497 298.544861,439.505188 
z"/>
<path fill="#F9F9F9" opacity="1.000000" stroke="none" 
	d="
M223.506073,324.098694 
	C222.911835,334.921356 218.751602,338.165466 205.296768,338.165527 
	C204.860062,329.384613 204.421326,320.562531 203.985016,311.789368 
	C216.797501,309.394592 222.205521,312.780121 223.506073,324.098694 
z"/>
<path fill="#F7F7F7" opacity="1.000000" stroke="none" 
	d="
M351.821991,251.967529 
	C356.780121,256.996338 357.955872,264.278870 355.061920,270.094879 
	C352.327667,275.589844 346.709900,277.631927 337.495941,276.359802 
	C337.495941,271.958374 337.495941,267.518311 337.495941,263.078278 
	C337.495941,258.763824 337.495941,254.449356 337.495941,248.676407 
	C342.718964,249.839478 347.099609,250.814972 351.821991,251.967529 
z"/>
<path fill="#EEEEEE" opacity="1.000000" stroke="none" 
	d="
M257.467285,257.696838 
	C257.467010,254.948273 257.467010,252.643677 257.467010,250.299622 
	C265.159271,247.927399 270.048645,250.464615 269.120026,256.520508 
	C268.451630,260.879608 265.222656,261.667603 261.453979,261.900909 
	C258.543121,262.081085 256.950134,261.359100 257.467285,257.696838 
z"/>
<path fill="#EEEEEE" opacity="1.000000" stroke="none" 
	d="
M250.860703,327.571167 
	C248.985901,327.661896 247.544296,327.736969 245.375870,327.849915 
	C247.148682,322.121918 248.745392,316.962891 250.642761,310.832397 
	C252.863647,316.642914 254.781830,321.661438 257.034668,327.555542 
	C254.748703,327.555542 253.021301,327.555542 250.860703,327.571167 
z"/>
<path fill="#F0F0F0" opacity="1.000000" stroke="none" 
	d="
M151.998169,272.866486 
	C148.612671,273.546234 148.641037,271.933044 149.193161,269.855286 
	C150.293533,265.714478 151.364151,261.565765 152.802124,256.061066 
	C155.368896,261.789276 157.503098,266.552124 159.920120,271.946106 
	C157.144348,272.284821 154.795517,272.571442 151.998169,272.866486 
z"/>
<path fill="#F1F1F1" opacity="1.000000" stroke="none" 
	d="
M441.451660,264.520752 
	C442.756104,261.662750 443.871552,259.139435 445.401611,255.678299 
	C446.986816,261.820312 448.308960,266.943085 449.763794,272.580017 
	C446.000977,272.325562 442.619751,272.096924 438.559113,271.822357 
	C439.546143,269.278809 440.404419,267.067139 441.451660,264.520752 
z"/>
<path fill="#EEEEEE" opacity="1.000000" stroke="none" 
	d="
M438.238464,317.007996 
	C438.839569,316.796844 439.671417,316.773132 439.723114,316.962463 
	C441.028473,321.741974 442.251892,326.543823 443.688354,332.111786 
	C439.700867,331.757568 436.226868,331.448975 432.300873,331.100189 
	C434.396515,326.116150 436.251099,321.705414 438.238464,317.007996 
z"/>
<path fill="#F0F0F0" opacity="1.000000" stroke="none" 
	d="
M387.004639,261.010925 
	C387.800568,263.761597 388.516663,266.118988 389.288025,268.658325 
	C385.468018,268.658325 382.050323,268.658325 377.794983,268.658325 
	C379.952972,263.126190 381.892914,258.152954 384.241608,252.131927 
	C385.347473,255.629333 386.136108,258.123505 387.004639,261.010925 
z"/>
<path fill="#F2F2F5" opacity="1.000000" stroke="none" 
	d="
M308.512604,106.099701 
	C309.607422,107.104141 310.974365,108.045082 310.905457,108.865463 
	C310.657043,111.823761 310.268311,114.886353 309.134308,117.572609 
	C308.850647,118.244667 304.309753,118.299515 303.919647,117.528214 
	C302.689423,115.096062 301.867096,112.088493 302.072632,109.394035 
	C302.321564,106.130226 305.169189,105.497292 308.512604,106.099701 
z"/>
<path fill="#F7F7F9" opacity="1.000000" stroke="none" 
	d="
M357.920898,110.366768 
	C357.790344,117.167938 354.459045,120.523834 350.812775,117.694016 
	C349.072113,116.343147 348.314575,112.880585 348.354462,110.394432 
	C348.378693,108.882309 350.510223,106.660248 352.160339,106.079941 
	C355.162323,105.024208 357.153412,106.894371 357.920898,110.366768 
z"/>
<path fill="#F7F7F9" opacity="1.000000" stroke="none" 
	d="
M395.084198,149.240051 
	C397.932220,159.634171 393.668152,164.538422 383.474670,162.854111 
	C383.474670,157.157471 383.474670,151.421738 383.474670,145.457184 
	C387.902039,145.157639 391.963806,145.046799 395.084198,149.240051 
z"/>
<path fill="#F1F1F4" opacity="1.000000" stroke="none" 
	d="
M263.164795,145.616364 
	C264.296783,147.500977 266.081390,150.351303 265.586151,150.826721 
	C263.812286,152.529602 261.266296,153.428192 258.155090,155.088364 
	C258.155090,151.024612 258.155090,148.446304 258.155090,145.237289 
	C259.681610,145.321732 261.226593,145.407181 263.164795,145.616364 
z"/>
</svg>