<svg version="1.1" id="Layer_1" xmlns="http://www.w3.org/2000/svg" xmlns:xlink="http://www.w3.org/1999/xlink" x="0px" y="0px"
	 width="100%" viewBox="0 0 600 600" enable-background="new 0 0 600 600" xml:space="preserve">
<path fill="#FFFFFF" opacity="1.000000" stroke="none" 
	d="
M601.000000,234.000000 
	C601.000000,356.666656 601.000000,478.833344 601.000000,601.000000 
	C401.000000,601.000000 201.000000,601.000000 1.000000,601.000000 
	C1.000000,401.000000 1.000000,201.000000 1.000000,1.000000 
	C201.000000,1.000000 401.000000,1.000000 601.000000,1.000000 
	C601.000000,78.500000 601.000000,156.000000 601.000000,234.000000 
M511.959991,399.017944 
	C515.664551,399.539551 519.359070,400.150879 523.075439,400.567017 
	C537.733948,402.208557 551.577148,401.503937 559.915283,383.534882 
	C562.309998,378.374268 562.960510,372.357483 564.103577,366.671478 
	C567.815308,348.206970 571.455444,329.727325 574.989075,311.227905 
	C578.464478,293.032776 581.234619,274.683441 585.331299,256.632599 
	C588.602173,242.220154 578.302856,227.084320 566.611633,223.255356 
	C556.823425,220.049606 546.349792,218.887589 536.141846,217.028107 
	C527.826965,215.513474 519.456177,214.305954 511.011383,212.034317 
	C511.008087,174.391342 511.109497,136.747940 510.955475,99.105576 
	C510.882965,81.378677 498.913086,63.574993 481.270294,58.046307 
	C461.021332,51.700928 440.612030,45.869324 420.312805,39.681797 
	C388.481506,29.979111 356.710938,20.076233 324.847595,10.480764 
	C319.157684,8.767273 313.187836,7.703787 307.269379,7.085879 
	C294.190430,5.720390 281.821289,8.990849 269.382660,12.877680 
	C235.162354,23.570864 200.761230,33.686008 166.421463,43.995979 
	C152.868881,48.064930 139.307907,52.108143 125.717827,56.049484 
	C104.432564,62.222549 90.890778,79.531616 90.957451,101.538971 
	C91.069977,138.679855 90.924339,175.821548 90.070084,213.019974 
	C87.661057,213.367355 85.246590,213.680984 82.843918,214.067795 
	C70.632050,216.033859 58.458858,218.282745 46.205170,219.936523 
	C26.977537,222.531509 12.784049,239.733932 16.750828,257.456451 
	C21.682190,279.488434 24.942276,301.891418 29.080046,324.105133 
	C32.261852,341.186737 35.717163,358.217224 38.990356,375.282013 
	C41.782841,389.840607 53.797043,402.047546 69.371506,400.981567 
	C76.558182,400.489685 83.726776,399.733673 90.990692,399.998169 
	C91.723312,407.151367 91.764648,414.457581 93.308655,421.431152 
	C99.865227,451.044220 115.398094,475.850922 136.152252,497.420776 
	C145.021088,506.638214 154.899231,514.943665 164.752884,523.141724 
	C183.471420,538.715210 204.083618,551.651367 225.667953,562.682434 
	C246.433578,573.295166 268.013306,582.348938 289.451782,591.585205 
	C294.375763,593.706543 299.643188,596.629761 305.719818,594.042480 
	C318.583282,588.565613 331.892700,584.044250 344.442383,577.944275 
	C362.430939,569.200745 380.137878,559.808838 397.535980,549.937500 
	C417.776367,538.453552 436.544861,524.666077 453.473083,508.726746 
	C463.747833,499.052155 473.312469,488.424988 481.972321,477.275208 
	C499.754303,454.380402 510.489502,428.542755 511.959991,399.017944 
z"/>
<path fill="#012151" opacity="1.000000" stroke="none" 
	d="
M90.887268,212.962891 
	C90.924339,175.821548 91.069977,138.679855 90.957451,101.538971 
	C90.890778,79.531616 104.432564,62.222549 125.717827,56.049484 
	C139.307907,52.108143 152.868881,48.064930 166.421463,43.995979 
	C200.761230,33.686008 235.162354,23.570864 269.382660,12.877680 
	C281.821289,8.990849 294.190430,5.720390 307.269379,7.085879 
	C313.187836,7.703787 319.157684,8.767273 324.847595,10.480764 
	C356.710938,20.076233 388.481506,29.979111 420.312805,39.681797 
	C440.612030,45.869324 461.021332,51.700928 481.270294,58.046307 
	C498.913086,63.574993 510.882965,81.378677 510.955475,99.105576 
	C511.109497,136.747940 511.008087,174.391342 510.607727,212.546509 
	C496.394379,211.405792 482.607330,209.524979 468.769867,208.152115 
	C446.674469,205.959991 424.570343,203.749939 402.423798,202.210388 
	C381.233612,200.737305 359.989746,199.422272 338.760437,199.266769 
	C304.490173,199.015762 270.211945,199.724396 235.938492,200.143524 
	C228.806244,200.230728 221.668015,200.664322 214.553558,201.211594 
	C194.725418,202.736908 174.898804,204.298523 155.090591,206.059723 
	C143.875168,207.056931 132.698517,208.487549 121.501862,209.699417 
	C111.298790,210.803772 101.092270,211.876328 90.887268,212.962891 
M216.181641,102.195984 
	C212.438950,91.297005 212.438858,91.296112 203.317245,92.177917 
	C203.179642,92.191223 203.054443,92.333145 202.507584,92.675095 
	C202.507584,101.034142 202.507568,109.659706 202.507568,118.285271 
	C202.507568,119.755379 202.507584,121.225494 202.507584,122.664970 
	C204.835297,122.664970 206.721405,122.664970 208.945312,122.664970 
	C208.945312,115.772736 208.945312,109.229797 208.945312,102.686867 
	C209.193253,102.639900 209.441177,102.592934 209.689117,102.545959 
	C212.126480,109.323990 214.563828,116.102020 216.928558,122.678108 
	C221.129288,123.858643 223.235840,122.776825 224.323288,118.500168 
	C225.761627,112.843483 228.098450,107.415253 230.049103,101.888840 
	C230.383514,101.969994 230.717911,102.051147 231.052322,102.132301 
	C231.052322,109.028168 231.052322,115.924026 231.052322,122.809807 
	C233.348038,122.809807 235.284790,122.809807 237.706451,122.809807 
	C237.706451,120.823029 237.706436,119.029381 237.706436,117.235733 
	C237.706436,108.956528 237.706451,100.677322 237.706451,92.209366 
	C236.109711,92.113823 234.958923,92.156853 233.851044,91.959259 
	C229.114288,91.114441 226.746536,92.999939 225.604507,97.758858 
	C224.375610,102.879868 222.235855,107.782303 220.170074,113.707893 
	C218.706604,109.461929 217.580887,106.195847 216.181641,102.195984 
M298.806396,120.905739 
	C300.326447,121.541237 301.794739,122.498314 303.376099,122.752716 
	C308.383636,123.558319 313.008362,122.828247 316.257355,118.356888 
	C318.870758,114.760231 319.066528,108.299728 316.537994,104.690475 
	C313.505951,100.362473 308.995331,99.432785 304.165497,100.139557 
	C300.008667,100.747841 296.499451,102.851799 295.262054,107.116158 
	C293.857361,111.956917 294.142303,116.675446 298.806396,120.905739 
M364.226105,112.322891 
	C363.978149,104.217384 360.412323,100.237892 353.172516,99.987000 
	C346.108643,99.742203 341.356476,103.547211 340.689850,109.981636 
	C339.960449,117.022697 343.465118,121.900299 350.004517,122.945206 
	C357.368256,124.121819 362.490295,120.584778 364.226105,112.322891 
M370.667267,118.427139 
	C370.744751,119.861923 370.822266,121.296700 370.903778,122.805542 
	C373.177032,122.805542 375.106873,122.805542 377.495789,122.805542 
	C377.495789,116.879616 377.495789,111.137794 377.495789,105.217316 
	C379.344635,105.049904 380.756195,104.922089 382.429993,104.770531 
	C382.345123,103.013298 382.277008,101.602829 382.207031,100.153526 
	C381.203278,100.085335 380.543762,100.070389 379.892670,99.988579 
	C379.116364,99.891022 378.347260,99.736168 377.580933,99.607132 
	C378.173981,95.313889 378.173981,95.313889 384.188904,94.478035 
	C382.821045,92.701180 382.049225,90.619202 380.741730,90.197342 
	C376.367706,88.786034 371.797211,92.093506 370.677277,96.635284 
	C370.288330,98.212532 369.032776,99.576080 368.173065,101.037239 
	C367.568268,101.127213 366.963501,101.217178 366.358734,101.307144 
	C367.793640,103.364128 369.972687,105.253197 370.483856,107.518608 
	C371.197601,110.681961 370.665955,114.126312 370.667267,118.427139 
M321.368591,117.300835 
	C321.368591,118.758392 321.368591,120.215942 321.368591,122.306664 
	C325.454193,122.306664 329.392609,123.067406 332.785980,122.035606 
	C334.998383,121.362900 337.575714,118.216240 337.833649,115.934143 
	C338.046082,114.054802 335.337341,111.544342 333.454926,109.826836 
	C332.015503,108.513512 329.844208,108.002281 327.998474,107.134277 
	C328.082489,106.679062 328.166504,106.223854 328.250519,105.768639 
	C331.103912,105.768639 333.957275,105.768639 336.816986,105.768639 
	C336.816986,103.858284 336.816986,102.409180 336.816986,100.481766 
	C333.540985,100.481766 330.427399,100.204689 327.385864,100.554535 
	C323.881531,100.957611 321.029144,103.276039 321.629181,106.766098 
	C322.039673,109.153717 324.577759,111.376678 326.581085,113.220993 
	C327.995911,114.523544 330.108490,115.068230 331.909546,115.951256 
	C331.733459,116.642929 331.557404,117.334595 331.381317,118.026268 
	C328.171234,117.574028 324.961151,117.121780 321.368591,117.300835 
M387.560333,105.113106 
	C387.808533,106.859215 388.121979,108.599083 388.290009,110.352875 
	C388.559113,113.161568 388.297455,116.101379 389.044983,118.765556 
	C390.228485,122.983444 393.961334,123.573769 397.523987,122.772339 
	C398.830383,122.478455 399.681702,120.161324 401.305420,118.023468 
	C395.093018,118.106987 394.620605,117.398720 395.626801,105.217453 
	C396.985901,105.097923 398.394714,104.974030 399.861084,104.845078 
	C399.861084,103.128151 399.861084,101.714821 399.861084,100.240547 
	C398.234741,100.033623 396.825256,99.854286 395.346649,99.666168 
	C395.228180,97.405373 395.125732,95.450775 395.031647,93.655479 
	C388.180420,91.834442 389.074677,99.736443 384.943634,101.222862 
	C385.508301,102.488174 386.072998,103.753479 387.560333,105.113106 
M273.470947,119.438232 
	C273.769562,116.101616 272.000336,117.617653 270.192261,117.628227 
	C267.969849,117.641228 264.575439,116.960556 263.792419,115.472313 
	C262.683746,113.365082 262.670715,109.815659 263.767761,107.701706 
	C264.570801,106.154282 267.871857,105.761925 270.143860,105.189743 
	C271.014618,104.970444 272.119690,105.681488 273.117981,105.968590 
	C273.526001,105.528336 273.934021,105.088081 274.342041,104.647827 
	C273.038544,103.116203 271.960968,100.568260 270.394440,100.220016 
	C261.125061,98.159500 253.888779,105.663864 255.924713,114.849709 
	C256.890717,119.208183 259.758179,121.990562 263.981110,122.618332 
	C267.240784,123.102875 271.255524,124.694572 273.470947,119.438232 
M277.886627,122.235229 
	C280.013519,122.550140 282.140411,122.865059 283.774139,123.106949 
	C287.115112,116.916649 279.436737,106.658661 291.973450,105.705223 
	C291.973450,103.818420 291.973450,102.045372 291.973450,99.293869 
	C289.300232,100.442093 287.175446,101.354767 285.050629,102.267433 
	C285.204803,101.918167 285.358978,101.568901 285.513153,101.219627 
	C283.129303,100.692337 280.745453,100.165039 277.806122,99.514877 
	C277.806122,107.410088 277.806122,114.347260 277.886627,122.235229 
M379.968689,157.464386 
	C379.968689,160.231293 379.968689,162.998184 379.968689,165.854721 
	C386.837555,166.233490 393.393433,166.924393 397.118073,160.156677 
	C399.501617,155.825806 399.565094,150.944489 396.564331,146.956039 
	C392.292358,141.277939 385.985229,143.140137 379.968689,143.128586 
	C379.968689,147.888107 379.968689,152.181686 379.968689,157.464386 
M257.856323,161.496872 
	C257.856323,159.858185 257.856323,158.219482 257.856323,156.570435 
	C265.974060,154.601486 264.418945,165.844955 271.683777,166.038071 
	C269.091522,161.991608 266.962006,158.667435 264.795471,155.285507 
	C267.920166,153.272552 270.372314,150.593018 268.439575,146.664368 
	C265.441650,140.570496 259.885010,143.663376 255.424408,143.067062 
	C255.424408,151.010834 255.424408,158.487823 255.424408,165.964828 
	C255.876587,166.055847 256.328766,166.146866 256.780945,166.237885 
	C257.139374,164.953796 257.497772,163.669708 257.856323,161.496872 
M243.965256,122.203171 
	C246.075378,122.533951 248.185516,122.864738 250.394623,123.211037 
	C250.394623,114.995239 250.394623,107.601494 250.394623,100.193771 
	C248.139114,100.193771 246.206848,100.193771 243.899246,100.193771 
	C243.899246,107.356712 243.899246,114.306023 243.965256,122.203171 
M234.087997,145.875717 
	C237.015945,145.415146 239.943893,144.954575 242.871841,144.494003 
	C242.807281,144.106964 242.742722,143.719940 242.678162,143.332901 
	C238.825302,143.332901 234.972443,143.332901 231.308197,143.332901 
	C231.308197,151.078873 231.308197,158.470825 231.308197,165.560852 
	C235.462708,165.560852 239.277969,165.560852 243.093216,165.560852 
	C243.131241,165.059753 243.169250,164.558655 243.207260,164.057556 
	C240.229065,163.767273 237.250870,163.476974 234.110107,163.170837 
	C234.110107,160.621704 234.110107,158.208435 234.110107,155.816162 
	C236.960602,155.523102 239.533951,155.258530 242.107315,154.993958 
	C242.035065,154.361069 241.962814,153.728195 241.890564,153.095306 
	C239.350677,153.095306 236.810791,153.095306 233.872162,153.095306 
	C233.872162,150.666611 233.872162,148.718002 234.087997,145.875717 
M360.562408,142.982101 
	C358.872803,143.071365 356.856476,142.313278 356.933044,145.430618 
	C357.098969,152.183258 356.984192,158.942810 356.984192,165.427872 
	C361.388092,165.427872 365.277466,165.427872 369.166840,165.427872 
	C369.204437,164.922958 369.242004,164.418060 369.279602,163.913147 
	C366.211700,163.687256 363.143829,163.461365 360.230591,163.246872 
	C360.230591,160.425369 360.230591,158.057327 360.230591,155.835129 
	C363.137512,155.480957 365.613983,155.179245 368.090485,154.877518 
	C368.052795,154.344559 368.015137,153.811584 367.977448,153.278625 
	C365.333160,153.091110 362.688873,152.903610 360.098022,152.719894 
	C360.098022,150.157272 360.098022,147.902420 360.098022,145.573257 
	C363.176819,145.247131 366.012787,144.946716 368.848724,144.646301 
	C368.802521,144.091553 368.756348,143.536789 368.710144,142.982040 
	C366.306274,142.982040 363.902405,142.982040 360.562408,142.982101 
M206.167725,145.646790 
	C202.047470,150.695892 201.282547,157.232895 204.283829,161.746521 
	C206.859497,165.620026 212.005127,167.392166 217.111969,165.955750 
	C218.186996,165.653366 219.059921,164.632416 220.025986,163.942566 
	C209.812164,164.572250 205.656998,162.161667 205.347137,155.110428 
	C205.022614,147.725479 209.026291,145.014969 219.727234,145.375015 
	C217.654465,141.470413 212.568008,141.377258 206.167725,145.646790 
M318.958099,150.552521 
	C318.958099,155.668900 318.958099,160.785278 318.958099,167.050949 
	C323.939270,163.712097 320.366516,159.009949 322.505554,156.092010 
	C325.003937,155.906281 327.502350,155.720551 330.000732,155.534821 
	C330.051239,154.961197 330.101746,154.387558 330.152252,153.813934 
	C327.542175,153.450546 324.932129,153.087143 322.196259,152.706223 
	C322.196259,150.323532 322.196259,147.948944 322.196259,145.618332 
	C325.308655,145.252655 328.101318,144.924545 330.893951,144.596436 
	C330.830780,144.162170 330.767609,143.727905 330.704468,143.293640 
	C326.848450,143.293640 322.992462,143.293640 318.958099,143.293640 
	C318.958099,145.608582 318.958099,147.588943 318.958099,150.552521 
M289.572235,145.224991 
	C291.012085,145.043152 292.451935,144.861313 293.891785,144.679489 
	C293.830139,144.284546 293.768524,143.889603 293.706879,143.494659 
	C288.447937,143.494659 283.189026,143.494659 277.930084,143.494659 
	C277.887146,143.890747 277.844208,144.286850 277.801270,144.682938 
	C279.850403,145.011597 281.899567,145.340256 284.138123,145.699310 
	C284.138123,149.581314 283.865845,153.242966 284.221161,156.842682 
	C284.525208,159.923599 282.593475,163.707275 287.031403,167.196991 
	C287.031403,160.337234 286.929291,154.747879 287.106232,149.167374 
	C287.148254,147.842285 288.125122,146.546860 289.572235,145.224991 
M341.957214,147.681610 
	C341.957214,153.767014 341.957214,159.852432 341.957214,165.937836 
	C342.468506,166.059189 342.979797,166.180557 343.491089,166.301910 
	C343.953033,165.131653 344.783203,163.970978 344.813995,162.789474 
	C344.956512,157.319122 344.971527,151.839996 344.799805,146.371307 
	C344.764130,145.235886 343.741119,144.131454 343.173157,143.012741 
	C342.767853,144.251465 342.362549,145.490173 341.957214,147.681610 
M304.005615,143.899216 
	C304.005615,151.255264 304.005615,158.611313 304.005615,167.230179 
	C305.633209,165.701355 306.747620,165.145844 306.758789,164.569016 
	C306.886902,157.933517 306.903259,151.293488 306.749084,144.659332 
	C306.736481,144.117661 305.256165,143.610092 304.005615,143.899216 
M249.757217,90.751808 
	C247.782135,91.155113 245.751312,91.414467 243.897888,92.132011 
	C243.647797,92.228836 243.840286,95.231644 244.626770,95.818916 
	C245.732025,96.644218 248.567001,97.129372 248.928589,96.592461 
	C249.895462,95.156784 249.938187,93.098732 249.757217,90.751808 
z"/>
<path fill="#525253" opacity="1.000000" stroke="none" 
	d="
M90.478676,212.991425 
	C101.092270,211.876328 111.298790,210.803772 121.501862,209.699417 
	C132.698517,208.487549 143.875168,207.056931 155.090591,206.059723 
	C174.898804,204.298523 194.725418,202.736908 214.553558,201.211594 
	C221.668015,200.664322 228.806244,200.230728 235.938492,200.143524 
	C270.211945,199.724396 304.490173,199.015762 338.760437,199.266769 
	C359.989746,199.422272 381.233612,200.737305 402.423798,202.210388 
	C424.570343,203.749939 446.674469,205.959991 468.769867,208.152115 
	C482.607330,209.524979 496.394379,211.405792 510.657135,213.010468 
	C519.456177,214.305954 527.826965,215.513474 536.141846,217.028107 
	C546.349792,218.887589 556.823425,220.049606 566.611633,223.255356 
	C578.302856,227.084320 588.602173,242.220154 585.331299,256.632599 
	C581.234619,274.683441 578.464478,293.032776 574.989075,311.227905 
	C571.455444,329.727325 567.815308,348.206970 564.103577,366.671478 
	C562.960510,372.357483 562.309998,378.374268 559.915283,383.534882 
	C551.577148,401.503937 537.733948,402.208557 523.075439,400.567017 
	C519.359070,400.150879 515.664551,399.539551 511.296692,398.739868 
	C503.717529,397.330872 496.801697,396.200012 489.487366,395.006470 
	C483.994843,394.240967 478.917877,393.362671 473.803925,392.863678 
	C439.936218,389.558868 406.100677,385.794556 372.173279,383.276215 
	C349.634155,381.603149 326.962921,381.600677 304.344818,381.152924 
	C295.045410,380.968781 285.730133,381.574615 276.422272,381.829803 
	C260.451019,382.267670 244.448746,382.232300 228.516251,383.268494 
	C205.487930,384.766174 182.485199,386.790344 159.519623,389.073425 
	C143.675766,390.648560 127.913200,393.041595 111.685913,395.046448 
	C104.472870,396.381683 97.688217,397.739563 90.903572,399.097443 
	C83.726776,399.733673 76.558182,400.489685 69.371506,400.981567 
	C53.797043,402.047546 41.782841,389.840607 38.990356,375.282013 
	C35.717163,358.217224 32.261852,341.186737 29.080046,324.105133 
	C24.942276,301.891418 21.682190,279.488434 16.750828,257.456451 
	C12.784049,239.733932 26.977537,222.531509 46.205170,219.936523 
	C58.458858,218.282745 70.632050,216.033859 82.843918,214.067795 
	C85.246590,213.680984 87.661057,213.367355 90.478676,212.991425 
M376.453918,212.991409 
	C362.646606,212.503754 348.835114,211.509537 335.032806,211.624710 
	C295.752197,211.952438 256.433136,211.814896 217.210190,213.619736 
	C184.823380,215.110031 152.491943,218.570160 120.248772,222.168274 
	C95.300148,224.952377 70.487572,229.061371 45.690277,233.052109 
	C32.991844,235.095734 26.890980,244.960510 29.414152,257.547119 
	C31.015213,265.533844 32.485592,273.546844 34.008732,281.549164 
	C39.793716,311.942535 45.517105,342.347870 51.390285,372.724213 
	C53.600349,384.154724 62.484703,390.438660 73.393753,388.803375 
	C93.628609,385.770233 113.843964,382.584015 134.120789,379.858398 
	C181.517883,373.487335 229.176926,370.198120 276.968597,369.594940 
	C305.248871,369.237976 333.561340,369.969452 361.835754,370.915833 
	C416.974518,372.761444 471.659180,379.237000 526.060730,388.232697 
	C540.358215,390.596863 548.325623,384.958771 550.980347,370.869110 
	C558.063293,333.276367 565.211121,295.695557 572.442871,258.131165 
	C575.072449,244.471603 569.250549,235.199219 555.425232,232.898590 
	C535.244629,229.540421 515.055359,225.956100 494.727783,223.818390 
	C455.678375,219.711823 416.529297,216.553177 376.453918,212.991409 
z"/>
<path fill="#002050" opacity="1.000000" stroke="none" 
	d="
M90.947128,399.547791 
	C97.688217,397.739563 104.472870,396.381683 111.671364,395.492615 
	C112.351227,411.441711 115.637108,426.235443 122.127007,440.309174 
	C133.829514,465.686676 152.300034,485.589600 173.651474,502.932526 
	C210.823914,533.126221 252.892426,554.671509 297.481232,571.538879 
	C299.673157,572.368042 302.758759,572.166321 305.003967,571.319641 
	C331.045593,561.498108 356.094330,549.532166 380.077332,535.415710 
	C410.912109,517.266235 439.731110,496.584473 462.229248,468.224945 
	C479.230591,446.794342 489.790253,422.903290 489.885834,395.069122 
	C496.801697,396.200012 503.717529,397.330872 510.865936,398.778137 
	C510.489502,428.542755 499.754303,454.380402 481.972321,477.275208 
	C473.312469,488.424988 463.747833,499.052155 453.473083,508.726746 
	C436.544861,524.666077 417.776367,538.453552 397.535980,549.937500 
	C380.137878,559.808838 362.430939,569.200745 344.442383,577.944275 
	C331.892700,584.044250 318.583282,588.565613 305.719818,594.042480 
	C299.643188,596.629761 294.375763,593.706543 289.451782,591.585205 
	C268.013306,582.348938 246.433578,573.295166 225.667953,562.682434 
	C204.083618,551.651367 183.471420,538.715210 164.752884,523.141724 
	C154.899231,514.943665 145.021088,506.638214 136.152252,497.420776 
	C115.398094,475.850922 99.865227,451.044220 93.308655,421.431152 
	C91.764648,414.457581 91.723312,407.151367 90.947128,399.547791 
z"/>
<path fill="#F3F5F7" opacity="1.000000" stroke="none" 
	d="
M216.318390,102.562866 
	C217.580887,106.195847 218.706604,109.461929 220.170074,113.707893 
	C222.235855,107.782303 224.375610,102.879868 225.604507,97.758858 
	C226.746536,92.999939 229.114288,91.114441 233.851044,91.959259 
	C234.958923,92.156853 236.109711,92.113823 237.706451,92.209366 
	C237.706451,100.677322 237.706436,108.956528 237.706436,117.235733 
	C237.706436,119.029381 237.706451,120.823029 237.706451,122.809807 
	C235.284790,122.809807 233.348038,122.809807 231.052322,122.809807 
	C231.052322,115.924026 231.052322,109.028168 231.052322,102.132301 
	C230.717911,102.051147 230.383514,101.969994 230.049103,101.888840 
	C228.098450,107.415253 225.761627,112.843483 224.323288,118.500168 
	C223.235840,122.776825 221.129288,123.858643 216.928558,122.678108 
	C214.563828,116.102020 212.126480,109.323990 209.689117,102.545959 
	C209.441177,102.592934 209.193253,102.639900 208.945312,102.686867 
	C208.945312,109.229797 208.945312,115.772736 208.945312,122.664970 
	C206.721405,122.664970 204.835297,122.664970 202.507584,122.664970 
	C202.507584,121.225494 202.507568,119.755379 202.507568,118.285271 
	C202.507568,109.659706 202.507584,101.034142 202.507584,92.675095 
	C203.054443,92.333145 203.179642,92.191223 203.317245,92.177917 
	C212.438858,91.296112 212.438950,91.297005 216.318390,102.562866 
z"/>
<path fill="#F7F8FA" opacity="1.000000" stroke="none" 
	d="
M298.502014,120.669579 
	C294.142303,116.675446 293.857361,111.956917 295.262054,107.116158 
	C296.499451,102.851799 300.008667,100.747841 304.165497,100.139557 
	C308.995331,99.432785 313.505951,100.362473 316.537994,104.690475 
	C319.066528,108.299728 318.870758,114.760231 316.257355,118.356888 
	C313.008362,122.828247 308.383636,123.558319 303.376099,122.752716 
	C301.794739,122.498314 300.326447,121.541237 298.502014,120.669579 
M308.776550,105.511993 
	C305.870514,104.304756 302.960144,104.975159 302.303253,107.859383 
	C301.677338,110.607491 302.306946,113.901337 303.317657,116.606682 
	C303.627411,117.435768 308.292480,117.912781 308.755371,117.171806 
	C310.174530,114.900093 310.759674,111.994194 311.163879,109.260185 
	C311.314789,108.239540 310.071320,107.012741 308.776550,105.511993 
z"/>
<path fill="#F7F8FA" opacity="1.000000" stroke="none" 
	d="
M364.190643,112.748169 
	C362.490295,120.584778 357.368256,124.121819 350.004517,122.945206 
	C343.465118,121.900299 339.960449,117.022697 340.689850,109.981636 
	C341.356476,103.547211 346.108643,99.742203 353.172516,99.987000 
	C360.412323,100.237892 363.978149,104.217384 364.190643,112.748169 
M347.499054,113.045296 
	C347.948151,115.965874 349.409546,118.534523 352.518036,117.795380 
	C354.360901,117.357155 356.889008,114.944115 357.012024,113.265381 
	C357.197418,110.735725 356.311401,107.127090 354.511017,105.671890 
	C351.296722,103.073914 347.955719,106.329216 347.499054,113.045296 
z"/>
<path fill="#FDFEFE" opacity="1.000000" stroke="none" 
	d="
M370.667236,117.938782 
	C370.665955,114.126312 371.197601,110.681961 370.483856,107.518608 
	C369.972687,105.253197 367.793640,103.364128 366.358734,101.307144 
	C366.963501,101.217178 367.568268,101.127213 368.173065,101.037239 
	C369.032776,99.576080 370.288330,98.212532 370.677277,96.635284 
	C371.797211,92.093506 376.367706,88.786034 380.741730,90.197342 
	C382.049225,90.619202 382.821045,92.701180 384.188904,94.478035 
	C378.173981,95.313889 378.173981,95.313889 377.580933,99.607132 
	C378.347260,99.736168 379.116364,99.891022 379.892670,99.988579 
	C380.543762,100.070389 381.203278,100.085335 382.207031,100.153526 
	C382.277008,101.602829 382.345123,103.013298 382.429993,104.770531 
	C380.756195,104.922089 379.344635,105.049904 377.495789,105.217316 
	C377.495789,111.137794 377.495789,116.879616 377.495789,122.805542 
	C375.106873,122.805542 373.177032,122.805542 370.903778,122.805542 
	C370.822266,121.296700 370.744751,119.861923 370.667236,117.938782 
z"/>
<path fill="#F5F6F8" opacity="1.000000" stroke="none" 
	d="
M321.559814,116.985184 
	C324.961151,117.121780 328.171234,117.574028 331.381317,118.026268 
	C331.557404,117.334595 331.733459,116.642929 331.909546,115.951256 
	C330.108490,115.068230 327.995911,114.523544 326.581085,113.220993 
	C324.577759,111.376678 322.039673,109.153717 321.629181,106.766098 
	C321.029144,103.276039 323.881531,100.957611 327.385864,100.554535 
	C330.427399,100.204689 333.540985,100.481766 336.816986,100.481766 
	C336.816986,102.409180 336.816986,103.858284 336.816986,105.768639 
	C333.957275,105.768639 331.103912,105.768639 328.250519,105.768639 
	C328.166504,106.223854 328.082489,106.679062 327.998474,107.134277 
	C329.844208,108.002281 332.015503,108.513512 333.454926,109.826836 
	C335.337341,111.544342 338.046082,114.054802 337.833649,115.934143 
	C337.575714,118.216240 334.998383,121.362900 332.785980,122.035606 
	C329.392609,123.067406 325.454193,122.306664 321.368591,122.306664 
	C321.368591,120.215942 321.368591,118.758392 321.559814,116.985184 
z"/>
<path fill="#F7F8F9" opacity="1.000000" stroke="none" 
	d="
M387.098999,105.065948 
	C386.072998,103.753479 385.508301,102.488174 384.943634,101.222862 
	C389.074677,99.736443 388.180420,91.834442 395.031647,93.655479 
	C395.125732,95.450775 395.228180,97.405373 395.346649,99.666168 
	C396.825256,99.854286 398.234741,100.033623 399.861084,100.240547 
	C399.861084,101.714821 399.861084,103.128151 399.861084,104.845078 
	C398.394714,104.974030 396.985901,105.097923 395.626801,105.217453 
	C394.620605,117.398720 395.093018,118.106987 401.305420,118.023468 
	C399.681702,120.161324 398.830383,122.478455 397.523987,122.772339 
	C393.961334,123.573769 390.228485,122.983444 389.044983,118.765556 
	C388.297455,116.101379 388.559113,113.161568 388.290009,110.352875 
	C388.121979,108.599083 387.808533,106.859215 387.098999,105.065948 
z"/>
<path fill="#F8F9FA" opacity="1.000000" stroke="none" 
	d="
M273.467285,119.834305 
	C271.255524,124.694572 267.240784,123.102875 263.981110,122.618332 
	C259.758179,121.990562 256.890717,119.208183 255.924713,114.849709 
	C253.888779,105.663864 261.125061,98.159500 270.394440,100.220016 
	C271.960968,100.568260 273.038544,103.116203 274.342041,104.647827 
	C273.934021,105.088081 273.526001,105.528336 273.117981,105.968590 
	C272.119690,105.681488 271.014618,104.970444 270.143860,105.189743 
	C267.871857,105.761925 264.570801,106.154282 263.767761,107.701706 
	C262.670715,109.815659 262.683746,113.365082 263.792419,115.472313 
	C264.575439,116.960556 267.969849,117.641228 270.192261,117.628227 
	C272.000336,117.617653 273.769562,116.101616 273.467285,119.834305 
z"/>
<path fill="#F5F7F8" opacity="1.000000" stroke="none" 
	d="
M277.846375,121.759827 
	C277.806122,114.347260 277.806122,107.410088 277.806122,99.514877 
	C280.745453,100.165039 283.129303,100.692337 285.513153,101.219627 
	C285.358978,101.568901 285.204803,101.918167 285.050629,102.267433 
	C287.175446,101.354767 289.300232,100.442093 291.973450,99.293869 
	C291.973450,102.045372 291.973450,103.818420 291.973450,105.705223 
	C279.436737,106.658661 287.115112,116.916649 283.774139,123.106949 
	C282.140411,122.865059 280.013519,122.550140 277.846375,121.759827 
z"/>
<path fill="#EEF0F3" opacity="1.000000" stroke="none" 
	d="
M379.968689,156.969833 
	C379.968689,152.181686 379.968689,147.888107 379.968689,143.128586 
	C385.985229,143.140137 392.292358,141.277939 396.564331,146.956039 
	C399.565094,150.944489 399.501617,155.825806 397.118073,160.156677 
	C393.393433,166.924393 386.837555,166.233490 379.968689,165.854721 
	C379.968689,162.998184 379.968689,160.231293 379.968689,156.969833 
M387.044312,145.282761 
	C385.783295,145.282761 384.522247,145.282761 383.176086,145.282761 
	C383.176086,151.566711 383.176086,157.410492 383.176086,163.217957 
	C391.124817,163.888214 394.821167,161.624374 395.703278,155.780960 
	C396.567230,150.057877 394.191284,146.904465 387.044312,145.282761 
z"/>
<path fill="#F0F2F5" opacity="1.000000" stroke="none" 
	d="
M257.856262,161.941254 
	C257.497772,163.669708 257.139374,164.953796 256.780945,166.237885 
	C256.328766,166.146866 255.876587,166.055847 255.424408,165.964828 
	C255.424408,158.487823 255.424408,151.010834 255.424408,143.067062 
	C259.885010,143.663376 265.441650,140.570496 268.439575,146.664368 
	C270.372314,150.593018 267.920166,153.272552 264.795471,155.285507 
	C266.962006,158.667435 269.091522,161.991608 271.683777,166.038071 
	C264.418945,165.844955 265.974060,154.601486 257.856323,156.570435 
	C257.856323,158.219482 257.856323,159.858185 257.856262,161.941254 
M264.335754,146.018066 
	C262.321960,145.692719 260.308197,145.367371 258.091248,145.009201 
	C258.091248,148.320221 258.091248,150.898331 258.091248,153.448990 
	C265.306854,154.079681 267.039032,152.255875 264.335754,146.018066 
z"/>
<path fill="#F0F2F5" opacity="1.000000" stroke="none" 
	d="
M243.932251,121.729256 
	C243.899246,114.306023 243.899246,107.356712 243.899246,100.193771 
	C246.206848,100.193771 248.139114,100.193771 250.394623,100.193771 
	C250.394623,107.601494 250.394623,114.995239 250.394623,123.211037 
	C248.185516,122.864738 246.075378,122.533951 243.932251,121.729256 
z"/>
<path fill="#F5F6F8" opacity="1.000000" stroke="none" 
	d="
M233.980072,146.322556 
	C233.872162,148.718002 233.872162,150.666611 233.872162,153.095306 
	C236.810791,153.095306 239.350677,153.095306 241.890564,153.095306 
	C241.962814,153.728195 242.035065,154.361069 242.107315,154.993958 
	C239.533951,155.258530 236.960602,155.523102 234.110107,155.816162 
	C234.110107,158.208435 234.110107,160.621704 234.110107,163.170837 
	C237.250870,163.476974 240.229065,163.767273 243.207260,164.057556 
	C243.169250,164.558655 243.131241,165.059753 243.093216,165.560852 
	C239.277969,165.560852 235.462708,165.560852 231.308197,165.560852 
	C231.308197,158.470825 231.308197,151.078873 231.308197,143.332901 
	C234.972443,143.332901 238.825302,143.332901 242.678162,143.332901 
	C242.742722,143.719940 242.807281,144.106964 242.871841,144.494003 
	C239.943893,144.954575 237.015945,145.415146 233.980072,146.322556 
z"/>
<path fill="#F5F6F8" opacity="1.000000" stroke="none" 
	d="
M361.030457,142.982071 
	C363.902405,142.982040 366.306274,142.982040 368.710144,142.982040 
	C368.756348,143.536789 368.802521,144.091553 368.848724,144.646301 
	C366.012787,144.946716 363.176819,145.247131 360.098022,145.573257 
	C360.098022,147.902420 360.098022,150.157272 360.098022,152.719894 
	C362.688873,152.903610 365.333160,153.091110 367.977448,153.278625 
	C368.015137,153.811584 368.052795,154.344559 368.090485,154.877518 
	C365.613983,155.179245 363.137512,155.480957 360.230591,155.835129 
	C360.230591,158.057327 360.230591,160.425369 360.230591,163.246872 
	C363.143829,163.461365 366.211700,163.687256 369.279602,163.913147 
	C369.242004,164.418060 369.204437,164.922958 369.166840,165.427872 
	C365.277466,165.427872 361.388092,165.427872 356.984192,165.427872 
	C356.984192,158.942810 357.098969,152.183258 356.933044,145.430618 
	C356.856476,142.313278 358.872803,143.071365 361.030457,142.982071 
z"/>
<path fill="#EDF0F3" opacity="1.000000" stroke="none" 
	d="
M206.440689,145.391724 
	C212.568008,141.377258 217.654465,141.470413 219.727234,145.375015 
	C209.026291,145.014969 205.022614,147.725479 205.347137,155.110428 
	C205.656998,162.161667 209.812164,164.572250 220.025986,163.942566 
	C219.059921,164.632416 218.186996,165.653366 217.111969,165.955750 
	C212.005127,167.392166 206.859497,165.620026 204.283829,161.746521 
	C201.282547,157.232895 202.047470,150.695892 206.440689,145.391724 
z"/>
<path fill="#E9ECF0" opacity="1.000000" stroke="none" 
	d="
M318.958099,150.060913 
	C318.958099,147.588943 318.958099,145.608582 318.958099,143.293640 
	C322.992462,143.293640 326.848450,143.293640 330.704468,143.293640 
	C330.767609,143.727905 330.830780,144.162170 330.893951,144.596436 
	C328.101318,144.924545 325.308655,145.252655 322.196259,145.618332 
	C322.196259,147.948944 322.196259,150.323532 322.196259,152.706223 
	C324.932129,153.087143 327.542175,153.450546 330.152252,153.813934 
	C330.101746,154.387558 330.051239,154.961197 330.000732,155.534821 
	C327.502350,155.720551 325.003937,155.906281 322.506287,156.092651 
	C320.366516,159.009949 323.939270,163.712097 318.958099,167.050949 
	C318.958099,160.785278 318.958099,155.668900 318.958099,150.060913 
z"/>
<path fill="#EEF0F3" opacity="1.000000" stroke="none" 
	d="
M289.122131,145.231384 
	C288.125122,146.546860 287.148254,147.842285 287.106232,149.167374 
	C286.929291,154.747879 287.031403,160.337234 287.031403,167.196991 
	C282.593475,163.707275 284.525208,159.923599 284.221161,156.842682 
	C283.865845,153.242966 284.138123,149.581314 284.138123,145.699310 
	C281.899567,145.340256 279.850403,145.011597 277.801270,144.682938 
	C277.844208,144.286850 277.887146,143.890747 277.930084,143.494659 
	C283.189026,143.494659 288.447937,143.494659 293.706879,143.494659 
	C293.768524,143.889603 293.830139,144.284546 293.891785,144.679489 
	C292.451935,144.861313 291.012085,145.043152 289.122131,145.231384 
z"/>
<path fill="#E8EBEF" opacity="1.000000" stroke="none" 
	d="
M341.957214,147.205261 
	C342.362549,145.490173 342.767853,144.251465 343.173157,143.012741 
	C343.741119,144.131454 344.764130,145.235886 344.799805,146.371307 
	C344.971527,151.839996 344.956512,157.319122 344.813995,162.789474 
	C344.783203,163.970978 343.953033,165.131653 343.491089,166.301910 
	C342.979797,166.180557 342.468506,166.059189 341.957214,165.937836 
	C341.957214,159.852432 341.957214,153.767014 341.957214,147.205261 
z"/>
<path fill="#E8EBEF" opacity="1.000000" stroke="none" 
	d="
M304.231720,143.492950 
	C305.256165,143.610092 306.736481,144.117661 306.749084,144.659332 
	C306.903259,151.293488 306.886902,157.933517 306.758789,164.569016 
	C306.747620,165.145844 305.633209,165.701355 304.005615,167.230179 
	C304.005615,158.611313 304.005615,151.255264 304.231720,143.492950 
z"/>
<path fill="#F0F2F5" opacity="1.000000" stroke="none" 
	d="
M250.052673,91.019897 
	C249.938187,93.098732 249.895462,95.156784 248.928589,96.592461 
	C248.567001,97.129372 245.732025,96.644218 244.626770,95.818916 
	C243.840286,95.231644 243.647797,92.228836 243.897888,92.132011 
	C245.751312,91.414467 247.782135,91.155113 250.052673,91.019897 
z"/>
<path fill="#FEFEFE" opacity="1.000000" stroke="none" 
	d="
M376.937744,212.996368 
	C416.529297,216.553177 455.678375,219.711823 494.727783,223.818390 
	C515.055359,225.956100 535.244629,229.540421 555.425232,232.898590 
	C569.250549,235.199219 575.072449,244.471603 572.442871,258.131165 
	C565.211121,295.695557 558.063293,333.276367 550.980347,370.869110 
	C548.325623,384.958771 540.358215,390.596863 526.060730,388.232697 
	C471.659180,379.237000 416.974518,372.761444 361.835754,370.915833 
	C333.561340,369.969452 305.248871,369.237976 276.968597,369.594940 
	C229.176926,370.198120 181.517883,373.487335 134.120789,379.858398 
	C113.843964,382.584015 93.628609,385.770233 73.393753,388.803375 
	C62.484703,390.438660 53.600349,384.154724 51.390285,372.724213 
	C45.517105,342.347870 39.793716,311.942535 34.008732,281.549164 
	C32.485592,273.546844 31.015213,265.533844 29.414152,257.547119 
	C26.890980,244.960510 32.991844,235.095734 45.690277,233.052109 
	C70.487572,229.061371 95.300148,224.952377 120.248772,222.168274 
	C152.491943,218.570160 184.823380,215.110031 217.210190,213.619736 
	C256.433136,211.814896 295.752197,211.952438 335.032806,211.624710 
	C348.835114,211.509537 362.646606,212.503754 376.937744,212.996368 
M442.800781,310.249542 
	C443.815338,309.217834 445.582062,308.275635 445.717255,307.139343 
	C446.383942,301.534729 446.636383,295.879883 447.000427,290.240509 
	C447.369781,284.519226 447.698761,278.795380 448.058350,272.858887 
	C445.712708,272.858887 443.966461,272.858887 442.156189,272.858887 
	C441.497437,281.945740 440.859100,290.750854 440.220795,299.555939 
	C434.834686,291.724762 430.168335,283.911346 426.191162,275.761566 
	C423.916870,271.101166 420.909851,270.063141 416.172943,271.371307 
	C415.348633,283.669556 414.532867,295.839905 413.703094,308.219482 
	C416.011658,308.404633 417.616882,308.533386 419.617493,308.693848 
	C420.309998,299.384491 420.987946,290.270935 421.665894,281.157379 
	C427.413849,289.722382 432.119049,298.470276 437.165558,307.016663 
	C438.049072,308.512939 440.366455,309.162567 442.800781,310.249542 
M333.650970,293.896790 
	C335.147614,296.296692 336.921539,298.570801 338.080139,301.124054 
	C340.162354,305.712738 343.397736,306.421173 347.843689,304.814423 
	C347.843689,292.436188 347.843689,280.188416 347.843689,267.752869 
	C345.863342,267.852509 344.243439,267.933990 342.043121,268.044678 
	C342.043121,277.306763 342.043121,286.332428 342.043121,295.358063 
	C336.142883,287.561401 330.893219,279.730499 326.268005,271.546631 
	C323.829620,267.232147 320.870880,266.319702 316.195221,267.732391 
	C316.195221,280.019318 316.195221,292.273621 316.195221,304.823059 
	C317.907745,304.823059 319.639923,304.823059 322.092346,304.823059 
	C322.092346,295.418823 322.092346,286.123932 322.092346,275.635681 
	C326.307739,282.332184 329.763397,287.821747 333.650970,293.896790 
M164.090591,281.974976 
	C163.782776,283.264832 163.385132,284.540680 163.181305,285.846771 
	C161.529282,296.432526 166.860809,306.323517 175.482086,308.734680 
	C185.363464,311.498291 194.966476,306.853149 198.200272,297.745544 
	C201.895370,287.338745 197.684097,275.470947 188.923294,271.602081 
	C179.585495,267.478424 169.296844,271.520142 164.090591,281.974976 
M61.069901,301.548859 
	C62.246162,308.341248 63.422424,315.133667 64.784767,323.000580 
	C71.719910,320.930420 78.340660,319.771027 84.201447,317.002686 
	C91.932938,313.350739 94.620323,304.855194 92.282684,295.573242 
	C90.140892,287.068939 84.825661,282.564087 75.795418,282.694885 
	C70.093704,282.777435 64.408333,283.988800 58.362114,284.737671 
	C59.326645,290.583069 60.159809,295.632324 61.069901,301.548859 
M380.351746,306.946838 
	C382.633423,305.692780 386.558105,304.772217 386.892883,303.122955 
	C387.954376,297.893585 387.675598,292.392151 387.933929,286.569397 
	C382.890350,286.569397 378.511993,286.569397 373.812469,286.569397 
	C373.741669,288.128387 373.677063,289.551941 373.605865,291.120178 
	C376.356201,291.472198 378.767120,291.780762 381.382355,292.115479 
	C381.234467,295.179443 381.101532,297.933350 380.974060,300.573944 
	C374.119507,303.053894 368.710663,302.002716 365.319672,297.684662 
	C361.617889,292.970856 361.354462,284.351654 365.106567,279.411102 
	C371.173462,271.422546 378.930634,273.352264 388.248749,276.867035 
	C386.893585,273.739685 386.496460,270.509033 385.108582,270.004700 
	C377.426025,267.212860 369.683167,267.211884 362.984772,272.720245 
	C356.040253,278.431030 354.579620,286.118134 356.687805,294.410370 
	C359.142944,304.067322 366.797241,308.087891 380.351746,306.946838 
M537.648743,301.183136 
	C544.169434,294.332642 542.873474,286.170288 534.469116,283.485535 
	C529.511658,281.901886 524.201721,281.421570 518.735168,280.385284 
	C516.628052,293.305573 514.639160,305.500885 512.625244,317.849335 
	C515.072998,318.128204 516.821777,318.327454 518.708862,318.542450 
	C519.611023,313.482147 520.449158,308.780823 521.614746,302.242950 
	C524.672180,304.812714 527.317017,306.321320 528.913208,308.573242 
	C530.592529,310.942505 531.579407,313.943329 532.313171,316.810364 
	C533.519775,321.524567 536.524963,322.570770 541.312988,321.805023 
	C538.379944,315.472870 535.549683,309.362762 532.788269,303.401184 
	C534.028992,302.886322 535.549011,302.255524 537.648743,301.183136 
M220.158524,269.523834 
	C215.903427,269.523834 211.648315,269.523834 207.052399,269.523834 
	C207.621033,282.832428 208.148056,295.166992 208.694229,307.949829 
	C211.111847,307.697235 212.970184,307.503082 214.672852,307.325195 
	C214.672852,302.604279 214.672852,298.500244 214.672852,294.415527 
	C228.775925,291.826996 232.903107,288.763611 232.835373,280.992828 
	C232.777481,274.350189 228.983582,270.680481 220.158524,269.523834 
M286.559448,289.044678 
	C286.559448,294.614410 286.559448,300.184113 286.559448,305.781189 
	C294.178436,305.781189 300.921692,305.781189 308.003357,305.781189 
	C307.925385,304.003387 307.858215,302.471375 307.779114,300.667236 
	C302.696167,300.667236 298.090576,300.667236 293.275635,300.667236 
	C293.275635,296.806641 293.275635,293.244232 293.275635,289.257446 
	C297.619141,289.257446 301.695984,289.257446 305.762665,289.257446 
	C305.762665,287.401398 305.762665,285.972809 305.762665,284.089539 
	C301.464111,284.089539 297.390900,284.089539 293.089355,284.089539 
	C293.089355,280.385986 293.089355,277.139954 293.089355,273.486023 
	C297.751007,273.486023 302.176117,273.486023 306.800720,273.486023 
	C306.800720,271.509674 306.800720,269.940674 306.800720,268.422668 
	C300.045288,268.422668 293.496490,268.422668 286.538116,268.422668 
	C286.538116,275.200836 286.538116,281.654449 286.559448,289.044678 
M131.566238,277.609406 
	C129.310883,276.892059 127.055527,276.174713 124.800179,275.457367 
	C124.553665,275.834595 124.307152,276.211792 124.060646,276.589020 
	C129.612854,288.694427 135.165085,300.799866 140.682434,312.829285 
	C143.366226,312.479950 145.471298,312.205933 147.729767,311.911957 
	C151.037918,299.033417 154.304535,286.316528 157.670029,273.214691 
	C154.964020,273.519470 153.166611,273.721893 151.098312,273.954865 
	C148.664017,284.187195 146.228424,294.425049 143.592667,305.504181 
	C139.480301,295.930267 135.699341,287.127899 131.566238,277.609406 
M497.235809,294.266937 
	C495.791565,294.054443 494.347321,293.841949 492.566040,293.579865 
	C493.062103,289.931854 493.515808,286.595306 493.968811,283.264069 
	C498.955963,283.804993 503.192322,284.264465 507.829285,284.767426 
	C507.926117,282.814056 508.002136,281.280426 508.089355,279.521088 
	C501.241364,278.706665 494.893158,277.951660 488.209106,277.156738 
	C486.660706,289.917603 485.174957,302.162109 483.664337,314.611603 
	C491.087341,315.498108 497.753510,316.294250 504.753418,317.130249 
	C504.753418,315.010010 504.753418,313.483093 504.753418,311.939117 
	C499.896423,311.247284 495.340393,310.598328 490.566650,309.918365 
	C491.048859,306.083832 491.475342,302.692230 491.923981,299.124634 
	C496.396881,299.601227 500.441467,300.032166 504.811676,300.497833 
	C504.811676,298.444580 504.811676,296.913330 504.811676,295.315765 
	C502.372101,294.991882 500.243530,294.709259 497.235809,294.266937 
M467.079285,274.541229 
	C464.503265,274.366882 461.927216,274.192535 459.191437,274.007385 
	C457.997131,286.748505 456.856720,298.914307 455.679016,311.477936 
	C463.026031,312.140350 469.732971,312.745056 476.783691,313.380768 
	C476.783691,311.307983 476.783691,309.764801 476.783691,308.219208 
	C471.951782,307.678223 467.378448,307.166138 462.500824,306.620026 
	C462.838928,302.869232 463.144043,299.484528 463.479340,295.764648 
	C467.980927,296.126190 471.919800,296.442566 476.229492,296.788696 
	C476.464661,295.077606 476.680054,293.510376 476.933411,291.666962 
	C472.430695,291.182922 468.356232,290.744934 463.942322,290.270477 
	C464.338959,286.717682 464.700897,283.475891 465.107117,279.837158 
	C469.905151,280.210541 474.414062,280.561401 479.050110,280.922150 
	C479.050110,278.910980 479.050110,277.473236 479.050110,275.718262 
	C475.229919,275.358978 471.606689,275.018188 467.079285,274.541229 
M105.961113,291.412842 
	C105.656738,288.848480 105.352364,286.284088 105.026489,283.538605 
	C109.921227,282.895905 114.302185,282.320648 118.965561,281.708313 
	C118.617996,279.815460 118.358353,278.401398 118.020081,276.559174 
	C111.266991,277.397949 104.765633,278.205444 98.055573,279.038849 
	C99.612846,291.719330 101.102104,303.845947 102.644226,316.402985 
	C109.822304,315.532867 116.519402,314.721069 123.596214,313.863251 
	C123.278564,311.958710 123.026260,310.445953 122.747902,308.776947 
	C117.664696,309.283844 112.978676,309.751129 108.229042,310.224762 
	C107.737083,306.283295 107.329590,303.018585 106.890251,299.498718 
	C111.252525,298.870056 115.294113,298.287628 119.546539,297.674805 
	C119.353493,295.934082 119.194122,294.497009 118.989906,292.655548 
	C115.805214,293.018036 112.868156,293.535217 109.920708,293.603455 
	C108.629776,293.633331 107.317627,292.746185 105.961113,291.412842 
M258.133759,274.166229 
	C258.886475,274.415619 259.639191,274.665039 260.444672,274.931915 
	C261.717224,269.894348 259.629517,267.858246 254.915680,268.156097 
	C252.115189,268.333099 249.243561,268.355225 246.549927,269.029846 
	C242.265549,270.102844 239.007187,272.657104 238.268829,277.329987 
	C237.521088,282.062225 240.000168,285.344971 243.797745,287.626343 
	C246.632660,289.329437 250.003006,290.247040 252.581787,292.232788 
	C254.252289,293.519196 255.939362,296.217438 255.724792,298.062775 
	C255.554596,299.526398 252.554077,301.642548 250.728668,301.728058 
	C246.901642,301.907410 243.020889,300.940125 239.075439,300.432465 
	C237.698029,304.449585 239.404480,306.725952 243.892548,306.913971 
	C247.037186,307.045685 250.253265,307.288971 253.329987,306.802643 
	C258.030029,306.059662 261.860992,303.759216 262.772736,298.555084 
	C263.630920,293.656616 261.267395,290.147308 257.266937,287.750000 
	C254.144394,285.878784 250.607056,284.659424 247.627487,282.608002 
	C246.265732,281.670441 245.066940,279.383209 245.161957,277.789612 
	C245.240097,276.479065 247.174927,274.500061 248.574493,274.211273 
	C251.400177,273.628265 254.421295,273.992584 258.133759,274.166229 
M403.834259,296.362854 
	C403.834259,287.951080 403.834259,279.539307 403.834259,270.878815 
	C402.645172,270.878815 400.749176,270.878815 398.494049,270.878815 
	C397.890503,283.413452 397.302399,295.627899 396.701294,308.112122 
	C399.158905,308.231720 401.035309,308.323029 402.937714,308.415619 
	C403.266815,304.262360 403.542053,300.788696 403.834259,296.362854 
z"/>
<path fill="#0164B5" opacity="1.000000" stroke="none" 
	d="
M489.487366,395.006470 
	C489.790253,422.903290 479.230591,446.794342 462.229248,468.224945 
	C439.731110,496.584473 410.912109,517.266235 380.077332,535.415710 
	C356.094330,549.532166 331.045593,561.498108 305.003967,571.319641 
	C302.758759,572.166321 299.673157,572.368042 297.481232,571.538879 
	C252.892426,554.671509 210.823914,533.126221 173.651474,502.932526 
	C152.300034,485.589600 133.829514,465.686676 122.127007,440.309174 
	C115.637108,426.235443 112.351227,411.441711 112.099762,395.515259 
	C127.913200,393.041595 143.675766,390.648560 159.519623,389.073425 
	C182.485199,386.790344 205.487930,384.766174 228.516251,383.268494 
	C244.448746,382.232300 260.451019,382.267670 276.422272,381.829803 
	C285.730133,381.574615 295.045410,380.968781 304.344818,381.152924 
	C326.962921,381.600677 349.634155,381.603149 372.173279,383.276215 
	C406.100677,385.794556 439.936218,389.558868 473.803925,392.863678 
	C478.917877,393.362671 483.994843,394.240967 489.487366,395.006470 
M320.282501,535.094971 
	C319.134216,531.452209 318.347931,527.640076 316.743622,524.210693 
	C314.851044,520.165039 316.237549,518.042725 319.599518,515.803284 
	C325.461487,511.898590 331.038208,507.565704 336.734497,503.412292 
	C329.295502,502.425690 322.184296,502.139801 315.110687,502.531860 
	C310.802185,502.770660 308.983795,501.251526 307.888428,497.181671 
	C306.075043,490.444214 303.623749,483.878418 301.441254,477.240295 
	C298.201294,484.328339 295.842163,491.214325 293.809753,498.195404 
	C292.868622,501.428101 291.335052,502.662018 287.833649,502.518250 
	C280.425323,502.214172 272.995880,502.425598 265.575073,502.425598 
	C271.113434,507.674500 276.855957,512.089233 282.844788,516.139771 
	C285.891418,518.200256 286.912933,519.999329 285.421997,523.794373 
	C282.773773,530.534973 280.909973,537.583740 278.646912,544.728027 
	C279.486420,544.606812 279.864532,544.663208 280.088409,544.503479 
	C284.422058,541.410950 288.743347,538.301086 293.055817,535.178955 
	C300.990448,529.434326 300.984558,529.433899 308.747864,535.048767 
	C313.334106,538.365784 317.930756,541.668396 323.666046,545.801453 
	C322.337769,541.481812 321.467712,538.652283 320.282501,535.094971 
M244.193512,504.265045 
	C243.096909,500.791260 242.000290,497.317505 240.816284,493.566895 
	C247.268478,488.830872 253.656921,484.141663 260.045349,479.452423 
	C253.403717,478.421906 247.266098,478.149841 241.167206,478.518494 
	C237.165283,478.760406 235.183533,477.554535 234.123581,473.594330 
	C232.474655,467.433594 230.252197,461.426361 227.871994,454.124420 
	C225.310883,461.868439 223.004501,468.214966 221.161591,474.693298 
	C220.307983,477.693878 218.869415,478.573425 215.891190,478.484497 
	C209.184204,478.284332 202.467133,478.421692 194.232224,478.421692 
	C202.040283,484.136353 208.539078,488.892822 214.910187,493.555786 
	C212.389114,501.529785 210.030731,508.989197 207.229309,517.849915 
	C214.958511,512.266785 221.385361,507.624359 227.862671,502.945465 
	C234.554443,507.773773 240.996948,512.422180 248.544540,517.867981 
	C246.935287,512.771240 245.709045,508.887543 244.193512,504.265045 
M372.950806,455.799286 
	C371.095245,461.476013 369.021210,467.093903 367.470215,472.852661 
	C366.609680,476.047913 365.089355,477.014648 361.889709,476.897552 
	C355.380249,476.659332 348.855957,476.826324 342.337799,476.826324 
	C342.292755,477.161896 342.247742,477.497498 342.202698,477.833069 
	C348.473236,482.415649 354.743744,486.998199 361.193695,491.711884 
	C358.722198,499.481079 356.300354,507.094177 353.471710,515.986084 
	C361.099884,510.504120 367.549042,505.869476 374.137695,501.134613 
	C380.722260,505.865906 387.129395,510.469757 394.766418,515.957336 
	C391.919464,507.008484 389.526123,499.485443 387.058838,491.729950 
	C393.495911,487.002716 399.893005,482.304871 407.405365,476.787964 
	C398.016174,476.787964 390.208252,476.787964 382.186401,476.787964 
	C379.615845,468.975311 377.089661,461.297638 374.417389,453.175964 
	C373.816406,454.066650 373.466858,454.584686 372.950806,455.799286 
M350.937347,418.006378 
	C351.773956,413.558014 350.186920,410.149414 345.719788,409.336334 
	C341.093597,408.494324 336.290649,408.623352 331.173096,408.303131 
	C331.173096,417.936584 331.173096,426.799835 331.173096,435.789612 
	C333.121826,435.789612 334.863739,435.789612 336.878662,435.789612 
	C337.083801,432.412415 337.276886,429.233032 337.470001,426.053650 
	C338.032867,425.769745 338.595764,425.485840 339.158630,425.201935 
	C340.900970,427.697144 342.976532,430.027802 344.308441,432.725647 
	C346.366791,436.894989 349.416687,436.873505 353.630188,435.897949 
	C350.949554,431.574341 348.548676,427.701965 346.391022,424.221863 
	C347.943573,422.293213 349.354828,420.540131 350.937347,418.006378 
M248.896729,417.802887 
	C251.783585,420.930145 251.803421,423.923828 249.114136,427.370941 
	C247.073853,429.986176 245.693604,433.116302 244.022339,436.012756 
	C253.049576,439.069946 253.018494,430.947296 256.325745,427.099182 
	C262.425415,436.535156 262.425415,436.535156 269.014465,435.402008 
	C266.723572,431.818848 264.285522,428.472534 262.408295,424.836639 
	C261.670258,423.407227 261.588104,421.059357 262.248627,419.601624 
	C263.906769,415.942352 266.158997,412.552307 268.201385,409.004883 
	C259.253479,406.019043 259.488739,413.833466 256.344666,417.861847 
	C253.253448,413.715973 252.507660,405.957855 243.760818,409.690460 
	C245.357819,412.209564 246.926086,414.683319 248.896729,417.802887 
M318.181030,408.087769 
	C314.079193,408.087769 309.977386,408.087769 305.512177,408.087769 
	C305.512177,417.650757 305.512177,426.649719 305.512177,435.641602 
	C311.180725,435.641602 316.438599,435.641602 322.056641,435.641602 
	C321.961700,433.796021 321.881683,432.240143 321.774750,430.160950 
	C318.330139,430.160950 315.263336,430.160950 311.898163,430.160950 
	C312.001862,428.026733 312.078186,426.456085 312.157104,424.832001 
	C315.225861,424.692657 317.841980,424.573883 320.558289,424.450562 
	C320.558289,422.551270 320.558289,421.008026 320.558289,418.898956 
	C317.496826,418.898956 314.777802,418.898956 311.778229,418.898956 
	C312.009125,416.863770 312.172241,415.426361 312.393768,413.473938 
	C315.500610,413.473938 318.396667,413.473938 321.375122,413.473938 
	C321.450562,410.907806 323.440338,408.065674 318.181030,408.087769 
M276.630463,409.108521 
	C276.630463,417.982635 276.630463,426.856720 276.630463,435.939209 
	C279.444824,435.809814 281.195953,435.729309 283.389618,435.628479 
	C283.389618,432.221375 283.389618,429.303192 283.389618,426.350830 
	C285.508057,426.233337 287.179749,426.266968 288.811096,426.026550 
	C293.748016,425.299042 297.015930,421.599640 297.007660,416.896027 
	C296.999237,412.076355 294.370422,408.935760 289.080231,408.391174 
	C285.150391,407.986725 281.139771,408.367157 276.630463,409.108521 
M219.404007,414.367279 
	C219.795517,421.951691 220.187042,429.536102 220.571213,436.978394 
	C226.260712,436.978394 231.498993,436.978394 237.102982,436.978394 
	C236.972534,434.866516 236.875626,433.297699 236.773224,431.640076 
	C233.293823,431.640076 230.212296,431.640076 226.992920,431.640076 
	C226.902191,429.752472 226.824905,428.144379 226.736557,426.306244 
	C229.713593,426.052643 232.462021,425.818481 235.582870,425.552612 
	C235.310410,423.711243 235.082397,422.170197 234.841049,420.539093 
	C231.880737,420.539093 229.296356,420.539093 226.456726,420.539093 
	C226.309631,418.711334 226.181213,417.115356 226.030884,415.247406 
	C229.352036,415.026276 232.441422,414.820557 235.981171,414.584869 
	C235.684998,412.703491 235.442368,411.162170 235.256744,409.983032 
	C230.275146,409.983032 225.802856,409.825867 221.363815,410.139465 
	C220.633713,410.191071 220.049652,412.310089 219.404007,414.367279 
M379.052063,415.153351 
	C379.656586,413.607086 380.261108,412.060791 381.024628,410.107849 
	C372.736938,409.728668 365.657410,409.404785 358.110596,409.059509 
	C358.234894,411.235565 358.322327,412.766022 358.409119,414.285614 
	C361.149933,414.589935 363.403992,414.840210 365.527649,415.075989 
	C365.527649,422.495605 365.527649,429.560242 365.527649,436.708649 
	C367.525085,436.708649 369.405670,436.708649 371.583984,436.708649 
	C371.922241,429.361694 372.246796,422.312225 372.574341,415.197845 
	C374.891937,415.197845 376.539886,415.197845 379.052063,415.153351 
z"/>
<path fill="#0C2A58" opacity="1.000000" stroke="none" 
	d="
M309.120087,105.695969 
	C310.071320,107.012741 311.314789,108.239540 311.163879,109.260185 
	C310.759674,111.994194 310.174530,114.900093 308.755371,117.171806 
	C308.292480,117.912781 303.627411,117.435768 303.317657,116.606682 
	C302.306946,113.901337 301.677338,110.607491 302.303253,107.859383 
	C302.960144,104.975159 305.870514,104.304756 309.120087,105.695969 
z"/>
<path fill="#0C2A58" opacity="1.000000" stroke="none" 
	d="
M347.449127,112.660843 
	C347.955719,106.329216 351.296722,103.073914 354.511017,105.671890 
	C356.311401,107.127090 357.197418,110.735725 357.012024,113.265381 
	C356.889008,114.944115 354.360901,117.357155 352.518036,117.795380 
	C349.409546,118.534523 347.948151,115.965874 347.449127,112.660843 
z"/>
<path fill="#0A2857" opacity="1.000000" stroke="none" 
	d="
M387.460236,145.337631 
	C394.191284,146.904465 396.567230,150.057877 395.703278,155.780960 
	C394.821167,161.624374 391.124817,163.888214 383.176086,163.217957 
	C383.176086,157.410492 383.176086,151.566711 383.176086,145.282761 
	C384.522247,145.282761 385.783295,145.282761 387.460236,145.337631 
z"/>
<path fill="#112F5C" opacity="1.000000" stroke="none" 
	d="
M264.669250,146.252808 
	C267.039032,152.255875 265.306854,154.079681 258.091248,153.448990 
	C258.091248,150.898331 258.091248,148.320221 258.091248,145.009201 
	C260.308197,145.367371 262.321960,145.692719 264.669250,146.252808 
z"/>
<path fill="#2F2F2F" opacity="1.000000" stroke="none" 
	d="
M442.411194,310.226379 
	C440.366455,309.162567 438.049072,308.512939 437.165558,307.016663 
	C432.119049,298.470276 427.413849,289.722382 421.665894,281.157379 
	C420.987946,290.270935 420.309998,299.384491 419.617493,308.693848 
	C417.616882,308.533386 416.011658,308.404633 413.703094,308.219482 
	C414.532867,295.839905 415.348633,283.669556 416.172943,271.371307 
	C420.909851,270.063141 423.916870,271.101166 426.191162,275.761566 
	C430.168335,283.911346 434.834686,291.724762 440.220795,299.555939 
	C440.859100,290.750854 441.497437,281.945740 442.156189,272.858887 
	C443.966461,272.858887 445.712708,272.858887 448.058350,272.858887 
	C447.698761,278.795380 447.369781,284.519226 447.000427,290.240509 
	C446.636383,295.879883 446.383942,301.534729 445.717255,307.139343 
	C445.582062,308.275635 443.815338,309.217834 442.411194,310.226379 
z"/>
<path fill="#2E2E2E" opacity="1.000000" stroke="none" 
	d="
M333.434998,293.604065 
	C329.763397,287.821747 326.307739,282.332184 322.092346,275.635681 
	C322.092346,286.123932 322.092346,295.418823 322.092346,304.823059 
	C319.639923,304.823059 317.907745,304.823059 316.195221,304.823059 
	C316.195221,292.273621 316.195221,280.019318 316.195221,267.732391 
	C320.870880,266.319702 323.829620,267.232147 326.268005,271.546631 
	C330.893219,279.730499 336.142883,287.561401 342.043121,295.358063 
	C342.043121,286.332428 342.043121,277.306763 342.043121,268.044678 
	C344.243439,267.933990 345.863342,267.852509 347.843689,267.752869 
	C347.843689,280.188416 347.843689,292.436188 347.843689,304.814423 
	C343.397736,306.421173 340.162354,305.712738 338.080139,301.124054 
	C336.921539,298.570801 335.147614,296.296692 333.434998,293.604065 
z"/>
<path fill="#303030" opacity="1.000000" stroke="none" 
	d="
M164.239746,281.607483 
	C169.296844,271.520142 179.585495,267.478424 188.923294,271.602081 
	C197.684097,275.470947 201.895370,287.338745 198.200272,297.745544 
	C194.966476,306.853149 185.363464,311.498291 175.482086,308.734680 
	C166.860809,306.323517 161.529282,296.432526 163.181305,285.846771 
	C163.385132,284.540680 163.782776,283.264832 164.239746,281.607483 
M192.464569,294.640411 
	C192.517609,292.156921 192.900696,289.627563 192.563049,287.198364 
	C191.459961,279.262146 187.011673,275.347839 180.085739,275.860291 
	C173.954010,276.313934 169.675858,281.537018 169.476852,288.812408 
	C169.268082,296.443848 173.391525,302.691986 179.329498,303.741791 
	C185.280060,304.793884 189.713715,301.925293 192.464569,294.640411 
z"/>
<path fill="#2F2F2F" opacity="1.000000" stroke="none" 
	d="
M61.031441,301.115234 
	C60.159809,295.632324 59.326645,290.583069 58.362114,284.737671 
	C64.408333,283.988800 70.093704,282.777435 75.795418,282.694885 
	C84.825661,282.564087 90.140892,287.068939 92.282684,295.573242 
	C94.620323,304.855194 91.932938,313.350739 84.201447,317.002686 
	C78.340660,319.771027 71.719910,320.930420 64.784767,323.000580 
	C63.422424,315.133667 62.246162,308.341248 61.031441,301.115234 
M81.797630,312.443268 
	C87.252411,307.005157 88.176186,299.284668 84.129944,292.951111 
	C80.731430,287.631439 74.413696,286.514893 65.505112,289.800079 
	C66.977264,298.491699 68.457184,307.229218 70.037209,316.557709 
	C74.300163,315.147339 77.739609,314.009430 81.797630,312.443268 
z"/>
<path fill="#303030" opacity="1.000000" stroke="none" 
	d="
M379.938660,306.983582 
	C366.797241,308.087891 359.142944,304.067322 356.687805,294.410370 
	C354.579620,286.118134 356.040253,278.431030 362.984772,272.720245 
	C369.683167,267.211884 377.426025,267.212860 385.108582,270.004700 
	C386.496460,270.509033 386.893585,273.739685 388.248749,276.867035 
	C378.930634,273.352264 371.173462,271.422546 365.106567,279.411102 
	C361.354462,284.351654 361.617889,292.970856 365.319672,297.684662 
	C368.710663,302.002716 374.119507,303.053894 380.974060,300.573944 
	C381.101532,297.933350 381.234467,295.179443 381.382355,292.115479 
	C378.767120,291.780762 376.356201,291.472198 373.605865,291.120178 
	C373.677063,289.551941 373.741669,288.128387 373.812469,286.569397 
	C378.511993,286.569397 382.890350,286.569397 387.933929,286.569397 
	C387.675598,292.392151 387.954376,297.893585 386.892883,303.122955 
	C386.558105,304.772217 382.633423,305.692780 379.938660,306.983582 
z"/>
<path fill="#303030" opacity="1.000000" stroke="none" 
	d="
M537.358887,301.403931 
	C535.549011,302.255524 534.028992,302.886322 532.788269,303.401184 
	C535.549683,309.362762 538.379944,315.472870 541.312988,321.805023 
	C536.524963,322.570770 533.519775,321.524567 532.313171,316.810364 
	C531.579407,313.943329 530.592529,310.942505 528.913208,308.573242 
	C527.317017,306.321320 524.672180,304.812714 521.614746,302.242950 
	C520.449158,308.780823 519.611023,313.482147 518.708862,318.542450 
	C516.821777,318.327454 515.072998,318.128204 512.625244,317.849335 
	C514.639160,305.500885 516.628052,293.305573 518.735168,280.385284 
	C524.201721,281.421570 529.511658,281.901886 534.469116,283.485535 
	C542.873474,286.170288 544.169434,294.332642 537.358887,301.403931 
M534.912292,294.193573 
	C534.406494,288.308685 531.678406,286.570648 523.943054,287.342255 
	C523.370239,290.992462 522.790222,294.688538 522.185669,298.540955 
	C527.282715,299.408417 532.227905,301.407684 534.912292,294.193573 
z"/>
<path fill="#303030" opacity="1.000000" stroke="none" 
	d="
M220.575348,269.530579 
	C228.983582,270.680481 232.777481,274.350189 232.835373,280.992828 
	C232.903107,288.763611 228.775925,291.826996 214.672852,294.415527 
	C214.672852,298.500244 214.672852,302.604279 214.672852,307.325195 
	C212.970184,307.503082 211.111847,307.697235 208.694229,307.949829 
	C208.148056,295.166992 207.621033,282.832428 207.052399,269.523834 
	C211.648315,269.523834 215.903427,269.523834 220.575348,269.530579 
M225.850983,283.869049 
	C226.477600,275.762451 223.446762,273.614319 214.151199,275.358337 
	C214.151199,279.789246 214.151199,284.166107 214.151199,288.671051 
	C218.722855,288.542389 222.979691,288.948334 225.850983,283.869049 
z"/>
<path fill="#2D2D2D" opacity="1.000000" stroke="none" 
	d="
M286.548767,288.576355 
	C286.538116,281.654449 286.538116,275.200836 286.538116,268.422668 
	C293.496490,268.422668 300.045288,268.422668 306.800720,268.422668 
	C306.800720,269.940674 306.800720,271.509674 306.800720,273.486023 
	C302.176117,273.486023 297.751007,273.486023 293.089355,273.486023 
	C293.089355,277.139954 293.089355,280.385986 293.089355,284.089539 
	C297.390900,284.089539 301.464111,284.089539 305.762665,284.089539 
	C305.762665,285.972809 305.762665,287.401398 305.762665,289.257446 
	C301.695984,289.257446 297.619141,289.257446 293.275635,289.257446 
	C293.275635,293.244232 293.275635,296.806641 293.275635,300.667236 
	C298.090576,300.667236 302.696167,300.667236 307.779114,300.667236 
	C307.858215,302.471375 307.925385,304.003387 308.003357,305.781189 
	C300.921692,305.781189 294.178436,305.781189 286.559448,305.781189 
	C286.559448,300.184113 286.559448,294.614410 286.548767,288.576355 
z"/>
<path fill="#303030" opacity="1.000000" stroke="none" 
	d="
M131.742310,277.967468 
	C135.699341,287.127899 139.480301,295.930267 143.592667,305.504181 
	C146.228424,294.425049 148.664017,284.187195 151.098312,273.954865 
	C153.166611,273.721893 154.964020,273.519470 157.670029,273.214691 
	C154.304535,286.316528 151.037918,299.033417 147.729767,311.911957 
	C145.471298,312.205933 143.366226,312.479950 140.682434,312.829285 
	C135.165085,300.799866 129.612854,288.694427 124.060646,276.589020 
	C124.307152,276.211792 124.553665,275.834595 124.800179,275.457367 
	C127.055527,276.174713 129.310883,276.892059 131.742310,277.967468 
z"/>
<path fill="#303030" opacity="1.000000" stroke="none" 
	d="
M497.675385,294.346802 
	C500.243530,294.709259 502.372101,294.991882 504.811676,295.315765 
	C504.811676,296.913330 504.811676,298.444580 504.811676,300.497833 
	C500.441467,300.032166 496.396881,299.601227 491.923981,299.124634 
	C491.475342,302.692230 491.048859,306.083832 490.566650,309.918365 
	C495.340393,310.598328 499.896423,311.247284 504.753418,311.939117 
	C504.753418,313.483093 504.753418,315.010010 504.753418,317.130249 
	C497.753510,316.294250 491.087341,315.498108 483.664337,314.611603 
	C485.174957,302.162109 486.660706,289.917603 488.209106,277.156738 
	C494.893158,277.951660 501.241364,278.706665 508.089355,279.521088 
	C508.002136,281.280426 507.926117,282.814056 507.829285,284.767426 
	C503.192322,284.264465 498.955963,283.804993 493.968811,283.264069 
	C493.515808,286.595306 493.062103,289.931854 492.566040,293.579865 
	C494.347321,293.841949 495.791565,294.054443 497.675385,294.346802 
z"/>
<path fill="#2F2F2F" opacity="1.000000" stroke="none" 
	d="
M467.531372,274.609314 
	C471.606689,275.018188 475.229919,275.358978 479.050110,275.718262 
	C479.050110,277.473236 479.050110,278.910980 479.050110,280.922150 
	C474.414062,280.561401 469.905151,280.210541 465.107117,279.837158 
	C464.700897,283.475891 464.338959,286.717682 463.942322,290.270477 
	C468.356232,290.744934 472.430695,291.182922 476.933411,291.666962 
	C476.680054,293.510376 476.464661,295.077606 476.229492,296.788696 
	C471.919800,296.442566 467.980927,296.126190 463.479340,295.764648 
	C463.144043,299.484528 462.838928,302.869232 462.500824,306.620026 
	C467.378448,307.166138 471.951782,307.678223 476.783691,308.219208 
	C476.783691,309.764801 476.783691,311.307983 476.783691,313.380768 
	C469.732971,312.745056 463.026031,312.140350 455.679016,311.477936 
	C456.856720,298.914307 457.997131,286.748505 459.191437,274.007385 
	C461.927216,274.192535 464.503265,274.366882 467.531372,274.609314 
z"/>
<path fill="#2F2F2F" opacity="1.000000" stroke="none" 
	d="
M105.988113,291.844147 
	C107.317627,292.746185 108.629776,293.633331 109.920708,293.603455 
	C112.868156,293.535217 115.805214,293.018036 118.989906,292.655548 
	C119.194122,294.497009 119.353493,295.934082 119.546539,297.674805 
	C115.294113,298.287628 111.252525,298.870056 106.890251,299.498718 
	C107.329590,303.018585 107.737083,306.283295 108.229042,310.224762 
	C112.978676,309.751129 117.664696,309.283844 122.747902,308.776947 
	C123.026260,310.445953 123.278564,311.958710 123.596214,313.863251 
	C116.519402,314.721069 109.822304,315.532867 102.644226,316.402985 
	C101.102104,303.845947 99.612846,291.719330 98.055573,279.038849 
	C104.765633,278.205444 111.266991,277.397949 118.020081,276.559174 
	C118.358353,278.401398 118.617996,279.815460 118.965561,281.708313 
	C114.302185,282.320648 109.921227,282.895905 105.026489,283.538605 
	C105.352364,286.284088 105.656738,288.848480 105.988113,291.844147 
z"/>
<path fill="#303030" opacity="1.000000" stroke="none" 
	d="
M257.747803,274.066193 
	C254.421295,273.992584 251.400177,273.628265 248.574493,274.211273 
	C247.174927,274.500061 245.240097,276.479065 245.161957,277.789612 
	C245.066940,279.383209 246.265732,281.670441 247.627487,282.608002 
	C250.607056,284.659424 254.144394,285.878784 257.266937,287.750000 
	C261.267395,290.147308 263.630920,293.656616 262.772736,298.555084 
	C261.860992,303.759216 258.030029,306.059662 253.329987,306.802643 
	C250.253265,307.288971 247.037186,307.045685 243.892548,306.913971 
	C239.404480,306.725952 237.698029,304.449585 239.075439,300.432465 
	C243.020889,300.940125 246.901642,301.907410 250.728668,301.728058 
	C252.554077,301.642548 255.554596,299.526398 255.724792,298.062775 
	C255.939362,296.217438 254.252289,293.519196 252.581787,292.232788 
	C250.003006,290.247040 246.632660,289.329437 243.797745,287.626343 
	C240.000168,285.344971 237.521088,282.062225 238.268829,277.329987 
	C239.007187,272.657104 242.265549,270.102844 246.549927,269.029846 
	C249.243561,268.355225 252.115189,268.333099 254.915680,268.156097 
	C259.629517,267.858246 261.717224,269.894348 260.444672,274.931915 
	C259.639191,274.665039 258.886475,274.415619 257.747803,274.066193 
z"/>
<path fill="#2E2E2E" opacity="1.000000" stroke="none" 
	d="
M403.825775,296.838928 
	C403.542053,300.788696 403.266815,304.262360 402.937714,308.415619 
	C401.035309,308.323029 399.158905,308.231720 396.701294,308.112122 
	C397.302399,295.627899 397.890503,283.413452 398.494049,270.878815 
	C400.749176,270.878815 402.645172,270.878815 403.834259,270.878815 
	C403.834259,279.539307 403.834259,287.951080 403.825775,296.838928 
z"/>
<path fill="#F7FAFD" opacity="1.000000" stroke="none" 
	d="
M320.440063,535.458862 
	C321.467712,538.652283 322.337769,541.481812 323.666046,545.801453 
	C317.930756,541.668396 313.334106,538.365784 308.747864,535.048767 
	C300.984558,529.433899 300.990448,529.434326 293.055817,535.178955 
	C288.743347,538.301086 284.422058,541.410950 280.088409,544.503479 
	C279.864532,544.663208 279.486420,544.606812 278.646912,544.728027 
	C280.909973,537.583740 282.773773,530.534973 285.421997,523.794373 
	C286.912933,519.999329 285.891418,518.200256 282.844788,516.139771 
	C276.855957,512.089233 271.113434,507.674500 265.575073,502.425598 
	C272.995880,502.425598 280.425323,502.214172 287.833649,502.518250 
	C291.335052,502.662018 292.868622,501.428101 293.809753,498.195404 
	C295.842163,491.214325 298.201294,484.328339 301.441254,477.240295 
	C303.623749,483.878418 306.075043,490.444214 307.888428,497.181671 
	C308.983795,501.251526 310.802185,502.770660 315.110687,502.531860 
	C322.184296,502.139801 329.295502,502.425690 336.734497,503.412292 
	C331.038208,507.565704 325.461487,511.898590 319.599518,515.803284 
	C316.237549,518.042725 314.851044,520.165039 316.743622,524.210693 
	C318.347931,527.640076 319.134216,531.452209 320.440063,535.458862 
z"/>
<path fill="#F6FAFC" opacity="1.000000" stroke="none" 
	d="
M244.338150,504.634460 
	C245.709045,508.887543 246.935287,512.771240 248.544540,517.867981 
	C240.996948,512.422180 234.554443,507.773773 227.862671,502.945465 
	C221.385361,507.624359 214.958511,512.266785 207.229309,517.849915 
	C210.030731,508.989197 212.389114,501.529785 214.910187,493.555786 
	C208.539078,488.892822 202.040283,484.136353 194.232224,478.421692 
	C202.467133,478.421692 209.184204,478.284332 215.891190,478.484497 
	C218.869415,478.573425 220.307983,477.693878 221.161591,474.693298 
	C223.004501,468.214966 225.310883,461.868439 227.871994,454.124420 
	C230.252197,461.426361 232.474655,467.433594 234.123581,473.594330 
	C235.183533,477.554535 237.165283,478.760406 241.167206,478.518494 
	C247.266098,478.149841 253.403717,478.421906 260.045349,479.452423 
	C253.656921,484.141663 247.268478,488.830872 240.816284,493.566895 
	C242.000290,497.317505 243.096909,500.791260 244.338150,504.634460 
z"/>
<path fill="#FAFCFE" opacity="1.000000" stroke="none" 
	d="
M373.034058,455.450989 
	C373.466858,454.584686 373.816406,454.066650 374.417389,453.175964 
	C377.089661,461.297638 379.615845,468.975311 382.186401,476.787964 
	C390.208252,476.787964 398.016174,476.787964 407.405365,476.787964 
	C399.893005,482.304871 393.495911,487.002716 387.058838,491.729950 
	C389.526123,499.485443 391.919464,507.008484 394.766418,515.957336 
	C387.129395,510.469757 380.722260,505.865906 374.137695,501.134613 
	C367.549042,505.869476 361.099884,510.504120 353.471710,515.986084 
	C356.300354,507.094177 358.722198,499.481079 361.193695,491.711884 
	C354.743744,486.998199 348.473236,482.415649 342.202698,477.833069 
	C342.247742,477.497498 342.292755,477.161896 342.337799,476.826324 
	C348.855957,476.826324 355.380249,476.659332 361.889709,476.897552 
	C365.089355,477.014648 366.609680,476.047913 367.470215,472.852661 
	C369.021210,467.093903 371.095245,461.476013 373.034058,455.450989 
z"/>
<path fill="#F5F9FC" opacity="1.000000" stroke="none" 
	d="
M350.851685,418.396698 
	C349.354828,420.540131 347.943573,422.293213 346.391022,424.221863 
	C348.548676,427.701965 350.949554,431.574341 353.630188,435.897949 
	C349.416687,436.873505 346.366791,436.894989 344.308441,432.725647 
	C342.976532,430.027802 340.900970,427.697144 339.158630,425.201935 
	C338.595764,425.485840 338.032867,425.769745 337.470001,426.053650 
	C337.276886,429.233032 337.083801,432.412415 336.878662,435.789612 
	C334.863739,435.789612 333.121826,435.789612 331.173096,435.789612 
	C331.173096,426.799835 331.173096,417.936584 331.173096,408.303131 
	C336.290649,408.623352 341.093597,408.494324 345.719788,409.336334 
	C350.186920,410.149414 351.773956,413.558014 350.851685,418.396698 
M342.650513,414.049927 
	C337.080963,412.858124 336.577789,413.549927 337.956055,420.504272 
	C343.705383,420.954712 344.871368,419.645081 342.650513,414.049927 
z"/>
<path fill="#F2F7FB" opacity="1.000000" stroke="none" 
	d="
M248.695557,417.479980 
	C246.926086,414.683319 245.357819,412.209564 243.760818,409.690460 
	C252.507660,405.957855 253.253448,413.715973 256.344666,417.861847 
	C259.488739,413.833466 259.253479,406.019043 268.201385,409.004883 
	C266.158997,412.552307 263.906769,415.942352 262.248627,419.601624 
	C261.588104,421.059357 261.670258,423.407227 262.408295,424.836639 
	C264.285522,428.472534 266.723572,431.818848 269.014465,435.402008 
	C262.425415,436.535156 262.425415,436.535156 256.325745,427.099182 
	C253.018494,430.947296 253.049576,439.069946 244.022339,436.012756 
	C245.693604,433.116302 247.073853,429.986176 249.114136,427.370941 
	C251.803421,423.923828 251.783585,420.930145 248.695557,417.479980 
z"/>
<path fill="#E2EEF7" opacity="1.000000" stroke="none" 
	d="
M318.636047,408.088928 
	C323.440338,408.065674 321.450562,410.907806 321.375122,413.473938 
	C318.396667,413.473938 315.500610,413.473938 312.393768,413.473938 
	C312.172241,415.426361 312.009125,416.863770 311.778229,418.898956 
	C314.777802,418.898956 317.496826,418.898956 320.558289,418.898956 
	C320.558289,421.008026 320.558289,422.551270 320.558289,424.450562 
	C317.841980,424.573883 315.225861,424.692657 312.157104,424.832001 
	C312.078186,426.456085 312.001862,428.026733 311.898163,430.160950 
	C315.263336,430.160950 318.330139,430.160950 321.774750,430.160950 
	C321.881683,432.240143 321.961700,433.796021 322.056641,435.641602 
	C316.438599,435.641602 311.180725,435.641602 305.512177,435.641602 
	C305.512177,426.649719 305.512177,417.650757 305.512177,408.087769 
	C309.977386,408.087769 314.079193,408.087769 318.636047,408.088928 
z"/>
<path fill="#F4F9FC" opacity="1.000000" stroke="none" 
	d="
M276.897797,408.753235 
	C281.139771,408.367157 285.150391,407.986725 289.080231,408.391174 
	C294.370422,408.935760 296.999237,412.076355 297.007660,416.896027 
	C297.015930,421.599640 293.748016,425.299042 288.811096,426.026550 
	C287.179749,426.266968 285.508057,426.233337 283.389618,426.350830 
	C283.389618,429.303192 283.389618,432.221375 283.389618,435.628479 
	C281.195953,435.729309 279.444824,435.809814 276.630463,435.939209 
	C276.630463,426.856720 276.630463,417.982635 276.897797,408.753235 
M289.930054,415.842072 
	C287.917786,414.736633 285.905518,413.631165 283.352966,412.228882 
	C283.352966,416.306488 283.352966,418.842224 283.352966,421.637604 
	C286.904144,421.237183 290.308319,421.394928 289.930054,415.842072 
z"/>
<path fill="#F0F6FB" opacity="1.000000" stroke="none" 
	d="
M219.401047,413.920471 
	C220.049652,412.310089 220.633713,410.191071 221.363815,410.139465 
	C225.802856,409.825867 230.275146,409.983032 235.256744,409.983032 
	C235.442368,411.162170 235.684998,412.703491 235.981171,414.584869 
	C232.441422,414.820557 229.352036,415.026276 226.030884,415.247406 
	C226.181213,417.115356 226.309631,418.711334 226.456726,420.539093 
	C229.296356,420.539093 231.880737,420.539093 234.841049,420.539093 
	C235.082397,422.170197 235.310410,423.711243 235.582870,425.552612 
	C232.462021,425.818481 229.713593,426.052643 226.736557,426.306244 
	C226.824905,428.144379 226.902191,429.752472 226.992920,431.640076 
	C230.212296,431.640076 233.293823,431.640076 236.773224,431.640076 
	C236.875626,433.297699 236.972534,434.866516 237.102982,436.978394 
	C231.498993,436.978394 226.260712,436.978394 220.571213,436.978394 
	C220.187042,429.536102 219.795517,421.951691 219.401047,413.920471 
z"/>
<path fill="#EEF5FA" opacity="1.000000" stroke="none" 
	d="
M378.619934,415.175598 
	C376.539886,415.197845 374.891937,415.197845 372.574341,415.197845 
	C372.246796,422.312225 371.922241,429.361694 371.583984,436.708649 
	C369.405670,436.708649 367.525085,436.708649 365.527649,436.708649 
	C365.527649,429.560242 365.527649,422.495605 365.527649,415.075989 
	C363.403992,414.840210 361.149933,414.589935 358.409119,414.285614 
	C358.322327,412.766022 358.234894,411.235565 358.110596,409.059509 
	C365.657410,409.404785 372.736938,409.728668 381.024628,410.107849 
	C380.261108,412.060791 379.656586,413.607086 378.619934,415.175598 
z"/>
<path fill="#FAFAFA" opacity="1.000000" stroke="none" 
	d="
M192.336365,295.024902 
	C189.713715,301.925293 185.280060,304.793884 179.329498,303.741791 
	C173.391525,302.691986 169.268082,296.443848 169.476852,288.812408 
	C169.675858,281.537018 173.954010,276.313934 180.085739,275.860291 
	C187.011673,275.347839 191.459961,279.262146 192.563049,287.198364 
	C192.900696,289.627563 192.517609,292.156921 192.336365,295.024902 
z"/>
<path fill="#F9F9F9" opacity="1.000000" stroke="none" 
	d="
M81.488342,312.657410 
	C77.739609,314.009430 74.300163,315.147339 70.037209,316.557709 
	C68.457184,307.229218 66.977264,298.491699 65.505112,289.800079 
	C74.413696,286.514893 80.731430,287.631439 84.129944,292.951111 
	C88.176186,299.284668 87.252411,307.005157 81.488342,312.657410 
z"/>
<path fill="#F5F5F5" opacity="1.000000" stroke="none" 
	d="
M534.827759,294.576904 
	C532.227905,301.407684 527.282715,299.408417 522.185669,298.540955 
	C522.790222,294.688538 523.370239,290.992462 523.943054,287.342255 
	C531.678406,286.570648 534.406494,288.308685 534.827759,294.576904 
z"/>
<path fill="#F8F8F8" opacity="1.000000" stroke="none" 
	d="
M225.692352,284.239136 
	C222.979691,288.948334 218.722855,288.542389 214.151199,288.671051 
	C214.151199,284.166107 214.151199,279.789246 214.151199,275.358337 
	C223.446762,273.614319 226.477600,275.762451 225.692352,284.239136 
z"/>
<path fill="#1F77BE" opacity="1.000000" stroke="none" 
	d="
M342.977356,414.273590 
	C344.871368,419.645081 343.705383,420.954712 337.956055,420.504272 
	C336.577789,413.549927 337.080963,412.858124 342.977356,414.273590 
z"/>
<path fill="#116EBA" opacity="1.000000" stroke="none" 
	d="
M289.985718,416.242188 
	C290.308319,421.394928 286.904144,421.237183 283.352966,421.637604 
	C283.352966,418.842224 283.352966,416.306488 283.352966,412.228882 
	C285.905518,413.631165 287.917786,414.736633 289.985718,416.242188 
z"/>
</svg>